%TF.GenerationSoftware,KiCad,Pcbnew,8.0.6*%
%TF.CreationDate,2024-10-31T15:28:50+01:00*%
%TF.ProjectId,PCB_FINAL2.1,5043425f-4649-44e4-914c-322e312e6b69,rev?*%
%TF.SameCoordinates,Original*%
%TF.FileFunction,Copper,L1,Top*%
%TF.FilePolarity,Positive*%
%FSLAX46Y46*%
G04 Gerber Fmt 4.6, Leading zero omitted, Abs format (unit mm)*
G04 Created by KiCad (PCBNEW 8.0.6) date 2024-10-31 15:28:50*
%MOMM*%
%LPD*%
G01*
G04 APERTURE LIST*
G04 Aperture macros list*
%AMRoundRect*
0 Rectangle with rounded corners*
0 $1 Rounding radius*
0 $2 $3 $4 $5 $6 $7 $8 $9 X,Y pos of 4 corners*
0 Add a 4 corners polygon primitive as box body*
4,1,4,$2,$3,$4,$5,$6,$7,$8,$9,$2,$3,0*
0 Add four circle primitives for the rounded corners*
1,1,$1+$1,$2,$3*
1,1,$1+$1,$4,$5*
1,1,$1+$1,$6,$7*
1,1,$1+$1,$8,$9*
0 Add four rect primitives between the rounded corners*
20,1,$1+$1,$2,$3,$4,$5,0*
20,1,$1+$1,$4,$5,$6,$7,0*
20,1,$1+$1,$6,$7,$8,$9,0*
20,1,$1+$1,$8,$9,$2,$3,0*%
G04 Aperture macros list end*
%TA.AperFunction,SMDPad,CuDef*%
%ADD10R,3.600000X1.500000*%
%TD*%
%TA.AperFunction,SMDPad,CuDef*%
%ADD11R,0.558000X0.972299*%
%TD*%
%TA.AperFunction,SMDPad,CuDef*%
%ADD12RoundRect,0.237500X0.250000X0.237500X-0.250000X0.237500X-0.250000X-0.237500X0.250000X-0.237500X0*%
%TD*%
%TA.AperFunction,SMDPad,CuDef*%
%ADD13RoundRect,0.250000X0.337500X0.475000X-0.337500X0.475000X-0.337500X-0.475000X0.337500X-0.475000X0*%
%TD*%
%TA.AperFunction,ComponentPad*%
%ADD14R,1.700000X1.700000*%
%TD*%
%TA.AperFunction,ComponentPad*%
%ADD15O,1.700000X1.700000*%
%TD*%
%TA.AperFunction,SMDPad,CuDef*%
%ADD16RoundRect,0.237500X0.300000X0.237500X-0.300000X0.237500X-0.300000X-0.237500X0.300000X-0.237500X0*%
%TD*%
%TA.AperFunction,SMDPad,CuDef*%
%ADD17RoundRect,0.237500X0.237500X-0.250000X0.237500X0.250000X-0.237500X0.250000X-0.237500X-0.250000X0*%
%TD*%
%TA.AperFunction,SMDPad,CuDef*%
%ADD18RoundRect,0.237500X0.237500X-0.300000X0.237500X0.300000X-0.237500X0.300000X-0.237500X-0.300000X0*%
%TD*%
%TA.AperFunction,ComponentPad*%
%ADD19R,2.000000X2.000000*%
%TD*%
%TA.AperFunction,ComponentPad*%
%ADD20O,2.000000X1.600000*%
%TD*%
%TA.AperFunction,ViaPad*%
%ADD21C,0.500000*%
%TD*%
%TA.AperFunction,Conductor*%
%ADD22C,0.400000*%
%TD*%
G04 APERTURE END LIST*
D10*
%TO.P,L1,1,1*%
%TO.N,+5V*%
X74649999Y-98675000D03*
%TO.P,L1,2,2*%
%TO.N,/BUCK_SW*%
X74649999Y-95625000D03*
%TD*%
D11*
%TO.P,U1,1,CB*%
%TO.N,/BUCK_CB*%
X79449998Y-98562452D03*
%TO.P,U1,2,GND*%
%TO.N,PdiodeC-*%
X80399999Y-98562452D03*
%TO.P,U1,3,FB*%
%TO.N,/BUCK_FB*%
X81350000Y-98562452D03*
%TO.P,U1,4,EN*%
%TO.N,9V1*%
X81350000Y-95837550D03*
%TO.P,U1,5,VIN*%
X80399999Y-95837550D03*
%TO.P,U1,6,SW*%
%TO.N,/BUCK_SW*%
X79449998Y-95837550D03*
%TD*%
D12*
%TO.P,R2,1*%
%TO.N,/BUCK_FB*%
X81812499Y-100562452D03*
%TO.P,R2,2*%
%TO.N,PdiodeC-*%
X79987499Y-100562452D03*
%TD*%
D13*
%TO.P,C1,1*%
%TO.N,PdiodeC-*%
X78187499Y-100700001D03*
%TO.P,C1,2*%
%TO.N,+5V*%
X76112499Y-100700001D03*
%TD*%
D14*
%TO.P,J1,1,Pin_1*%
%TO.N,3v3*%
X91999999Y-86000000D03*
D15*
%TO.P,J1,2,Pin_2*%
X89459999Y-86000000D03*
%TO.P,J1,3,Pin_3*%
%TO.N,CS{slash}D8*%
X86919999Y-86000000D03*
%TO.P,J1,4,Pin_4*%
%TO.N,MISO{slash}D6*%
X84379999Y-86000000D03*
%TO.P,J1,5,Pin_5*%
%TO.N,D0*%
X81839999Y-86000000D03*
%TO.P,J1,6,Pin_6*%
%TO.N,RX1*%
X79299999Y-86000000D03*
%TO.P,J1,7,Pin_7*%
%TO.N,+5V*%
X76759999Y-86000000D03*
%TO.P,J1,8,Pin_8*%
X74219999Y-86000000D03*
%TO.P,J1,9,Pin_9*%
%TO.N,D3*%
X71679999Y-86000000D03*
%TO.P,J1,10,Pin_10*%
%TO.N,D4*%
X69139999Y-86000000D03*
%TD*%
D16*
%TO.P,C3,1*%
%TO.N,PdiodeC-*%
X82762499Y-94200001D03*
%TO.P,C3,2*%
%TO.N,9V1*%
X81037499Y-94200001D03*
%TD*%
D17*
%TO.P,R1,1*%
%TO.N,+5V*%
X83350000Y-102612500D03*
%TO.P,R1,2*%
%TO.N,/BUCK_FB*%
X83350000Y-100787500D03*
%TD*%
D18*
%TO.P,C2,1*%
%TO.N,/BUCK_CB*%
X77649999Y-98062501D03*
%TO.P,C2,2*%
%TO.N,/BUCK_SW*%
X77649999Y-96337501D03*
%TD*%
D19*
%TO.P,U2,1,~{RST}*%
%TO.N,RST1*%
X91999999Y-124000000D03*
D20*
%TO.P,U2,2,A0*%
%TO.N,A0*%
X91999999Y-121460000D03*
%TO.P,U2,3,D0*%
%TO.N,D0*%
X91999999Y-118920000D03*
%TO.P,U2,4,SCK/D5*%
%TO.N,SCK{slash}D5*%
X91999999Y-116380000D03*
%TO.P,U2,5,MISO/D6*%
%TO.N,MISO{slash}D6*%
X91999999Y-113840000D03*
%TO.P,U2,6,MOSI/D7*%
%TO.N,MOSI{slash}D7*%
X91999999Y-111300000D03*
%TO.P,U2,7,CS/D8*%
%TO.N,CS{slash}D8*%
X91999999Y-108760000D03*
%TO.P,U2,8,3V3*%
%TO.N,3v3*%
X91999999Y-106220000D03*
%TO.P,U2,9,5V*%
%TO.N,+5V*%
X69139999Y-106220000D03*
%TO.P,U2,10,GND*%
%TO.N,PdiodeC-*%
X69139999Y-108760000D03*
%TO.P,U2,11,D4*%
%TO.N,D4*%
X69139999Y-111300000D03*
%TO.P,U2,12,D3*%
%TO.N,D3*%
X69139999Y-113840000D03*
%TO.P,U2,13,SDA/D2*%
%TO.N,SDA{slash}D2*%
X69139999Y-116380000D03*
%TO.P,U2,14,SCL/D1*%
%TO.N,SCL{slash}D1*%
X69139999Y-118920000D03*
%TO.P,U2,15,RX*%
%TO.N,RX1*%
X69139999Y-121460000D03*
%TO.P,U2,16,TX*%
%TO.N,TX1*%
X69139999Y-124000000D03*
%TD*%
D14*
%TO.P,J2,1,Pin_1*%
%TO.N,PdiodeC-*%
X91999999Y-90000000D03*
D15*
%TO.P,J2,2,Pin_2*%
%TO.N,PdiodeA+*%
X89459999Y-90000000D03*
%TO.P,J2,3,Pin_3*%
%TO.N,MOSI{slash}D7*%
X86919999Y-90000000D03*
%TO.P,J2,4,Pin_4*%
%TO.N,SCK{slash}D5*%
X84379999Y-90000000D03*
%TO.P,J2,5,Pin_5*%
%TO.N,RST1*%
X81839999Y-90000000D03*
%TO.P,J2,6,Pin_6*%
%TO.N,TX1*%
X79299999Y-90000000D03*
%TO.P,J2,7,Pin_7*%
%TO.N,SCL{slash}D1*%
X76759999Y-90000000D03*
%TO.P,J2,8,Pin_8*%
%TO.N,SDA{slash}D2*%
X74219999Y-90000000D03*
%TO.P,J2,9,Pin_9*%
%TO.N,9V1*%
X71679999Y-90000000D03*
%TO.P,J2,10,Pin_10*%
%TO.N,+5V*%
X69139999Y-90000000D03*
%TD*%
D21*
%TO.N,+5V*%
X85999999Y-102000000D03*
%TO.N,PdiodeC-*%
X80399999Y-99600000D03*
X79499999Y-97200000D03*
X82399999Y-95900000D03*
X82399999Y-98400000D03*
X81299999Y-97200000D03*
%TD*%
D22*
%TO.N,+5V*%
X76759999Y-86000000D02*
X74219999Y-86000000D01*
X73912232Y-86000000D02*
X69912232Y-90000000D01*
X74219999Y-86000000D02*
X73912232Y-86000000D01*
X83962500Y-102000000D02*
X83350000Y-102612500D01*
X69139999Y-90000000D02*
X69139999Y-94215000D01*
X69139999Y-94215000D02*
X73599999Y-98675000D01*
X69139999Y-106220000D02*
X69139999Y-94215000D01*
X69912232Y-90000000D02*
X69139999Y-90000000D01*
X73599999Y-98675000D02*
X74649999Y-98675000D01*
X85999999Y-102000000D02*
X83962500Y-102000000D01*
%TO.N,9V1*%
X71679999Y-90000000D02*
X75880000Y-94200001D01*
X75880000Y-94200001D02*
X81037499Y-94200001D01*
%TO.N,MOSI{slash}D7*%
X86919999Y-90000000D02*
X86999999Y-90000000D01*
%TO.N,3v3*%
X89459999Y-86000000D02*
X91999999Y-86000000D01*
X93249999Y-104970000D02*
X91999999Y-106220000D01*
X93249999Y-87250000D02*
X93249999Y-104970000D01*
X91999999Y-86000000D02*
X93249999Y-87250000D01*
%TO.N,PdiodeC-*%
X82932498Y-94370000D02*
X82762499Y-94200001D01*
%TD*%
%TA.AperFunction,Conductor*%
%TO.N,/BUCK_CB*%
G36*
X78343038Y-97325185D02*
G01*
X78388793Y-97377989D01*
X78399999Y-97429500D01*
X78399999Y-98000000D01*
X79675999Y-98000000D01*
X79743038Y-98019685D01*
X79788793Y-98072489D01*
X79799999Y-98124000D01*
X79799999Y-99176000D01*
X79780314Y-99243039D01*
X79727510Y-99288794D01*
X79675999Y-99300000D01*
X79023999Y-99300000D01*
X78956960Y-99280315D01*
X78911205Y-99227511D01*
X78899999Y-99176000D01*
X78899999Y-98800000D01*
X77329499Y-98800000D01*
X77262460Y-98780315D01*
X77216705Y-98727511D01*
X77205499Y-98676000D01*
X77205499Y-98578545D01*
X77199044Y-98498041D01*
X77199043Y-98498025D01*
X77192749Y-98459021D01*
X77185718Y-98430290D01*
X77182807Y-98413415D01*
X77180641Y-98392204D01*
X77179999Y-98379607D01*
X77179999Y-97874010D01*
X77179999Y-97874000D01*
X77168446Y-97766544D01*
X77157240Y-97715033D01*
X77157136Y-97714722D01*
X77123115Y-97612502D01*
X77123112Y-97612496D01*
X77048591Y-97496540D01*
X77028906Y-97429500D01*
X77048590Y-97362461D01*
X77101394Y-97316706D01*
X77152906Y-97305500D01*
X78275999Y-97305500D01*
X78343038Y-97325185D01*
G37*
%TD.AperFunction*%
%TD*%
%TA.AperFunction,Conductor*%
%TO.N,PdiodeC-*%
G36*
X83443038Y-93419685D02*
G01*
X83488793Y-93472489D01*
X83499999Y-93524000D01*
X83499999Y-99176000D01*
X83480314Y-99243039D01*
X83427510Y-99288794D01*
X83375999Y-99300000D01*
X82029499Y-99300000D01*
X81962460Y-99280315D01*
X81916705Y-99227511D01*
X81905499Y-99176000D01*
X81905499Y-98124008D01*
X81905499Y-98124000D01*
X81900802Y-98080316D01*
X81900709Y-98079450D01*
X81899999Y-98066196D01*
X81899999Y-97800000D01*
X81623121Y-97800000D01*
X81605474Y-97798738D01*
X81591357Y-97796708D01*
X81575999Y-97794500D01*
X81123999Y-97794500D01*
X81123991Y-97794500D01*
X81079459Y-97799289D01*
X81066203Y-97800000D01*
X80699999Y-97800000D01*
X80699999Y-101320500D01*
X80680314Y-101387539D01*
X80627510Y-101433294D01*
X80575999Y-101444500D01*
X77529499Y-101444500D01*
X77462460Y-101424815D01*
X77416705Y-101372011D01*
X77405499Y-101320500D01*
X77405499Y-99824000D01*
X77425184Y-99756961D01*
X77477988Y-99711206D01*
X77529499Y-99700000D01*
X79899999Y-99700000D01*
X79899999Y-99465038D01*
X79919684Y-99397999D01*
X79927785Y-99388050D01*
X79927455Y-99387798D01*
X79932837Y-99380758D01*
X79932842Y-99380754D01*
X79977489Y-99300937D01*
X79997174Y-99233898D01*
X80005499Y-99176000D01*
X80005499Y-98124000D01*
X80000802Y-98080316D01*
X79996896Y-98062364D01*
X79989601Y-98028825D01*
X79989347Y-98027789D01*
X79987109Y-98018627D01*
X79944099Y-97937915D01*
X79944098Y-97937913D01*
X79930284Y-97921970D01*
X79901261Y-97858413D01*
X79899999Y-97840770D01*
X79899999Y-97800000D01*
X79723121Y-97800000D01*
X79705474Y-97798738D01*
X79691357Y-97796708D01*
X79675999Y-97794500D01*
X79675998Y-97794500D01*
X78923999Y-97794500D01*
X78856960Y-97774815D01*
X78811205Y-97722011D01*
X78799999Y-97670500D01*
X78799999Y-96729500D01*
X78819684Y-96662461D01*
X78872488Y-96616706D01*
X78923999Y-96605500D01*
X79670490Y-96605500D01*
X79670499Y-96605500D01*
X79714183Y-96600803D01*
X79714182Y-96600803D01*
X79715039Y-96600711D01*
X79728295Y-96600000D01*
X80076877Y-96600000D01*
X80094524Y-96601262D01*
X80097964Y-96601756D01*
X80123999Y-96605500D01*
X80124000Y-96605500D01*
X81575990Y-96605500D01*
X81575999Y-96605500D01*
X81619683Y-96600803D01*
X81619682Y-96600803D01*
X81620539Y-96600711D01*
X81633795Y-96600000D01*
X81899999Y-96600000D01*
X81899999Y-96323121D01*
X81901261Y-96305473D01*
X81905499Y-96275998D01*
X81905499Y-93624008D01*
X81905499Y-93624000D01*
X81900802Y-93580316D01*
X81900709Y-93579450D01*
X81899999Y-93566196D01*
X81899999Y-93524000D01*
X81919684Y-93456961D01*
X81972488Y-93411206D01*
X82023999Y-93400000D01*
X83375999Y-93400000D01*
X83443038Y-93419685D01*
G37*
%TD.AperFunction*%
%TD*%
%TA.AperFunction,Conductor*%
%TO.N,/BUCK_FB*%
G36*
X81643038Y-98019685D02*
G01*
X81688793Y-98072489D01*
X81699999Y-98124000D01*
X81699999Y-99800000D01*
X83975999Y-99800000D01*
X84043038Y-99819685D01*
X84088793Y-99872489D01*
X84099999Y-99924000D01*
X84099999Y-101326413D01*
X84080314Y-101393452D01*
X84027510Y-101439207D01*
X83958355Y-101449151D01*
X83926005Y-101444500D01*
X83925999Y-101444500D01*
X81123999Y-101444500D01*
X81056960Y-101424815D01*
X81011205Y-101372011D01*
X80999999Y-101320500D01*
X80999999Y-98124000D01*
X81019684Y-98056961D01*
X81072488Y-98011206D01*
X81123999Y-98000000D01*
X81575999Y-98000000D01*
X81643038Y-98019685D01*
G37*
%TD.AperFunction*%
%TD*%
%TA.AperFunction,Conductor*%
%TO.N,/BUCK_SW*%
G36*
X76593038Y-94769685D02*
G01*
X76638793Y-94822489D01*
X76649999Y-94874000D01*
X76649999Y-95200000D01*
X78699999Y-95200000D01*
X79670499Y-95200000D01*
X79737538Y-95219685D01*
X79783293Y-95272489D01*
X79794499Y-95324000D01*
X79794499Y-96276000D01*
X79774814Y-96343039D01*
X79722010Y-96388794D01*
X79670499Y-96400000D01*
X78399999Y-96400000D01*
X78399999Y-96976000D01*
X78380314Y-97043039D01*
X78327510Y-97088794D01*
X78275999Y-97100000D01*
X77023999Y-97100000D01*
X76956960Y-97080315D01*
X76911205Y-97027511D01*
X76899999Y-96976000D01*
X76899999Y-96500000D01*
X72773999Y-96500000D01*
X72706960Y-96480315D01*
X72661205Y-96427511D01*
X72649999Y-96376000D01*
X72649999Y-94874000D01*
X72669684Y-94806961D01*
X72722488Y-94761206D01*
X72773999Y-94750000D01*
X76525999Y-94750000D01*
X76593038Y-94769685D01*
G37*
%TD.AperFunction*%
%TD*%
%TA.AperFunction,Conductor*%
%TO.N,+5V*%
G36*
X76617538Y-97769685D02*
G01*
X76663293Y-97822489D01*
X76674499Y-97874000D01*
X76674499Y-98411670D01*
X76674500Y-98411688D01*
X76684824Y-98512750D01*
X76684825Y-98512753D01*
X76693705Y-98539551D01*
X76699999Y-98578555D01*
X76699999Y-99450000D01*
X76775999Y-99450000D01*
X76843038Y-99469685D01*
X76888793Y-99522489D01*
X76899999Y-99574000D01*
X76899999Y-101950000D01*
X83925999Y-101950000D01*
X83993038Y-101969685D01*
X84038793Y-102022489D01*
X84049999Y-102074000D01*
X84049999Y-103176000D01*
X84030314Y-103243039D01*
X83977510Y-103288794D01*
X83925999Y-103300000D01*
X72773999Y-103300000D01*
X72706960Y-103280315D01*
X72661205Y-103227511D01*
X72649999Y-103176000D01*
X72649999Y-97874000D01*
X72669684Y-97806961D01*
X72722488Y-97761206D01*
X72773999Y-97750000D01*
X76550499Y-97750000D01*
X76617538Y-97769685D01*
G37*
%TD.AperFunction*%
%TD*%
%TA.AperFunction,Conductor*%
%TO.N,9V1*%
G36*
X81643038Y-93519685D02*
G01*
X81688793Y-93572489D01*
X81699999Y-93624000D01*
X81699999Y-96276000D01*
X81680314Y-96343039D01*
X81627510Y-96388794D01*
X81575999Y-96400000D01*
X80123999Y-96400000D01*
X80056960Y-96380315D01*
X80011205Y-96327511D01*
X79999999Y-96276000D01*
X79999999Y-93624000D01*
X80019684Y-93556961D01*
X80072488Y-93511206D01*
X80123999Y-93500000D01*
X81575999Y-93500000D01*
X81643038Y-93519685D01*
G37*
%TD.AperFunction*%
%TD*%
M02*
