%TF.GenerationSoftware,KiCad,Pcbnew,8.0.6*%
%TF.CreationDate,2024-10-31T15:28:50+01:00*%
%TF.ProjectId,PCB_FINAL2.1,5043425f-4649-44e4-914c-322e312e6b69,rev?*%
%TF.SameCoordinates,Original*%
%TF.FileFunction,Legend,Bot*%
%TF.FilePolarity,Positive*%
%FSLAX46Y46*%
G04 Gerber Fmt 4.6, Leading zero omitted, Abs format (unit mm)*
G04 Created by KiCad (PCBNEW 8.0.6) date 2024-10-31 15:28:50*
%MOMM*%
%LPD*%
G01*
G04 APERTURE LIST*
%ADD10C,0.100000*%
%ADD11C,0.150000*%
%ADD12C,0.120000*%
%ADD13C,0.127000*%
%ADD14C,0.200000*%
G04 APERTURE END LIST*
D10*
X77104890Y-84500955D02*
X77104890Y-84739050D01*
X77104890Y-84739050D02*
X76866795Y-84762859D01*
X76866795Y-84762859D02*
X76890604Y-84739050D01*
X76890604Y-84739050D02*
X76914414Y-84691431D01*
X76914414Y-84691431D02*
X76914414Y-84572383D01*
X76914414Y-84572383D02*
X76890604Y-84524764D01*
X76890604Y-84524764D02*
X76866795Y-84500955D01*
X76866795Y-84500955D02*
X76819176Y-84477145D01*
X76819176Y-84477145D02*
X76700128Y-84477145D01*
X76700128Y-84477145D02*
X76652509Y-84500955D01*
X76652509Y-84500955D02*
X76628700Y-84524764D01*
X76628700Y-84524764D02*
X76604890Y-84572383D01*
X76604890Y-84572383D02*
X76604890Y-84691431D01*
X76604890Y-84691431D02*
X76628700Y-84739050D01*
X76628700Y-84739050D02*
X76652509Y-84762859D01*
X77104890Y-84334288D02*
X76604890Y-84167622D01*
X76604890Y-84167622D02*
X77104890Y-84000955D01*
X76530979Y-88680970D02*
X77030979Y-88680970D01*
X77030979Y-88680970D02*
X77030979Y-88561922D01*
X77030979Y-88561922D02*
X77007169Y-88490494D01*
X77007169Y-88490494D02*
X76959550Y-88442875D01*
X76959550Y-88442875D02*
X76911931Y-88419065D01*
X76911931Y-88419065D02*
X76816693Y-88395256D01*
X76816693Y-88395256D02*
X76745265Y-88395256D01*
X76745265Y-88395256D02*
X76650027Y-88419065D01*
X76650027Y-88419065D02*
X76602408Y-88442875D01*
X76602408Y-88442875D02*
X76554789Y-88490494D01*
X76554789Y-88490494D02*
X76530979Y-88561922D01*
X76530979Y-88561922D02*
X76530979Y-88680970D01*
X76530979Y-87919065D02*
X76530979Y-88204779D01*
X76530979Y-88061922D02*
X77030979Y-88061922D01*
X77030979Y-88061922D02*
X76959550Y-88109541D01*
X76959550Y-88109541D02*
X76911931Y-88157160D01*
X76911931Y-88157160D02*
X76888122Y-88204779D01*
X79566389Y-88886591D02*
X79566389Y-88600877D01*
X79066389Y-88743734D02*
X79566389Y-88743734D01*
X79566389Y-88481830D02*
X79066389Y-88148497D01*
X79566389Y-88148497D02*
X79066389Y-88481830D01*
X79066389Y-87696116D02*
X79066389Y-87981830D01*
X79066389Y-87838973D02*
X79566389Y-87838973D01*
X79566389Y-87838973D02*
X79494960Y-87886592D01*
X79494960Y-87886592D02*
X79447341Y-87934211D01*
X79447341Y-87934211D02*
X79423532Y-87981830D01*
X69066389Y-84815163D02*
X69566389Y-84815163D01*
X69566389Y-84815163D02*
X69566389Y-84696115D01*
X69566389Y-84696115D02*
X69542579Y-84624687D01*
X69542579Y-84624687D02*
X69494960Y-84577068D01*
X69494960Y-84577068D02*
X69447341Y-84553258D01*
X69447341Y-84553258D02*
X69352103Y-84529449D01*
X69352103Y-84529449D02*
X69280675Y-84529449D01*
X69280675Y-84529449D02*
X69185437Y-84553258D01*
X69185437Y-84553258D02*
X69137818Y-84577068D01*
X69137818Y-84577068D02*
X69090199Y-84624687D01*
X69090199Y-84624687D02*
X69066389Y-84696115D01*
X69066389Y-84696115D02*
X69066389Y-84815163D01*
X69399722Y-84100877D02*
X69066389Y-84100877D01*
X69590199Y-84219925D02*
X69233056Y-84338972D01*
X69233056Y-84338972D02*
X69233056Y-84029449D01*
X79066389Y-84529449D02*
X79304484Y-84696115D01*
X79066389Y-84815163D02*
X79566389Y-84815163D01*
X79566389Y-84815163D02*
X79566389Y-84624687D01*
X79566389Y-84624687D02*
X79542579Y-84577068D01*
X79542579Y-84577068D02*
X79518770Y-84553258D01*
X79518770Y-84553258D02*
X79471151Y-84529449D01*
X79471151Y-84529449D02*
X79399722Y-84529449D01*
X79399722Y-84529449D02*
X79352103Y-84553258D01*
X79352103Y-84553258D02*
X79328294Y-84577068D01*
X79328294Y-84577068D02*
X79304484Y-84624687D01*
X79304484Y-84624687D02*
X79304484Y-84815163D01*
X79566389Y-84362782D02*
X79066389Y-84029449D01*
X79566389Y-84029449D02*
X79066389Y-84362782D01*
X79066389Y-83577068D02*
X79066389Y-83862782D01*
X79066389Y-83719925D02*
X79566389Y-83719925D01*
X79566389Y-83719925D02*
X79494960Y-83767544D01*
X79494960Y-83767544D02*
X79447341Y-83815163D01*
X79447341Y-83815163D02*
X79423532Y-83862782D01*
X92566389Y-84862782D02*
X92566389Y-84553258D01*
X92566389Y-84553258D02*
X92375913Y-84719925D01*
X92375913Y-84719925D02*
X92375913Y-84648496D01*
X92375913Y-84648496D02*
X92352103Y-84600877D01*
X92352103Y-84600877D02*
X92328294Y-84577068D01*
X92328294Y-84577068D02*
X92280675Y-84553258D01*
X92280675Y-84553258D02*
X92161627Y-84553258D01*
X92161627Y-84553258D02*
X92114008Y-84577068D01*
X92114008Y-84577068D02*
X92090199Y-84600877D01*
X92090199Y-84600877D02*
X92066389Y-84648496D01*
X92066389Y-84648496D02*
X92066389Y-84791353D01*
X92066389Y-84791353D02*
X92090199Y-84838972D01*
X92090199Y-84838972D02*
X92114008Y-84862782D01*
X92399722Y-84386592D02*
X92066389Y-84267544D01*
X92066389Y-84267544D02*
X92399722Y-84148497D01*
X92566389Y-84005640D02*
X92566389Y-83696116D01*
X92566389Y-83696116D02*
X92375913Y-83862783D01*
X92375913Y-83862783D02*
X92375913Y-83791354D01*
X92375913Y-83791354D02*
X92352103Y-83743735D01*
X92352103Y-83743735D02*
X92328294Y-83719926D01*
X92328294Y-83719926D02*
X92280675Y-83696116D01*
X92280675Y-83696116D02*
X92161627Y-83696116D01*
X92161627Y-83696116D02*
X92114008Y-83719926D01*
X92114008Y-83719926D02*
X92090199Y-83743735D01*
X92090199Y-83743735D02*
X92066389Y-83791354D01*
X92066389Y-83791354D02*
X92066389Y-83934211D01*
X92066389Y-83934211D02*
X92090199Y-83981830D01*
X92090199Y-83981830D02*
X92114008Y-84005640D01*
X71480393Y-84763687D02*
X71980393Y-84763687D01*
X71980393Y-84763687D02*
X71980393Y-84644639D01*
X71980393Y-84644639D02*
X71956583Y-84573211D01*
X71956583Y-84573211D02*
X71908964Y-84525592D01*
X71908964Y-84525592D02*
X71861345Y-84501782D01*
X71861345Y-84501782D02*
X71766107Y-84477973D01*
X71766107Y-84477973D02*
X71694679Y-84477973D01*
X71694679Y-84477973D02*
X71599441Y-84501782D01*
X71599441Y-84501782D02*
X71551822Y-84525592D01*
X71551822Y-84525592D02*
X71504203Y-84573211D01*
X71504203Y-84573211D02*
X71480393Y-84644639D01*
X71480393Y-84644639D02*
X71480393Y-84763687D01*
X71980393Y-84311306D02*
X71980393Y-84001782D01*
X71980393Y-84001782D02*
X71789917Y-84168449D01*
X71789917Y-84168449D02*
X71789917Y-84097020D01*
X71789917Y-84097020D02*
X71766107Y-84049401D01*
X71766107Y-84049401D02*
X71742298Y-84025592D01*
X71742298Y-84025592D02*
X71694679Y-84001782D01*
X71694679Y-84001782D02*
X71575631Y-84001782D01*
X71575631Y-84001782D02*
X71528012Y-84025592D01*
X71528012Y-84025592D02*
X71504203Y-84049401D01*
X71504203Y-84049401D02*
X71480393Y-84097020D01*
X71480393Y-84097020D02*
X71480393Y-84239877D01*
X71480393Y-84239877D02*
X71504203Y-84287496D01*
X71504203Y-84287496D02*
X71528012Y-84311306D01*
X84066389Y-88815163D02*
X84566389Y-88815163D01*
X84566389Y-88815163D02*
X84566389Y-88696115D01*
X84566389Y-88696115D02*
X84542579Y-88624687D01*
X84542579Y-88624687D02*
X84494960Y-88577068D01*
X84494960Y-88577068D02*
X84447341Y-88553258D01*
X84447341Y-88553258D02*
X84352103Y-88529449D01*
X84352103Y-88529449D02*
X84280675Y-88529449D01*
X84280675Y-88529449D02*
X84185437Y-88553258D01*
X84185437Y-88553258D02*
X84137818Y-88577068D01*
X84137818Y-88577068D02*
X84090199Y-88624687D01*
X84090199Y-88624687D02*
X84066389Y-88696115D01*
X84066389Y-88696115D02*
X84066389Y-88815163D01*
X84566389Y-88077068D02*
X84566389Y-88315163D01*
X84566389Y-88315163D02*
X84328294Y-88338972D01*
X84328294Y-88338972D02*
X84352103Y-88315163D01*
X84352103Y-88315163D02*
X84375913Y-88267544D01*
X84375913Y-88267544D02*
X84375913Y-88148496D01*
X84375913Y-88148496D02*
X84352103Y-88100877D01*
X84352103Y-88100877D02*
X84328294Y-88077068D01*
X84328294Y-88077068D02*
X84280675Y-88053258D01*
X84280675Y-88053258D02*
X84161627Y-88053258D01*
X84161627Y-88053258D02*
X84114008Y-88077068D01*
X84114008Y-88077068D02*
X84090199Y-88100877D01*
X84090199Y-88100877D02*
X84066389Y-88148496D01*
X84066389Y-88148496D02*
X84066389Y-88267544D01*
X84066389Y-88267544D02*
X84090199Y-88315163D01*
X84090199Y-88315163D02*
X84114008Y-88338972D01*
X69566389Y-88577068D02*
X69566389Y-88815163D01*
X69566389Y-88815163D02*
X69328294Y-88838972D01*
X69328294Y-88838972D02*
X69352103Y-88815163D01*
X69352103Y-88815163D02*
X69375913Y-88767544D01*
X69375913Y-88767544D02*
X69375913Y-88648496D01*
X69375913Y-88648496D02*
X69352103Y-88600877D01*
X69352103Y-88600877D02*
X69328294Y-88577068D01*
X69328294Y-88577068D02*
X69280675Y-88553258D01*
X69280675Y-88553258D02*
X69161627Y-88553258D01*
X69161627Y-88553258D02*
X69114008Y-88577068D01*
X69114008Y-88577068D02*
X69090199Y-88600877D01*
X69090199Y-88600877D02*
X69066389Y-88648496D01*
X69066389Y-88648496D02*
X69066389Y-88767544D01*
X69066389Y-88767544D02*
X69090199Y-88815163D01*
X69090199Y-88815163D02*
X69114008Y-88838972D01*
X69566389Y-88410401D02*
X69066389Y-88243735D01*
X69066389Y-88243735D02*
X69566389Y-88077068D01*
X84066389Y-84815163D02*
X84566389Y-84815163D01*
X84566389Y-84815163D02*
X84566389Y-84696115D01*
X84566389Y-84696115D02*
X84542579Y-84624687D01*
X84542579Y-84624687D02*
X84494960Y-84577068D01*
X84494960Y-84577068D02*
X84447341Y-84553258D01*
X84447341Y-84553258D02*
X84352103Y-84529449D01*
X84352103Y-84529449D02*
X84280675Y-84529449D01*
X84280675Y-84529449D02*
X84185437Y-84553258D01*
X84185437Y-84553258D02*
X84137818Y-84577068D01*
X84137818Y-84577068D02*
X84090199Y-84624687D01*
X84090199Y-84624687D02*
X84066389Y-84696115D01*
X84066389Y-84696115D02*
X84066389Y-84815163D01*
X84566389Y-84100877D02*
X84566389Y-84196115D01*
X84566389Y-84196115D02*
X84542579Y-84243734D01*
X84542579Y-84243734D02*
X84518770Y-84267544D01*
X84518770Y-84267544D02*
X84447341Y-84315163D01*
X84447341Y-84315163D02*
X84352103Y-84338972D01*
X84352103Y-84338972D02*
X84161627Y-84338972D01*
X84161627Y-84338972D02*
X84114008Y-84315163D01*
X84114008Y-84315163D02*
X84090199Y-84291353D01*
X84090199Y-84291353D02*
X84066389Y-84243734D01*
X84066389Y-84243734D02*
X84066389Y-84148496D01*
X84066389Y-84148496D02*
X84090199Y-84100877D01*
X84090199Y-84100877D02*
X84114008Y-84077068D01*
X84114008Y-84077068D02*
X84161627Y-84053258D01*
X84161627Y-84053258D02*
X84280675Y-84053258D01*
X84280675Y-84053258D02*
X84328294Y-84077068D01*
X84328294Y-84077068D02*
X84352103Y-84100877D01*
X84352103Y-84100877D02*
X84375913Y-84148496D01*
X84375913Y-84148496D02*
X84375913Y-84243734D01*
X84375913Y-84243734D02*
X84352103Y-84291353D01*
X84352103Y-84291353D02*
X84328294Y-84315163D01*
X84328294Y-84315163D02*
X84280675Y-84338972D01*
X89566389Y-84862782D02*
X89566389Y-84553258D01*
X89566389Y-84553258D02*
X89375913Y-84719925D01*
X89375913Y-84719925D02*
X89375913Y-84648496D01*
X89375913Y-84648496D02*
X89352103Y-84600877D01*
X89352103Y-84600877D02*
X89328294Y-84577068D01*
X89328294Y-84577068D02*
X89280675Y-84553258D01*
X89280675Y-84553258D02*
X89161627Y-84553258D01*
X89161627Y-84553258D02*
X89114008Y-84577068D01*
X89114008Y-84577068D02*
X89090199Y-84600877D01*
X89090199Y-84600877D02*
X89066389Y-84648496D01*
X89066389Y-84648496D02*
X89066389Y-84791353D01*
X89066389Y-84791353D02*
X89090199Y-84838972D01*
X89090199Y-84838972D02*
X89114008Y-84862782D01*
X89399722Y-84386592D02*
X89066389Y-84267544D01*
X89066389Y-84267544D02*
X89399722Y-84148497D01*
X89566389Y-84005640D02*
X89566389Y-83696116D01*
X89566389Y-83696116D02*
X89375913Y-83862783D01*
X89375913Y-83862783D02*
X89375913Y-83791354D01*
X89375913Y-83791354D02*
X89352103Y-83743735D01*
X89352103Y-83743735D02*
X89328294Y-83719926D01*
X89328294Y-83719926D02*
X89280675Y-83696116D01*
X89280675Y-83696116D02*
X89161627Y-83696116D01*
X89161627Y-83696116D02*
X89114008Y-83719926D01*
X89114008Y-83719926D02*
X89090199Y-83743735D01*
X89090199Y-83743735D02*
X89066389Y-83791354D01*
X89066389Y-83791354D02*
X89066389Y-83934211D01*
X89066389Y-83934211D02*
X89090199Y-83981830D01*
X89090199Y-83981830D02*
X89114008Y-84005640D01*
X81556927Y-84812961D02*
X82056927Y-84812961D01*
X82056927Y-84812961D02*
X82056927Y-84693913D01*
X82056927Y-84693913D02*
X82033117Y-84622485D01*
X82033117Y-84622485D02*
X81985498Y-84574866D01*
X81985498Y-84574866D02*
X81937879Y-84551056D01*
X81937879Y-84551056D02*
X81842641Y-84527247D01*
X81842641Y-84527247D02*
X81771213Y-84527247D01*
X81771213Y-84527247D02*
X81675975Y-84551056D01*
X81675975Y-84551056D02*
X81628356Y-84574866D01*
X81628356Y-84574866D02*
X81580737Y-84622485D01*
X81580737Y-84622485D02*
X81556927Y-84693913D01*
X81556927Y-84693913D02*
X81556927Y-84812961D01*
X82056927Y-84217723D02*
X82056927Y-84170104D01*
X82056927Y-84170104D02*
X82033117Y-84122485D01*
X82033117Y-84122485D02*
X82009308Y-84098675D01*
X82009308Y-84098675D02*
X81961689Y-84074866D01*
X81961689Y-84074866D02*
X81866451Y-84051056D01*
X81866451Y-84051056D02*
X81747403Y-84051056D01*
X81747403Y-84051056D02*
X81652165Y-84074866D01*
X81652165Y-84074866D02*
X81604546Y-84098675D01*
X81604546Y-84098675D02*
X81580737Y-84122485D01*
X81580737Y-84122485D02*
X81556927Y-84170104D01*
X81556927Y-84170104D02*
X81556927Y-84217723D01*
X81556927Y-84217723D02*
X81580737Y-84265342D01*
X81580737Y-84265342D02*
X81604546Y-84289151D01*
X81604546Y-84289151D02*
X81652165Y-84312961D01*
X81652165Y-84312961D02*
X81747403Y-84336770D01*
X81747403Y-84336770D02*
X81866451Y-84336770D01*
X81866451Y-84336770D02*
X81961689Y-84312961D01*
X81961689Y-84312961D02*
X82009308Y-84289151D01*
X82009308Y-84289151D02*
X82033117Y-84265342D01*
X82033117Y-84265342D02*
X82056927Y-84217723D01*
X92066389Y-88815163D02*
X92566389Y-88815163D01*
X92566389Y-88815163D02*
X92566389Y-88696115D01*
X92566389Y-88696115D02*
X92542579Y-88624687D01*
X92542579Y-88624687D02*
X92494960Y-88577068D01*
X92494960Y-88577068D02*
X92447341Y-88553258D01*
X92447341Y-88553258D02*
X92352103Y-88529449D01*
X92352103Y-88529449D02*
X92280675Y-88529449D01*
X92280675Y-88529449D02*
X92185437Y-88553258D01*
X92185437Y-88553258D02*
X92137818Y-88577068D01*
X92137818Y-88577068D02*
X92090199Y-88624687D01*
X92090199Y-88624687D02*
X92066389Y-88696115D01*
X92066389Y-88696115D02*
X92066389Y-88815163D01*
X92256865Y-88315163D02*
X92256865Y-87934211D01*
X89066389Y-88815163D02*
X89566389Y-88815163D01*
X89566389Y-88815163D02*
X89566389Y-88696115D01*
X89566389Y-88696115D02*
X89542579Y-88624687D01*
X89542579Y-88624687D02*
X89494960Y-88577068D01*
X89494960Y-88577068D02*
X89447341Y-88553258D01*
X89447341Y-88553258D02*
X89352103Y-88529449D01*
X89352103Y-88529449D02*
X89280675Y-88529449D01*
X89280675Y-88529449D02*
X89185437Y-88553258D01*
X89185437Y-88553258D02*
X89137818Y-88577068D01*
X89137818Y-88577068D02*
X89090199Y-88624687D01*
X89090199Y-88624687D02*
X89066389Y-88696115D01*
X89066389Y-88696115D02*
X89066389Y-88815163D01*
X89256865Y-88315163D02*
X89256865Y-87934211D01*
X89066389Y-88124687D02*
X89447341Y-88124687D01*
X87404761Y-126652531D02*
X86833333Y-126652531D01*
X87119047Y-127652531D02*
X87119047Y-126652531D01*
X86119047Y-127604912D02*
X86214285Y-127652531D01*
X86214285Y-127652531D02*
X86404761Y-127652531D01*
X86404761Y-127652531D02*
X86499999Y-127604912D01*
X86499999Y-127604912D02*
X86547618Y-127509673D01*
X86547618Y-127509673D02*
X86547618Y-127128721D01*
X86547618Y-127128721D02*
X86499999Y-127033483D01*
X86499999Y-127033483D02*
X86404761Y-126985864D01*
X86404761Y-126985864D02*
X86214285Y-126985864D01*
X86214285Y-126985864D02*
X86119047Y-127033483D01*
X86119047Y-127033483D02*
X86071428Y-127128721D01*
X86071428Y-127128721D02*
X86071428Y-127223959D01*
X86071428Y-127223959D02*
X86547618Y-127319197D01*
X85642856Y-127652531D02*
X85642856Y-126985864D01*
X85642856Y-127176340D02*
X85595237Y-127081102D01*
X85595237Y-127081102D02*
X85547618Y-127033483D01*
X85547618Y-127033483D02*
X85452380Y-126985864D01*
X85452380Y-126985864D02*
X85357142Y-126985864D01*
X85023808Y-127652531D02*
X85023808Y-126985864D01*
X85023808Y-127081102D02*
X84976189Y-127033483D01*
X84976189Y-127033483D02*
X84880951Y-126985864D01*
X84880951Y-126985864D02*
X84738094Y-126985864D01*
X84738094Y-126985864D02*
X84642856Y-127033483D01*
X84642856Y-127033483D02*
X84595237Y-127128721D01*
X84595237Y-127128721D02*
X84595237Y-127652531D01*
X84595237Y-127128721D02*
X84547618Y-127033483D01*
X84547618Y-127033483D02*
X84452380Y-126985864D01*
X84452380Y-126985864D02*
X84309523Y-126985864D01*
X84309523Y-126985864D02*
X84214284Y-127033483D01*
X84214284Y-127033483D02*
X84166665Y-127128721D01*
X84166665Y-127128721D02*
X84166665Y-127652531D01*
X83690475Y-127652531D02*
X83690475Y-126985864D01*
X83690475Y-126652531D02*
X83738094Y-126700150D01*
X83738094Y-126700150D02*
X83690475Y-126747769D01*
X83690475Y-126747769D02*
X83642856Y-126700150D01*
X83642856Y-126700150D02*
X83690475Y-126652531D01*
X83690475Y-126652531D02*
X83690475Y-126747769D01*
X83357142Y-126985864D02*
X82976190Y-126985864D01*
X83214285Y-126652531D02*
X83214285Y-127509673D01*
X83214285Y-127509673D02*
X83166666Y-127604912D01*
X83166666Y-127604912D02*
X83071428Y-127652531D01*
X83071428Y-127652531D02*
X82976190Y-127652531D01*
X82261904Y-127604912D02*
X82357142Y-127652531D01*
X82357142Y-127652531D02*
X82547618Y-127652531D01*
X82547618Y-127652531D02*
X82642856Y-127604912D01*
X82642856Y-127604912D02*
X82690475Y-127509673D01*
X82690475Y-127509673D02*
X82690475Y-127128721D01*
X82690475Y-127128721D02*
X82642856Y-127033483D01*
X82642856Y-127033483D02*
X82547618Y-126985864D01*
X82547618Y-126985864D02*
X82357142Y-126985864D01*
X82357142Y-126985864D02*
X82261904Y-127033483D01*
X82261904Y-127033483D02*
X82214285Y-127128721D01*
X82214285Y-127128721D02*
X82214285Y-127223959D01*
X82214285Y-127223959D02*
X82690475Y-127319197D01*
X81166665Y-126652531D02*
X80595237Y-126652531D01*
X80880951Y-127652531D02*
X80880951Y-126652531D01*
X79880951Y-127604912D02*
X79976189Y-127652531D01*
X79976189Y-127652531D02*
X80166665Y-127652531D01*
X80166665Y-127652531D02*
X80261903Y-127604912D01*
X80261903Y-127604912D02*
X80309522Y-127509673D01*
X80309522Y-127509673D02*
X80309522Y-127128721D01*
X80309522Y-127128721D02*
X80261903Y-127033483D01*
X80261903Y-127033483D02*
X80166665Y-126985864D01*
X80166665Y-126985864D02*
X79976189Y-126985864D01*
X79976189Y-126985864D02*
X79880951Y-127033483D01*
X79880951Y-127033483D02*
X79833332Y-127128721D01*
X79833332Y-127128721D02*
X79833332Y-127223959D01*
X79833332Y-127223959D02*
X80309522Y-127319197D01*
X79404760Y-127652531D02*
X79404760Y-126985864D01*
X79404760Y-127176340D02*
X79357141Y-127081102D01*
X79357141Y-127081102D02*
X79309522Y-127033483D01*
X79309522Y-127033483D02*
X79214284Y-126985864D01*
X79214284Y-126985864D02*
X79119046Y-126985864D01*
X78785712Y-127652531D02*
X78785712Y-126985864D01*
X78785712Y-127081102D02*
X78738093Y-127033483D01*
X78738093Y-127033483D02*
X78642855Y-126985864D01*
X78642855Y-126985864D02*
X78499998Y-126985864D01*
X78499998Y-126985864D02*
X78404760Y-127033483D01*
X78404760Y-127033483D02*
X78357141Y-127128721D01*
X78357141Y-127128721D02*
X78357141Y-127652531D01*
X78357141Y-127128721D02*
X78309522Y-127033483D01*
X78309522Y-127033483D02*
X78214284Y-126985864D01*
X78214284Y-126985864D02*
X78071427Y-126985864D01*
X78071427Y-126985864D02*
X77976188Y-127033483D01*
X77976188Y-127033483D02*
X77928569Y-127128721D01*
X77928569Y-127128721D02*
X77928569Y-127652531D01*
X77452379Y-127652531D02*
X77452379Y-126985864D01*
X77452379Y-126652531D02*
X77499998Y-126700150D01*
X77499998Y-126700150D02*
X77452379Y-126747769D01*
X77452379Y-126747769D02*
X77404760Y-126700150D01*
X77404760Y-126700150D02*
X77452379Y-126652531D01*
X77452379Y-126652531D02*
X77452379Y-126747769D01*
X76976189Y-126985864D02*
X76976189Y-127652531D01*
X76976189Y-127081102D02*
X76928570Y-127033483D01*
X76928570Y-127033483D02*
X76833332Y-126985864D01*
X76833332Y-126985864D02*
X76690475Y-126985864D01*
X76690475Y-126985864D02*
X76595237Y-127033483D01*
X76595237Y-127033483D02*
X76547618Y-127128721D01*
X76547618Y-127128721D02*
X76547618Y-127652531D01*
X75642856Y-127652531D02*
X75642856Y-127128721D01*
X75642856Y-127128721D02*
X75690475Y-127033483D01*
X75690475Y-127033483D02*
X75785713Y-126985864D01*
X75785713Y-126985864D02*
X75976189Y-126985864D01*
X75976189Y-126985864D02*
X76071427Y-127033483D01*
X75642856Y-127604912D02*
X75738094Y-127652531D01*
X75738094Y-127652531D02*
X75976189Y-127652531D01*
X75976189Y-127652531D02*
X76071427Y-127604912D01*
X76071427Y-127604912D02*
X76119046Y-127509673D01*
X76119046Y-127509673D02*
X76119046Y-127414435D01*
X76119046Y-127414435D02*
X76071427Y-127319197D01*
X76071427Y-127319197D02*
X75976189Y-127271578D01*
X75976189Y-127271578D02*
X75738094Y-127271578D01*
X75738094Y-127271578D02*
X75642856Y-127223959D01*
X75309522Y-126985864D02*
X74928570Y-126985864D01*
X75166665Y-126652531D02*
X75166665Y-127509673D01*
X75166665Y-127509673D02*
X75119046Y-127604912D01*
X75119046Y-127604912D02*
X75023808Y-127652531D01*
X75023808Y-127652531D02*
X74928570Y-127652531D01*
X74452379Y-127652531D02*
X74547617Y-127604912D01*
X74547617Y-127604912D02*
X74595236Y-127557292D01*
X74595236Y-127557292D02*
X74642855Y-127462054D01*
X74642855Y-127462054D02*
X74642855Y-127176340D01*
X74642855Y-127176340D02*
X74595236Y-127081102D01*
X74595236Y-127081102D02*
X74547617Y-127033483D01*
X74547617Y-127033483D02*
X74452379Y-126985864D01*
X74452379Y-126985864D02*
X74309522Y-126985864D01*
X74309522Y-126985864D02*
X74214284Y-127033483D01*
X74214284Y-127033483D02*
X74166665Y-127081102D01*
X74166665Y-127081102D02*
X74119046Y-127176340D01*
X74119046Y-127176340D02*
X74119046Y-127462054D01*
X74119046Y-127462054D02*
X74166665Y-127557292D01*
X74166665Y-127557292D02*
X74214284Y-127604912D01*
X74214284Y-127604912D02*
X74309522Y-127652531D01*
X74309522Y-127652531D02*
X74452379Y-127652531D01*
X73690474Y-127652531D02*
X73690474Y-126985864D01*
X73690474Y-127176340D02*
X73642855Y-127081102D01*
X73642855Y-127081102D02*
X73595236Y-127033483D01*
X73595236Y-127033483D02*
X73499998Y-126985864D01*
X73499998Y-126985864D02*
X73404760Y-126985864D01*
X73119045Y-127604912D02*
X73023807Y-127652531D01*
X73023807Y-127652531D02*
X72833331Y-127652531D01*
X72833331Y-127652531D02*
X72738093Y-127604912D01*
X72738093Y-127604912D02*
X72690474Y-127509673D01*
X72690474Y-127509673D02*
X72690474Y-127462054D01*
X72690474Y-127462054D02*
X72738093Y-127366816D01*
X72738093Y-127366816D02*
X72833331Y-127319197D01*
X72833331Y-127319197D02*
X72976188Y-127319197D01*
X72976188Y-127319197D02*
X73071426Y-127271578D01*
X73071426Y-127271578D02*
X73119045Y-127176340D01*
X73119045Y-127176340D02*
X73119045Y-127128721D01*
X73119045Y-127128721D02*
X73071426Y-127033483D01*
X73071426Y-127033483D02*
X72976188Y-126985864D01*
X72976188Y-126985864D02*
X72833331Y-126985864D01*
X72833331Y-126985864D02*
X72738093Y-127033483D01*
X86857142Y-129262475D02*
X86857142Y-128262475D01*
X86857142Y-128262475D02*
X86619047Y-128262475D01*
X86619047Y-128262475D02*
X86476190Y-128310094D01*
X86476190Y-128310094D02*
X86380952Y-128405332D01*
X86380952Y-128405332D02*
X86333333Y-128500570D01*
X86333333Y-128500570D02*
X86285714Y-128691046D01*
X86285714Y-128691046D02*
X86285714Y-128833903D01*
X86285714Y-128833903D02*
X86333333Y-129024379D01*
X86333333Y-129024379D02*
X86380952Y-129119617D01*
X86380952Y-129119617D02*
X86476190Y-129214856D01*
X86476190Y-129214856D02*
X86619047Y-129262475D01*
X86619047Y-129262475D02*
X86857142Y-129262475D01*
X85476190Y-129214856D02*
X85571428Y-129262475D01*
X85571428Y-129262475D02*
X85761904Y-129262475D01*
X85761904Y-129262475D02*
X85857142Y-129214856D01*
X85857142Y-129214856D02*
X85904761Y-129119617D01*
X85904761Y-129119617D02*
X85904761Y-128738665D01*
X85904761Y-128738665D02*
X85857142Y-128643427D01*
X85857142Y-128643427D02*
X85761904Y-128595808D01*
X85761904Y-128595808D02*
X85571428Y-128595808D01*
X85571428Y-128595808D02*
X85476190Y-128643427D01*
X85476190Y-128643427D02*
X85428571Y-128738665D01*
X85428571Y-128738665D02*
X85428571Y-128833903D01*
X85428571Y-128833903D02*
X85904761Y-128929141D01*
X85047618Y-129214856D02*
X84952380Y-129262475D01*
X84952380Y-129262475D02*
X84761904Y-129262475D01*
X84761904Y-129262475D02*
X84666666Y-129214856D01*
X84666666Y-129214856D02*
X84619047Y-129119617D01*
X84619047Y-129119617D02*
X84619047Y-129071998D01*
X84619047Y-129071998D02*
X84666666Y-128976760D01*
X84666666Y-128976760D02*
X84761904Y-128929141D01*
X84761904Y-128929141D02*
X84904761Y-128929141D01*
X84904761Y-128929141D02*
X84999999Y-128881522D01*
X84999999Y-128881522D02*
X85047618Y-128786284D01*
X85047618Y-128786284D02*
X85047618Y-128738665D01*
X85047618Y-128738665D02*
X84999999Y-128643427D01*
X84999999Y-128643427D02*
X84904761Y-128595808D01*
X84904761Y-128595808D02*
X84761904Y-128595808D01*
X84761904Y-128595808D02*
X84666666Y-128643427D01*
X84190475Y-129262475D02*
X84190475Y-128595808D01*
X84190475Y-128262475D02*
X84238094Y-128310094D01*
X84238094Y-128310094D02*
X84190475Y-128357713D01*
X84190475Y-128357713D02*
X84142856Y-128310094D01*
X84142856Y-128310094D02*
X84190475Y-128262475D01*
X84190475Y-128262475D02*
X84190475Y-128357713D01*
X83285714Y-128595808D02*
X83285714Y-129405332D01*
X83285714Y-129405332D02*
X83333333Y-129500570D01*
X83333333Y-129500570D02*
X83380952Y-129548189D01*
X83380952Y-129548189D02*
X83476190Y-129595808D01*
X83476190Y-129595808D02*
X83619047Y-129595808D01*
X83619047Y-129595808D02*
X83714285Y-129548189D01*
X83285714Y-129214856D02*
X83380952Y-129262475D01*
X83380952Y-129262475D02*
X83571428Y-129262475D01*
X83571428Y-129262475D02*
X83666666Y-129214856D01*
X83666666Y-129214856D02*
X83714285Y-129167236D01*
X83714285Y-129167236D02*
X83761904Y-129071998D01*
X83761904Y-129071998D02*
X83761904Y-128786284D01*
X83761904Y-128786284D02*
X83714285Y-128691046D01*
X83714285Y-128691046D02*
X83666666Y-128643427D01*
X83666666Y-128643427D02*
X83571428Y-128595808D01*
X83571428Y-128595808D02*
X83380952Y-128595808D01*
X83380952Y-128595808D02*
X83285714Y-128643427D01*
X82809523Y-128595808D02*
X82809523Y-129262475D01*
X82809523Y-128691046D02*
X82761904Y-128643427D01*
X82761904Y-128643427D02*
X82666666Y-128595808D01*
X82666666Y-128595808D02*
X82523809Y-128595808D01*
X82523809Y-128595808D02*
X82428571Y-128643427D01*
X82428571Y-128643427D02*
X82380952Y-128738665D01*
X82380952Y-128738665D02*
X82380952Y-129262475D01*
X81523809Y-129214856D02*
X81619047Y-129262475D01*
X81619047Y-129262475D02*
X81809523Y-129262475D01*
X81809523Y-129262475D02*
X81904761Y-129214856D01*
X81904761Y-129214856D02*
X81952380Y-129119617D01*
X81952380Y-129119617D02*
X81952380Y-128738665D01*
X81952380Y-128738665D02*
X81904761Y-128643427D01*
X81904761Y-128643427D02*
X81809523Y-128595808D01*
X81809523Y-128595808D02*
X81619047Y-128595808D01*
X81619047Y-128595808D02*
X81523809Y-128643427D01*
X81523809Y-128643427D02*
X81476190Y-128738665D01*
X81476190Y-128738665D02*
X81476190Y-128833903D01*
X81476190Y-128833903D02*
X81952380Y-128929141D01*
X80619047Y-129262475D02*
X80619047Y-128262475D01*
X80619047Y-129214856D02*
X80714285Y-129262475D01*
X80714285Y-129262475D02*
X80904761Y-129262475D01*
X80904761Y-129262475D02*
X80999999Y-129214856D01*
X80999999Y-129214856D02*
X81047618Y-129167236D01*
X81047618Y-129167236D02*
X81095237Y-129071998D01*
X81095237Y-129071998D02*
X81095237Y-128786284D01*
X81095237Y-128786284D02*
X81047618Y-128691046D01*
X81047618Y-128691046D02*
X80999999Y-128643427D01*
X80999999Y-128643427D02*
X80904761Y-128595808D01*
X80904761Y-128595808D02*
X80714285Y-128595808D01*
X80714285Y-128595808D02*
X80619047Y-128643427D01*
X79380951Y-129262475D02*
X79380951Y-128262475D01*
X79380951Y-128643427D02*
X79285713Y-128595808D01*
X79285713Y-128595808D02*
X79095237Y-128595808D01*
X79095237Y-128595808D02*
X78999999Y-128643427D01*
X78999999Y-128643427D02*
X78952380Y-128691046D01*
X78952380Y-128691046D02*
X78904761Y-128786284D01*
X78904761Y-128786284D02*
X78904761Y-129071998D01*
X78904761Y-129071998D02*
X78952380Y-129167236D01*
X78952380Y-129167236D02*
X78999999Y-129214856D01*
X78999999Y-129214856D02*
X79095237Y-129262475D01*
X79095237Y-129262475D02*
X79285713Y-129262475D01*
X79285713Y-129262475D02*
X79380951Y-129214856D01*
X78571427Y-128595808D02*
X78333332Y-129262475D01*
X78095237Y-128595808D02*
X78333332Y-129262475D01*
X78333332Y-129262475D02*
X78428570Y-129500570D01*
X78428570Y-129500570D02*
X78476189Y-129548189D01*
X78476189Y-129548189D02*
X78571427Y-129595808D01*
X76999998Y-129214856D02*
X76857141Y-129262475D01*
X76857141Y-129262475D02*
X76619046Y-129262475D01*
X76619046Y-129262475D02*
X76523808Y-129214856D01*
X76523808Y-129214856D02*
X76476189Y-129167236D01*
X76476189Y-129167236D02*
X76428570Y-129071998D01*
X76428570Y-129071998D02*
X76428570Y-128976760D01*
X76428570Y-128976760D02*
X76476189Y-128881522D01*
X76476189Y-128881522D02*
X76523808Y-128833903D01*
X76523808Y-128833903D02*
X76619046Y-128786284D01*
X76619046Y-128786284D02*
X76809522Y-128738665D01*
X76809522Y-128738665D02*
X76904760Y-128691046D01*
X76904760Y-128691046D02*
X76952379Y-128643427D01*
X76952379Y-128643427D02*
X76999998Y-128548189D01*
X76999998Y-128548189D02*
X76999998Y-128452951D01*
X76999998Y-128452951D02*
X76952379Y-128357713D01*
X76952379Y-128357713D02*
X76904760Y-128310094D01*
X76904760Y-128310094D02*
X76809522Y-128262475D01*
X76809522Y-128262475D02*
X76571427Y-128262475D01*
X76571427Y-128262475D02*
X76428570Y-128310094D01*
X75571427Y-129262475D02*
X75571427Y-128738665D01*
X75571427Y-128738665D02*
X75619046Y-128643427D01*
X75619046Y-128643427D02*
X75714284Y-128595808D01*
X75714284Y-128595808D02*
X75904760Y-128595808D01*
X75904760Y-128595808D02*
X75999998Y-128643427D01*
X75571427Y-129214856D02*
X75666665Y-129262475D01*
X75666665Y-129262475D02*
X75904760Y-129262475D01*
X75904760Y-129262475D02*
X75999998Y-129214856D01*
X75999998Y-129214856D02*
X76047617Y-129119617D01*
X76047617Y-129119617D02*
X76047617Y-129024379D01*
X76047617Y-129024379D02*
X75999998Y-128929141D01*
X75999998Y-128929141D02*
X75904760Y-128881522D01*
X75904760Y-128881522D02*
X75666665Y-128881522D01*
X75666665Y-128881522D02*
X75571427Y-128833903D01*
X75095236Y-129262475D02*
X75095236Y-128595808D01*
X75095236Y-128786284D02*
X75047617Y-128691046D01*
X75047617Y-128691046D02*
X74999998Y-128643427D01*
X74999998Y-128643427D02*
X74904760Y-128595808D01*
X74904760Y-128595808D02*
X74809522Y-128595808D01*
X74047617Y-129262475D02*
X74047617Y-128738665D01*
X74047617Y-128738665D02*
X74095236Y-128643427D01*
X74095236Y-128643427D02*
X74190474Y-128595808D01*
X74190474Y-128595808D02*
X74380950Y-128595808D01*
X74380950Y-128595808D02*
X74476188Y-128643427D01*
X74047617Y-129214856D02*
X74142855Y-129262475D01*
X74142855Y-129262475D02*
X74380950Y-129262475D01*
X74380950Y-129262475D02*
X74476188Y-129214856D01*
X74476188Y-129214856D02*
X74523807Y-129119617D01*
X74523807Y-129119617D02*
X74523807Y-129024379D01*
X74523807Y-129024379D02*
X74476188Y-128929141D01*
X74476188Y-128929141D02*
X74380950Y-128881522D01*
X74380950Y-128881522D02*
X74142855Y-128881522D01*
X74142855Y-128881522D02*
X74047617Y-128833903D01*
X73571426Y-129262475D02*
X73571426Y-128262475D01*
X73142855Y-129262475D02*
X73142855Y-128738665D01*
X73142855Y-128738665D02*
X73190474Y-128643427D01*
X73190474Y-128643427D02*
X73285712Y-128595808D01*
X73285712Y-128595808D02*
X73428569Y-128595808D01*
X73428569Y-128595808D02*
X73523807Y-128643427D01*
X73523807Y-128643427D02*
X73571426Y-128691046D01*
X87547619Y-130872419D02*
X87880952Y-130396228D01*
X88119047Y-130872419D02*
X88119047Y-129872419D01*
X88119047Y-129872419D02*
X87738095Y-129872419D01*
X87738095Y-129872419D02*
X87642857Y-129920038D01*
X87642857Y-129920038D02*
X87595238Y-129967657D01*
X87595238Y-129967657D02*
X87547619Y-130062895D01*
X87547619Y-130062895D02*
X87547619Y-130205752D01*
X87547619Y-130205752D02*
X87595238Y-130300990D01*
X87595238Y-130300990D02*
X87642857Y-130348609D01*
X87642857Y-130348609D02*
X87738095Y-130396228D01*
X87738095Y-130396228D02*
X88119047Y-130396228D01*
X86738095Y-130824800D02*
X86833333Y-130872419D01*
X86833333Y-130872419D02*
X87023809Y-130872419D01*
X87023809Y-130872419D02*
X87119047Y-130824800D01*
X87119047Y-130824800D02*
X87166666Y-130729561D01*
X87166666Y-130729561D02*
X87166666Y-130348609D01*
X87166666Y-130348609D02*
X87119047Y-130253371D01*
X87119047Y-130253371D02*
X87023809Y-130205752D01*
X87023809Y-130205752D02*
X86833333Y-130205752D01*
X86833333Y-130205752D02*
X86738095Y-130253371D01*
X86738095Y-130253371D02*
X86690476Y-130348609D01*
X86690476Y-130348609D02*
X86690476Y-130443847D01*
X86690476Y-130443847D02*
X87166666Y-130539085D01*
X86357142Y-130205752D02*
X86119047Y-130872419D01*
X86119047Y-130872419D02*
X85880952Y-130205752D01*
X85499999Y-130872419D02*
X85499999Y-130205752D01*
X85499999Y-129872419D02*
X85547618Y-129920038D01*
X85547618Y-129920038D02*
X85499999Y-129967657D01*
X85499999Y-129967657D02*
X85452380Y-129920038D01*
X85452380Y-129920038D02*
X85499999Y-129872419D01*
X85499999Y-129872419D02*
X85499999Y-129967657D01*
X84642857Y-130824800D02*
X84738095Y-130872419D01*
X84738095Y-130872419D02*
X84928571Y-130872419D01*
X84928571Y-130872419D02*
X85023809Y-130824800D01*
X85023809Y-130824800D02*
X85071428Y-130729561D01*
X85071428Y-130729561D02*
X85071428Y-130348609D01*
X85071428Y-130348609D02*
X85023809Y-130253371D01*
X85023809Y-130253371D02*
X84928571Y-130205752D01*
X84928571Y-130205752D02*
X84738095Y-130205752D01*
X84738095Y-130205752D02*
X84642857Y-130253371D01*
X84642857Y-130253371D02*
X84595238Y-130348609D01*
X84595238Y-130348609D02*
X84595238Y-130443847D01*
X84595238Y-130443847D02*
X85071428Y-130539085D01*
X84261904Y-130205752D02*
X84071428Y-130872419D01*
X84071428Y-130872419D02*
X83880952Y-130396228D01*
X83880952Y-130396228D02*
X83690476Y-130872419D01*
X83690476Y-130872419D02*
X83500000Y-130205752D01*
X82738095Y-130824800D02*
X82833333Y-130872419D01*
X82833333Y-130872419D02*
X83023809Y-130872419D01*
X83023809Y-130872419D02*
X83119047Y-130824800D01*
X83119047Y-130824800D02*
X83166666Y-130729561D01*
X83166666Y-130729561D02*
X83166666Y-130348609D01*
X83166666Y-130348609D02*
X83119047Y-130253371D01*
X83119047Y-130253371D02*
X83023809Y-130205752D01*
X83023809Y-130205752D02*
X82833333Y-130205752D01*
X82833333Y-130205752D02*
X82738095Y-130253371D01*
X82738095Y-130253371D02*
X82690476Y-130348609D01*
X82690476Y-130348609D02*
X82690476Y-130443847D01*
X82690476Y-130443847D02*
X83166666Y-130539085D01*
X81833333Y-130872419D02*
X81833333Y-129872419D01*
X81833333Y-130824800D02*
X81928571Y-130872419D01*
X81928571Y-130872419D02*
X82119047Y-130872419D01*
X82119047Y-130872419D02*
X82214285Y-130824800D01*
X82214285Y-130824800D02*
X82261904Y-130777180D01*
X82261904Y-130777180D02*
X82309523Y-130681942D01*
X82309523Y-130681942D02*
X82309523Y-130396228D01*
X82309523Y-130396228D02*
X82261904Y-130300990D01*
X82261904Y-130300990D02*
X82214285Y-130253371D01*
X82214285Y-130253371D02*
X82119047Y-130205752D01*
X82119047Y-130205752D02*
X81928571Y-130205752D01*
X81928571Y-130205752D02*
X81833333Y-130253371D01*
X80595237Y-130872419D02*
X80595237Y-129872419D01*
X80595237Y-130253371D02*
X80499999Y-130205752D01*
X80499999Y-130205752D02*
X80309523Y-130205752D01*
X80309523Y-130205752D02*
X80214285Y-130253371D01*
X80214285Y-130253371D02*
X80166666Y-130300990D01*
X80166666Y-130300990D02*
X80119047Y-130396228D01*
X80119047Y-130396228D02*
X80119047Y-130681942D01*
X80119047Y-130681942D02*
X80166666Y-130777180D01*
X80166666Y-130777180D02*
X80214285Y-130824800D01*
X80214285Y-130824800D02*
X80309523Y-130872419D01*
X80309523Y-130872419D02*
X80499999Y-130872419D01*
X80499999Y-130872419D02*
X80595237Y-130824800D01*
X79785713Y-130205752D02*
X79547618Y-130872419D01*
X79309523Y-130205752D02*
X79547618Y-130872419D01*
X79547618Y-130872419D02*
X79642856Y-131110514D01*
X79642856Y-131110514D02*
X79690475Y-131158133D01*
X79690475Y-131158133D02*
X79785713Y-131205752D01*
X77880951Y-129872419D02*
X77880951Y-130586704D01*
X77880951Y-130586704D02*
X77928570Y-130729561D01*
X77928570Y-130729561D02*
X78023808Y-130824800D01*
X78023808Y-130824800D02*
X78166665Y-130872419D01*
X78166665Y-130872419D02*
X78261903Y-130872419D01*
X77261903Y-130872419D02*
X77357141Y-130824800D01*
X77357141Y-130824800D02*
X77404760Y-130777180D01*
X77404760Y-130777180D02*
X77452379Y-130681942D01*
X77452379Y-130681942D02*
X77452379Y-130396228D01*
X77452379Y-130396228D02*
X77404760Y-130300990D01*
X77404760Y-130300990D02*
X77357141Y-130253371D01*
X77357141Y-130253371D02*
X77261903Y-130205752D01*
X77261903Y-130205752D02*
X77119046Y-130205752D01*
X77119046Y-130205752D02*
X77023808Y-130253371D01*
X77023808Y-130253371D02*
X76976189Y-130300990D01*
X76976189Y-130300990D02*
X76928570Y-130396228D01*
X76928570Y-130396228D02*
X76928570Y-130681942D01*
X76928570Y-130681942D02*
X76976189Y-130777180D01*
X76976189Y-130777180D02*
X77023808Y-130824800D01*
X77023808Y-130824800D02*
X77119046Y-130872419D01*
X77119046Y-130872419D02*
X77261903Y-130872419D01*
X76499998Y-130205752D02*
X76499998Y-130872419D01*
X76499998Y-130300990D02*
X76452379Y-130253371D01*
X76452379Y-130253371D02*
X76357141Y-130205752D01*
X76357141Y-130205752D02*
X76214284Y-130205752D01*
X76214284Y-130205752D02*
X76119046Y-130253371D01*
X76119046Y-130253371D02*
X76071427Y-130348609D01*
X76071427Y-130348609D02*
X76071427Y-130872419D01*
X75166665Y-130872419D02*
X75166665Y-130348609D01*
X75166665Y-130348609D02*
X75214284Y-130253371D01*
X75214284Y-130253371D02*
X75309522Y-130205752D01*
X75309522Y-130205752D02*
X75499998Y-130205752D01*
X75499998Y-130205752D02*
X75595236Y-130253371D01*
X75166665Y-130824800D02*
X75261903Y-130872419D01*
X75261903Y-130872419D02*
X75499998Y-130872419D01*
X75499998Y-130872419D02*
X75595236Y-130824800D01*
X75595236Y-130824800D02*
X75642855Y-130729561D01*
X75642855Y-130729561D02*
X75642855Y-130634323D01*
X75642855Y-130634323D02*
X75595236Y-130539085D01*
X75595236Y-130539085D02*
X75499998Y-130491466D01*
X75499998Y-130491466D02*
X75261903Y-130491466D01*
X75261903Y-130491466D02*
X75166665Y-130443847D01*
X74833331Y-130205752D02*
X74452379Y-130205752D01*
X74690474Y-129872419D02*
X74690474Y-130729561D01*
X74690474Y-130729561D02*
X74642855Y-130824800D01*
X74642855Y-130824800D02*
X74547617Y-130872419D01*
X74547617Y-130872419D02*
X74452379Y-130872419D01*
X74119045Y-130872419D02*
X74119045Y-129872419D01*
X73690474Y-130872419D02*
X73690474Y-130348609D01*
X73690474Y-130348609D02*
X73738093Y-130253371D01*
X73738093Y-130253371D02*
X73833331Y-130205752D01*
X73833331Y-130205752D02*
X73976188Y-130205752D01*
X73976188Y-130205752D02*
X74071426Y-130253371D01*
X74071426Y-130253371D02*
X74119045Y-130300990D01*
X72785712Y-130872419D02*
X72785712Y-130348609D01*
X72785712Y-130348609D02*
X72833331Y-130253371D01*
X72833331Y-130253371D02*
X72928569Y-130205752D01*
X72928569Y-130205752D02*
X73119045Y-130205752D01*
X73119045Y-130205752D02*
X73214283Y-130253371D01*
X72785712Y-130824800D02*
X72880950Y-130872419D01*
X72880950Y-130872419D02*
X73119045Y-130872419D01*
X73119045Y-130872419D02*
X73214283Y-130824800D01*
X73214283Y-130824800D02*
X73261902Y-130729561D01*
X73261902Y-130729561D02*
X73261902Y-130634323D01*
X73261902Y-130634323D02*
X73214283Y-130539085D01*
X73214283Y-130539085D02*
X73119045Y-130491466D01*
X73119045Y-130491466D02*
X72880950Y-130491466D01*
X72880950Y-130491466D02*
X72785712Y-130443847D01*
X72309521Y-130205752D02*
X72309521Y-130872419D01*
X72309521Y-130300990D02*
X72261902Y-130253371D01*
X72261902Y-130253371D02*
X72166664Y-130205752D01*
X72166664Y-130205752D02*
X72023807Y-130205752D01*
X72023807Y-130205752D02*
X71928569Y-130253371D01*
X71928569Y-130253371D02*
X71880950Y-130348609D01*
X71880950Y-130348609D02*
X71880950Y-130872419D01*
X86706060Y-84689776D02*
X87206060Y-84689776D01*
X87206060Y-84689776D02*
X87206060Y-84570728D01*
X87206060Y-84570728D02*
X87182250Y-84499300D01*
X87182250Y-84499300D02*
X87134631Y-84451681D01*
X87134631Y-84451681D02*
X87087012Y-84427871D01*
X87087012Y-84427871D02*
X86991774Y-84404062D01*
X86991774Y-84404062D02*
X86920346Y-84404062D01*
X86920346Y-84404062D02*
X86825108Y-84427871D01*
X86825108Y-84427871D02*
X86777489Y-84451681D01*
X86777489Y-84451681D02*
X86729870Y-84499300D01*
X86729870Y-84499300D02*
X86706060Y-84570728D01*
X86706060Y-84570728D02*
X86706060Y-84689776D01*
X86991774Y-84118347D02*
X87015584Y-84165966D01*
X87015584Y-84165966D02*
X87039393Y-84189776D01*
X87039393Y-84189776D02*
X87087012Y-84213585D01*
X87087012Y-84213585D02*
X87110822Y-84213585D01*
X87110822Y-84213585D02*
X87158441Y-84189776D01*
X87158441Y-84189776D02*
X87182250Y-84165966D01*
X87182250Y-84165966D02*
X87206060Y-84118347D01*
X87206060Y-84118347D02*
X87206060Y-84023109D01*
X87206060Y-84023109D02*
X87182250Y-83975490D01*
X87182250Y-83975490D02*
X87158441Y-83951681D01*
X87158441Y-83951681D02*
X87110822Y-83927871D01*
X87110822Y-83927871D02*
X87087012Y-83927871D01*
X87087012Y-83927871D02*
X87039393Y-83951681D01*
X87039393Y-83951681D02*
X87015584Y-83975490D01*
X87015584Y-83975490D02*
X86991774Y-84023109D01*
X86991774Y-84023109D02*
X86991774Y-84118347D01*
X86991774Y-84118347D02*
X86967965Y-84165966D01*
X86967965Y-84165966D02*
X86944155Y-84189776D01*
X86944155Y-84189776D02*
X86896536Y-84213585D01*
X86896536Y-84213585D02*
X86801298Y-84213585D01*
X86801298Y-84213585D02*
X86753679Y-84189776D01*
X86753679Y-84189776D02*
X86729870Y-84165966D01*
X86729870Y-84165966D02*
X86706060Y-84118347D01*
X86706060Y-84118347D02*
X86706060Y-84023109D01*
X86706060Y-84023109D02*
X86729870Y-83975490D01*
X86729870Y-83975490D02*
X86753679Y-83951681D01*
X86753679Y-83951681D02*
X86801298Y-83927871D01*
X86801298Y-83927871D02*
X86896536Y-83927871D01*
X86896536Y-83927871D02*
X86944155Y-83951681D01*
X86944155Y-83951681D02*
X86967965Y-83975490D01*
X86967965Y-83975490D02*
X86991774Y-84023109D01*
X74066389Y-88815163D02*
X74566389Y-88815163D01*
X74566389Y-88815163D02*
X74566389Y-88696115D01*
X74566389Y-88696115D02*
X74542579Y-88624687D01*
X74542579Y-88624687D02*
X74494960Y-88577068D01*
X74494960Y-88577068D02*
X74447341Y-88553258D01*
X74447341Y-88553258D02*
X74352103Y-88529449D01*
X74352103Y-88529449D02*
X74280675Y-88529449D01*
X74280675Y-88529449D02*
X74185437Y-88553258D01*
X74185437Y-88553258D02*
X74137818Y-88577068D01*
X74137818Y-88577068D02*
X74090199Y-88624687D01*
X74090199Y-88624687D02*
X74066389Y-88696115D01*
X74066389Y-88696115D02*
X74066389Y-88815163D01*
X74518770Y-88338972D02*
X74542579Y-88315163D01*
X74542579Y-88315163D02*
X74566389Y-88267544D01*
X74566389Y-88267544D02*
X74566389Y-88148496D01*
X74566389Y-88148496D02*
X74542579Y-88100877D01*
X74542579Y-88100877D02*
X74518770Y-88077068D01*
X74518770Y-88077068D02*
X74471151Y-88053258D01*
X74471151Y-88053258D02*
X74423532Y-88053258D01*
X74423532Y-88053258D02*
X74352103Y-88077068D01*
X74352103Y-88077068D02*
X74066389Y-88362782D01*
X74066389Y-88362782D02*
X74066389Y-88053258D01*
X74566389Y-84577068D02*
X74566389Y-84815163D01*
X74566389Y-84815163D02*
X74328294Y-84838972D01*
X74328294Y-84838972D02*
X74352103Y-84815163D01*
X74352103Y-84815163D02*
X74375913Y-84767544D01*
X74375913Y-84767544D02*
X74375913Y-84648496D01*
X74375913Y-84648496D02*
X74352103Y-84600877D01*
X74352103Y-84600877D02*
X74328294Y-84577068D01*
X74328294Y-84577068D02*
X74280675Y-84553258D01*
X74280675Y-84553258D02*
X74161627Y-84553258D01*
X74161627Y-84553258D02*
X74114008Y-84577068D01*
X74114008Y-84577068D02*
X74090199Y-84600877D01*
X74090199Y-84600877D02*
X74066389Y-84648496D01*
X74066389Y-84648496D02*
X74066389Y-84767544D01*
X74066389Y-84767544D02*
X74090199Y-84815163D01*
X74090199Y-84815163D02*
X74114008Y-84838972D01*
X74566389Y-84410401D02*
X74066389Y-84243735D01*
X74066389Y-84243735D02*
X74566389Y-84077068D01*
X81643157Y-88469167D02*
X81881252Y-88635833D01*
X81643157Y-88754881D02*
X82143157Y-88754881D01*
X82143157Y-88754881D02*
X82143157Y-88564405D01*
X82143157Y-88564405D02*
X82119347Y-88516786D01*
X82119347Y-88516786D02*
X82095538Y-88492976D01*
X82095538Y-88492976D02*
X82047919Y-88469167D01*
X82047919Y-88469167D02*
X81976490Y-88469167D01*
X81976490Y-88469167D02*
X81928871Y-88492976D01*
X81928871Y-88492976D02*
X81905062Y-88516786D01*
X81905062Y-88516786D02*
X81881252Y-88564405D01*
X81881252Y-88564405D02*
X81881252Y-88754881D01*
X81666967Y-88278690D02*
X81643157Y-88207262D01*
X81643157Y-88207262D02*
X81643157Y-88088214D01*
X81643157Y-88088214D02*
X81666967Y-88040595D01*
X81666967Y-88040595D02*
X81690776Y-88016786D01*
X81690776Y-88016786D02*
X81738395Y-87992976D01*
X81738395Y-87992976D02*
X81786014Y-87992976D01*
X81786014Y-87992976D02*
X81833633Y-88016786D01*
X81833633Y-88016786D02*
X81857443Y-88040595D01*
X81857443Y-88040595D02*
X81881252Y-88088214D01*
X81881252Y-88088214D02*
X81905062Y-88183452D01*
X81905062Y-88183452D02*
X81928871Y-88231071D01*
X81928871Y-88231071D02*
X81952681Y-88254881D01*
X81952681Y-88254881D02*
X82000300Y-88278690D01*
X82000300Y-88278690D02*
X82047919Y-88278690D01*
X82047919Y-88278690D02*
X82095538Y-88254881D01*
X82095538Y-88254881D02*
X82119347Y-88231071D01*
X82119347Y-88231071D02*
X82143157Y-88183452D01*
X82143157Y-88183452D02*
X82143157Y-88064405D01*
X82143157Y-88064405D02*
X82119347Y-87992976D01*
X82143157Y-87850119D02*
X82143157Y-87564405D01*
X81643157Y-87707262D02*
X82143157Y-87707262D01*
X81643157Y-87135834D02*
X81643157Y-87421548D01*
X81643157Y-87278691D02*
X82143157Y-87278691D01*
X82143157Y-87278691D02*
X82071728Y-87326310D01*
X82071728Y-87326310D02*
X82024109Y-87373929D01*
X82024109Y-87373929D02*
X82000300Y-87421548D01*
X86656786Y-88705607D02*
X87156786Y-88705607D01*
X87156786Y-88705607D02*
X87156786Y-88586559D01*
X87156786Y-88586559D02*
X87132976Y-88515131D01*
X87132976Y-88515131D02*
X87085357Y-88467512D01*
X87085357Y-88467512D02*
X87037738Y-88443702D01*
X87037738Y-88443702D02*
X86942500Y-88419893D01*
X86942500Y-88419893D02*
X86871072Y-88419893D01*
X86871072Y-88419893D02*
X86775834Y-88443702D01*
X86775834Y-88443702D02*
X86728215Y-88467512D01*
X86728215Y-88467512D02*
X86680596Y-88515131D01*
X86680596Y-88515131D02*
X86656786Y-88586559D01*
X86656786Y-88586559D02*
X86656786Y-88705607D01*
X87156786Y-88253226D02*
X87156786Y-87919893D01*
X87156786Y-87919893D02*
X86656786Y-88134178D01*
X71418801Y-88644842D02*
X71418801Y-88549604D01*
X71418801Y-88549604D02*
X71442611Y-88501985D01*
X71442611Y-88501985D02*
X71466420Y-88478176D01*
X71466420Y-88478176D02*
X71537849Y-88430557D01*
X71537849Y-88430557D02*
X71633087Y-88406747D01*
X71633087Y-88406747D02*
X71823563Y-88406747D01*
X71823563Y-88406747D02*
X71871182Y-88430557D01*
X71871182Y-88430557D02*
X71894991Y-88454366D01*
X71894991Y-88454366D02*
X71918801Y-88501985D01*
X71918801Y-88501985D02*
X71918801Y-88597223D01*
X71918801Y-88597223D02*
X71894991Y-88644842D01*
X71894991Y-88644842D02*
X71871182Y-88668652D01*
X71871182Y-88668652D02*
X71823563Y-88692461D01*
X71823563Y-88692461D02*
X71704515Y-88692461D01*
X71704515Y-88692461D02*
X71656896Y-88668652D01*
X71656896Y-88668652D02*
X71633087Y-88644842D01*
X71633087Y-88644842D02*
X71609277Y-88597223D01*
X71609277Y-88597223D02*
X71609277Y-88501985D01*
X71609277Y-88501985D02*
X71633087Y-88454366D01*
X71633087Y-88454366D02*
X71656896Y-88430557D01*
X71656896Y-88430557D02*
X71704515Y-88406747D01*
X71918801Y-88263890D02*
X71418801Y-88097224D01*
X71418801Y-88097224D02*
X71918801Y-87930557D01*
D11*
X90804818Y-95745833D02*
X90328627Y-95412500D01*
X90804818Y-95174405D02*
X89804818Y-95174405D01*
X89804818Y-95174405D02*
X89804818Y-95555357D01*
X89804818Y-95555357D02*
X89852437Y-95650595D01*
X89852437Y-95650595D02*
X89900056Y-95698214D01*
X89900056Y-95698214D02*
X89995294Y-95745833D01*
X89995294Y-95745833D02*
X90138151Y-95745833D01*
X90138151Y-95745833D02*
X90233389Y-95698214D01*
X90233389Y-95698214D02*
X90281008Y-95650595D01*
X90281008Y-95650595D02*
X90328627Y-95555357D01*
X90328627Y-95555357D02*
X90328627Y-95174405D01*
X89804818Y-96079167D02*
X89804818Y-96698214D01*
X89804818Y-96698214D02*
X90185770Y-96364881D01*
X90185770Y-96364881D02*
X90185770Y-96507738D01*
X90185770Y-96507738D02*
X90233389Y-96602976D01*
X90233389Y-96602976D02*
X90281008Y-96650595D01*
X90281008Y-96650595D02*
X90376246Y-96698214D01*
X90376246Y-96698214D02*
X90614341Y-96698214D01*
X90614341Y-96698214D02*
X90709579Y-96650595D01*
X90709579Y-96650595D02*
X90757199Y-96602976D01*
X90757199Y-96602976D02*
X90804818Y-96507738D01*
X90804818Y-96507738D02*
X90804818Y-96222024D01*
X90804818Y-96222024D02*
X90757199Y-96126786D01*
X90757199Y-96126786D02*
X90709579Y-96079167D01*
X84142818Y-95763095D02*
X84952341Y-95763095D01*
X84952341Y-95763095D02*
X85047579Y-95810714D01*
X85047579Y-95810714D02*
X85095199Y-95858333D01*
X85095199Y-95858333D02*
X85142818Y-95953571D01*
X85142818Y-95953571D02*
X85142818Y-96144047D01*
X85142818Y-96144047D02*
X85095199Y-96239285D01*
X85095199Y-96239285D02*
X85047579Y-96286904D01*
X85047579Y-96286904D02*
X84952341Y-96334523D01*
X84952341Y-96334523D02*
X84142818Y-96334523D01*
X84142818Y-96715476D02*
X84142818Y-97334523D01*
X84142818Y-97334523D02*
X84523770Y-97001190D01*
X84523770Y-97001190D02*
X84523770Y-97144047D01*
X84523770Y-97144047D02*
X84571389Y-97239285D01*
X84571389Y-97239285D02*
X84619008Y-97286904D01*
X84619008Y-97286904D02*
X84714246Y-97334523D01*
X84714246Y-97334523D02*
X84952341Y-97334523D01*
X84952341Y-97334523D02*
X85047579Y-97286904D01*
X85047579Y-97286904D02*
X85095199Y-97239285D01*
X85095199Y-97239285D02*
X85142818Y-97144047D01*
X85142818Y-97144047D02*
X85142818Y-96858333D01*
X85142818Y-96858333D02*
X85095199Y-96763095D01*
X85095199Y-96763095D02*
X85047579Y-96715476D01*
D12*
%TO.C,R3*%
X91264999Y-96139564D02*
X91264999Y-95685436D01*
X92734999Y-96139564D02*
X92734999Y-95685436D01*
D13*
%TO.C,U3*%
X85476499Y-99000000D02*
X85476499Y-95000000D01*
X90523499Y-99000000D02*
X90523499Y-95000000D01*
D14*
X85654999Y-92720000D02*
G75*
G02*
X85454999Y-92720000I-100000J0D01*
G01*
X85454999Y-92720000D02*
G75*
G02*
X85654999Y-92720000I100000J0D01*
G01*
%TD*%
M02*
