M48
; DRILL file {KiCad 8.0.6} date 2024-10-31T15:29:07+0100
; FORMAT={-:-/ absolute / metric / decimal}
; #@! TF.CreationDate,2024-10-31T15:29:07+01:00
; #@! TF.GenerationSoftware,Kicad,Pcbnew,8.0.6
; #@! TF.FileFunction,Plated,1,4,PTH
FMAT,2
METRIC
; #@! TA.AperFunction,Plated,PTH,ViaDrill
T1C0.300
; #@! TA.AperFunction,Plated,PTH,ComponentDrill
T2C1.000
%
G90
G05
T1
X79.5Y-97.2
X80.4Y-99.6
X81.3Y-97.2
X82.4Y-95.9
X82.4Y-98.4
X86.0Y-102.0
T2
X69.14Y-86.0
X69.14Y-90.0
X69.14Y-106.22
X69.14Y-108.76
X69.14Y-111.3
X69.14Y-113.84
X69.14Y-116.38
X69.14Y-118.92
X69.14Y-121.46
X69.14Y-124.0
X71.68Y-86.0
X71.68Y-90.0
X74.22Y-86.0
X74.22Y-90.0
X76.76Y-86.0
X76.76Y-90.0
X79.3Y-86.0
X79.3Y-90.0
X81.84Y-86.0
X81.84Y-90.0
X84.38Y-86.0
X84.38Y-90.0
X86.92Y-86.0
X86.92Y-90.0
X89.46Y-86.0
X89.46Y-90.0
X92.0Y-86.0
X92.0Y-90.0
X92.0Y-106.22
X92.0Y-108.76
X92.0Y-111.3
X92.0Y-113.84
X92.0Y-116.38
X92.0Y-118.92
X92.0Y-121.46
X92.0Y-124.0
M30
