%TF.GenerationSoftware,KiCad,Pcbnew,8.0.6*%
%TF.CreationDate,2024-10-31T15:28:50+01:00*%
%TF.ProjectId,PCB_FINAL2.1,5043425f-4649-44e4-914c-322e312e6b69,rev?*%
%TF.SameCoordinates,Original*%
%TF.FileFunction,Copper,L4,Bot*%
%TF.FilePolarity,Positive*%
%FSLAX46Y46*%
G04 Gerber Fmt 4.6, Leading zero omitted, Abs format (unit mm)*
G04 Created by KiCad (PCBNEW 8.0.6) date 2024-10-31 15:28:50*
%MOMM*%
%LPD*%
G01*
G04 APERTURE LIST*
G04 Aperture macros list*
%AMRoundRect*
0 Rectangle with rounded corners*
0 $1 Rounding radius*
0 $2 $3 $4 $5 $6 $7 $8 $9 X,Y pos of 4 corners*
0 Add a 4 corners polygon primitive as box body*
4,1,4,$2,$3,$4,$5,$6,$7,$8,$9,$2,$3,0*
0 Add four circle primitives for the rounded corners*
1,1,$1+$1,$2,$3*
1,1,$1+$1,$4,$5*
1,1,$1+$1,$6,$7*
1,1,$1+$1,$8,$9*
0 Add four rect primitives between the rounded corners*
20,1,$1+$1,$2,$3,$4,$5,0*
20,1,$1+$1,$4,$5,$6,$7,0*
20,1,$1+$1,$6,$7,$8,$9,0*
20,1,$1+$1,$8,$9,$2,$3,0*%
G04 Aperture macros list end*
%TA.AperFunction,ComponentPad*%
%ADD10R,1.700000X1.700000*%
%TD*%
%TA.AperFunction,ComponentPad*%
%ADD11O,1.700000X1.700000*%
%TD*%
%TA.AperFunction,ComponentPad*%
%ADD12R,2.000000X2.000000*%
%TD*%
%TA.AperFunction,ComponentPad*%
%ADD13O,2.000000X1.600000*%
%TD*%
%TA.AperFunction,SMDPad,CuDef*%
%ADD14RoundRect,0.250000X-0.450000X0.262500X-0.450000X-0.262500X0.450000X-0.262500X0.450000X0.262500X0*%
%TD*%
%TA.AperFunction,SMDPad,CuDef*%
%ADD15RoundRect,0.076250X-0.228750X0.748750X-0.228750X-0.748750X0.228750X-0.748750X0.228750X0.748750X0*%
%TD*%
%TA.AperFunction,ViaPad*%
%ADD16C,0.500000*%
%TD*%
%TA.AperFunction,Conductor*%
%ADD17C,0.400000*%
%TD*%
G04 APERTURE END LIST*
D10*
%TO.P,J1,1,Pin_1*%
%TO.N,3v3*%
X91999999Y-86000000D03*
D11*
%TO.P,J1,2,Pin_2*%
X89459999Y-86000000D03*
%TO.P,J1,3,Pin_3*%
%TO.N,CS{slash}D8*%
X86919999Y-86000000D03*
%TO.P,J1,4,Pin_4*%
%TO.N,MISO{slash}D6*%
X84379999Y-86000000D03*
%TO.P,J1,5,Pin_5*%
%TO.N,D0*%
X81839999Y-86000000D03*
%TO.P,J1,6,Pin_6*%
%TO.N,RX1*%
X79299999Y-86000000D03*
%TO.P,J1,7,Pin_7*%
%TO.N,+5V*%
X76759999Y-86000000D03*
%TO.P,J1,8,Pin_8*%
X74219999Y-86000000D03*
%TO.P,J1,9,Pin_9*%
%TO.N,D3*%
X71679999Y-86000000D03*
%TO.P,J1,10,Pin_10*%
%TO.N,D4*%
X69139999Y-86000000D03*
%TD*%
D12*
%TO.P,U2,1,~{RST}*%
%TO.N,RST1*%
X91999999Y-124000000D03*
D13*
%TO.P,U2,2,A0*%
%TO.N,A0*%
X91999999Y-121460000D03*
%TO.P,U2,3,D0*%
%TO.N,D0*%
X91999999Y-118920000D03*
%TO.P,U2,4,SCK/D5*%
%TO.N,SCK{slash}D5*%
X91999999Y-116380000D03*
%TO.P,U2,5,MISO/D6*%
%TO.N,MISO{slash}D6*%
X91999999Y-113840000D03*
%TO.P,U2,6,MOSI/D7*%
%TO.N,MOSI{slash}D7*%
X91999999Y-111300000D03*
%TO.P,U2,7,CS/D8*%
%TO.N,CS{slash}D8*%
X91999999Y-108760000D03*
%TO.P,U2,8,3V3*%
%TO.N,3v3*%
X91999999Y-106220000D03*
%TO.P,U2,9,5V*%
%TO.N,+5V*%
X69139999Y-106220000D03*
%TO.P,U2,10,GND*%
%TO.N,PdiodeC-*%
X69139999Y-108760000D03*
%TO.P,U2,11,D4*%
%TO.N,D4*%
X69139999Y-111300000D03*
%TO.P,U2,12,D3*%
%TO.N,D3*%
X69139999Y-113840000D03*
%TO.P,U2,13,SDA/D2*%
%TO.N,SDA{slash}D2*%
X69139999Y-116380000D03*
%TO.P,U2,14,SCL/D1*%
%TO.N,SCL{slash}D1*%
X69139999Y-118920000D03*
%TO.P,U2,15,RX*%
%TO.N,RX1*%
X69139999Y-121460000D03*
%TO.P,U2,16,TX*%
%TO.N,TX1*%
X69139999Y-124000000D03*
%TD*%
D10*
%TO.P,J2,1,Pin_1*%
%TO.N,PdiodeC-*%
X91999999Y-90000000D03*
D11*
%TO.P,J2,2,Pin_2*%
%TO.N,PdiodeA+*%
X89459999Y-90000000D03*
%TO.P,J2,3,Pin_3*%
%TO.N,MOSI{slash}D7*%
X86919999Y-90000000D03*
%TO.P,J2,4,Pin_4*%
%TO.N,SCK{slash}D5*%
X84379999Y-90000000D03*
%TO.P,J2,5,Pin_5*%
%TO.N,RST1*%
X81839999Y-90000000D03*
%TO.P,J2,6,Pin_6*%
%TO.N,TX1*%
X79299999Y-90000000D03*
%TO.P,J2,7,Pin_7*%
%TO.N,SCL{slash}D1*%
X76759999Y-90000000D03*
%TO.P,J2,8,Pin_8*%
%TO.N,SDA{slash}D2*%
X74219999Y-90000000D03*
%TO.P,J2,9,Pin_9*%
%TO.N,9V1*%
X71679999Y-90000000D03*
%TO.P,J2,10,Pin_10*%
%TO.N,+5V*%
X69139999Y-90000000D03*
%TD*%
D14*
%TO.P,R3,1*%
%TO.N,PdiodeA+*%
X91999999Y-95000000D03*
%TO.P,R3,2*%
%TO.N,A0*%
X91999999Y-96825000D03*
%TD*%
D15*
%TO.P,U3,1,VOUTA*%
%TO.N,A0*%
X86094999Y-94370000D03*
%TO.P,U3,2,VINA-*%
%TO.N,PdiodeC-*%
X87364999Y-94370000D03*
%TO.P,U3,3,VINA+*%
%TO.N,PdiodeA+*%
X88634999Y-94370000D03*
%TO.P,U3,4,VSS*%
%TO.N,PdiodeC-*%
X89904999Y-94370000D03*
%TO.P,U3,5,VINB+*%
%TO.N,unconnected-(U3-VINB+-Pad5)*%
X89904999Y-99630000D03*
%TO.P,U3,6,VINB-*%
%TO.N,unconnected-(U3-VINB--Pad6)*%
X88634999Y-99630000D03*
%TO.P,U3,7,VOUTB*%
%TO.N,unconnected-(U3-VOUTB-Pad7)*%
X87364999Y-99630000D03*
%TO.P,U3,8,VDD*%
%TO.N,+5V*%
X86094999Y-99630000D03*
%TD*%
D16*
%TO.N,+5V*%
X85999999Y-102000000D03*
%TO.N,PdiodeC-*%
X80399999Y-99600000D03*
X79499999Y-97200000D03*
X82399999Y-95900000D03*
X82399999Y-98400000D03*
X81299999Y-97200000D03*
%TD*%
D17*
%TO.N,+5V*%
X86094999Y-100454999D02*
X85999999Y-100549999D01*
X85999999Y-100549999D02*
X85999999Y-102000000D01*
X86094999Y-99630000D02*
X86094999Y-100454999D01*
%TO.N,D0*%
X77999999Y-96000000D02*
X77999999Y-104920000D01*
X83089999Y-90910000D02*
X77999999Y-96000000D01*
X81839999Y-86000000D02*
X83089999Y-87250000D01*
X83089999Y-87250000D02*
X83089999Y-90910000D01*
X77999999Y-104920000D02*
X91999999Y-118920000D01*
%TO.N,MISO{slash}D6*%
X85629999Y-87250000D02*
X84379999Y-86000000D01*
X79719999Y-98280000D02*
X80619999Y-97380000D01*
X80619999Y-97380000D02*
X80619999Y-95380000D01*
X80619999Y-95380000D02*
X81999999Y-94000000D01*
X81999999Y-94000000D02*
X82147766Y-94000000D01*
X91999999Y-113840000D02*
X79719999Y-101560000D01*
X79719999Y-101560000D02*
X79719999Y-98280000D01*
X85629999Y-90517767D02*
X85629999Y-87250000D01*
X82147766Y-94000000D02*
X85629999Y-90517767D01*
%TO.N,SCL{slash}D1*%
X71999999Y-95962081D02*
X71999999Y-116060000D01*
X71999999Y-116060000D02*
X69139999Y-118920000D01*
X76759999Y-91202081D02*
X71999999Y-95962081D01*
X76759999Y-90000000D02*
X76759999Y-91202081D01*
%TO.N,RST1*%
X89152468Y-124000000D02*
X91999999Y-124000000D01*
X81839999Y-90000000D02*
X76999999Y-94840000D01*
X76999999Y-111847531D02*
X89152468Y-124000000D01*
X76999999Y-94840000D02*
X76999999Y-111847531D01*
%TO.N,MOSI{slash}D7*%
X83079999Y-102380000D02*
X91999999Y-111300000D01*
X86919999Y-90000000D02*
X85389999Y-91530000D01*
X82999999Y-94000000D02*
X83079999Y-94080000D01*
X83079999Y-94080000D02*
X83079999Y-102380000D01*
X85389999Y-91610000D02*
X82999999Y-94000000D01*
X91999999Y-110657056D02*
X91999999Y-111300000D01*
X85389999Y-91530000D02*
X85389999Y-91610000D01*
%TO.N,SDA{slash}D2*%
X71066999Y-93153000D02*
X71066999Y-114453000D01*
X74219999Y-90000000D02*
X71066999Y-93153000D01*
X71066999Y-114453000D02*
X69139999Y-116380000D01*
%TO.N,D3*%
X70429999Y-87250000D02*
X70429999Y-105612944D01*
X70539999Y-105722944D02*
X70539999Y-112440000D01*
X70429999Y-105612944D02*
X70539999Y-105722944D01*
X70539999Y-112440000D02*
X69139999Y-113840000D01*
X71679999Y-86000000D02*
X70429999Y-87250000D01*
%TO.N,RX1*%
X78049999Y-87250000D02*
X78049999Y-90950000D01*
X78049999Y-90950000D02*
X72999999Y-96000000D01*
X72999999Y-117600000D02*
X69139999Y-121460000D01*
X72999999Y-96000000D02*
X72999999Y-117600000D01*
X79299999Y-86000000D02*
X78049999Y-87250000D01*
%TO.N,CS{slash}D8*%
X90205289Y-108760000D02*
X83606999Y-102161710D01*
X87749999Y-91250000D02*
X88169999Y-90830000D01*
X86495289Y-91250000D02*
X87749999Y-91250000D01*
X91999999Y-108760000D02*
X90205289Y-108760000D01*
X88169999Y-90830000D02*
X88169999Y-87250000D01*
X83606999Y-94138290D02*
X86495289Y-91250000D01*
X88169999Y-87250000D02*
X86919999Y-86000000D01*
X83606999Y-102161710D02*
X83606999Y-94138290D01*
%TO.N,A0*%
X86094999Y-95194999D02*
X86094999Y-94370000D01*
X93399999Y-120060000D02*
X91999999Y-121460000D01*
X93399999Y-99400000D02*
X93399999Y-120060000D01*
X91999999Y-98000000D02*
X93399999Y-99400000D01*
X87725000Y-96825000D02*
X86094999Y-95194999D01*
X91999999Y-96825000D02*
X91999999Y-98000000D01*
X91999999Y-96825000D02*
X87725000Y-96825000D01*
%TO.N,SCK{slash}D5*%
X78819999Y-103200000D02*
X91999999Y-116380000D01*
X78819999Y-96180000D02*
X78819999Y-103200000D01*
X84379999Y-90620000D02*
X78819999Y-96180000D01*
X84379999Y-90000000D02*
X84379999Y-90620000D01*
%TO.N,TX1*%
X73999999Y-96000000D02*
X73999999Y-119140000D01*
X79299999Y-90000000D02*
X79299999Y-90700000D01*
X73999999Y-119140000D02*
X69139999Y-124000000D01*
X79299999Y-90700000D02*
X73999999Y-96000000D01*
%TO.N,D4*%
X69139999Y-86000000D02*
X66999999Y-88140000D01*
X66999999Y-88140000D02*
X66999999Y-109160000D01*
X66999999Y-109160000D02*
X69139999Y-111300000D01*
%TO.N,PdiodeA+*%
X91999999Y-95000000D02*
X90999999Y-96000000D01*
X88634999Y-93545001D02*
X89459999Y-92720001D01*
X88634999Y-95194999D02*
X88634999Y-94370000D01*
X88634999Y-94370000D02*
X88634999Y-93545001D01*
X89440000Y-96000000D02*
X88634999Y-95194999D01*
X89459999Y-92720001D02*
X89459999Y-90000000D01*
X90999999Y-96000000D02*
X89440000Y-96000000D01*
%TO.N,PdiodeC-*%
X89904999Y-94370000D02*
X91999999Y-92275000D01*
X91999999Y-92275000D02*
X91999999Y-90000000D01*
%TD*%
M02*
