%TF.GenerationSoftware,KiCad,Pcbnew,8.0.4-1.fc40*%
%TF.CreationDate,2024-08-22T17:25:04+02:00*%
%TF.ProjectId,WLED_Board,574c4544-5f42-46f6-9172-642e6b696361,rev?*%
%TF.SameCoordinates,Original*%
%TF.FileFunction,Copper,L1,Top*%
%TF.FilePolarity,Positive*%
%FSLAX46Y46*%
G04 Gerber Fmt 4.6, Leading zero omitted, Abs format (unit mm)*
G04 Created by KiCad (PCBNEW 8.0.4-1.fc40) date 2024-08-22 17:25:04*
%MOMM*%
%LPD*%
G01*
G04 APERTURE LIST*
G04 Aperture macros list*
%AMRoundRect*
0 Rectangle with rounded corners*
0 $1 Rounding radius*
0 $2 $3 $4 $5 $6 $7 $8 $9 X,Y pos of 4 corners*
0 Add a 4 corners polygon primitive as box body*
4,1,4,$2,$3,$4,$5,$6,$7,$8,$9,$2,$3,0*
0 Add four circle primitives for the rounded corners*
1,1,$1+$1,$2,$3*
1,1,$1+$1,$4,$5*
1,1,$1+$1,$6,$7*
1,1,$1+$1,$8,$9*
0 Add four rect primitives between the rounded corners*
20,1,$1+$1,$2,$3,$4,$5,0*
20,1,$1+$1,$4,$5,$6,$7,0*
20,1,$1+$1,$6,$7,$8,$9,0*
20,1,$1+$1,$8,$9,$2,$3,0*%
G04 Aperture macros list end*
%TA.AperFunction,SMDPad,CuDef*%
%ADD10C,0.500000*%
%TD*%
%TA.AperFunction,SMDPad,CuDef*%
%ADD11RoundRect,0.237500X0.237500X-0.300000X0.237500X0.300000X-0.237500X0.300000X-0.237500X-0.300000X0*%
%TD*%
%TA.AperFunction,SMDPad,CuDef*%
%ADD12R,0.660400X2.032000*%
%TD*%
%TA.AperFunction,ComponentPad*%
%ADD13R,2.000000X2.000000*%
%TD*%
%TA.AperFunction,ComponentPad*%
%ADD14O,2.000000X1.600000*%
%TD*%
%TA.AperFunction,ComponentPad*%
%ADD15RoundRect,0.250000X0.725000X-0.600000X0.725000X0.600000X-0.725000X0.600000X-0.725000X-0.600000X0*%
%TD*%
%TA.AperFunction,ComponentPad*%
%ADD16O,1.950000X1.700000*%
%TD*%
%TA.AperFunction,SMDPad,CuDef*%
%ADD17RoundRect,0.237500X0.250000X0.237500X-0.250000X0.237500X-0.250000X-0.237500X0.250000X-0.237500X0*%
%TD*%
%TA.AperFunction,ComponentPad*%
%ADD18R,3.500000X3.500000*%
%TD*%
%TA.AperFunction,ComponentPad*%
%ADD19RoundRect,0.750000X0.750000X1.000000X-0.750000X1.000000X-0.750000X-1.000000X0.750000X-1.000000X0*%
%TD*%
%TA.AperFunction,ComponentPad*%
%ADD20RoundRect,0.875000X0.875000X0.875000X-0.875000X0.875000X-0.875000X-0.875000X0.875000X-0.875000X0*%
%TD*%
%TA.AperFunction,ViaPad*%
%ADD21C,0.500000*%
%TD*%
%TA.AperFunction,ViaPad*%
%ADD22C,0.600000*%
%TD*%
%TA.AperFunction,Conductor*%
%ADD23C,0.340000*%
%TD*%
%TA.AperFunction,Conductor*%
%ADD24C,0.150000*%
%TD*%
G04 APERTURE END LIST*
D10*
%TO.P,FID1,*%
%TO.N,*%
X104049999Y-95900000D03*
%TD*%
D11*
%TO.P,C4,1*%
%TO.N,GND*%
X90749999Y-108612500D03*
%TO.P,C4,2*%
%TO.N,+5V*%
X90749999Y-106887500D03*
%TD*%
D10*
%TO.P,FID2,*%
%TO.N,*%
X87149999Y-96200000D03*
%TD*%
D12*
%TO.P,IC1,1,1OE*%
%TO.N,GND*%
X92689572Y-111064700D03*
%TO.P,IC1,2,1A*%
%TO.N,D1_data*%
X93959572Y-111064700D03*
%TO.P,IC1,3,1Y*%
%TO.N,LED_data*%
X95229572Y-111064700D03*
%TO.P,IC1,4,2OE*%
%TO.N,+5V*%
X96499572Y-111064700D03*
%TO.P,IC1,5,2A*%
%TO.N,unconnected-(IC1-2A-Pad5)*%
X97769572Y-111064700D03*
%TO.P,IC1,6,2Y*%
%TO.N,unconnected-(IC1-2Y-Pad6)*%
X99039572Y-111064700D03*
%TO.P,IC1,7,GND*%
%TO.N,GND*%
X100309572Y-111064700D03*
%TO.P,IC1,8,3Y*%
%TO.N,unconnected-(IC1-3Y-Pad8)*%
X100309572Y-104435300D03*
%TO.P,IC1,9,3A*%
%TO.N,unconnected-(IC1-3A-Pad9)*%
X99039572Y-104435300D03*
%TO.P,IC1,10,3OE*%
%TO.N,+5V*%
X97769572Y-104435300D03*
%TO.P,IC1,11,4Y*%
%TO.N,unconnected-(IC1-4Y-Pad11)*%
X96499572Y-104435300D03*
%TO.P,IC1,12,4A*%
%TO.N,unconnected-(IC1-4A-Pad12)*%
X95229572Y-104435300D03*
%TO.P,IC1,13,4OE*%
%TO.N,+5V*%
X93959572Y-104435300D03*
%TO.P,IC1,14,VCC*%
X92689572Y-104435300D03*
%TD*%
D13*
%TO.P,U2,1,~{RST}*%
%TO.N,unconnected-(U2-~{RST}-Pad1)*%
X84140000Y-88300000D03*
D14*
%TO.P,U2,2,A0*%
%TO.N,unconnected-(U2-A0-Pad2)*%
X84140000Y-90840000D03*
%TO.P,U2,3,D0*%
%TO.N,unconnected-(U2-D0-Pad3)*%
X84140000Y-93380000D03*
%TO.P,U2,4,SCK/D5*%
%TO.N,unconnected-(U2-SCK{slash}D5-Pad4)*%
X84140000Y-95920000D03*
%TO.P,U2,5,MISO/D6*%
%TO.N,unconnected-(U2-MISO{slash}D6-Pad5)*%
X84140000Y-98460000D03*
%TO.P,U2,6,MOSI/D7*%
%TO.N,unconnected-(U2-MOSI{slash}D7-Pad6)*%
X84140000Y-101000000D03*
%TO.P,U2,7,CS/D8*%
%TO.N,D1_Relay*%
X84140000Y-103540000D03*
%TO.P,U2,8,3V3*%
%TO.N,unconnected-(U2-3V3-Pad8)*%
X84140000Y-106080000D03*
%TO.P,U2,9,5V*%
%TO.N,+5V*%
X107000000Y-106080000D03*
%TO.P,U2,10,GND*%
%TO.N,GND*%
X107000000Y-103540000D03*
%TO.P,U2,11,D4*%
%TO.N,D1_data*%
X107000000Y-101000000D03*
%TO.P,U2,12,D3*%
%TO.N,unconnected-(U2-D3-Pad12)*%
X107000000Y-98460000D03*
%TO.P,U2,13,SDA/D2*%
%TO.N,unconnected-(U2-SDA{slash}D2-Pad13)*%
X107000000Y-95920000D03*
%TO.P,U2,14,SCL/D1*%
%TO.N,unconnected-(U2-SCL{slash}D1-Pad14)*%
X107000000Y-93380000D03*
%TO.P,U2,15,RX*%
%TO.N,unconnected-(U2-RX-Pad15)*%
X107000000Y-90840000D03*
%TO.P,U2,16,TX*%
%TO.N,unconnected-(U2-TX-Pad16)*%
X107000000Y-88300000D03*
%TD*%
D15*
%TO.P,J1,1,Pin_1*%
%TO.N,12V_switched*%
X85975000Y-124000000D03*
D16*
%TO.P,J1,2,Pin_2*%
%TO.N,/DATA_OUT*%
X85975000Y-121500000D03*
%TO.P,J1,3,Pin_3*%
%TO.N,GND*%
X85975000Y-119000000D03*
%TD*%
D17*
%TO.P,R3,1*%
%TO.N,LED_data*%
X90162499Y-113250000D03*
%TO.P,R3,2*%
%TO.N,/DATA_OUT*%
X88337499Y-113250000D03*
%TD*%
D18*
%TO.P,J2,1*%
%TO.N,+12V*%
X95049999Y-122157500D03*
D19*
%TO.P,J2,2*%
%TO.N,GND*%
X101049999Y-122157500D03*
D20*
%TO.P,J2,3*%
%TO.N,N/C*%
X98049999Y-117457500D03*
%TD*%
D10*
%TO.P,FID3,*%
%TO.N,*%
X92299999Y-118900000D03*
%TD*%
D21*
%TO.N,GND*%
X88299999Y-111600000D03*
X98499999Y-125950000D03*
X82099999Y-113150000D03*
X95599999Y-97950000D03*
X108849999Y-111300000D03*
X108649999Y-126800000D03*
X91499999Y-112250000D03*
X89449999Y-97950000D03*
X102249999Y-112000000D03*
X94549999Y-127800000D03*
X108849999Y-112950000D03*
X86499999Y-105250000D03*
X108899999Y-114750000D03*
X104499999Y-114500000D03*
X102049999Y-118850000D03*
X91049999Y-97950000D03*
X82149999Y-118750000D03*
X89999999Y-101000000D03*
X88249999Y-117950000D03*
X84799999Y-127800000D03*
X101049999Y-127900000D03*
X106649999Y-126350000D03*
X82099999Y-102700000D03*
X104649999Y-121850000D03*
D22*
X92199999Y-108900000D03*
D21*
X108849999Y-124300000D03*
X94199999Y-97950000D03*
X98249999Y-97950000D03*
X102399999Y-127900000D03*
X82099999Y-109900000D03*
X82249999Y-125250000D03*
X87049999Y-116850000D03*
X108899999Y-103350000D03*
X106599999Y-117950000D03*
X92799999Y-97950000D03*
X104499999Y-126350000D03*
X102099999Y-97950000D03*
X82099999Y-111450000D03*
X108849999Y-107550000D03*
X94999999Y-126000000D03*
X106599999Y-120950000D03*
X88649999Y-121150000D03*
X87799999Y-127800000D03*
X107649999Y-127750000D03*
X108849999Y-120550000D03*
X90649999Y-127800000D03*
X82099999Y-114850000D03*
X103699999Y-127900000D03*
X101749999Y-99000000D03*
X98399999Y-127850000D03*
X95499999Y-113750000D03*
X108849999Y-116400000D03*
X108899999Y-97850000D03*
X87999999Y-102250000D03*
X82399999Y-126850000D03*
X86099999Y-107800000D03*
X106599999Y-109400000D03*
X101499999Y-125750000D03*
X105049999Y-127950000D03*
X82149999Y-101050000D03*
X82149999Y-98100000D03*
X87849999Y-97950000D03*
X89349999Y-127800000D03*
X101899999Y-115050000D03*
X108849999Y-123050000D03*
X100399999Y-107500000D03*
X108849999Y-117700000D03*
X84049999Y-111800000D03*
X85299999Y-110250000D03*
X106599999Y-115050000D03*
X108849999Y-125550000D03*
X82149999Y-104500000D03*
X86299999Y-127800000D03*
X82099999Y-106450000D03*
X84099999Y-108750000D03*
X87999999Y-100000000D03*
X91249999Y-102250000D03*
X99699999Y-127900000D03*
X108899999Y-101700000D03*
X82149999Y-99600000D03*
X91399999Y-125900000D03*
X103249999Y-97950000D03*
X104449999Y-118250000D03*
X108849999Y-109350000D03*
X97999999Y-106600000D03*
X88849999Y-123700000D03*
X83349999Y-127750000D03*
X99549999Y-97950000D03*
X108849999Y-121850000D03*
X92499999Y-100000000D03*
X108849999Y-100100000D03*
X106449999Y-127950000D03*
X86599999Y-97900000D03*
X82099999Y-108200000D03*
X96699999Y-109500000D03*
X86899999Y-110600000D03*
X108899999Y-105550000D03*
X88899999Y-125850000D03*
X91899999Y-127800000D03*
X93249999Y-127800000D03*
X82099999Y-120700000D03*
X98299999Y-122100000D03*
X95849999Y-127800000D03*
D22*
X88750000Y-105800000D03*
D21*
X82149999Y-117050000D03*
X108849999Y-119200000D03*
X104549999Y-119950000D03*
X93249999Y-107000000D03*
X104549999Y-124050000D03*
X99199999Y-109500000D03*
X101999999Y-116900000D03*
X97149999Y-127800000D03*
X82099999Y-122800000D03*
X104399999Y-97950000D03*
X96999999Y-97950000D03*
X106549999Y-112200000D03*
D22*
X100299999Y-112800000D03*
D21*
X97999999Y-108400000D03*
X106699999Y-123750000D03*
X94499999Y-106250000D03*
X100849999Y-97950000D03*
X104499999Y-115500000D03*
X90999999Y-110250000D03*
X89499999Y-104000000D03*
%TO.N,+5V*%
X96499999Y-112800000D03*
X101749999Y-100000000D03*
%TD*%
D23*
%TO.N,GND*%
X91912499Y-108612500D02*
X92199999Y-108900000D01*
X92199999Y-108900000D02*
X92689572Y-109389573D01*
X90749999Y-108612500D02*
X91912499Y-108612500D01*
X100309572Y-112790427D02*
X100299999Y-112800000D01*
X92689572Y-109389573D02*
X92689572Y-111064700D01*
X100309572Y-111064700D02*
X100309572Y-112790427D01*
%TO.N,+5V*%
X99199999Y-101700000D02*
X95349999Y-101700000D01*
X93959572Y-103090427D02*
X95349999Y-101700000D01*
X100049999Y-101700000D02*
X99199999Y-101700000D01*
X91712499Y-106887500D02*
X92689572Y-105910427D01*
X101749999Y-100000000D02*
X100049999Y-101700000D01*
X92689572Y-105910427D02*
X92689572Y-104435300D01*
X96499572Y-112799573D02*
X96499999Y-112800000D01*
X95349999Y-101700000D02*
X94099999Y-101700000D01*
X94099999Y-101700000D02*
X92689572Y-103110427D01*
X97769572Y-104435300D02*
X97769572Y-103130427D01*
X97769572Y-103130427D02*
X99199999Y-101700000D01*
X90749999Y-106887500D02*
X91712499Y-106887500D01*
X92689572Y-103110427D02*
X92689572Y-104435300D01*
X96499572Y-111064700D02*
X96499572Y-112799573D01*
X93959572Y-104435300D02*
X93959572Y-103090427D01*
D24*
%TO.N,/DATA_OUT*%
X88337499Y-113250000D02*
X86249999Y-113250000D01*
X84749999Y-121500000D02*
X85975000Y-121500000D01*
X84249999Y-121000000D02*
X84749999Y-121500000D01*
X86249999Y-113250000D02*
X84249999Y-115250000D01*
X84249999Y-115250000D02*
X84249999Y-121000000D01*
%TO.N,LED_data*%
X90162499Y-113250000D02*
X94699999Y-113250000D01*
X94699999Y-113250000D02*
X95229572Y-112720427D01*
X95229572Y-112720427D02*
X95229572Y-111064700D01*
%TO.N,D1_data*%
X102100000Y-105900000D02*
X95999999Y-105900000D01*
X95999999Y-105900000D02*
X93959572Y-107940427D01*
X93959572Y-107940427D02*
X93959572Y-111064700D01*
X107000000Y-101000000D02*
X102100000Y-105900000D01*
%TD*%
%TA.AperFunction,Conductor*%
%TO.N,GND*%
G36*
X83078988Y-97269685D02*
G01*
X83124743Y-97322489D01*
X83134687Y-97391647D01*
X83105662Y-97455203D01*
X83096218Y-97464581D01*
X83096226Y-97464589D01*
X82948032Y-97612782D01*
X82948028Y-97612786D01*
X82827715Y-97778386D01*
X82734781Y-97960776D01*
X82671522Y-98155465D01*
X82639500Y-98357648D01*
X82639500Y-98562351D01*
X82671522Y-98764534D01*
X82734781Y-98959223D01*
X82827715Y-99141613D01*
X82948028Y-99307213D01*
X83092786Y-99451971D01*
X83240274Y-99559125D01*
X83258390Y-99572287D01*
X83349840Y-99618883D01*
X83351080Y-99619515D01*
X83401876Y-99667490D01*
X83418671Y-99735311D01*
X83396134Y-99801446D01*
X83351080Y-99840485D01*
X83258386Y-99887715D01*
X83092786Y-100008028D01*
X82948028Y-100152786D01*
X82827715Y-100318386D01*
X82734781Y-100500776D01*
X82671522Y-100695465D01*
X82639500Y-100897648D01*
X82639500Y-101102351D01*
X82671522Y-101304534D01*
X82734781Y-101499223D01*
X82798691Y-101624653D01*
X82825421Y-101677112D01*
X82827715Y-101681613D01*
X82948028Y-101847213D01*
X83092786Y-101991971D01*
X83247749Y-102104556D01*
X83258390Y-102112287D01*
X83349840Y-102158883D01*
X83351080Y-102159515D01*
X83401876Y-102207490D01*
X83418671Y-102275311D01*
X83396134Y-102341446D01*
X83351080Y-102380485D01*
X83258386Y-102427715D01*
X83092786Y-102548028D01*
X82948028Y-102692786D01*
X82827715Y-102858386D01*
X82734781Y-103040776D01*
X82671522Y-103235465D01*
X82639500Y-103437648D01*
X82639500Y-103642351D01*
X82671522Y-103844534D01*
X82734781Y-104039223D01*
X82827715Y-104221613D01*
X82948028Y-104387213D01*
X83092786Y-104531971D01*
X83247749Y-104644556D01*
X83258390Y-104652287D01*
X83349840Y-104698883D01*
X83351080Y-104699515D01*
X83401876Y-104747490D01*
X83418671Y-104815311D01*
X83396134Y-104881446D01*
X83351080Y-104920485D01*
X83258386Y-104967715D01*
X83092786Y-105088028D01*
X82948028Y-105232786D01*
X82827715Y-105398386D01*
X82734781Y-105580776D01*
X82671522Y-105775465D01*
X82639500Y-105977648D01*
X82639500Y-106182351D01*
X82671522Y-106384534D01*
X82734781Y-106579223D01*
X82827715Y-106761613D01*
X82948028Y-106927213D01*
X83092786Y-107071971D01*
X83247749Y-107184556D01*
X83258390Y-107192287D01*
X83345530Y-107236687D01*
X83440776Y-107285218D01*
X83440778Y-107285218D01*
X83440781Y-107285220D01*
X83545137Y-107319127D01*
X83635465Y-107348477D01*
X83736557Y-107364488D01*
X83837648Y-107380500D01*
X83837649Y-107380500D01*
X84442351Y-107380500D01*
X84442352Y-107380500D01*
X84644534Y-107348477D01*
X84839219Y-107285220D01*
X85021610Y-107192287D01*
X85114590Y-107124732D01*
X85187213Y-107071971D01*
X85187215Y-107071968D01*
X85187219Y-107071966D01*
X85331966Y-106927219D01*
X85331968Y-106927215D01*
X85331971Y-106927213D01*
X85384732Y-106854590D01*
X85452287Y-106761610D01*
X85545220Y-106579219D01*
X85608477Y-106384534D01*
X85640500Y-106182352D01*
X85640500Y-105977648D01*
X85608477Y-105775466D01*
X85545220Y-105580781D01*
X85545218Y-105580778D01*
X85545218Y-105580776D01*
X85499120Y-105490305D01*
X85452287Y-105398390D01*
X85444556Y-105387749D01*
X85331971Y-105232786D01*
X85187213Y-105088028D01*
X85021614Y-104967715D01*
X85015006Y-104964348D01*
X84928917Y-104920483D01*
X84878123Y-104872511D01*
X84861328Y-104804690D01*
X84883865Y-104738555D01*
X84928917Y-104699516D01*
X85021610Y-104652287D01*
X85042770Y-104636913D01*
X85187213Y-104531971D01*
X85187215Y-104531968D01*
X85187219Y-104531966D01*
X85331966Y-104387219D01*
X85331968Y-104387215D01*
X85331971Y-104387213D01*
X85384732Y-104314590D01*
X85452287Y-104221610D01*
X85545220Y-104039219D01*
X85608477Y-103844534D01*
X85640500Y-103642352D01*
X85640500Y-103437648D01*
X85630012Y-103371428D01*
X85608477Y-103235465D01*
X85552035Y-103061755D01*
X85545220Y-103040781D01*
X85545218Y-103040778D01*
X85545218Y-103040776D01*
X85501981Y-102955920D01*
X85452287Y-102858390D01*
X85419183Y-102812826D01*
X85331971Y-102692786D01*
X85187213Y-102548028D01*
X85021614Y-102427715D01*
X84947957Y-102390185D01*
X84928917Y-102380483D01*
X84878123Y-102332511D01*
X84861328Y-102264690D01*
X84883865Y-102198555D01*
X84928917Y-102159516D01*
X85021610Y-102112287D01*
X85042770Y-102096913D01*
X85187213Y-101991971D01*
X85187215Y-101991968D01*
X85187219Y-101991966D01*
X85331966Y-101847219D01*
X85331968Y-101847215D01*
X85331971Y-101847213D01*
X85384732Y-101774590D01*
X85452287Y-101681610D01*
X85545220Y-101499219D01*
X85608477Y-101304534D01*
X85640500Y-101102352D01*
X85640500Y-100897648D01*
X85636500Y-100872396D01*
X85608477Y-100695465D01*
X85545742Y-100502388D01*
X85545220Y-100500781D01*
X85545218Y-100500778D01*
X85545218Y-100500776D01*
X85511503Y-100434607D01*
X85452287Y-100318390D01*
X85444556Y-100307749D01*
X85331971Y-100152786D01*
X85187213Y-100008028D01*
X85021614Y-99887715D01*
X85015006Y-99884348D01*
X84928917Y-99840483D01*
X84878123Y-99792511D01*
X84861328Y-99724690D01*
X84883865Y-99658555D01*
X84928917Y-99619516D01*
X85021610Y-99572287D01*
X85081040Y-99529109D01*
X85187213Y-99451971D01*
X85187215Y-99451968D01*
X85187219Y-99451966D01*
X85331966Y-99307219D01*
X85331968Y-99307215D01*
X85331971Y-99307213D01*
X85384732Y-99234590D01*
X85452287Y-99141610D01*
X85545220Y-98959219D01*
X85608477Y-98764534D01*
X85640500Y-98562352D01*
X85640500Y-98357648D01*
X85608477Y-98155466D01*
X85545220Y-97960781D01*
X85545218Y-97960778D01*
X85545218Y-97960776D01*
X85511503Y-97894607D01*
X85452287Y-97778390D01*
X85444556Y-97767749D01*
X85331971Y-97612786D01*
X85183774Y-97464589D01*
X85184575Y-97463787D01*
X85149322Y-97409769D01*
X85148832Y-97339901D01*
X85186192Y-97280859D01*
X85249543Y-97251389D01*
X85268051Y-97250000D01*
X105871949Y-97250000D01*
X105938988Y-97269685D01*
X105984743Y-97322489D01*
X105994687Y-97391647D01*
X105965662Y-97455203D01*
X105956218Y-97464581D01*
X105956226Y-97464589D01*
X105808032Y-97612782D01*
X105808028Y-97612786D01*
X105687715Y-97778386D01*
X105594781Y-97960776D01*
X105531522Y-98155465D01*
X105499500Y-98357648D01*
X105499500Y-98562351D01*
X105531522Y-98764534D01*
X105594781Y-98959223D01*
X105687715Y-99141613D01*
X105808028Y-99307213D01*
X105952786Y-99451971D01*
X106100274Y-99559125D01*
X106118390Y-99572287D01*
X106209840Y-99618883D01*
X106211080Y-99619515D01*
X106261876Y-99667490D01*
X106278671Y-99735311D01*
X106256134Y-99801446D01*
X106211080Y-99840485D01*
X106118386Y-99887715D01*
X105952786Y-100008028D01*
X105808028Y-100152786D01*
X105687715Y-100318386D01*
X105594781Y-100500778D01*
X105531523Y-100695466D01*
X105531520Y-100695478D01*
X105525977Y-100730466D01*
X105520525Y-100751125D01*
X105520573Y-100751140D01*
X105520099Y-100752739D01*
X105519605Y-100754614D01*
X105519320Y-100755373D01*
X105519316Y-100755385D01*
X105316692Y-101677111D01*
X105316692Y-101677112D01*
X105270286Y-101888202D01*
X105236859Y-101949259D01*
X101897939Y-105288181D01*
X101836616Y-105321666D01*
X101810258Y-105324500D01*
X101264272Y-105324500D01*
X101197233Y-105304815D01*
X101151478Y-105252011D01*
X101140272Y-105200500D01*
X101140271Y-103371429D01*
X101140270Y-103371423D01*
X101140269Y-103371416D01*
X101133863Y-103311817D01*
X101083568Y-103176969D01*
X101083567Y-103176968D01*
X101083565Y-103176964D01*
X100997319Y-103061755D01*
X100997316Y-103061752D01*
X100882107Y-102975506D01*
X100882100Y-102975502D01*
X100747258Y-102925210D01*
X100747257Y-102925209D01*
X100747255Y-102925209D01*
X100687645Y-102918800D01*
X100687635Y-102918800D01*
X99931501Y-102918800D01*
X99931495Y-102918801D01*
X99871888Y-102925208D01*
X99737036Y-102975505D01*
X99733995Y-102977166D01*
X99730609Y-102977902D01*
X99728731Y-102978603D01*
X99728630Y-102978332D01*
X99665722Y-102992016D01*
X99615149Y-102977166D01*
X99612107Y-102975505D01*
X99477254Y-102925208D01*
X99477255Y-102925208D01*
X99417655Y-102918801D01*
X99417653Y-102918800D01*
X99417645Y-102918800D01*
X99417637Y-102918800D01*
X99228790Y-102918800D01*
X99161751Y-102899115D01*
X99115996Y-102846311D01*
X99106052Y-102777153D01*
X99135077Y-102713597D01*
X99141109Y-102707119D01*
X99266048Y-102582181D01*
X99441410Y-102406819D01*
X99502733Y-102373334D01*
X99529091Y-102370500D01*
X100116038Y-102370500D01*
X100116039Y-102370499D01*
X100245577Y-102344733D01*
X100269605Y-102334780D01*
X100281315Y-102329930D01*
X100318947Y-102314342D01*
X100367600Y-102294190D01*
X100477418Y-102220811D01*
X101813085Y-100885142D01*
X101828024Y-100872403D01*
X102190870Y-100609652D01*
X102197592Y-100605114D01*
X102220889Y-100590477D01*
X102229964Y-100581400D01*
X102241111Y-100571521D01*
X102242879Y-100570134D01*
X102242883Y-100570131D01*
X102244261Y-100568961D01*
X102309409Y-100502388D01*
X102309410Y-100502385D01*
X102314119Y-100497574D01*
X102316497Y-100494868D01*
X102340476Y-100470890D01*
X102430455Y-100327690D01*
X102486312Y-100168059D01*
X102486312Y-100168058D01*
X102486313Y-100168056D01*
X102505248Y-100000002D01*
X102505248Y-99999997D01*
X102486313Y-99831943D01*
X102430453Y-99672305D01*
X102430451Y-99672302D01*
X102340480Y-99529115D01*
X102340475Y-99529109D01*
X102220889Y-99409523D01*
X102220883Y-99409518D01*
X102077696Y-99319547D01*
X102077693Y-99319545D01*
X101918055Y-99263685D01*
X101750002Y-99244751D01*
X101749996Y-99244751D01*
X101581942Y-99263685D01*
X101422304Y-99319545D01*
X101422301Y-99319547D01*
X101279114Y-99409518D01*
X101279112Y-99409520D01*
X101159521Y-99529110D01*
X101144902Y-99552375D01*
X101140344Y-99559125D01*
X100877599Y-99921966D01*
X100864847Y-99936920D01*
X99808588Y-100993181D01*
X99747265Y-101026666D01*
X99720907Y-101029500D01*
X94033957Y-101029500D01*
X93904424Y-101055265D01*
X93904421Y-101055266D01*
X93868682Y-101070068D01*
X93868683Y-101070069D01*
X93782398Y-101105809D01*
X93672580Y-101179188D01*
X93672576Y-101179191D01*
X92168763Y-102683004D01*
X92168760Y-102683008D01*
X92095383Y-102792824D01*
X92095379Y-102792831D01*
X92065991Y-102863783D01*
X92065991Y-102863784D01*
X92044840Y-102914845D01*
X92044838Y-102914851D01*
X92042553Y-102926335D01*
X92032665Y-102955920D01*
X91950709Y-103126158D01*
X91938250Y-103146679D01*
X91915575Y-103176969D01*
X91915574Y-103176971D01*
X91865280Y-103311817D01*
X91858873Y-103371416D01*
X91858873Y-103371423D01*
X91858872Y-103371435D01*
X91858872Y-105445285D01*
X91858533Y-105454447D01*
X91856523Y-105481570D01*
X91856523Y-105481578D01*
X91857124Y-105490305D01*
X91857125Y-105490309D01*
X91863460Y-105543991D01*
X91864147Y-105548245D01*
X91865279Y-105558780D01*
X91891110Y-105628034D01*
X91893059Y-105633670D01*
X91900343Y-105656496D01*
X91901971Y-105726347D01*
X91869893Y-105781874D01*
X91643860Y-106007907D01*
X91582537Y-106041392D01*
X91512845Y-106036408D01*
X91496469Y-106028903D01*
X91418525Y-105986079D01*
X91413139Y-105982941D01*
X91301521Y-105914095D01*
X91301516Y-105914093D01*
X91301515Y-105914092D01*
X91137752Y-105859826D01*
X91137750Y-105859825D01*
X91036677Y-105849500D01*
X90463329Y-105849500D01*
X90463311Y-105849501D01*
X90362246Y-105859825D01*
X90198483Y-105914092D01*
X90198480Y-105914093D01*
X90051647Y-106004661D01*
X89929660Y-106126648D01*
X89839092Y-106273481D01*
X89839091Y-106273484D01*
X89784825Y-106437247D01*
X89784825Y-106437248D01*
X89784824Y-106437248D01*
X89774499Y-106538315D01*
X89774499Y-107236669D01*
X89774500Y-107236687D01*
X89784824Y-107337752D01*
X89798990Y-107380500D01*
X89839091Y-107501516D01*
X89891854Y-107587059D01*
X89929660Y-107648351D01*
X89943981Y-107662672D01*
X89977466Y-107723995D01*
X89972482Y-107793687D01*
X89943984Y-107838032D01*
X89930051Y-107851965D01*
X89839550Y-107998688D01*
X89839545Y-107998699D01*
X89785318Y-108162347D01*
X89774999Y-108263345D01*
X89774999Y-108362500D01*
X91724998Y-108362500D01*
X91724998Y-108263360D01*
X91724997Y-108263345D01*
X91714679Y-108162347D01*
X91660452Y-107998699D01*
X91660449Y-107998692D01*
X91571029Y-107853722D01*
X91552588Y-107786329D01*
X91573510Y-107719666D01*
X91616850Y-107679953D01*
X91856271Y-107548410D01*
X91891781Y-107535474D01*
X91908077Y-107532233D01*
X91919414Y-107527536D01*
X91943815Y-107517430D01*
X91982237Y-107501515D01*
X92030100Y-107481690D01*
X92139918Y-107408311D01*
X93210383Y-106337846D01*
X93283762Y-106228027D01*
X93325753Y-106126650D01*
X93334305Y-106106005D01*
X93348575Y-106034260D01*
X93380959Y-105972353D01*
X93441674Y-105937778D01*
X93511443Y-105941517D01*
X93513523Y-105942271D01*
X93516710Y-105943459D01*
X93521889Y-105945391D01*
X93581499Y-105951800D01*
X94337644Y-105951799D01*
X94397255Y-105945391D01*
X94532103Y-105895096D01*
X94532106Y-105895093D01*
X94535141Y-105893437D01*
X94538527Y-105892700D01*
X94540413Y-105891997D01*
X94540514Y-105892267D01*
X94603413Y-105878583D01*
X94654003Y-105893437D01*
X94657043Y-105895097D01*
X94691520Y-105907956D01*
X94791889Y-105945391D01*
X94849176Y-105951550D01*
X94913722Y-105978286D01*
X94953571Y-106035677D01*
X94956066Y-106105503D01*
X94923598Y-106162519D01*
X93606207Y-107479912D01*
X93499059Y-107587059D01*
X93499057Y-107587062D01*
X93423291Y-107718290D01*
X93384072Y-107864661D01*
X93384072Y-109472335D01*
X93364387Y-109539374D01*
X93311583Y-109585129D01*
X93242425Y-109595073D01*
X93216739Y-109588517D01*
X93127151Y-109555103D01*
X93127144Y-109555101D01*
X93067616Y-109548700D01*
X92939572Y-109548700D01*
X92939572Y-111190700D01*
X92919887Y-111257739D01*
X92867083Y-111303494D01*
X92815572Y-111314700D01*
X91859372Y-111314700D01*
X91859372Y-112128544D01*
X91865773Y-112188072D01*
X91865775Y-112188079D01*
X91916017Y-112322786D01*
X91916021Y-112322793D01*
X92002181Y-112437887D01*
X92002184Y-112437890D01*
X92020009Y-112451234D01*
X92061880Y-112507168D01*
X92066864Y-112576859D01*
X92033378Y-112638182D01*
X91972055Y-112671666D01*
X91945698Y-112674500D01*
X91311071Y-112674500D01*
X91246158Y-112656152D01*
X90777115Y-112367970D01*
X90777105Y-112367964D01*
X90750160Y-112352528D01*
X90750155Y-112352526D01*
X90749416Y-112352184D01*
X90736402Y-112345190D01*
X90726521Y-112339095D01*
X90726513Y-112339091D01*
X90671282Y-112320789D01*
X90562752Y-112284826D01*
X90562750Y-112284825D01*
X90461677Y-112274500D01*
X89863329Y-112274500D01*
X89863311Y-112274501D01*
X89762246Y-112284825D01*
X89598483Y-112339092D01*
X89598480Y-112339093D01*
X89451647Y-112429661D01*
X89337680Y-112543629D01*
X89276357Y-112577114D01*
X89206665Y-112572130D01*
X89162318Y-112543629D01*
X89048350Y-112429661D01*
X89048349Y-112429660D01*
X88945226Y-112366053D01*
X88901517Y-112339093D01*
X88901512Y-112339091D01*
X88852328Y-112322793D01*
X88737752Y-112284826D01*
X88737750Y-112284825D01*
X88636677Y-112274500D01*
X88038329Y-112274500D01*
X88038311Y-112274501D01*
X87937245Y-112284826D01*
X87871953Y-112306460D01*
X87859029Y-112309980D01*
X87854960Y-112310855D01*
X87854952Y-112310857D01*
X87847716Y-112313986D01*
X87837518Y-112317871D01*
X87773484Y-112339091D01*
X87773477Y-112339094D01*
X87743177Y-112357783D01*
X87727309Y-112366053D01*
X87722904Y-112367958D01*
X87722891Y-112367964D01*
X87253839Y-112656152D01*
X87188926Y-112674500D01*
X86174232Y-112674500D01*
X86027862Y-112713719D01*
X85896634Y-112789485D01*
X85896631Y-112789487D01*
X83789486Y-114896632D01*
X83789484Y-114896635D01*
X83713718Y-115027863D01*
X83674499Y-115174234D01*
X83674499Y-121075765D01*
X83713718Y-121222136D01*
X83751601Y-121287750D01*
X83789484Y-121353365D01*
X83789486Y-121353367D01*
X83911507Y-121475388D01*
X83922147Y-121487512D01*
X83939799Y-121510485D01*
X83939803Y-121510489D01*
X83939804Y-121510490D01*
X84214042Y-121777936D01*
X84215148Y-121779029D01*
X84396634Y-121960515D01*
X84396637Y-121960517D01*
X84403085Y-121965465D01*
X84402930Y-121965666D01*
X84419085Y-121977902D01*
X84784911Y-122334667D01*
X84798653Y-122350554D01*
X84819895Y-122379791D01*
X84958705Y-122518601D01*
X84992190Y-122579924D01*
X84987206Y-122649616D01*
X84945334Y-122705549D01*
X84936121Y-122711821D01*
X84781342Y-122807289D01*
X84657289Y-122931342D01*
X84565187Y-123080663D01*
X84565186Y-123080666D01*
X84510001Y-123247203D01*
X84510001Y-123247204D01*
X84510000Y-123247204D01*
X84499500Y-123349983D01*
X84499500Y-124650001D01*
X84499501Y-124650018D01*
X84510000Y-124752796D01*
X84510001Y-124752799D01*
X84565185Y-124919331D01*
X84565186Y-124919334D01*
X84657288Y-125068656D01*
X84781344Y-125192712D01*
X84930666Y-125284814D01*
X85097203Y-125339999D01*
X85199991Y-125350500D01*
X86750008Y-125350499D01*
X86852797Y-125339999D01*
X87019334Y-125284814D01*
X87168656Y-125192712D01*
X87292712Y-125068656D01*
X87384814Y-124919334D01*
X87439999Y-124752797D01*
X87450500Y-124650009D01*
X87450499Y-123349992D01*
X87439999Y-123247203D01*
X87384814Y-123080666D01*
X87292712Y-122931344D01*
X87168656Y-122807288D01*
X87019334Y-122715186D01*
X87019333Y-122715185D01*
X87013878Y-122711821D01*
X86967154Y-122659873D01*
X86955931Y-122590910D01*
X86983775Y-122526828D01*
X86991272Y-122518623D01*
X87130104Y-122379792D01*
X87255051Y-122207816D01*
X87351557Y-122018412D01*
X87417246Y-121816243D01*
X87450500Y-121606287D01*
X87450500Y-121393713D01*
X87417246Y-121183757D01*
X87351557Y-120981588D01*
X87255051Y-120792184D01*
X87255049Y-120792181D01*
X87255048Y-120792179D01*
X87130109Y-120620213D01*
X86979786Y-120469890D01*
X86828031Y-120359635D01*
X92799499Y-120359635D01*
X92799499Y-123955370D01*
X92799500Y-123955376D01*
X92805907Y-124014983D01*
X92856201Y-124149828D01*
X92856205Y-124149835D01*
X92942451Y-124265044D01*
X92942454Y-124265047D01*
X93057663Y-124351293D01*
X93057670Y-124351297D01*
X93192516Y-124401591D01*
X93192515Y-124401591D01*
X93199443Y-124402335D01*
X93252126Y-124408000D01*
X96847871Y-124407999D01*
X96907482Y-124401591D01*
X97042330Y-124351296D01*
X97157545Y-124265046D01*
X97243795Y-124149831D01*
X97294090Y-124014983D01*
X97300499Y-123955373D01*
X97300498Y-120359628D01*
X97294090Y-120300017D01*
X97270729Y-120237384D01*
X97243796Y-120165171D01*
X97243792Y-120165164D01*
X97157546Y-120049955D01*
X97157543Y-120049952D01*
X97042334Y-119963706D01*
X97042327Y-119963702D01*
X96995060Y-119946073D01*
X96939126Y-119904202D01*
X96914709Y-119838738D01*
X96929561Y-119770465D01*
X96978966Y-119721059D01*
X97044971Y-119706066D01*
X97058052Y-119706761D01*
X97081348Y-119707999D01*
X97081368Y-119707999D01*
X97081377Y-119708000D01*
X97081385Y-119708000D01*
X99018613Y-119708000D01*
X99018621Y-119708000D01*
X99071240Y-119705205D01*
X99301125Y-119660745D01*
X99520189Y-119578074D01*
X99722131Y-119459570D01*
X99901141Y-119308642D01*
X100052069Y-119129632D01*
X100170573Y-118927690D01*
X100253244Y-118708626D01*
X100297704Y-118478741D01*
X100300499Y-118426122D01*
X100300499Y-116488878D01*
X100297704Y-116436259D01*
X100253244Y-116206374D01*
X100170573Y-115987310D01*
X100052069Y-115785368D01*
X100052064Y-115785361D01*
X99901142Y-115606358D01*
X99901140Y-115606356D01*
X99722137Y-115455434D01*
X99722130Y-115455429D01*
X99520188Y-115336925D01*
X99429831Y-115302826D01*
X99301125Y-115254255D01*
X99301120Y-115254254D01*
X99071242Y-115209795D01*
X99018651Y-115207001D01*
X99018628Y-115207000D01*
X99018621Y-115207000D01*
X97081377Y-115207000D01*
X97081369Y-115207000D01*
X97081346Y-115207001D01*
X97028755Y-115209795D01*
X97028754Y-115209795D01*
X96798877Y-115254254D01*
X96798875Y-115254254D01*
X96798873Y-115254255D01*
X96724932Y-115282159D01*
X96579809Y-115336925D01*
X96377867Y-115455429D01*
X96377860Y-115455434D01*
X96198857Y-115606356D01*
X96198855Y-115606358D01*
X96047933Y-115785361D01*
X96047928Y-115785368D01*
X95929424Y-115987310D01*
X95874658Y-116132433D01*
X95846754Y-116206374D01*
X95846753Y-116206376D01*
X95846753Y-116206378D01*
X95802294Y-116436255D01*
X95802294Y-116436256D01*
X95799500Y-116488847D01*
X95799499Y-116488886D01*
X95799499Y-118426113D01*
X95799500Y-118426152D01*
X95802294Y-118478743D01*
X95802294Y-118478744D01*
X95846753Y-118708621D01*
X95846754Y-118708626D01*
X95895325Y-118837332D01*
X95929424Y-118927689D01*
X96047928Y-119129631D01*
X96047933Y-119129638D01*
X96198855Y-119308641D01*
X96198857Y-119308643D01*
X96377860Y-119459565D01*
X96377867Y-119459570D01*
X96579809Y-119578074D01*
X96798873Y-119660745D01*
X96801516Y-119661256D01*
X96802536Y-119661782D01*
X96803949Y-119662183D01*
X96803867Y-119662470D01*
X96863597Y-119693314D01*
X96898492Y-119753846D01*
X96895121Y-119823634D01*
X96854555Y-119880521D01*
X96789673Y-119906446D01*
X96777968Y-119907000D01*
X93252128Y-119907000D01*
X93252122Y-119907001D01*
X93192515Y-119913408D01*
X93057670Y-119963702D01*
X93057663Y-119963706D01*
X92942454Y-120049952D01*
X92942451Y-120049955D01*
X92856205Y-120165164D01*
X92856201Y-120165171D01*
X92805907Y-120300017D01*
X92801077Y-120344949D01*
X92799500Y-120359623D01*
X92799499Y-120359635D01*
X86828031Y-120359635D01*
X86807820Y-120344951D01*
X86618414Y-120248444D01*
X86618413Y-120248443D01*
X86618412Y-120248443D01*
X86416243Y-120182754D01*
X86416241Y-120182753D01*
X86416240Y-120182753D01*
X86254957Y-120157208D01*
X86206287Y-120149500D01*
X85743713Y-120149500D01*
X85652971Y-120163872D01*
X85533762Y-120182753D01*
X85533756Y-120182754D01*
X85515969Y-120188533D01*
X85511573Y-120189872D01*
X84983415Y-120340059D01*
X84913548Y-120339461D01*
X84855095Y-120301185D01*
X84826615Y-120237384D01*
X84825499Y-120220787D01*
X84825499Y-118900000D01*
X91794352Y-118900000D01*
X91814833Y-119042456D01*
X91874621Y-119173371D01*
X91874622Y-119173373D01*
X91968871Y-119282143D01*
X92089946Y-119359953D01*
X92089949Y-119359954D01*
X92089948Y-119359954D01*
X92228035Y-119400499D01*
X92228037Y-119400500D01*
X92228038Y-119400500D01*
X92371961Y-119400500D01*
X92371961Y-119400499D01*
X92510052Y-119359953D01*
X92631127Y-119282143D01*
X92725376Y-119173373D01*
X92785164Y-119042457D01*
X92805646Y-118900000D01*
X92785164Y-118757543D01*
X92725376Y-118626627D01*
X92631127Y-118517857D01*
X92510052Y-118440047D01*
X92510050Y-118440046D01*
X92510048Y-118440045D01*
X92510049Y-118440045D01*
X92371962Y-118399500D01*
X92371960Y-118399500D01*
X92228038Y-118399500D01*
X92228035Y-118399500D01*
X92089948Y-118440045D01*
X91968872Y-118517856D01*
X91874622Y-118626626D01*
X91874621Y-118626628D01*
X91814833Y-118757543D01*
X91794352Y-118900000D01*
X84825499Y-118900000D01*
X84825499Y-115539742D01*
X84845184Y-115472703D01*
X84861818Y-115452061D01*
X86452060Y-113861819D01*
X86513383Y-113828334D01*
X86539741Y-113825500D01*
X87188927Y-113825500D01*
X87253840Y-113843848D01*
X87717998Y-114129029D01*
X87718039Y-114129073D01*
X87718048Y-114129059D01*
X87718072Y-114129074D01*
X87718085Y-114129082D01*
X87722903Y-114132042D01*
X87749803Y-114147452D01*
X87749807Y-114147453D01*
X87750546Y-114147796D01*
X87763567Y-114154791D01*
X87773483Y-114160908D01*
X87937246Y-114215174D01*
X88038322Y-114225500D01*
X88636675Y-114225499D01*
X88636683Y-114225498D01*
X88636686Y-114225498D01*
X88692029Y-114219844D01*
X88737752Y-114215174D01*
X88901515Y-114160908D01*
X89048349Y-114070340D01*
X89162318Y-113956371D01*
X89223641Y-113922886D01*
X89293333Y-113927870D01*
X89337680Y-113956371D01*
X89451649Y-114070340D01*
X89598483Y-114160908D01*
X89762246Y-114215174D01*
X89863322Y-114225500D01*
X90461675Y-114225499D01*
X90461683Y-114225498D01*
X90461686Y-114225498D01*
X90485164Y-114223099D01*
X90562752Y-114215174D01*
X90628044Y-114193538D01*
X90640989Y-114190013D01*
X90641773Y-114189844D01*
X90645045Y-114189141D01*
X90652265Y-114186018D01*
X90662472Y-114182129D01*
X90726515Y-114160908D01*
X90756820Y-114142214D01*
X90772708Y-114133936D01*
X90773421Y-114133627D01*
X90777107Y-114132034D01*
X91246158Y-113843848D01*
X91311071Y-113825500D01*
X94775763Y-113825500D01*
X94775765Y-113825500D01*
X94922134Y-113786281D01*
X95053364Y-113710515D01*
X95638842Y-113125037D01*
X95700165Y-113091552D01*
X95769857Y-113096536D01*
X95825790Y-113138408D01*
X95831517Y-113146746D01*
X95909522Y-113270890D01*
X96029108Y-113390476D01*
X96029114Y-113390481D01*
X96172301Y-113480452D01*
X96172304Y-113480454D01*
X96172308Y-113480455D01*
X96172309Y-113480456D01*
X96244912Y-113505860D01*
X96331942Y-113536314D01*
X96499996Y-113555249D01*
X96499999Y-113555249D01*
X96500002Y-113555249D01*
X96668055Y-113536314D01*
X96668058Y-113536313D01*
X96827689Y-113480456D01*
X96827691Y-113480454D01*
X96827693Y-113480454D01*
X96827696Y-113480452D01*
X96970883Y-113390481D01*
X96970884Y-113390480D01*
X96970889Y-113390477D01*
X97090476Y-113270890D01*
X97090480Y-113270884D01*
X97180451Y-113127697D01*
X97180453Y-113127694D01*
X97180453Y-113127692D01*
X97180455Y-113127690D01*
X97236312Y-112968059D01*
X97236312Y-112968058D01*
X97236313Y-112968056D01*
X97255248Y-112800002D01*
X97255248Y-112799998D01*
X97247960Y-112735321D01*
X97247197Y-112723512D01*
X97246908Y-112706203D01*
X97246907Y-112706197D01*
X97246900Y-112705773D01*
X97265460Y-112638413D01*
X97317491Y-112591781D01*
X97384140Y-112580408D01*
X97391499Y-112581200D01*
X98147644Y-112581199D01*
X98207255Y-112574791D01*
X98342103Y-112524496D01*
X98342106Y-112524493D01*
X98345141Y-112522837D01*
X98348527Y-112522100D01*
X98350413Y-112521397D01*
X98350514Y-112521667D01*
X98413413Y-112507983D01*
X98464003Y-112522837D01*
X98467043Y-112524497D01*
X98511990Y-112541261D01*
X98601889Y-112574791D01*
X98661499Y-112581200D01*
X99417644Y-112581199D01*
X99477255Y-112574791D01*
X99612103Y-112524496D01*
X99612110Y-112524490D01*
X99615669Y-112522548D01*
X99619639Y-112521684D01*
X99620412Y-112521396D01*
X99620453Y-112521507D01*
X99683941Y-112507695D01*
X99734530Y-112522550D01*
X99737283Y-112524053D01*
X99871992Y-112574296D01*
X99871999Y-112574298D01*
X99931527Y-112580699D01*
X99931544Y-112580700D01*
X100059572Y-112580700D01*
X100559572Y-112580700D01*
X100687600Y-112580700D01*
X100687616Y-112580699D01*
X100747144Y-112574298D01*
X100747151Y-112574296D01*
X100881858Y-112524054D01*
X100881865Y-112524050D01*
X100996959Y-112437890D01*
X100996962Y-112437887D01*
X101083122Y-112322793D01*
X101083126Y-112322786D01*
X101133368Y-112188079D01*
X101133370Y-112188072D01*
X101139771Y-112128544D01*
X101139772Y-112128527D01*
X101139772Y-111314700D01*
X100559572Y-111314700D01*
X100559572Y-112580700D01*
X100059572Y-112580700D01*
X100059572Y-110814700D01*
X100559572Y-110814700D01*
X101139772Y-110814700D01*
X101139772Y-110000872D01*
X101139771Y-110000855D01*
X101133370Y-109941327D01*
X101133368Y-109941320D01*
X101083126Y-109806613D01*
X101083122Y-109806606D01*
X100996962Y-109691512D01*
X100996959Y-109691509D01*
X100881865Y-109605349D01*
X100881858Y-109605345D01*
X100747151Y-109555103D01*
X100747144Y-109555101D01*
X100687616Y-109548700D01*
X100559572Y-109548700D01*
X100559572Y-110814700D01*
X100059572Y-110814700D01*
X100059572Y-109548700D01*
X99931527Y-109548700D01*
X99871999Y-109555101D01*
X99871992Y-109555103D01*
X99737282Y-109605346D01*
X99734522Y-109606854D01*
X99731449Y-109607522D01*
X99728973Y-109608446D01*
X99728840Y-109608089D01*
X99666249Y-109621704D01*
X99615669Y-109606851D01*
X99612102Y-109604903D01*
X99477258Y-109554610D01*
X99477257Y-109554609D01*
X99477255Y-109554609D01*
X99417645Y-109548200D01*
X99417635Y-109548200D01*
X98661501Y-109548200D01*
X98661495Y-109548201D01*
X98601888Y-109554608D01*
X98467036Y-109604905D01*
X98463995Y-109606566D01*
X98460609Y-109607302D01*
X98458731Y-109608003D01*
X98458630Y-109607732D01*
X98395722Y-109621416D01*
X98345149Y-109606566D01*
X98342107Y-109604905D01*
X98207258Y-109554610D01*
X98207257Y-109554609D01*
X98207255Y-109554609D01*
X98147645Y-109548200D01*
X98147635Y-109548200D01*
X97391501Y-109548200D01*
X97391495Y-109548201D01*
X97331888Y-109554608D01*
X97197036Y-109604905D01*
X97193995Y-109606566D01*
X97190609Y-109607302D01*
X97188731Y-109608003D01*
X97188630Y-109607732D01*
X97125722Y-109621416D01*
X97075149Y-109606566D01*
X97072107Y-109604905D01*
X96937258Y-109554610D01*
X96937257Y-109554609D01*
X96937255Y-109554609D01*
X96877645Y-109548200D01*
X96877635Y-109548200D01*
X96121501Y-109548200D01*
X96121495Y-109548201D01*
X96061888Y-109554608D01*
X95927036Y-109604905D01*
X95923995Y-109606566D01*
X95920609Y-109607302D01*
X95918731Y-109608003D01*
X95918630Y-109607732D01*
X95855722Y-109621416D01*
X95805149Y-109606566D01*
X95802107Y-109604905D01*
X95667258Y-109554610D01*
X95667257Y-109554609D01*
X95667255Y-109554609D01*
X95607645Y-109548200D01*
X95607635Y-109548200D01*
X94851501Y-109548200D01*
X94851495Y-109548201D01*
X94791888Y-109554608D01*
X94702405Y-109587984D01*
X94632713Y-109592968D01*
X94571390Y-109559483D01*
X94537906Y-109498159D01*
X94535072Y-109471802D01*
X94535072Y-108230169D01*
X94554757Y-108163130D01*
X94571391Y-108142488D01*
X96202060Y-106511819D01*
X96263383Y-106478334D01*
X96289741Y-106475500D01*
X102175764Y-106475500D01*
X102175766Y-106475500D01*
X102322135Y-106436281D01*
X102453365Y-106360515D01*
X105487560Y-103326318D01*
X105548883Y-103292834D01*
X105575241Y-103290000D01*
X106566988Y-103290000D01*
X106534075Y-103347007D01*
X106500000Y-103474174D01*
X106500000Y-103605826D01*
X106534075Y-103732993D01*
X106566988Y-103790000D01*
X105523391Y-103790000D01*
X105532009Y-103844413D01*
X105595244Y-104039029D01*
X105688140Y-104221349D01*
X105808417Y-104386894D01*
X105808417Y-104386895D01*
X105953104Y-104531582D01*
X106118652Y-104651861D01*
X106211628Y-104699234D01*
X106262425Y-104747208D01*
X106279220Y-104815029D01*
X106256683Y-104881164D01*
X106211630Y-104920203D01*
X106118388Y-104967713D01*
X105952786Y-105088028D01*
X105808028Y-105232786D01*
X105687715Y-105398386D01*
X105594781Y-105580776D01*
X105531522Y-105775465D01*
X105499500Y-105977648D01*
X105499500Y-106182351D01*
X105531522Y-106384534D01*
X105594781Y-106579223D01*
X105687715Y-106761613D01*
X105808028Y-106927213D01*
X105952786Y-107071971D01*
X106107749Y-107184556D01*
X106118390Y-107192287D01*
X106205530Y-107236687D01*
X106300776Y-107285218D01*
X106300778Y-107285218D01*
X106300781Y-107285220D01*
X106405137Y-107319127D01*
X106495465Y-107348477D01*
X106596557Y-107364488D01*
X106697648Y-107380500D01*
X106697649Y-107380500D01*
X107302351Y-107380500D01*
X107302352Y-107380500D01*
X107504534Y-107348477D01*
X107699219Y-107285220D01*
X107881610Y-107192287D01*
X107974590Y-107124732D01*
X108047213Y-107071971D01*
X108047215Y-107071968D01*
X108047219Y-107071966D01*
X108191966Y-106927219D01*
X108191968Y-106927215D01*
X108191971Y-106927213D01*
X108244732Y-106854590D01*
X108312287Y-106761610D01*
X108405220Y-106579219D01*
X108468477Y-106384534D01*
X108500500Y-106182352D01*
X108500500Y-105977648D01*
X108468477Y-105775466D01*
X108405220Y-105580781D01*
X108405218Y-105580778D01*
X108405218Y-105580776D01*
X108359120Y-105490305D01*
X108312287Y-105398390D01*
X108304556Y-105387749D01*
X108191971Y-105232786D01*
X108047213Y-105088028D01*
X107881611Y-104967713D01*
X107788369Y-104920203D01*
X107737574Y-104872229D01*
X107720779Y-104804407D01*
X107743317Y-104738273D01*
X107788371Y-104699234D01*
X107881347Y-104651861D01*
X108046894Y-104531582D01*
X108046895Y-104531582D01*
X108191582Y-104386895D01*
X108191582Y-104386894D01*
X108311859Y-104221349D01*
X108404755Y-104039029D01*
X108467990Y-103844413D01*
X108476609Y-103790000D01*
X107433012Y-103790000D01*
X107465925Y-103732993D01*
X107500000Y-103605826D01*
X107500000Y-103474174D01*
X107465925Y-103347007D01*
X107433012Y-103290000D01*
X108476609Y-103290000D01*
X108467990Y-103235586D01*
X108404755Y-103040970D01*
X108311859Y-102858650D01*
X108191582Y-102693105D01*
X108191582Y-102693104D01*
X108046895Y-102548417D01*
X107881349Y-102428140D01*
X107788370Y-102380765D01*
X107737574Y-102332790D01*
X107720779Y-102264969D01*
X107743316Y-102198835D01*
X107788370Y-102159795D01*
X107788920Y-102159515D01*
X107881610Y-102112287D01*
X107902770Y-102096913D01*
X108047213Y-101991971D01*
X108047215Y-101991968D01*
X108047219Y-101991966D01*
X108191966Y-101847219D01*
X108191968Y-101847215D01*
X108191971Y-101847213D01*
X108244732Y-101774590D01*
X108312287Y-101681610D01*
X108405220Y-101499219D01*
X108468477Y-101304534D01*
X108500500Y-101102352D01*
X108500500Y-100897648D01*
X108496500Y-100872396D01*
X108468477Y-100695465D01*
X108405742Y-100502388D01*
X108405220Y-100500781D01*
X108405218Y-100500778D01*
X108405218Y-100500776D01*
X108371503Y-100434607D01*
X108312287Y-100318390D01*
X108304556Y-100307749D01*
X108191971Y-100152786D01*
X108047213Y-100008028D01*
X107881614Y-99887715D01*
X107875006Y-99884348D01*
X107788917Y-99840483D01*
X107738123Y-99792511D01*
X107721328Y-99724690D01*
X107743865Y-99658555D01*
X107788917Y-99619516D01*
X107881610Y-99572287D01*
X107941040Y-99529109D01*
X108047213Y-99451971D01*
X108047215Y-99451968D01*
X108047219Y-99451966D01*
X108191966Y-99307219D01*
X108191968Y-99307215D01*
X108191971Y-99307213D01*
X108244732Y-99234590D01*
X108312287Y-99141610D01*
X108405220Y-98959219D01*
X108468477Y-98764534D01*
X108500500Y-98562352D01*
X108500500Y-98357648D01*
X108468477Y-98155466D01*
X108405220Y-97960781D01*
X108405218Y-97960778D01*
X108405218Y-97960776D01*
X108371503Y-97894607D01*
X108312287Y-97778390D01*
X108304556Y-97767749D01*
X108191971Y-97612786D01*
X108043774Y-97464589D01*
X108044575Y-97463787D01*
X108009322Y-97409769D01*
X108008832Y-97339901D01*
X108046192Y-97280859D01*
X108109543Y-97251389D01*
X108128051Y-97250000D01*
X109075500Y-97250000D01*
X109142539Y-97269685D01*
X109188294Y-97322489D01*
X109199500Y-97374000D01*
X109199500Y-126495572D01*
X109199184Y-126504418D01*
X109182834Y-126733017D01*
X109180316Y-126750529D01*
X109132543Y-126970137D01*
X109127559Y-126987112D01*
X109049019Y-127197688D01*
X109041669Y-127213782D01*
X108933959Y-127411036D01*
X108924394Y-127425919D01*
X108789710Y-127605836D01*
X108778124Y-127619207D01*
X108619207Y-127778124D01*
X108605836Y-127789710D01*
X108425919Y-127924394D01*
X108411036Y-127933959D01*
X108213782Y-128041669D01*
X108197688Y-128049019D01*
X107987112Y-128127559D01*
X107970137Y-128132543D01*
X107750529Y-128180316D01*
X107733017Y-128182834D01*
X107504418Y-128199184D01*
X107495572Y-128199500D01*
X83504428Y-128199500D01*
X83495582Y-128199184D01*
X83266982Y-128182834D01*
X83249470Y-128180316D01*
X83029862Y-128132543D01*
X83012887Y-128127559D01*
X82802311Y-128049019D01*
X82786217Y-128041669D01*
X82588963Y-127933959D01*
X82574080Y-127924394D01*
X82394163Y-127789710D01*
X82380792Y-127778124D01*
X82221875Y-127619207D01*
X82210289Y-127605836D01*
X82075605Y-127425919D01*
X82066040Y-127411036D01*
X81958330Y-127213782D01*
X81950983Y-127197694D01*
X81872437Y-126987103D01*
X81867458Y-126970144D01*
X81819683Y-126750529D01*
X81817165Y-126733017D01*
X81800816Y-126504418D01*
X81800500Y-126495572D01*
X81800500Y-110000855D01*
X91859372Y-110000855D01*
X91859372Y-110814700D01*
X92439572Y-110814700D01*
X92439572Y-109548700D01*
X92311527Y-109548700D01*
X92251999Y-109555101D01*
X92251992Y-109555103D01*
X92117285Y-109605345D01*
X92117278Y-109605349D01*
X92002184Y-109691509D01*
X92002181Y-109691512D01*
X91916021Y-109806606D01*
X91916017Y-109806613D01*
X91865775Y-109941320D01*
X91865773Y-109941327D01*
X91859372Y-110000855D01*
X81800500Y-110000855D01*
X81800500Y-108961654D01*
X89775000Y-108961654D01*
X89785318Y-109062652D01*
X89839545Y-109226300D01*
X89839550Y-109226311D01*
X89930051Y-109373034D01*
X89930054Y-109373038D01*
X90051960Y-109494944D01*
X90051964Y-109494947D01*
X90198687Y-109585448D01*
X90198698Y-109585453D01*
X90362346Y-109639680D01*
X90463351Y-109649999D01*
X90499999Y-109649999D01*
X90999999Y-109649999D01*
X91036639Y-109649999D01*
X91036653Y-109649998D01*
X91137651Y-109639680D01*
X91301299Y-109585453D01*
X91301310Y-109585448D01*
X91448033Y-109494947D01*
X91448037Y-109494944D01*
X91569943Y-109373038D01*
X91569946Y-109373034D01*
X91660447Y-109226311D01*
X91660452Y-109226300D01*
X91714679Y-109062652D01*
X91724998Y-108961654D01*
X91724999Y-108961641D01*
X91724999Y-108862500D01*
X90999999Y-108862500D01*
X90999999Y-109649999D01*
X90499999Y-109649999D01*
X90499999Y-108862500D01*
X89775000Y-108862500D01*
X89775000Y-108961654D01*
X81800500Y-108961654D01*
X81800500Y-97374000D01*
X81820185Y-97306961D01*
X81872989Y-97261206D01*
X81924500Y-97250000D01*
X83011949Y-97250000D01*
X83078988Y-97269685D01*
G37*
%TD.AperFunction*%
%TD*%
%TA.AperFunction,Conductor*%
%TO.N,GND*%
G36*
X92314804Y-108622836D02*
G01*
X92200999Y-108900000D01*
X91987867Y-109112132D01*
X91719085Y-108782500D01*
X91719085Y-108442500D01*
X92314804Y-108622836D01*
G37*
%TD.AperFunction*%
%TD*%
%TA.AperFunction,Conductor*%
%TO.N,GND*%
G36*
X92744471Y-109204055D02*
G01*
X92504054Y-109444472D01*
X92085194Y-109177164D01*
X92199292Y-108899293D01*
X92477163Y-108785195D01*
X92744471Y-109204055D01*
G37*
%TD.AperFunction*%
%TD*%
%TA.AperFunction,Conductor*%
%TO.N,GND*%
G36*
X100577163Y-112685195D02*
G01*
X100299999Y-112801000D01*
X100022835Y-112685195D01*
X100139572Y-112201904D01*
X100479572Y-112201904D01*
X100577163Y-112685195D01*
G37*
%TD.AperFunction*%
%TD*%
%TA.AperFunction,Conductor*%
%TO.N,+5V*%
G36*
X101581545Y-99831676D02*
G01*
X101582918Y-99832841D01*
X101665856Y-99915119D01*
X101750672Y-99999260D01*
X101750738Y-99999326D01*
X101835797Y-100085067D01*
X101917152Y-100167076D01*
X101920546Y-100175362D01*
X101917086Y-100183621D01*
X101915708Y-100184791D01*
X101524734Y-100467909D01*
X101516023Y-100469986D01*
X101509599Y-100466706D01*
X101283292Y-100240399D01*
X101279865Y-100232126D01*
X101282088Y-100225265D01*
X101565208Y-99834288D01*
X101572834Y-99829599D01*
X101581545Y-99831676D01*
G37*
%TD.AperFunction*%
%TD*%
%TA.AperFunction,Conductor*%
%TO.N,+5V*%
G36*
X92699996Y-104466872D02*
G01*
X92700700Y-104468573D01*
X93018316Y-105446818D01*
X93017715Y-105455538D01*
X92862771Y-105774907D01*
X92856076Y-105780855D01*
X92852244Y-105781500D01*
X92526900Y-105781500D01*
X92518627Y-105778073D01*
X92516373Y-105774907D01*
X92361428Y-105455538D01*
X92360827Y-105446818D01*
X92678444Y-104468573D01*
X92684258Y-104461762D01*
X92693185Y-104461058D01*
X92699996Y-104466872D01*
G37*
%TD.AperFunction*%
%TD*%
%TA.AperFunction,Conductor*%
%TO.N,+5V*%
G36*
X97687030Y-102990308D02*
G01*
X97690108Y-102992518D01*
X97918816Y-103221226D01*
X97919181Y-103221608D01*
X98095175Y-103414268D01*
X98098225Y-103422686D01*
X98097663Y-103425779D01*
X97780400Y-104400564D01*
X97774581Y-104407370D01*
X97765653Y-104408069D01*
X97758847Y-104402250D01*
X97758075Y-104400330D01*
X97462719Y-103423732D01*
X97463434Y-103415151D01*
X97671352Y-102995595D01*
X97678096Y-102989705D01*
X97687030Y-102990308D01*
G37*
%TD.AperFunction*%
%TD*%
%TA.AperFunction,Conductor*%
%TO.N,+5V*%
G36*
X91153316Y-106417141D02*
G01*
X91693933Y-106714167D01*
X91699534Y-106721154D01*
X91699999Y-106724421D01*
X91699999Y-107050578D01*
X91696572Y-107058851D01*
X91693933Y-107060832D01*
X91153318Y-107357857D01*
X91144417Y-107358838D01*
X91138696Y-107355094D01*
X90755242Y-106894991D01*
X90752578Y-106886441D01*
X90755242Y-106880009D01*
X90893456Y-106714167D01*
X91138697Y-106419904D01*
X91146625Y-106415744D01*
X91153316Y-106417141D01*
G37*
%TD.AperFunction*%
%TD*%
%TA.AperFunction,Conductor*%
%TO.N,+5V*%
G36*
X92592908Y-102984531D02*
G01*
X92596106Y-102986800D01*
X92824767Y-103215461D01*
X92824948Y-103215646D01*
X93014934Y-103414243D01*
X93018177Y-103422590D01*
X93017606Y-103425952D01*
X92700208Y-104401155D01*
X92694389Y-104407961D01*
X92685461Y-104408660D01*
X92678655Y-104402841D01*
X92677916Y-104401029D01*
X92371994Y-103423707D01*
X92372617Y-103415139D01*
X92577291Y-102989997D01*
X92583967Y-102984030D01*
X92592908Y-102984531D01*
G37*
%TD.AperFunction*%
%TD*%
%TA.AperFunction,Conductor*%
%TO.N,+5V*%
G36*
X96509996Y-111096272D02*
G01*
X96510700Y-111097973D01*
X96828316Y-112076218D01*
X96827715Y-112084938D01*
X96672771Y-112404307D01*
X96666076Y-112410255D01*
X96662244Y-112410900D01*
X96336900Y-112410900D01*
X96328627Y-112407473D01*
X96326373Y-112404307D01*
X96171428Y-112084938D01*
X96170827Y-112076218D01*
X96488444Y-111097973D01*
X96494258Y-111091162D01*
X96503185Y-111090458D01*
X96509996Y-111096272D01*
G37*
%TD.AperFunction*%
%TD*%
%TA.AperFunction,Conductor*%
%TO.N,+5V*%
G36*
X96667877Y-112303512D02*
G01*
X96671155Y-112309927D01*
X96747826Y-112786496D01*
X96745757Y-112795208D01*
X96738133Y-112799905D01*
X96736322Y-112800054D01*
X96500046Y-112800999D01*
X96499952Y-112800999D01*
X96263653Y-112800054D01*
X96255394Y-112796594D01*
X96252000Y-112788307D01*
X96252145Y-112786515D01*
X96328002Y-112309946D01*
X96332687Y-112302314D01*
X96339557Y-112300085D01*
X96659604Y-112300085D01*
X96667877Y-112303512D01*
G37*
%TD.AperFunction*%
%TD*%
%TA.AperFunction,Conductor*%
%TO.N,+5V*%
G36*
X93848787Y-102978757D02*
G01*
X93852105Y-102981083D01*
X94080718Y-103209696D01*
X94284713Y-103414228D01*
X94288129Y-103422504D01*
X94287555Y-103426110D01*
X93970023Y-104401721D01*
X93964204Y-104408527D01*
X93955276Y-104409226D01*
X93948470Y-104403407D01*
X93947767Y-104401707D01*
X93631325Y-103423682D01*
X93631858Y-103415126D01*
X93833234Y-102984399D01*
X93839841Y-102978358D01*
X93848787Y-102978757D01*
G37*
%TD.AperFunction*%
%TD*%
%TA.AperFunction,Conductor*%
%TO.N,/DATA_OUT*%
G36*
X88003008Y-112801627D02*
G01*
X88333254Y-113242991D01*
X88335467Y-113251668D01*
X88333254Y-113257009D01*
X88003008Y-113698372D01*
X87995308Y-113702944D01*
X87987515Y-113701332D01*
X87982697Y-113698372D01*
X87380574Y-113328425D01*
X87375319Y-113321174D01*
X87374999Y-113318456D01*
X87374999Y-113181543D01*
X87378426Y-113173270D01*
X87380569Y-113171577D01*
X87987517Y-112798666D01*
X87996358Y-112797256D01*
X88003008Y-112801627D01*
G37*
%TD.AperFunction*%
%TD*%
%TA.AperFunction,Conductor*%
%TO.N,/DATA_OUT*%
G36*
X85682460Y-120670382D02*
G01*
X85687810Y-120676744D01*
X85973500Y-121494392D01*
X85972994Y-121503332D01*
X85971383Y-121505812D01*
X85385876Y-122197171D01*
X85377915Y-122201270D01*
X85369387Y-122198538D01*
X85368779Y-122197986D01*
X85367943Y-122197171D01*
X84292732Y-121148589D01*
X84289203Y-121140361D01*
X84292526Y-121132045D01*
X84388170Y-121036400D01*
X84393238Y-121033422D01*
X85673566Y-120669349D01*
X85682460Y-120670382D01*
G37*
%TD.AperFunction*%
%TD*%
%TA.AperFunction,Conductor*%
%TO.N,LED_data*%
G36*
X90512480Y-112798666D02*
G01*
X91119424Y-113171575D01*
X91124679Y-113178825D01*
X91124999Y-113181543D01*
X91124999Y-113318456D01*
X91121572Y-113326729D01*
X91119424Y-113328425D01*
X90512482Y-113701332D01*
X90503639Y-113702743D01*
X90496989Y-113698372D01*
X90166742Y-113257008D01*
X90164530Y-113248332D01*
X90166743Y-113242991D01*
X90217617Y-113175000D01*
X90496990Y-112801625D01*
X90504689Y-112797055D01*
X90512480Y-112798666D01*
G37*
%TD.AperFunction*%
%TD*%
%TA.AperFunction,Conductor*%
%TO.N,LED_data*%
G36*
X95239996Y-111096272D02*
G01*
X95240700Y-111097973D01*
X95557863Y-112074822D01*
X95557159Y-112083749D01*
X95555992Y-112085590D01*
X95308085Y-112406355D01*
X95300315Y-112410805D01*
X95298828Y-112410900D01*
X95160316Y-112410900D01*
X95152043Y-112407473D01*
X95151059Y-112406355D01*
X94903151Y-112085590D01*
X94900803Y-112076948D01*
X94901280Y-112074822D01*
X95218444Y-111097973D01*
X95224258Y-111091162D01*
X95233185Y-111090458D01*
X95239996Y-111096272D01*
G37*
%TD.AperFunction*%
%TD*%
%TA.AperFunction,Conductor*%
%TO.N,D1_data*%
G36*
X94037101Y-109721927D02*
G01*
X94038085Y-109723045D01*
X94285992Y-110043809D01*
X94288340Y-110052451D01*
X94287863Y-110054577D01*
X93970700Y-111031426D01*
X93964886Y-111038237D01*
X93955959Y-111038941D01*
X93949148Y-111033127D01*
X93948444Y-111031426D01*
X93631280Y-110054577D01*
X93631984Y-110045650D01*
X93633146Y-110043816D01*
X93881059Y-109723044D01*
X93888829Y-109718595D01*
X93890316Y-109718500D01*
X94028828Y-109718500D01*
X94037101Y-109721927D01*
G37*
%TD.AperFunction*%
%TD*%
%TA.AperFunction,Conductor*%
%TO.N,D1_data*%
G36*
X106994308Y-100998344D02*
G01*
X107001989Y-101002947D01*
X107003306Y-101005217D01*
X107340518Y-101773784D01*
X107340704Y-101782737D01*
X107334505Y-101789199D01*
X107333394Y-101789621D01*
X105839337Y-102271339D01*
X105830412Y-102270616D01*
X105827474Y-102268476D01*
X105730995Y-102171997D01*
X105727568Y-102163724D01*
X105727841Y-102161212D01*
X105810403Y-101785647D01*
X106013028Y-100863918D01*
X106018151Y-100856574D01*
X106026168Y-100854857D01*
X106994308Y-100998344D01*
G37*
%TD.AperFunction*%
%TD*%
M02*
