M48
; DRILL file {KiCad 8.0.4-1.fc40} date 2024-08-22T17:25:12+0200
; FORMAT={-:-/ absolute / inch / decimal}
; #@! TF.CreationDate,2024-08-22T17:25:12+02:00
; #@! TF.GenerationSoftware,Kicad,Pcbnew,8.0.4-1.fc40
; #@! TF.FileFunction,Plated,1,4,PTH
FMAT,2
INCH
; #@! TA.AperFunction,Plated,PTH,ViaDrill
T1C0.0118
; #@! TA.AperFunction,Plated,PTH,ComponentDrill
T2C0.0374
; #@! TA.AperFunction,Plated,PTH,ComponentDrill
T3C0.0394
%
G90
G05
T1
X3.2323Y-4.0433
X3.2323Y-4.1909
X3.2323Y-4.2598
X3.2323Y-4.3268
X3.2323Y-4.3878
X3.2323Y-4.4547
X3.2323Y-4.5217
X3.2323Y-4.752
X3.2323Y-4.8346
X3.2343Y-3.8622
X3.2343Y-3.9213
X3.2343Y-3.9783
X3.2343Y-4.1142
X3.2343Y-4.6083
X3.2343Y-4.6752
X3.2382Y-4.9311
X3.2441Y-4.9941
X3.2815Y-5.0295
X3.3091Y-4.4016
X3.311Y-4.2815
X3.3386Y-5.0315
X3.3583Y-4.3406
X3.3898Y-4.2441
X3.3976Y-5.0315
X3.4055Y-4.1437
X3.4094Y-3.8543
X3.4213Y-4.3543
X3.4272Y-4.6004
X3.4567Y-5.0315
X3.4587Y-3.8563
X3.4646Y-3.937
X3.4646Y-4.0256
X3.4744Y-4.6437
X3.4764Y-4.3937
X3.4902Y-4.7697
X3.4941Y-4.1654
X3.498Y-4.8701
X3.5Y-4.9547
X3.5177Y-5.0315
X3.5217Y-3.8563
X3.5236Y-4.0945
X3.5433Y-3.9764
X3.5689Y-5.0315
X3.5827Y-4.3406
X3.5846Y-3.8563
X3.5925Y-4.0256
X3.5984Y-4.9567
X3.6024Y-4.4193
X3.6181Y-5.0315
X3.6299Y-4.2874
X3.6417Y-3.937
X3.6535Y-3.8563
X3.6713Y-4.2126
X3.6713Y-5.0315
X3.7087Y-3.8563
X3.7205Y-4.1831
X3.7224Y-5.0315
X3.7402Y-4.9606
X3.7598Y-4.4783
X3.7638Y-3.8563
X3.7736Y-5.0315
X3.7992Y-4.4409
X3.8071Y-4.311
X3.8189Y-3.8563
X3.8248Y-5.0315
X3.8583Y-4.1969
X3.8583Y-4.2677
X3.8681Y-3.8563
X3.8701Y-4.8071
X3.874Y-5.0335
X3.878Y-4.9587
X3.9055Y-4.311
X3.9193Y-3.8563
X3.9252Y-5.0354
X3.9488Y-4.4409
X3.9528Y-4.2323
X3.9705Y-3.8563
X3.9783Y-5.0354
X3.9961Y-4.9508
X4.0059Y-3.8976
X4.0059Y-3.937
X4.0118Y-4.5295
X4.0157Y-4.6024
X4.0177Y-4.6791
X4.0197Y-3.8563
X4.0256Y-4.4094
X4.0315Y-5.0354
X4.065Y-3.8563
X4.0827Y-5.0354
X4.1102Y-3.8563
X4.1122Y-4.6555
X4.1142Y-4.5079
X4.1142Y-4.5472
X4.1142Y-4.9744
X4.1161Y-4.7224
X4.1161Y-4.8839
X4.1201Y-4.7972
X4.1358Y-5.0374
X4.1909Y-5.0374
X4.1949Y-4.4173
X4.1969Y-4.3071
X4.1969Y-4.5295
X4.1969Y-4.6437
X4.1969Y-4.7618
X4.1988Y-4.9744
X4.2008Y-4.872
X4.2382Y-5.0295
X4.2776Y-4.9921
X4.2854Y-3.9409
X4.2854Y-4.2343
X4.2854Y-4.3051
X4.2854Y-4.3819
X4.2854Y-4.4469
X4.2854Y-4.5827
X4.2854Y-4.6339
X4.2854Y-4.6929
X4.2854Y-4.7461
X4.2854Y-4.7972
X4.2854Y-4.8445
X4.2854Y-4.8937
X4.2854Y-4.9429
X4.2874Y-3.8524
X4.2874Y-4.0039
X4.2874Y-4.0689
X4.2874Y-4.1555
X4.2874Y-4.5177
T2
X3.3848Y-4.685
X3.3848Y-4.7835
X3.3848Y-4.8819
T3
X3.3126Y-3.4764
X3.3126Y-3.5764
X3.3126Y-3.6764
X3.3126Y-3.7764
X3.3126Y-3.8764
X3.3126Y-3.9764
X3.3126Y-4.0764
X3.3126Y-4.1764
X4.2126Y-3.4764
X4.2126Y-3.5764
X4.2126Y-3.6764
X4.2126Y-3.7764
X4.2126Y-3.8764
X4.2126Y-3.9764
X4.2126Y-4.0764
X4.2126Y-4.1764
T3
G00X3.7421Y-4.8487
M15
G01X3.7421Y-4.77
M16
G05
G00X3.8996Y-4.6243
M15
G01X3.8209Y-4.6243
M16
G05
G00X3.9783Y-4.8487
M15
G01X3.9783Y-4.77
M16
G05
M30
