%TF.GenerationSoftware,KiCad,Pcbnew,8.0.4-1.fc40*%
%TF.CreationDate,2024-08-22T17:25:05+02:00*%
%TF.ProjectId,WLED_Board,574c4544-5f42-46f6-9172-642e6b696361,rev?*%
%TF.SameCoordinates,Original*%
%TF.FileFunction,Copper,L4,Bot*%
%TF.FilePolarity,Positive*%
%FSLAX46Y46*%
G04 Gerber Fmt 4.6, Leading zero omitted, Abs format (unit mm)*
G04 Created by KiCad (PCBNEW 8.0.4-1.fc40) date 2024-08-22 17:25:05*
%MOMM*%
%LPD*%
G01*
G04 APERTURE LIST*
G04 Aperture macros list*
%AMRoundRect*
0 Rectangle with rounded corners*
0 $1 Rounding radius*
0 $2 $3 $4 $5 $6 $7 $8 $9 X,Y pos of 4 corners*
0 Add a 4 corners polygon primitive as box body*
4,1,4,$2,$3,$4,$5,$6,$7,$8,$9,$2,$3,0*
0 Add four circle primitives for the rounded corners*
1,1,$1+$1,$2,$3*
1,1,$1+$1,$4,$5*
1,1,$1+$1,$6,$7*
1,1,$1+$1,$8,$9*
0 Add four rect primitives between the rounded corners*
20,1,$1+$1,$2,$3,$4,$5,0*
20,1,$1+$1,$4,$5,$6,$7,0*
20,1,$1+$1,$6,$7,$8,$9,0*
20,1,$1+$1,$8,$9,$2,$3,0*%
G04 Aperture macros list end*
%TA.AperFunction,ComponentPad*%
%ADD10R,2.000000X2.000000*%
%TD*%
%TA.AperFunction,ComponentPad*%
%ADD11O,2.000000X1.600000*%
%TD*%
%TA.AperFunction,ComponentPad*%
%ADD12RoundRect,0.250000X0.725000X-0.600000X0.725000X0.600000X-0.725000X0.600000X-0.725000X-0.600000X0*%
%TD*%
%TA.AperFunction,ComponentPad*%
%ADD13O,1.950000X1.700000*%
%TD*%
%TA.AperFunction,ComponentPad*%
%ADD14R,3.500000X3.500000*%
%TD*%
%TA.AperFunction,ComponentPad*%
%ADD15RoundRect,0.750000X0.750000X1.000000X-0.750000X1.000000X-0.750000X-1.000000X0.750000X-1.000000X0*%
%TD*%
%TA.AperFunction,ComponentPad*%
%ADD16RoundRect,0.875000X0.875000X0.875000X-0.875000X0.875000X-0.875000X-0.875000X0.875000X-0.875000X0*%
%TD*%
%TA.AperFunction,SMDPad,CuDef*%
%ADD17R,1.500000X3.600000*%
%TD*%
%TA.AperFunction,SMDPad,CuDef*%
%ADD18RoundRect,0.150000X-0.587500X-0.150000X0.587500X-0.150000X0.587500X0.150000X-0.587500X0.150000X0*%
%TD*%
%TA.AperFunction,SMDPad,CuDef*%
%ADD19R,0.972299X0.558000*%
%TD*%
%TA.AperFunction,SMDPad,CuDef*%
%ADD20RoundRect,0.237500X0.237500X-0.250000X0.237500X0.250000X-0.237500X0.250000X-0.237500X-0.250000X0*%
%TD*%
%TA.AperFunction,SMDPad,CuDef*%
%ADD21RoundRect,0.250000X0.475000X-0.337500X0.475000X0.337500X-0.475000X0.337500X-0.475000X-0.337500X0*%
%TD*%
%TA.AperFunction,SMDPad,CuDef*%
%ADD22RoundRect,0.162500X0.447500X0.162500X-0.447500X0.162500X-0.447500X-0.162500X0.447500X-0.162500X0*%
%TD*%
%TA.AperFunction,SMDPad,CuDef*%
%ADD23RoundRect,0.237500X0.237500X-0.300000X0.237500X0.300000X-0.237500X0.300000X-0.237500X-0.300000X0*%
%TD*%
%TA.AperFunction,SMDPad,CuDef*%
%ADD24RoundRect,0.237500X0.250000X0.237500X-0.250000X0.237500X-0.250000X-0.237500X0.250000X-0.237500X0*%
%TD*%
%TA.AperFunction,SMDPad,CuDef*%
%ADD25RoundRect,0.237500X0.300000X0.237500X-0.300000X0.237500X-0.300000X-0.237500X0.300000X-0.237500X0*%
%TD*%
%TA.AperFunction,SMDPad,CuDef*%
%ADD26RoundRect,0.237500X-0.237500X0.250000X-0.237500X-0.250000X0.237500X-0.250000X0.237500X0.250000X0*%
%TD*%
%TA.AperFunction,SMDPad,CuDef*%
%ADD27C,0.500000*%
%TD*%
%TA.AperFunction,ViaPad*%
%ADD28C,0.500000*%
%TD*%
%TA.AperFunction,ViaPad*%
%ADD29C,0.600000*%
%TD*%
%TA.AperFunction,Conductor*%
%ADD30C,0.150000*%
%TD*%
%TA.AperFunction,Conductor*%
%ADD31C,0.520000*%
%TD*%
%TA.AperFunction,Conductor*%
%ADD32C,0.340000*%
%TD*%
%TA.AperFunction,Conductor*%
%ADD33C,1.500000*%
%TD*%
G04 APERTURE END LIST*
D10*
%TO.P,U2,1,~{RST}*%
%TO.N,unconnected-(U2-~{RST}-Pad1)*%
X84140000Y-88300000D03*
D11*
%TO.P,U2,2,A0*%
%TO.N,unconnected-(U2-A0-Pad2)*%
X84140000Y-90840000D03*
%TO.P,U2,3,D0*%
%TO.N,unconnected-(U2-D0-Pad3)*%
X84140000Y-93380000D03*
%TO.P,U2,4,SCK/D5*%
%TO.N,unconnected-(U2-SCK{slash}D5-Pad4)*%
X84140000Y-95920000D03*
%TO.P,U2,5,MISO/D6*%
%TO.N,unconnected-(U2-MISO{slash}D6-Pad5)*%
X84140000Y-98460000D03*
%TO.P,U2,6,MOSI/D7*%
%TO.N,unconnected-(U2-MOSI{slash}D7-Pad6)*%
X84140000Y-101000000D03*
%TO.P,U2,7,CS/D8*%
%TO.N,D1_Relay*%
X84140000Y-103540000D03*
%TO.P,U2,8,3V3*%
%TO.N,unconnected-(U2-3V3-Pad8)*%
X84140000Y-106080000D03*
%TO.P,U2,9,5V*%
%TO.N,+5V*%
X107000000Y-106080000D03*
%TO.P,U2,10,GND*%
%TO.N,GND*%
X107000000Y-103540000D03*
%TO.P,U2,11,D4*%
%TO.N,D1_data*%
X107000000Y-101000000D03*
%TO.P,U2,12,D3*%
%TO.N,unconnected-(U2-D3-Pad12)*%
X107000000Y-98460000D03*
%TO.P,U2,13,SDA/D2*%
%TO.N,unconnected-(U2-SDA{slash}D2-Pad13)*%
X107000000Y-95920000D03*
%TO.P,U2,14,SCL/D1*%
%TO.N,unconnected-(U2-SCL{slash}D1-Pad14)*%
X107000000Y-93380000D03*
%TO.P,U2,15,RX*%
%TO.N,unconnected-(U2-RX-Pad15)*%
X107000000Y-90840000D03*
%TO.P,U2,16,TX*%
%TO.N,unconnected-(U2-TX-Pad16)*%
X107000000Y-88300000D03*
%TD*%
D12*
%TO.P,J1,1,Pin_1*%
%TO.N,12V_switched*%
X85975000Y-124000000D03*
D13*
%TO.P,J1,2,Pin_2*%
%TO.N,/DATA_OUT*%
X85975000Y-121500000D03*
%TO.P,J1,3,Pin_3*%
%TO.N,GND*%
X85975000Y-119000000D03*
%TD*%
D14*
%TO.P,J2,1*%
%TO.N,+12V*%
X95049999Y-122157500D03*
D15*
%TO.P,J2,2*%
%TO.N,GND*%
X101049999Y-122157500D03*
D16*
%TO.P,J2,3*%
%TO.N,N/C*%
X98049999Y-117457500D03*
%TD*%
D17*
%TO.P,L1,1,1*%
%TO.N,+5V*%
X99474999Y-101750000D03*
%TO.P,L1,2,2*%
%TO.N,/BUCK_SW*%
X96424999Y-101750000D03*
%TD*%
D18*
%TO.P,Q1,1,E*%
%TO.N,GND*%
X88312500Y-110550000D03*
%TO.P,Q1,2,B*%
%TO.N,/PN_BIAS*%
X88312500Y-112450000D03*
%TO.P,Q1,3,C*%
%TO.N,/PMOS_BIAS*%
X90187500Y-111500000D03*
%TD*%
D19*
%TO.P,U1,1,CB*%
%TO.N,/BUCK_CB*%
X99362451Y-106549999D03*
%TO.P,U1,2,GND*%
%TO.N,GND*%
X99362451Y-107500000D03*
%TO.P,U1,3,FB*%
%TO.N,/BUCK_FB*%
X99362451Y-108450001D03*
%TO.P,U1,4,EN*%
%TO.N,+12V*%
X96637549Y-108450001D03*
%TO.P,U1,5,VIN*%
X96637549Y-107500000D03*
%TO.P,U1,6,SW*%
%TO.N,/BUCK_SW*%
X96637549Y-106549999D03*
%TD*%
D20*
%TO.P,R2,1*%
%TO.N,/BUCK_FB*%
X101362451Y-108912500D03*
%TO.P,R2,2*%
%TO.N,GND*%
X101362451Y-107087500D03*
%TD*%
D21*
%TO.P,C1,1*%
%TO.N,GND*%
X101500000Y-105287500D03*
%TO.P,C1,2*%
%TO.N,+5V*%
X101500000Y-103212500D03*
%TD*%
D22*
%TO.P,Q2,1,G*%
%TO.N,/PMOS_BIAS*%
X90810000Y-114050000D03*
%TO.P,Q2,2,S*%
%TO.N,+12V*%
X90810000Y-115950000D03*
%TO.P,Q2,3,D*%
%TO.N,12V_switched*%
X88190000Y-115000000D03*
%TD*%
D23*
%TO.P,C3,1*%
%TO.N,GND*%
X95000000Y-109862500D03*
%TO.P,C3,2*%
%TO.N,+12V*%
X95000000Y-108137500D03*
%TD*%
D24*
%TO.P,R1,1*%
%TO.N,+5V*%
X103412499Y-110450001D03*
%TO.P,R1,2*%
%TO.N,/BUCK_FB*%
X101587499Y-110450001D03*
%TD*%
D25*
%TO.P,C2,1*%
%TO.N,/BUCK_CB*%
X98862500Y-104750000D03*
%TO.P,C2,2*%
%TO.N,/BUCK_SW*%
X97137500Y-104750000D03*
%TD*%
D26*
%TO.P,R4,1*%
%TO.N,D1_Relay*%
X87250000Y-106837500D03*
%TO.P,R4,2*%
%TO.N,/PN_BIAS*%
X87250000Y-108662500D03*
%TD*%
D27*
%TO.P,FID4,*%
%TO.N,*%
X103949999Y-95850000D03*
%TD*%
D20*
%TO.P,R5,1*%
%TO.N,/PN_BIAS*%
X88750000Y-108662500D03*
%TO.P,R5,2*%
%TO.N,GND*%
X88750000Y-106837500D03*
%TD*%
%TO.P,R6,1*%
%TO.N,+12V*%
X92500000Y-115912500D03*
%TO.P,R6,2*%
%TO.N,/PMOS_BIAS*%
X92500000Y-114087500D03*
%TD*%
D27*
%TO.P,FID6,*%
%TO.N,*%
X90799999Y-124300000D03*
%TD*%
%TO.P,FID5,*%
%TO.N,*%
X87149999Y-95900000D03*
%TD*%
D28*
%TO.N,GND*%
X88299999Y-111600000D03*
X98499999Y-125950000D03*
X82099999Y-113150000D03*
X95599999Y-97950000D03*
X108849999Y-111300000D03*
X108649999Y-126800000D03*
X91499999Y-112250000D03*
X89449999Y-97950000D03*
X102249999Y-112000000D03*
X94549999Y-127800000D03*
X108849999Y-112950000D03*
X86499999Y-105250000D03*
X108899999Y-114750000D03*
X104499999Y-114500000D03*
X102049999Y-118850000D03*
X91049999Y-97950000D03*
X82149999Y-118750000D03*
X89999999Y-101000000D03*
X88249999Y-117950000D03*
X84799999Y-127800000D03*
X101049999Y-127900000D03*
X106649999Y-126350000D03*
X82099999Y-102700000D03*
X104649999Y-121850000D03*
D29*
X92199999Y-108900000D03*
D28*
X108849999Y-124300000D03*
X94199999Y-97950000D03*
X98249999Y-97950000D03*
X102399999Y-127900000D03*
X82099999Y-109900000D03*
X82249999Y-125250000D03*
X87049999Y-116850000D03*
X108899999Y-103350000D03*
X106599999Y-117950000D03*
X92799999Y-97950000D03*
X104499999Y-126350000D03*
X102099999Y-97950000D03*
X82099999Y-111450000D03*
X108849999Y-107550000D03*
X94999999Y-126000000D03*
X106599999Y-120950000D03*
X88649999Y-121150000D03*
X87799999Y-127800000D03*
X107649999Y-127750000D03*
X108849999Y-120550000D03*
X90649999Y-127800000D03*
X82099999Y-114850000D03*
X103699999Y-127900000D03*
X101749999Y-99000000D03*
X98399999Y-127850000D03*
X95499999Y-113750000D03*
X108849999Y-116400000D03*
X108899999Y-97850000D03*
X87999999Y-102250000D03*
X82399999Y-126850000D03*
X86099999Y-107800000D03*
X106599999Y-109400000D03*
X101499999Y-125750000D03*
X105049999Y-127950000D03*
X82149999Y-101050000D03*
X82149999Y-98100000D03*
X87849999Y-97950000D03*
X89349999Y-127800000D03*
X101899999Y-115050000D03*
X108849999Y-123050000D03*
X100399999Y-107500000D03*
X108849999Y-117700000D03*
X84049999Y-111800000D03*
X85299999Y-110250000D03*
X106599999Y-115050000D03*
X108849999Y-125550000D03*
X82149999Y-104500000D03*
X86299999Y-127800000D03*
X82099999Y-106450000D03*
X84099999Y-108750000D03*
X87999999Y-100000000D03*
X91249999Y-102250000D03*
X99699999Y-127900000D03*
X108899999Y-101700000D03*
X82149999Y-99600000D03*
X91399999Y-125900000D03*
X103249999Y-97950000D03*
X104449999Y-118250000D03*
X108849999Y-109350000D03*
X97999999Y-106600000D03*
X88849999Y-123700000D03*
X83349999Y-127750000D03*
X99549999Y-97950000D03*
X108849999Y-121850000D03*
X92499999Y-100000000D03*
X108849999Y-100100000D03*
X106449999Y-127950000D03*
X86599999Y-97900000D03*
X82099999Y-108200000D03*
X96699999Y-109500000D03*
X86899999Y-110600000D03*
X108899999Y-105550000D03*
X88899999Y-125850000D03*
X91899999Y-127800000D03*
X93249999Y-127800000D03*
X82099999Y-120700000D03*
X98299999Y-122100000D03*
X95849999Y-127800000D03*
D29*
X88750000Y-105800000D03*
D28*
X82149999Y-117050000D03*
X108849999Y-119200000D03*
X104549999Y-119950000D03*
X93249999Y-107000000D03*
X104549999Y-124050000D03*
X99199999Y-109500000D03*
X101999999Y-116900000D03*
X97149999Y-127800000D03*
X82099999Y-122800000D03*
X104399999Y-97950000D03*
X96999999Y-97950000D03*
X106549999Y-112200000D03*
D29*
X100299999Y-112800000D03*
D28*
X97999999Y-108400000D03*
X106699999Y-123750000D03*
X94499999Y-106250000D03*
X100849999Y-97950000D03*
X104499999Y-115500000D03*
X90999999Y-110250000D03*
X89499999Y-104000000D03*
%TO.N,+5V*%
X96499999Y-112800000D03*
X101749999Y-100000000D03*
%TD*%
D30*
%TO.N,/PN_BIAS*%
X88312500Y-112450000D02*
X87049999Y-112450000D01*
X87049999Y-112450000D02*
X86199999Y-111600000D01*
X86199999Y-111600000D02*
X86199999Y-109100000D01*
X86199999Y-109100000D02*
X86637499Y-108662500D01*
X86637499Y-108662500D02*
X87250000Y-108662500D01*
D31*
%TO.N,GND*%
X88750000Y-105800000D02*
X88750000Y-106837500D01*
D32*
%TO.N,+5V*%
X102229999Y-113470000D02*
X103412499Y-112287500D01*
X97169999Y-113470000D02*
X102229999Y-113470000D01*
X96499999Y-112800000D02*
X97169999Y-113470000D01*
X103679999Y-106080000D02*
X103499999Y-105900000D01*
X107000000Y-106080000D02*
X103679999Y-106080000D01*
X103412499Y-112287500D02*
X103412499Y-110450001D01*
D31*
%TO.N,+12V*%
X93399999Y-108700000D02*
X93399999Y-111800000D01*
X93962499Y-108137500D02*
X93399999Y-108700000D01*
X92500000Y-115912500D02*
X90847500Y-115912500D01*
D33*
X90810000Y-115950000D02*
X90810000Y-121210001D01*
X90810000Y-121210001D02*
X91599999Y-122000000D01*
D31*
X94000000Y-112400001D02*
X94000000Y-122000000D01*
X90847500Y-115912500D02*
X90810000Y-115950000D01*
X95000000Y-108137500D02*
X93962499Y-108137500D01*
D33*
X91599999Y-122000000D02*
X94000000Y-122000000D01*
D31*
X93399999Y-111800000D02*
X94000000Y-112400001D01*
D33*
%TO.N,12V_switched*%
X83699999Y-116800000D02*
X83699999Y-123200000D01*
X84499999Y-124000000D02*
X85975000Y-124000000D01*
X83699999Y-123200000D02*
X84499999Y-124000000D01*
X85499999Y-115000000D02*
X83699999Y-116800000D01*
X88190000Y-115000000D02*
X85499999Y-115000000D01*
D31*
%TO.N,/PN_BIAS*%
X88750000Y-108662500D02*
X87250000Y-108662500D01*
D30*
%TO.N,D1_Relay*%
X87250000Y-106837500D02*
X87250000Y-104750001D01*
X86039999Y-103540000D02*
X84140000Y-103540000D01*
X87250000Y-104750001D02*
X86039999Y-103540000D01*
D31*
%TO.N,/PMOS_BIAS*%
X90810000Y-112810001D02*
X90810000Y-114050000D01*
X92462500Y-114050000D02*
X92500000Y-114087500D01*
X90187500Y-111500000D02*
X90187500Y-112187501D01*
X90187500Y-112187501D02*
X90810000Y-112810001D01*
X90810000Y-114050000D02*
X92462500Y-114050000D01*
%TD*%
%TA.AperFunction,Conductor*%
%TO.N,/BUCK_CB*%
G36*
X98310699Y-104160169D02*
G01*
X98333663Y-104180067D01*
X98464540Y-104239838D01*
X98531579Y-104259523D01*
X98531583Y-104259524D01*
X98673999Y-104280000D01*
X99179609Y-104280000D01*
X99192206Y-104280642D01*
X99206378Y-104282089D01*
X99213420Y-104282808D01*
X99230292Y-104285720D01*
X99259020Y-104292750D01*
X99298023Y-104299044D01*
X99320701Y-104300862D01*
X99378546Y-104305500D01*
X99378555Y-104305500D01*
X99475999Y-104305500D01*
X99543038Y-104325185D01*
X99588793Y-104377989D01*
X99599999Y-104429500D01*
X99599999Y-106000000D01*
X99975999Y-106000000D01*
X100043038Y-106019685D01*
X100088793Y-106072489D01*
X100099999Y-106124000D01*
X100099999Y-106776000D01*
X100080314Y-106843039D01*
X100027510Y-106888794D01*
X99975999Y-106900000D01*
X98923999Y-106900000D01*
X98856960Y-106880315D01*
X98811205Y-106827511D01*
X98799999Y-106776000D01*
X98799999Y-105500000D01*
X98229499Y-105500000D01*
X98162460Y-105480315D01*
X98116705Y-105427511D01*
X98105499Y-105376000D01*
X98105499Y-104253883D01*
X98125184Y-104186844D01*
X98177988Y-104141089D01*
X98247146Y-104131145D01*
X98310699Y-104160169D01*
G37*
%TD.AperFunction*%
%TD*%
%TA.AperFunction,Conductor*%
%TO.N,GND*%
G36*
X102187538Y-104525185D02*
G01*
X102233293Y-104577989D01*
X102244499Y-104629500D01*
X102244499Y-107770500D01*
X102235837Y-107800000D01*
X98599999Y-107800000D01*
X98599999Y-108185750D01*
X98594499Y-108224003D01*
X98594499Y-108676007D01*
X98599196Y-108719686D01*
X98599999Y-108723377D01*
X98599999Y-109000000D01*
X98885748Y-109000000D01*
X98923999Y-109005500D01*
X100099999Y-109005500D01*
X100099999Y-110600000D01*
X94199999Y-110600000D01*
X94199999Y-109000000D01*
X94385748Y-109000000D01*
X94423999Y-109005500D01*
X94424003Y-109005500D01*
X97075990Y-109005500D01*
X97075999Y-109005500D01*
X97119683Y-109000803D01*
X97123374Y-109000000D01*
X97399999Y-109000000D01*
X97399999Y-108714250D01*
X97405499Y-108676000D01*
X97405499Y-107224000D01*
X97400802Y-107180316D01*
X97399999Y-107176624D01*
X97399999Y-106808750D01*
X97405499Y-106770500D01*
X97405499Y-105900000D01*
X98594499Y-105900000D01*
X98594499Y-106776007D01*
X98599196Y-106819686D01*
X98599999Y-106823377D01*
X98599999Y-107000000D01*
X98688752Y-107000000D01*
X98701659Y-107014895D01*
X98719241Y-107032839D01*
X98719245Y-107032843D01*
X98719246Y-107032844D01*
X98719248Y-107032845D01*
X98799058Y-107077488D01*
X98799062Y-107077490D01*
X98866101Y-107097175D01*
X98923999Y-107105500D01*
X98924003Y-107105500D01*
X99975990Y-107105500D01*
X99975999Y-107105500D01*
X100019683Y-107100803D01*
X100048874Y-107094452D01*
X100071173Y-107089602D01*
X100071189Y-107089598D01*
X100071194Y-107089597D01*
X100081372Y-107087110D01*
X100162084Y-107044100D01*
X100212978Y-107000000D01*
X100499999Y-107000000D01*
X100499999Y-104505500D01*
X102120499Y-104505500D01*
X102187538Y-104525185D01*
G37*
%TD.AperFunction*%
%TD*%
%TA.AperFunction,Conductor*%
%TO.N,/BUCK_FB*%
G36*
X102187538Y-108119685D02*
G01*
X102233293Y-108172489D01*
X102244499Y-108224000D01*
X102244499Y-111026005D01*
X102246331Y-111043044D01*
X102248449Y-111062745D01*
X102236046Y-111131503D01*
X102188436Y-111182641D01*
X102125161Y-111200000D01*
X100723999Y-111200000D01*
X100656960Y-111180315D01*
X100611205Y-111127511D01*
X100599999Y-111076000D01*
X100599999Y-108800000D01*
X98923999Y-108800000D01*
X98856960Y-108780315D01*
X98811205Y-108727511D01*
X98799999Y-108676000D01*
X98799999Y-108224000D01*
X98819684Y-108156961D01*
X98872488Y-108111206D01*
X98923999Y-108100000D01*
X102120499Y-108100000D01*
X102187538Y-108119685D01*
G37*
%TD.AperFunction*%
%TD*%
%TA.AperFunction,Conductor*%
%TO.N,/BUCK_SW*%
G36*
X97243038Y-99769685D02*
G01*
X97288793Y-99822489D01*
X97299999Y-99874000D01*
X97299999Y-104000000D01*
X97775999Y-104000000D01*
X97843038Y-104019685D01*
X97888793Y-104072489D01*
X97899999Y-104124000D01*
X97899999Y-105376000D01*
X97880314Y-105443039D01*
X97827510Y-105488794D01*
X97775999Y-105500000D01*
X97199999Y-105500000D01*
X97199999Y-106770500D01*
X97180314Y-106837539D01*
X97127510Y-106883294D01*
X97075999Y-106894500D01*
X96123999Y-106894500D01*
X96056960Y-106874815D01*
X96011205Y-106822011D01*
X95999999Y-106770500D01*
X95999999Y-103750000D01*
X95673999Y-103750000D01*
X95606960Y-103730315D01*
X95561205Y-103677511D01*
X95549999Y-103626000D01*
X95549999Y-99874000D01*
X95569684Y-99806961D01*
X95622488Y-99761206D01*
X95673999Y-99750000D01*
X97175999Y-99750000D01*
X97243038Y-99769685D01*
G37*
%TD.AperFunction*%
%TD*%
%TA.AperFunction,Conductor*%
%TO.N,+5V*%
G36*
X101710335Y-99750779D02*
G01*
X101728524Y-99752829D01*
X101749998Y-99755249D01*
X101749999Y-99755249D01*
X101750000Y-99755249D01*
X101771473Y-99752829D01*
X101789662Y-99750779D01*
X101803546Y-99750000D01*
X103975999Y-99750000D01*
X104043038Y-99769685D01*
X104088793Y-99822489D01*
X104099999Y-99874000D01*
X104099999Y-111026000D01*
X104080314Y-111093039D01*
X104027510Y-111138794D01*
X103975999Y-111150000D01*
X102873999Y-111150000D01*
X102806960Y-111130315D01*
X102761205Y-111077511D01*
X102749999Y-111026000D01*
X102749999Y-104000000D01*
X100373999Y-104000000D01*
X100306960Y-103980315D01*
X100261205Y-103927511D01*
X100249999Y-103876000D01*
X100249999Y-103800000D01*
X99378555Y-103800000D01*
X99339552Y-103793706D01*
X99312755Y-103784826D01*
X99312751Y-103784825D01*
X99211684Y-103774500D01*
X98673999Y-103774500D01*
X98606960Y-103754815D01*
X98561205Y-103702011D01*
X98549999Y-103650500D01*
X98549999Y-99874000D01*
X98569684Y-99806961D01*
X98622488Y-99761206D01*
X98673999Y-99750000D01*
X101696452Y-99750000D01*
X101710335Y-99750779D01*
G37*
%TD.AperFunction*%
%TD*%
%TA.AperFunction,Conductor*%
%TO.N,+12V*%
G36*
X97143038Y-107119685D02*
G01*
X97188793Y-107172489D01*
X97199999Y-107224000D01*
X97199999Y-108676000D01*
X97180314Y-108743039D01*
X97127510Y-108788794D01*
X97075999Y-108800000D01*
X94423999Y-108800000D01*
X94356960Y-108780315D01*
X94311205Y-108727511D01*
X94299999Y-108676000D01*
X94299999Y-107224000D01*
X94319684Y-107156961D01*
X94372488Y-107111206D01*
X94423999Y-107100000D01*
X97075999Y-107100000D01*
X97143038Y-107119685D01*
G37*
%TD.AperFunction*%
%TD*%
%TA.AperFunction,Conductor*%
%TO.N,GND*%
G36*
X83078988Y-97269685D02*
G01*
X83124743Y-97322489D01*
X83134687Y-97391647D01*
X83105662Y-97455203D01*
X83096218Y-97464581D01*
X83096226Y-97464589D01*
X82948032Y-97612782D01*
X82948028Y-97612786D01*
X82827715Y-97778386D01*
X82734781Y-97960776D01*
X82671522Y-98155465D01*
X82639500Y-98357648D01*
X82639500Y-98562351D01*
X82671522Y-98764534D01*
X82734781Y-98959223D01*
X82827715Y-99141613D01*
X82948028Y-99307213D01*
X83092786Y-99451971D01*
X83205235Y-99533668D01*
X83258390Y-99572287D01*
X83349840Y-99618883D01*
X83351080Y-99619515D01*
X83401876Y-99667490D01*
X83418671Y-99735311D01*
X83396134Y-99801446D01*
X83351080Y-99840485D01*
X83258386Y-99887715D01*
X83092786Y-100008028D01*
X82948028Y-100152786D01*
X82827715Y-100318386D01*
X82734781Y-100500776D01*
X82671522Y-100695465D01*
X82639500Y-100897648D01*
X82639500Y-101102351D01*
X82671522Y-101304534D01*
X82734781Y-101499223D01*
X82827715Y-101681613D01*
X82948028Y-101847213D01*
X83092786Y-101991971D01*
X83247749Y-102104556D01*
X83258390Y-102112287D01*
X83349840Y-102158883D01*
X83351080Y-102159515D01*
X83401876Y-102207490D01*
X83418671Y-102275311D01*
X83396134Y-102341446D01*
X83351080Y-102380485D01*
X83258386Y-102427715D01*
X83092786Y-102548028D01*
X82948028Y-102692786D01*
X82827715Y-102858386D01*
X82734781Y-103040776D01*
X82671522Y-103235465D01*
X82639500Y-103437648D01*
X82639500Y-103642351D01*
X82671522Y-103844534D01*
X82734781Y-104039223D01*
X82794062Y-104155566D01*
X82824517Y-104215338D01*
X82827715Y-104221613D01*
X82948028Y-104387213D01*
X83092786Y-104531971D01*
X83247749Y-104644556D01*
X83258390Y-104652287D01*
X83349840Y-104698883D01*
X83351080Y-104699515D01*
X83401876Y-104747490D01*
X83418671Y-104815311D01*
X83396134Y-104881446D01*
X83351080Y-104920485D01*
X83258386Y-104967715D01*
X83092786Y-105088028D01*
X82948028Y-105232786D01*
X82827715Y-105398386D01*
X82734781Y-105580776D01*
X82671522Y-105775465D01*
X82639500Y-105977648D01*
X82639500Y-106182351D01*
X82671522Y-106384534D01*
X82734781Y-106579223D01*
X82771549Y-106651383D01*
X82827281Y-106760763D01*
X82827715Y-106761613D01*
X82948028Y-106927213D01*
X83092786Y-107071971D01*
X83211945Y-107158543D01*
X83258390Y-107192287D01*
X83347424Y-107237652D01*
X83440776Y-107285218D01*
X83440778Y-107285218D01*
X83440781Y-107285220D01*
X83489572Y-107301073D01*
X83635465Y-107348477D01*
X83736557Y-107364488D01*
X83837648Y-107380500D01*
X83837649Y-107380500D01*
X84442351Y-107380500D01*
X84442352Y-107380500D01*
X84644534Y-107348477D01*
X84839219Y-107285220D01*
X85021610Y-107192287D01*
X85125872Y-107116537D01*
X85187213Y-107071971D01*
X85187215Y-107071968D01*
X85187219Y-107071966D01*
X85331966Y-106927219D01*
X85331968Y-106927215D01*
X85331971Y-106927213D01*
X85384732Y-106854590D01*
X85452287Y-106761610D01*
X85545220Y-106579219D01*
X85608477Y-106384534D01*
X85640500Y-106182352D01*
X85640500Y-105977648D01*
X85630506Y-105914550D01*
X85608477Y-105775465D01*
X85579127Y-105685137D01*
X85545220Y-105580781D01*
X85545218Y-105580778D01*
X85545218Y-105580776D01*
X85510744Y-105513118D01*
X85452287Y-105398390D01*
X85407693Y-105337011D01*
X85331971Y-105232786D01*
X85187213Y-105088028D01*
X85021610Y-104967712D01*
X85021608Y-104967711D01*
X84928919Y-104920483D01*
X84878123Y-104872509D01*
X84861328Y-104804688D01*
X84883866Y-104738553D01*
X84928917Y-104699516D01*
X85021610Y-104652287D01*
X85021627Y-104652274D01*
X85024731Y-104650372D01*
X85032532Y-104645969D01*
X85808297Y-104244418D01*
X85876882Y-104231083D01*
X85941789Y-104256945D01*
X85952979Y-104266860D01*
X86638181Y-104952062D01*
X86671666Y-105013385D01*
X86674500Y-105039743D01*
X86674500Y-105688928D01*
X86656152Y-105753841D01*
X86367964Y-106222894D01*
X86352527Y-106249841D01*
X86352182Y-106250587D01*
X86345199Y-106263581D01*
X86339092Y-106273484D01*
X86284826Y-106437247D01*
X86284826Y-106437248D01*
X86284825Y-106437248D01*
X86274500Y-106538315D01*
X86274500Y-107136669D01*
X86274501Y-107136687D01*
X86284825Y-107237752D01*
X86288884Y-107250000D01*
X86339020Y-107401300D01*
X86339092Y-107401515D01*
X86339093Y-107401518D01*
X86346710Y-107413867D01*
X86429464Y-107548033D01*
X86429661Y-107548351D01*
X86543628Y-107662318D01*
X86577113Y-107723641D01*
X86572129Y-107793333D01*
X86543629Y-107837680D01*
X86429661Y-107951648D01*
X86410065Y-107983417D01*
X86399493Y-107998051D01*
X85965597Y-108514828D01*
X85949156Y-108535726D01*
X85939385Y-108546731D01*
X85846634Y-108639484D01*
X85846634Y-108639485D01*
X85739484Y-108746635D01*
X85663718Y-108877863D01*
X85626615Y-109016336D01*
X85624499Y-109024234D01*
X85624499Y-111524234D01*
X85624499Y-111675766D01*
X85636388Y-111720136D01*
X85663718Y-111822136D01*
X85694184Y-111874903D01*
X85739484Y-111953365D01*
X86589484Y-112803365D01*
X86696634Y-112910515D01*
X86827864Y-112986281D01*
X86974233Y-113025500D01*
X87105660Y-113025500D01*
X87164917Y-113040575D01*
X87420945Y-113179860D01*
X87451135Y-113195000D01*
X87452547Y-113195650D01*
X87452549Y-113195650D01*
X87454638Y-113196612D01*
X87463627Y-113201322D01*
X87464598Y-113201741D01*
X87464602Y-113201744D01*
X87486643Y-113208147D01*
X87493944Y-113210516D01*
X87534888Y-113225220D01*
X87542049Y-113226049D01*
X87562363Y-113230146D01*
X87622431Y-113247598D01*
X87659306Y-113250500D01*
X87659314Y-113250500D01*
X88965686Y-113250500D01*
X88965694Y-113250500D01*
X89002569Y-113247598D01*
X89002571Y-113247597D01*
X89002573Y-113247597D01*
X89072620Y-113227246D01*
X89160398Y-113201744D01*
X89301865Y-113118081D01*
X89418081Y-113001865D01*
X89501744Y-112860398D01*
X89506989Y-112842341D01*
X89544596Y-112783458D01*
X89608068Y-112754251D01*
X89677255Y-112763997D01*
X89713747Y-112789257D01*
X90013181Y-113088691D01*
X90046666Y-113150014D01*
X90049500Y-113176372D01*
X90049500Y-113232047D01*
X90029815Y-113299086D01*
X89989652Y-113338163D01*
X89950608Y-113361766D01*
X89836766Y-113475608D01*
X89753469Y-113613397D01*
X89705569Y-113767116D01*
X89699500Y-113833911D01*
X89699500Y-114266098D01*
X89705568Y-114332882D01*
X89705571Y-114332893D01*
X89753467Y-114486598D01*
X89836766Y-114624391D01*
X89950608Y-114738233D01*
X89950610Y-114738234D01*
X89950612Y-114738236D01*
X90008959Y-114773508D01*
X90056144Y-114825034D01*
X90067983Y-114893893D01*
X90040714Y-114958222D01*
X90017696Y-114979938D01*
X89995360Y-114996167D01*
X89995351Y-114996174D01*
X89856174Y-115135351D01*
X89856174Y-115135352D01*
X89856172Y-115135354D01*
X89806485Y-115203741D01*
X89740476Y-115294594D01*
X89651117Y-115469970D01*
X89590290Y-115657173D01*
X89559500Y-115851577D01*
X89559500Y-121308423D01*
X89590290Y-121502827D01*
X89651117Y-121690031D01*
X89715424Y-121816239D01*
X89740476Y-121865406D01*
X89856172Y-122024647D01*
X90646170Y-122814645D01*
X90646171Y-122814646D01*
X90785353Y-122953828D01*
X90944594Y-123069524D01*
X91007514Y-123101583D01*
X91119978Y-123158886D01*
X91204222Y-123186258D01*
X91246345Y-123199944D01*
X91246346Y-123199945D01*
X91246347Y-123199945D01*
X91307172Y-123219709D01*
X91380075Y-123231255D01*
X91501577Y-123250500D01*
X91501582Y-123250500D01*
X92188803Y-123250500D01*
X92225399Y-123256023D01*
X92712097Y-123406358D01*
X92770339Y-123444950D01*
X92798472Y-123508906D01*
X92799499Y-123524834D01*
X92799499Y-123955370D01*
X92799500Y-123955376D01*
X92805907Y-124014983D01*
X92856201Y-124149828D01*
X92856205Y-124149835D01*
X92942451Y-124265044D01*
X92942454Y-124265047D01*
X93057663Y-124351293D01*
X93057670Y-124351297D01*
X93192516Y-124401591D01*
X93192515Y-124401591D01*
X93199443Y-124402335D01*
X93252126Y-124408000D01*
X96847871Y-124407999D01*
X96907482Y-124401591D01*
X97042330Y-124351296D01*
X97157545Y-124265046D01*
X97243795Y-124149831D01*
X97294090Y-124014983D01*
X97300499Y-123955373D01*
X97300498Y-120359628D01*
X97294090Y-120300017D01*
X97290380Y-120290071D01*
X97243796Y-120165171D01*
X97243792Y-120165164D01*
X97157546Y-120049955D01*
X97157543Y-120049952D01*
X97042334Y-119963706D01*
X97042327Y-119963702D01*
X96995060Y-119946073D01*
X96939126Y-119904202D01*
X96914709Y-119838738D01*
X96929561Y-119770465D01*
X96978966Y-119721059D01*
X97044971Y-119706066D01*
X97058052Y-119706761D01*
X97081348Y-119707999D01*
X97081368Y-119707999D01*
X97081377Y-119708000D01*
X97081385Y-119708000D01*
X99018613Y-119708000D01*
X99018621Y-119708000D01*
X99071240Y-119705205D01*
X99301125Y-119660745D01*
X99520189Y-119578074D01*
X99722131Y-119459570D01*
X99901141Y-119308642D01*
X100052069Y-119129632D01*
X100170573Y-118927690D01*
X100253244Y-118708626D01*
X100297704Y-118478741D01*
X100300499Y-118426122D01*
X100300499Y-116488878D01*
X100297704Y-116436259D01*
X100253244Y-116206374D01*
X100170573Y-115987310D01*
X100052069Y-115785368D01*
X100052064Y-115785361D01*
X99901142Y-115606358D01*
X99901140Y-115606356D01*
X99722137Y-115455434D01*
X99722130Y-115455429D01*
X99520188Y-115336925D01*
X99408016Y-115294594D01*
X99301125Y-115254255D01*
X99301120Y-115254254D01*
X99071242Y-115209795D01*
X99018651Y-115207001D01*
X99018628Y-115207000D01*
X99018621Y-115207000D01*
X97081377Y-115207000D01*
X97081369Y-115207000D01*
X97081346Y-115207001D01*
X97028755Y-115209795D01*
X97028754Y-115209795D01*
X96798877Y-115254254D01*
X96798875Y-115254254D01*
X96798873Y-115254255D01*
X96724932Y-115282159D01*
X96579809Y-115336925D01*
X96377867Y-115455429D01*
X96377860Y-115455434D01*
X96198857Y-115606356D01*
X96198855Y-115606358D01*
X96047933Y-115785361D01*
X96047928Y-115785368D01*
X95929424Y-115987310D01*
X95874658Y-116132433D01*
X95846754Y-116206374D01*
X95846753Y-116206376D01*
X95846753Y-116206378D01*
X95802294Y-116436255D01*
X95802294Y-116436256D01*
X95799500Y-116488847D01*
X95799499Y-116488886D01*
X95799499Y-118426113D01*
X95799500Y-118426152D01*
X95802294Y-118478743D01*
X95802294Y-118478744D01*
X95846753Y-118708621D01*
X95846754Y-118708626D01*
X95895325Y-118837332D01*
X95929424Y-118927689D01*
X96047928Y-119129631D01*
X96047933Y-119129638D01*
X96198855Y-119308641D01*
X96198857Y-119308643D01*
X96377860Y-119459565D01*
X96377867Y-119459570D01*
X96579809Y-119578074D01*
X96798873Y-119660745D01*
X96798877Y-119660745D01*
X96798878Y-119660746D01*
X96801514Y-119661256D01*
X96802531Y-119661781D01*
X96803949Y-119662183D01*
X96803867Y-119662471D01*
X96863596Y-119693312D01*
X96898492Y-119753843D01*
X96895123Y-119823631D01*
X96854559Y-119880519D01*
X96789677Y-119906446D01*
X96777969Y-119907000D01*
X95687079Y-119907000D01*
X95620040Y-119887315D01*
X95607385Y-119877999D01*
X94804806Y-119204718D01*
X94766097Y-119146551D01*
X94760500Y-119109719D01*
X94760500Y-112481038D01*
X94760501Y-112481017D01*
X94760501Y-112325096D01*
X94760500Y-112325094D01*
X94742280Y-112233498D01*
X94731275Y-112178171D01*
X94695327Y-112091384D01*
X94673948Y-112039770D01*
X94627261Y-111969899D01*
X94627260Y-111969898D01*
X94616214Y-111953367D01*
X94590719Y-111915210D01*
X94590717Y-111915207D01*
X94481695Y-111806185D01*
X94481664Y-111806156D01*
X94196818Y-111521310D01*
X94163333Y-111459987D01*
X94160499Y-111433629D01*
X94160499Y-109410718D01*
X94180184Y-109343679D01*
X94232988Y-109297924D01*
X94302144Y-109287980D01*
X94423999Y-109305500D01*
X94424002Y-109305500D01*
X97075989Y-109305500D01*
X97075999Y-109305500D01*
X97183455Y-109293947D01*
X97234966Y-109282741D01*
X97269196Y-109271347D01*
X97337496Y-109248616D01*
X97337500Y-109248613D01*
X97337503Y-109248613D01*
X97458542Y-109170825D01*
X97511346Y-109125070D01*
X97605566Y-109016336D01*
X97665337Y-108885459D01*
X97685022Y-108818420D01*
X97685023Y-108818416D01*
X97705499Y-108676000D01*
X97705499Y-107224000D01*
X97693946Y-107116544D01*
X97682740Y-107065033D01*
X97672483Y-107034219D01*
X97669989Y-106964396D01*
X97671153Y-106960151D01*
X97685022Y-106912920D01*
X97685023Y-106912916D01*
X97705499Y-106770500D01*
X97705499Y-106124462D01*
X97725184Y-106057423D01*
X97777988Y-106011668D01*
X97816237Y-106001173D01*
X97883455Y-105993947D01*
X97934966Y-105982741D01*
X97934981Y-105982735D01*
X97934985Y-105982735D01*
X97965777Y-105972486D01*
X98035602Y-105969990D01*
X98039847Y-105971154D01*
X98087079Y-105985023D01*
X98087083Y-105985024D01*
X98188145Y-105999554D01*
X98251701Y-106028579D01*
X98289476Y-106087357D01*
X98294499Y-106122292D01*
X98294499Y-106776000D01*
X98294500Y-106776009D01*
X98306051Y-106883450D01*
X98306053Y-106883462D01*
X98317259Y-106934972D01*
X98351382Y-107037497D01*
X98351385Y-107037503D01*
X98361575Y-107053358D01*
X98381260Y-107120397D01*
X98380549Y-107133654D01*
X98376301Y-107173155D01*
X98376301Y-107250000D01*
X98473286Y-107250000D01*
X98540325Y-107269685D01*
X98554487Y-107280285D01*
X98560182Y-107285220D01*
X98583663Y-107305567D01*
X98583667Y-107305569D01*
X98714535Y-107365336D01*
X98714536Y-107365336D01*
X98714540Y-107365338D01*
X98763527Y-107379722D01*
X98822305Y-107417497D01*
X98851329Y-107481053D01*
X98841385Y-107550211D01*
X98795630Y-107603015D01*
X98767751Y-107616353D01*
X98662499Y-107651384D01*
X98662495Y-107651386D01*
X98539681Y-107730315D01*
X98472641Y-107750000D01*
X98376301Y-107750000D01*
X98376301Y-107826831D01*
X98381065Y-107871146D01*
X98370570Y-107935911D01*
X98334661Y-108014540D01*
X98314975Y-108081582D01*
X98301324Y-108176528D01*
X98294499Y-108224000D01*
X98294499Y-108676000D01*
X98294500Y-108676009D01*
X98306051Y-108783450D01*
X98306053Y-108783462D01*
X98317259Y-108834972D01*
X98351382Y-108937497D01*
X98351385Y-108937503D01*
X98429170Y-109058537D01*
X98429178Y-109058548D01*
X98474922Y-109111340D01*
X98474925Y-109111343D01*
X98474929Y-109111347D01*
X98583663Y-109205567D01*
X98583666Y-109205568D01*
X98583667Y-109205569D01*
X98677924Y-109248616D01*
X98714540Y-109265338D01*
X98781579Y-109285023D01*
X98781583Y-109285024D01*
X98923999Y-109305500D01*
X99970499Y-109305500D01*
X100037538Y-109325185D01*
X100083293Y-109377989D01*
X100094499Y-109429500D01*
X100094499Y-111076000D01*
X100094500Y-111076009D01*
X100106051Y-111183450D01*
X100106053Y-111183462D01*
X100117259Y-111234972D01*
X100151382Y-111337497D01*
X100151385Y-111337503D01*
X100229170Y-111458537D01*
X100229178Y-111458548D01*
X100274922Y-111511340D01*
X100274925Y-111511343D01*
X100274929Y-111511347D01*
X100383663Y-111605567D01*
X100383666Y-111605568D01*
X100383667Y-111605569D01*
X100493974Y-111655946D01*
X100514540Y-111665338D01*
X100581579Y-111685023D01*
X100581583Y-111685024D01*
X100723999Y-111705500D01*
X100724002Y-111705500D01*
X102125159Y-111705500D01*
X102125161Y-111705500D01*
X102125163Y-111705499D01*
X102125172Y-111705499D01*
X102202901Y-111695029D01*
X102258899Y-111687488D01*
X102322174Y-111670129D01*
X102322179Y-111670126D01*
X102322182Y-111670126D01*
X102446381Y-111617376D01*
X102446381Y-111617375D01*
X102446383Y-111617375D01*
X102467264Y-111600546D01*
X102531812Y-111573808D01*
X102596584Y-111584302D01*
X102664540Y-111615338D01*
X102668569Y-111617178D01*
X102667751Y-111618968D01*
X102717216Y-111655946D01*
X102741677Y-111721394D01*
X102741999Y-111730323D01*
X102741999Y-111958408D01*
X102722314Y-112025447D01*
X102705680Y-112046089D01*
X101988588Y-112763181D01*
X101927265Y-112796666D01*
X101900907Y-112799500D01*
X97499091Y-112799500D01*
X97432052Y-112779815D01*
X97411410Y-112763181D01*
X97385148Y-112736919D01*
X97372396Y-112721965D01*
X97307208Y-112631943D01*
X97109652Y-112359127D01*
X97105096Y-112352378D01*
X97090477Y-112329111D01*
X97081413Y-112320047D01*
X97071539Y-112308910D01*
X97070144Y-112307132D01*
X97070130Y-112307115D01*
X97068960Y-112305737D01*
X97002387Y-112240589D01*
X97002386Y-112240588D01*
X96997589Y-112235894D01*
X96994864Y-112233498D01*
X96970889Y-112209523D01*
X96970883Y-112209518D01*
X96827696Y-112119547D01*
X96827693Y-112119545D01*
X96668055Y-112063685D01*
X96500002Y-112044751D01*
X96499996Y-112044751D01*
X96331942Y-112063685D01*
X96172304Y-112119545D01*
X96172301Y-112119547D01*
X96029114Y-112209518D01*
X96029108Y-112209523D01*
X95909522Y-112329109D01*
X95909517Y-112329115D01*
X95819546Y-112472302D01*
X95819544Y-112472305D01*
X95763684Y-112631943D01*
X95744750Y-112799997D01*
X95744750Y-112800002D01*
X95763684Y-112968056D01*
X95819544Y-113127694D01*
X95819546Y-113127697D01*
X95909517Y-113270884D01*
X95909522Y-113270890D01*
X96029110Y-113390478D01*
X96039955Y-113397292D01*
X96052386Y-113405103D01*
X96059126Y-113409653D01*
X96150212Y-113475612D01*
X96421965Y-113672398D01*
X96436919Y-113685150D01*
X96742576Y-113990808D01*
X96742580Y-113990811D01*
X96852398Y-114064190D01*
X96938681Y-114099929D01*
X96974421Y-114114733D01*
X97103956Y-114140499D01*
X97103960Y-114140500D01*
X97103961Y-114140500D01*
X102296038Y-114140500D01*
X102296039Y-114140499D01*
X102425577Y-114114733D01*
X102445729Y-114106385D01*
X102461315Y-114099930D01*
X102498947Y-114084342D01*
X102547600Y-114064190D01*
X102657418Y-113990811D01*
X103933310Y-112714919D01*
X104006689Y-112605100D01*
X104052096Y-112495477D01*
X104057232Y-112483078D01*
X104082999Y-112353538D01*
X104082999Y-111739454D01*
X104102684Y-111672415D01*
X104155488Y-111626660D01*
X104167840Y-111621800D01*
X104231689Y-111600548D01*
X104237503Y-111598613D01*
X104358542Y-111520825D01*
X104411346Y-111475070D01*
X104505566Y-111366336D01*
X104565337Y-111235459D01*
X104585022Y-111168420D01*
X104585023Y-111168416D01*
X104605499Y-111026000D01*
X104605499Y-106874500D01*
X104625184Y-106807461D01*
X104677988Y-106761706D01*
X104729499Y-106750500D01*
X105073063Y-106750500D01*
X105122459Y-106760763D01*
X106128289Y-107197594D01*
X106135188Y-107200846D01*
X106300776Y-107285218D01*
X106300778Y-107285218D01*
X106300781Y-107285220D01*
X106349572Y-107301073D01*
X106495465Y-107348477D01*
X106596557Y-107364488D01*
X106697648Y-107380500D01*
X106697649Y-107380500D01*
X107302351Y-107380500D01*
X107302352Y-107380500D01*
X107504534Y-107348477D01*
X107699219Y-107285220D01*
X107881610Y-107192287D01*
X107985872Y-107116537D01*
X108047213Y-107071971D01*
X108047215Y-107071968D01*
X108047219Y-107071966D01*
X108191966Y-106927219D01*
X108191968Y-106927215D01*
X108191971Y-106927213D01*
X108244732Y-106854590D01*
X108312287Y-106761610D01*
X108405220Y-106579219D01*
X108468477Y-106384534D01*
X108500500Y-106182352D01*
X108500500Y-105977648D01*
X108490506Y-105914550D01*
X108468477Y-105775465D01*
X108439127Y-105685137D01*
X108405220Y-105580781D01*
X108405218Y-105580778D01*
X108405218Y-105580776D01*
X108370744Y-105513118D01*
X108312287Y-105398390D01*
X108267693Y-105337011D01*
X108191971Y-105232786D01*
X108047213Y-105088028D01*
X107881611Y-104967713D01*
X107788369Y-104920203D01*
X107737574Y-104872229D01*
X107720779Y-104804407D01*
X107743317Y-104738273D01*
X107788371Y-104699234D01*
X107881347Y-104651861D01*
X108046894Y-104531582D01*
X108046895Y-104531582D01*
X108191582Y-104386895D01*
X108191582Y-104386894D01*
X108311859Y-104221349D01*
X108404755Y-104039029D01*
X108467990Y-103844413D01*
X108476609Y-103790000D01*
X107433012Y-103790000D01*
X107465925Y-103732993D01*
X107500000Y-103605826D01*
X107500000Y-103474174D01*
X107465925Y-103347007D01*
X107433012Y-103290000D01*
X108476609Y-103290000D01*
X108467990Y-103235586D01*
X108404755Y-103040970D01*
X108311859Y-102858650D01*
X108191582Y-102693105D01*
X108191582Y-102693104D01*
X108046895Y-102548417D01*
X107881349Y-102428140D01*
X107788370Y-102380765D01*
X107737574Y-102332790D01*
X107720779Y-102264969D01*
X107743316Y-102198835D01*
X107788370Y-102159795D01*
X107788920Y-102159515D01*
X107881610Y-102112287D01*
X107902770Y-102096913D01*
X108047213Y-101991971D01*
X108047215Y-101991968D01*
X108047219Y-101991966D01*
X108191966Y-101847219D01*
X108191968Y-101847215D01*
X108191971Y-101847213D01*
X108244732Y-101774590D01*
X108312287Y-101681610D01*
X108405220Y-101499219D01*
X108468477Y-101304534D01*
X108500500Y-101102352D01*
X108500500Y-100897648D01*
X108468477Y-100695466D01*
X108405220Y-100500781D01*
X108405218Y-100500778D01*
X108405218Y-100500776D01*
X108371503Y-100434607D01*
X108312287Y-100318390D01*
X108304556Y-100307749D01*
X108191971Y-100152786D01*
X108047213Y-100008028D01*
X107881614Y-99887715D01*
X107854716Y-99874010D01*
X107788917Y-99840483D01*
X107738123Y-99792511D01*
X107721328Y-99724690D01*
X107743865Y-99658555D01*
X107788917Y-99619516D01*
X107881610Y-99572287D01*
X107934765Y-99533668D01*
X108047213Y-99451971D01*
X108047215Y-99451968D01*
X108047219Y-99451966D01*
X108191966Y-99307219D01*
X108191968Y-99307215D01*
X108191971Y-99307213D01*
X108244732Y-99234590D01*
X108312287Y-99141610D01*
X108405220Y-98959219D01*
X108468477Y-98764534D01*
X108500500Y-98562352D01*
X108500500Y-98357648D01*
X108468477Y-98155466D01*
X108405220Y-97960781D01*
X108405218Y-97960778D01*
X108405218Y-97960776D01*
X108371503Y-97894607D01*
X108312287Y-97778390D01*
X108304556Y-97767749D01*
X108191971Y-97612786D01*
X108043774Y-97464589D01*
X108044575Y-97463787D01*
X108009322Y-97409769D01*
X108008832Y-97339901D01*
X108046192Y-97280859D01*
X108109543Y-97251389D01*
X108128051Y-97250000D01*
X109075500Y-97250000D01*
X109142539Y-97269685D01*
X109188294Y-97322489D01*
X109199500Y-97374000D01*
X109199500Y-126495572D01*
X109199184Y-126504418D01*
X109182834Y-126733017D01*
X109180316Y-126750529D01*
X109132543Y-126970137D01*
X109127559Y-126987112D01*
X109049019Y-127197688D01*
X109041669Y-127213782D01*
X108933959Y-127411036D01*
X108924394Y-127425919D01*
X108789710Y-127605836D01*
X108778124Y-127619207D01*
X108619207Y-127778124D01*
X108605836Y-127789710D01*
X108425919Y-127924394D01*
X108411036Y-127933959D01*
X108213782Y-128041669D01*
X108197688Y-128049019D01*
X107987112Y-128127559D01*
X107970137Y-128132543D01*
X107750529Y-128180316D01*
X107733017Y-128182834D01*
X107504418Y-128199184D01*
X107495572Y-128199500D01*
X83504428Y-128199500D01*
X83495582Y-128199184D01*
X83266982Y-128182834D01*
X83249470Y-128180316D01*
X83029862Y-128132543D01*
X83012887Y-128127559D01*
X82802311Y-128049019D01*
X82786217Y-128041669D01*
X82588963Y-127933959D01*
X82574080Y-127924394D01*
X82394163Y-127789710D01*
X82380792Y-127778124D01*
X82221875Y-127619207D01*
X82210289Y-127605836D01*
X82075605Y-127425919D01*
X82066040Y-127411036D01*
X81958330Y-127213782D01*
X81950983Y-127197694D01*
X81872437Y-126987103D01*
X81867458Y-126970144D01*
X81819683Y-126750529D01*
X81817165Y-126733017D01*
X81800816Y-126504418D01*
X81800500Y-126495572D01*
X81800500Y-116701577D01*
X82449499Y-116701577D01*
X82449499Y-123298422D01*
X82480289Y-123492826D01*
X82541116Y-123680030D01*
X82601990Y-123799500D01*
X82630475Y-123855405D01*
X82746171Y-124014646D01*
X83685353Y-124953828D01*
X83844594Y-125069524D01*
X84019973Y-125158884D01*
X84193105Y-125215138D01*
X84199856Y-125217331D01*
X84207172Y-125219709D01*
X84401577Y-125250500D01*
X84401582Y-125250500D01*
X84401583Y-125250500D01*
X84598416Y-125250500D01*
X84839868Y-125250500D01*
X84904963Y-125268960D01*
X84930666Y-125284814D01*
X85097203Y-125339999D01*
X85199991Y-125350500D01*
X86750008Y-125350499D01*
X86852797Y-125339999D01*
X87019334Y-125284814D01*
X87168656Y-125192712D01*
X87292712Y-125068656D01*
X87384814Y-124919334D01*
X87439999Y-124752797D01*
X87450500Y-124650009D01*
X87450500Y-124300000D01*
X90294352Y-124300000D01*
X90314833Y-124442456D01*
X90374621Y-124573371D01*
X90374622Y-124573373D01*
X90468871Y-124682143D01*
X90589946Y-124759953D01*
X90589949Y-124759954D01*
X90589948Y-124759954D01*
X90728035Y-124800499D01*
X90728037Y-124800500D01*
X90728038Y-124800500D01*
X90871961Y-124800500D01*
X90871961Y-124800499D01*
X91010052Y-124759953D01*
X91131127Y-124682143D01*
X91225376Y-124573373D01*
X91285164Y-124442457D01*
X91305646Y-124300000D01*
X91285164Y-124157543D01*
X91225376Y-124026627D01*
X91131127Y-123917857D01*
X91010052Y-123840047D01*
X91010050Y-123840046D01*
X91010048Y-123840045D01*
X91010049Y-123840045D01*
X90871962Y-123799500D01*
X90871960Y-123799500D01*
X90728038Y-123799500D01*
X90728035Y-123799500D01*
X90589948Y-123840045D01*
X90468872Y-123917856D01*
X90374622Y-124026626D01*
X90374621Y-124026628D01*
X90314833Y-124157543D01*
X90294352Y-124300000D01*
X87450500Y-124300000D01*
X87450499Y-123349992D01*
X87439999Y-123247203D01*
X87384814Y-123080666D01*
X87292712Y-122931344D01*
X87168656Y-122807288D01*
X87019334Y-122715186D01*
X87019333Y-122715185D01*
X87013878Y-122711821D01*
X86967154Y-122659873D01*
X86955931Y-122590910D01*
X86983775Y-122526828D01*
X86991272Y-122518623D01*
X87130104Y-122379792D01*
X87255051Y-122207816D01*
X87351557Y-122018412D01*
X87417246Y-121816243D01*
X87450500Y-121606287D01*
X87450500Y-121393713D01*
X87417246Y-121183757D01*
X87351557Y-120981588D01*
X87255051Y-120792184D01*
X87255049Y-120792181D01*
X87255048Y-120792179D01*
X87130109Y-120620213D01*
X86979786Y-120469890D01*
X86807820Y-120344951D01*
X86618414Y-120248444D01*
X86618413Y-120248443D01*
X86618412Y-120248443D01*
X86416243Y-120182754D01*
X86416241Y-120182753D01*
X86416240Y-120182753D01*
X86254957Y-120157208D01*
X86206287Y-120149500D01*
X85743713Y-120149500D01*
X85695042Y-120157208D01*
X85533760Y-120182753D01*
X85533757Y-120182754D01*
X85354511Y-120240995D01*
X85331585Y-120248444D01*
X85142181Y-120344950D01*
X85139282Y-120346727D01*
X85138030Y-120347065D01*
X85137843Y-120347161D01*
X85137822Y-120347121D01*
X85071835Y-120364966D01*
X85005234Y-120343846D01*
X84960624Y-120290071D01*
X84950499Y-120240995D01*
X84950499Y-117369336D01*
X84970184Y-117302297D01*
X84986818Y-117281655D01*
X85981654Y-116286819D01*
X86042977Y-116253334D01*
X86069335Y-116250500D01*
X88288422Y-116250500D01*
X88482826Y-116219709D01*
X88523854Y-116206378D01*
X88670025Y-116158884D01*
X88845405Y-116069524D01*
X89004646Y-115953828D01*
X89143828Y-115814646D01*
X89259524Y-115655405D01*
X89348884Y-115480025D01*
X89409709Y-115292826D01*
X89422860Y-115209795D01*
X89440500Y-115098422D01*
X89440500Y-114901577D01*
X89409709Y-114707173D01*
X89348882Y-114519970D01*
X89259523Y-114344594D01*
X89251022Y-114332893D01*
X89143828Y-114185354D01*
X89004646Y-114046172D01*
X88845405Y-113930476D01*
X88670029Y-113841117D01*
X88482826Y-113780290D01*
X88288422Y-113749500D01*
X88288417Y-113749500D01*
X85598415Y-113749500D01*
X85401582Y-113749500D01*
X85401577Y-113749500D01*
X85207176Y-113780290D01*
X85207173Y-113780290D01*
X85207172Y-113780291D01*
X85184678Y-113787600D01*
X85184675Y-113787601D01*
X85019969Y-113841117D01*
X84844590Y-113930478D01*
X84731563Y-114012596D01*
X84731564Y-114012597D01*
X84685353Y-114046171D01*
X82746173Y-115985351D01*
X82746173Y-115985352D01*
X82746171Y-115985354D01*
X82744750Y-115987310D01*
X82630475Y-116144594D01*
X82541116Y-116319969D01*
X82515993Y-116397292D01*
X82480289Y-116507173D01*
X82449499Y-116701577D01*
X81800500Y-116701577D01*
X81800500Y-97374000D01*
X81820185Y-97306961D01*
X81872989Y-97261206D01*
X81924500Y-97250000D01*
X83011949Y-97250000D01*
X83078988Y-97269685D01*
G37*
%TD.AperFunction*%
%TA.AperFunction,Conductor*%
G36*
X105938988Y-97269685D02*
G01*
X105984743Y-97322489D01*
X105994687Y-97391647D01*
X105965662Y-97455203D01*
X105956218Y-97464581D01*
X105956226Y-97464589D01*
X105808032Y-97612782D01*
X105808028Y-97612786D01*
X105687715Y-97778386D01*
X105594781Y-97960776D01*
X105531522Y-98155465D01*
X105499500Y-98357648D01*
X105499500Y-98562351D01*
X105531522Y-98764534D01*
X105594781Y-98959223D01*
X105687715Y-99141613D01*
X105808028Y-99307213D01*
X105952786Y-99451971D01*
X106065235Y-99533668D01*
X106118390Y-99572287D01*
X106209840Y-99618883D01*
X106211080Y-99619515D01*
X106261876Y-99667490D01*
X106278671Y-99735311D01*
X106256134Y-99801446D01*
X106211080Y-99840485D01*
X106118386Y-99887715D01*
X105952786Y-100008028D01*
X105808028Y-100152786D01*
X105687715Y-100318386D01*
X105594781Y-100500776D01*
X105531522Y-100695465D01*
X105499500Y-100897648D01*
X105499500Y-101102351D01*
X105531522Y-101304534D01*
X105594781Y-101499223D01*
X105687715Y-101681613D01*
X105808028Y-101847213D01*
X105952786Y-101991971D01*
X106107749Y-102104556D01*
X106118390Y-102112287D01*
X106190424Y-102148990D01*
X106211629Y-102159795D01*
X106262425Y-102207770D01*
X106279220Y-102275591D01*
X106256682Y-102341726D01*
X106211629Y-102380765D01*
X106118650Y-102428140D01*
X105953105Y-102548417D01*
X105953104Y-102548417D01*
X105808417Y-102693104D01*
X105808417Y-102693105D01*
X105688140Y-102858650D01*
X105595244Y-103040970D01*
X105532009Y-103235586D01*
X105523391Y-103290000D01*
X106566988Y-103290000D01*
X106534075Y-103347007D01*
X106500000Y-103474174D01*
X106500000Y-103605826D01*
X106534075Y-103732993D01*
X106566988Y-103790000D01*
X105523391Y-103790000D01*
X105532009Y-103844413D01*
X105595244Y-104039029D01*
X105688140Y-104221349D01*
X105808417Y-104386894D01*
X105808417Y-104386895D01*
X105953104Y-104531582D01*
X106118652Y-104651861D01*
X106211628Y-104699234D01*
X106262425Y-104747208D01*
X106279220Y-104815029D01*
X106256683Y-104881164D01*
X106211629Y-104920204D01*
X106135209Y-104959142D01*
X106128310Y-104962394D01*
X105122457Y-105399237D01*
X105073061Y-105409500D01*
X104729499Y-105409500D01*
X104662460Y-105389815D01*
X104616705Y-105337011D01*
X104605499Y-105285500D01*
X104605499Y-99874010D01*
X104605499Y-99874000D01*
X104593946Y-99766544D01*
X104582740Y-99715033D01*
X104566916Y-99667490D01*
X104548615Y-99612502D01*
X104548612Y-99612496D01*
X104470827Y-99491462D01*
X104470824Y-99491457D01*
X104470819Y-99491451D01*
X104425075Y-99438659D01*
X104425071Y-99438656D01*
X104425069Y-99438653D01*
X104316335Y-99344433D01*
X104316332Y-99344431D01*
X104316330Y-99344430D01*
X104185464Y-99284664D01*
X104185459Y-99284662D01*
X104185458Y-99284662D01*
X104118419Y-99264977D01*
X104118421Y-99264977D01*
X104118416Y-99264976D01*
X104056346Y-99256052D01*
X103975999Y-99244500D01*
X101803546Y-99244500D01*
X101803534Y-99244500D01*
X101775250Y-99245292D01*
X101772034Y-99245473D01*
X101751216Y-99244888D01*
X101750000Y-99244751D01*
X101749999Y-99244751D01*
X101748773Y-99244889D01*
X101727957Y-99245472D01*
X101724772Y-99245293D01*
X101696464Y-99244500D01*
X101696452Y-99244500D01*
X98673999Y-99244500D01*
X98673990Y-99244500D01*
X98673989Y-99244501D01*
X98566548Y-99256052D01*
X98566536Y-99256054D01*
X98515026Y-99267260D01*
X98412501Y-99301383D01*
X98412495Y-99301386D01*
X98291461Y-99379171D01*
X98291450Y-99379179D01*
X98238658Y-99424923D01*
X98144432Y-99533664D01*
X98144429Y-99533668D01*
X98084663Y-99664534D01*
X98064975Y-99731582D01*
X98048249Y-99847916D01*
X98019224Y-99911472D01*
X97960446Y-99949246D01*
X97890576Y-99949246D01*
X97831798Y-99911472D01*
X97802773Y-99847916D01*
X97802230Y-99843601D01*
X97793946Y-99766544D01*
X97782740Y-99715033D01*
X97766916Y-99667490D01*
X97748615Y-99612502D01*
X97748612Y-99612496D01*
X97670827Y-99491462D01*
X97670824Y-99491457D01*
X97670819Y-99491451D01*
X97625075Y-99438659D01*
X97625071Y-99438656D01*
X97625069Y-99438653D01*
X97516335Y-99344433D01*
X97516332Y-99344431D01*
X97516330Y-99344430D01*
X97385464Y-99284664D01*
X97385459Y-99284662D01*
X97385458Y-99284662D01*
X97318419Y-99264977D01*
X97318421Y-99264977D01*
X97318416Y-99264976D01*
X97256346Y-99256052D01*
X97175999Y-99244500D01*
X95673999Y-99244500D01*
X95673990Y-99244500D01*
X95673989Y-99244501D01*
X95566548Y-99256052D01*
X95566536Y-99256054D01*
X95515026Y-99267260D01*
X95412501Y-99301383D01*
X95412495Y-99301386D01*
X95291461Y-99379171D01*
X95291450Y-99379179D01*
X95238658Y-99424923D01*
X95144432Y-99533664D01*
X95144429Y-99533668D01*
X95084663Y-99664534D01*
X95064975Y-99731582D01*
X95051324Y-99826528D01*
X95044499Y-99874000D01*
X95044499Y-103626000D01*
X95044500Y-103626009D01*
X95056051Y-103733450D01*
X95056053Y-103733462D01*
X95067259Y-103784972D01*
X95101382Y-103887497D01*
X95101385Y-103887503D01*
X95179170Y-104008537D01*
X95179178Y-104008548D01*
X95224922Y-104061340D01*
X95224925Y-104061343D01*
X95224929Y-104061347D01*
X95333663Y-104155567D01*
X95333666Y-104155568D01*
X95333667Y-104155569D01*
X95422011Y-104195915D01*
X95474815Y-104241670D01*
X95494499Y-104308709D01*
X95494499Y-106470500D01*
X95474814Y-106537539D01*
X95422010Y-106583294D01*
X95370499Y-106594500D01*
X94423999Y-106594500D01*
X94423990Y-106594500D01*
X94423989Y-106594501D01*
X94316548Y-106606052D01*
X94316536Y-106606054D01*
X94265026Y-106617260D01*
X94162501Y-106651383D01*
X94162495Y-106651386D01*
X94041461Y-106729171D01*
X94041450Y-106729179D01*
X93988658Y-106774923D01*
X93894432Y-106883664D01*
X93894429Y-106883668D01*
X93834663Y-107014534D01*
X93814975Y-107081582D01*
X93803910Y-107158543D01*
X93794501Y-107223990D01*
X93794499Y-107224001D01*
X93794499Y-107301073D01*
X93774814Y-107368112D01*
X93722010Y-107413867D01*
X93717952Y-107415634D01*
X93602270Y-107463551D01*
X93602260Y-107463556D01*
X93477709Y-107546779D01*
X93429989Y-107594500D01*
X93371780Y-107652709D01*
X93371777Y-107652712D01*
X92915211Y-108109278D01*
X92915208Y-108109281D01*
X92862243Y-108162246D01*
X92809278Y-108215210D01*
X92726055Y-108339761D01*
X92726050Y-108339770D01*
X92668724Y-108478169D01*
X92668722Y-108478177D01*
X92639499Y-108625092D01*
X92639499Y-111874907D01*
X92668722Y-112021822D01*
X92668724Y-112021830D01*
X92726050Y-112160229D01*
X92726055Y-112160238D01*
X92809279Y-112284790D01*
X92809282Y-112284794D01*
X92919527Y-112395039D01*
X92919549Y-112395059D01*
X93203181Y-112678691D01*
X93236666Y-112740014D01*
X93239500Y-112766372D01*
X93239500Y-113057866D01*
X93219815Y-113124905D01*
X93167011Y-113170660D01*
X93097853Y-113180604D01*
X93058447Y-113166323D01*
X93058064Y-113167146D01*
X93051518Y-113164093D01*
X93051516Y-113164092D01*
X92887753Y-113109826D01*
X92887751Y-113109825D01*
X92786678Y-113099500D01*
X92213330Y-113099500D01*
X92213312Y-113099501D01*
X92112247Y-113109825D01*
X92112244Y-113109826D01*
X92070249Y-113123742D01*
X92061769Y-113126552D01*
X92038477Y-113131847D01*
X92028912Y-113133068D01*
X92028900Y-113133070D01*
X91727554Y-113216415D01*
X91657693Y-113215313D01*
X91599518Y-113176617D01*
X91571499Y-113112611D01*
X91570500Y-113096902D01*
X91570500Y-112735097D01*
X91570499Y-112735093D01*
X91556695Y-112665694D01*
X91541275Y-112588171D01*
X91493282Y-112472305D01*
X91483948Y-112449771D01*
X91483943Y-112449762D01*
X91400719Y-112325210D01*
X91400716Y-112325206D01*
X91297909Y-112222399D01*
X91264424Y-112161076D01*
X91269408Y-112091384D01*
X91290007Y-112059356D01*
X91288298Y-112058031D01*
X91293075Y-112051870D01*
X91293081Y-112051865D01*
X91376744Y-111910398D01*
X91422598Y-111752569D01*
X91425500Y-111715694D01*
X91425500Y-111284306D01*
X91422598Y-111247431D01*
X91418978Y-111234972D01*
X91376745Y-111089606D01*
X91376744Y-111089603D01*
X91376744Y-111089602D01*
X91293081Y-110948135D01*
X91293079Y-110948133D01*
X91293076Y-110948129D01*
X91176870Y-110831923D01*
X91176862Y-110831917D01*
X91035396Y-110748255D01*
X91035393Y-110748254D01*
X90877573Y-110702402D01*
X90877567Y-110702401D01*
X90840701Y-110699500D01*
X90840694Y-110699500D01*
X89534306Y-110699500D01*
X89534298Y-110699500D01*
X89497432Y-110702401D01*
X89497426Y-110702402D01*
X89339606Y-110748254D01*
X89339603Y-110748255D01*
X89281306Y-110782732D01*
X89218185Y-110800000D01*
X88562500Y-110800000D01*
X88562500Y-111350000D01*
X88825500Y-111350000D01*
X88892539Y-111369685D01*
X88938294Y-111422489D01*
X88949500Y-111474000D01*
X88949500Y-111525500D01*
X88929815Y-111592539D01*
X88877011Y-111638294D01*
X88825500Y-111649500D01*
X87659298Y-111649500D01*
X87622436Y-111652401D01*
X87622421Y-111652404D01*
X87576136Y-111665850D01*
X87561195Y-111669206D01*
X87555831Y-111670066D01*
X87539180Y-111676247D01*
X87530629Y-111679072D01*
X87464602Y-111698255D01*
X87448378Y-111707850D01*
X87428420Y-111717362D01*
X87420946Y-111720136D01*
X87420941Y-111720139D01*
X87316518Y-111776946D01*
X87248222Y-111791691D01*
X87182796Y-111767171D01*
X87169581Y-111755702D01*
X86811818Y-111397939D01*
X86778333Y-111336616D01*
X86775499Y-111310258D01*
X86775499Y-110800001D01*
X87077704Y-110800001D01*
X87077899Y-110802486D01*
X87123718Y-110960198D01*
X87207314Y-111101552D01*
X87207321Y-111101561D01*
X87323438Y-111217678D01*
X87323447Y-111217685D01*
X87464803Y-111301282D01*
X87464806Y-111301283D01*
X87622504Y-111347099D01*
X87622510Y-111347100D01*
X87659350Y-111349999D01*
X87659366Y-111350000D01*
X88062500Y-111350000D01*
X88062500Y-110800000D01*
X87077705Y-110800000D01*
X87077704Y-110800001D01*
X86775499Y-110800001D01*
X86775499Y-109768625D01*
X86795184Y-109701586D01*
X86847988Y-109655831D01*
X86912101Y-109645267D01*
X86963323Y-109650500D01*
X87262159Y-109650499D01*
X87329197Y-109670183D01*
X87374952Y-109722987D01*
X87384896Y-109792146D01*
X87355871Y-109855701D01*
X87325284Y-109881228D01*
X87323449Y-109882312D01*
X87323438Y-109882321D01*
X87207321Y-109998438D01*
X87207314Y-109998447D01*
X87123718Y-110139801D01*
X87077899Y-110297513D01*
X87077704Y-110299998D01*
X87077705Y-110300000D01*
X89547295Y-110300000D01*
X89547295Y-110299998D01*
X89547100Y-110297513D01*
X89501281Y-110139801D01*
X89417685Y-109998447D01*
X89417678Y-109998438D01*
X89301561Y-109882321D01*
X89301552Y-109882314D01*
X89214886Y-109831060D01*
X89167202Y-109779991D01*
X89154699Y-109711249D01*
X89181345Y-109646660D01*
X89238680Y-109606730D01*
X89238726Y-109606714D01*
X89301516Y-109585908D01*
X89448350Y-109495340D01*
X89570340Y-109373350D01*
X89660908Y-109226516D01*
X89715174Y-109062753D01*
X89725500Y-108961677D01*
X89725499Y-108363324D01*
X89715174Y-108262247D01*
X89660908Y-108098484D01*
X89570340Y-107951650D01*
X89456017Y-107837327D01*
X89422532Y-107776004D01*
X89427516Y-107706312D01*
X89456017Y-107661964D01*
X89569948Y-107548033D01*
X89660448Y-107401311D01*
X89660453Y-107401300D01*
X89714680Y-107237652D01*
X89724999Y-107136654D01*
X89725000Y-107136641D01*
X89725000Y-107087500D01*
X88624000Y-107087500D01*
X88556961Y-107067815D01*
X88511206Y-107015011D01*
X88500000Y-106963500D01*
X88500000Y-106587500D01*
X89000000Y-106587500D01*
X89724999Y-106587500D01*
X89724999Y-106538360D01*
X89724998Y-106538345D01*
X89714680Y-106437347D01*
X89660453Y-106273699D01*
X89660448Y-106273688D01*
X89569947Y-106126965D01*
X89569944Y-106126961D01*
X89448038Y-106005055D01*
X89448034Y-106005052D01*
X89301311Y-105914551D01*
X89301300Y-105914546D01*
X89137652Y-105860319D01*
X89036654Y-105850000D01*
X89000000Y-105850000D01*
X89000000Y-106587500D01*
X88500000Y-106587500D01*
X88500000Y-105850000D01*
X88463361Y-105850000D01*
X88463343Y-105850001D01*
X88362347Y-105860319D01*
X88198699Y-105914546D01*
X88198690Y-105914550D01*
X88118692Y-105963894D01*
X88051300Y-105982334D01*
X87984637Y-105961411D01*
X87947945Y-105923269D01*
X87843848Y-105753841D01*
X87825500Y-105688928D01*
X87825500Y-104674237D01*
X87825500Y-104674235D01*
X87786281Y-104527866D01*
X87710515Y-104396636D01*
X87603365Y-104289486D01*
X86393364Y-103079485D01*
X86324974Y-103040000D01*
X86262135Y-103003719D01*
X86188949Y-102984109D01*
X86115765Y-102964500D01*
X86115764Y-102964500D01*
X86087550Y-102964500D01*
X86030549Y-102950622D01*
X85032530Y-102434026D01*
X85024753Y-102429638D01*
X85021621Y-102427719D01*
X85021611Y-102427714D01*
X85021610Y-102427713D01*
X84928917Y-102380483D01*
X84878123Y-102332510D01*
X84861328Y-102264689D01*
X84883866Y-102198554D01*
X84928917Y-102159516D01*
X85021610Y-102112287D01*
X85042770Y-102096913D01*
X85187213Y-101991971D01*
X85187215Y-101991968D01*
X85187219Y-101991966D01*
X85331966Y-101847219D01*
X85331968Y-101847215D01*
X85331971Y-101847213D01*
X85384732Y-101774590D01*
X85452287Y-101681610D01*
X85545220Y-101499219D01*
X85608477Y-101304534D01*
X85640500Y-101102352D01*
X85640500Y-100897648D01*
X85608477Y-100695466D01*
X85545220Y-100500781D01*
X85545218Y-100500778D01*
X85545218Y-100500776D01*
X85511503Y-100434607D01*
X85452287Y-100318390D01*
X85444556Y-100307749D01*
X85331971Y-100152786D01*
X85187213Y-100008028D01*
X85021614Y-99887715D01*
X84994716Y-99874010D01*
X84928917Y-99840483D01*
X84878123Y-99792511D01*
X84861328Y-99724690D01*
X84883865Y-99658555D01*
X84928917Y-99619516D01*
X85021610Y-99572287D01*
X85074765Y-99533668D01*
X85187213Y-99451971D01*
X85187215Y-99451968D01*
X85187219Y-99451966D01*
X85331966Y-99307219D01*
X85331968Y-99307215D01*
X85331971Y-99307213D01*
X85384732Y-99234590D01*
X85452287Y-99141610D01*
X85545220Y-98959219D01*
X85608477Y-98764534D01*
X85640500Y-98562352D01*
X85640500Y-98357648D01*
X85608477Y-98155466D01*
X85545220Y-97960781D01*
X85545218Y-97960778D01*
X85545218Y-97960776D01*
X85511503Y-97894607D01*
X85452287Y-97778390D01*
X85444556Y-97767749D01*
X85331971Y-97612786D01*
X85183774Y-97464589D01*
X85184575Y-97463787D01*
X85149322Y-97409769D01*
X85148832Y-97339901D01*
X85186192Y-97280859D01*
X85249543Y-97251389D01*
X85268051Y-97250000D01*
X105871949Y-97250000D01*
X105938988Y-97269685D01*
G37*
%TD.AperFunction*%
%TA.AperFunction,Conductor*%
G36*
X101693039Y-105057185D02*
G01*
X101738794Y-105109989D01*
X101750000Y-105161500D01*
X101750000Y-106294000D01*
X101730315Y-106361039D01*
X101677511Y-106406794D01*
X101626000Y-106418000D01*
X101612451Y-106418000D01*
X101612451Y-107213500D01*
X101592766Y-107280539D01*
X101539962Y-107326294D01*
X101488451Y-107337500D01*
X101236451Y-107337500D01*
X101169412Y-107317815D01*
X101123657Y-107265011D01*
X101112451Y-107213500D01*
X101112451Y-106181000D01*
X101132136Y-106113961D01*
X101184940Y-106068206D01*
X101236451Y-106057000D01*
X101250000Y-106057000D01*
X101250000Y-105161500D01*
X101269685Y-105094461D01*
X101322489Y-105048706D01*
X101374000Y-105037500D01*
X101626000Y-105037500D01*
X101693039Y-105057185D01*
G37*
%TD.AperFunction*%
%TD*%
%TA.AperFunction,Conductor*%
%TO.N,/PN_BIAS*%
G36*
X87672879Y-112163778D02*
G01*
X88289591Y-112439318D01*
X88295746Y-112445821D01*
X88295500Y-112454773D01*
X88289591Y-112460682D01*
X87672879Y-112736221D01*
X87663927Y-112736467D01*
X87662515Y-112735817D01*
X87281109Y-112528323D01*
X87275479Y-112521359D01*
X87275000Y-112518045D01*
X87275000Y-112381954D01*
X87278427Y-112373681D01*
X87281106Y-112371678D01*
X87662516Y-112164181D01*
X87671420Y-112163239D01*
X87672879Y-112163778D01*
G37*
%TD.AperFunction*%
%TD*%
%TA.AperFunction,Conductor*%
%TO.N,/PN_BIAS*%
G36*
X86822265Y-108298852D02*
G01*
X86822292Y-108298874D01*
X87242566Y-108654897D01*
X87246663Y-108662858D01*
X87244588Y-108670533D01*
X86926829Y-109124468D01*
X86919277Y-109129280D01*
X86913103Y-109128701D01*
X86454236Y-108955069D01*
X86450104Y-108952399D01*
X86353401Y-108855696D01*
X86349974Y-108847423D01*
X86352712Y-108839903D01*
X86805784Y-108300287D01*
X86813726Y-108296156D01*
X86822265Y-108298852D01*
G37*
%TD.AperFunction*%
%TD*%
%TA.AperFunction,Conductor*%
%TO.N,GND*%
G36*
X89050000Y-105800000D02*
G01*
X89010000Y-106400000D01*
X88490000Y-106400000D01*
X88450000Y-105800000D01*
X88750000Y-105799000D01*
X89050000Y-105800000D01*
G37*
%TD.AperFunction*%
%TD*%
%TA.AperFunction,Conductor*%
%TO.N,+5V*%
G36*
X96683620Y-112632912D02*
G01*
X96684790Y-112634290D01*
X96967908Y-113025264D01*
X96969985Y-113033975D01*
X96966705Y-113040399D01*
X96740398Y-113266706D01*
X96732125Y-113270133D01*
X96725263Y-113267909D01*
X96334289Y-112984791D01*
X96329598Y-112977164D01*
X96331675Y-112968453D01*
X96332834Y-112967086D01*
X96499292Y-112799293D01*
X96667076Y-112632844D01*
X96675361Y-112629452D01*
X96683620Y-112632912D01*
G37*
%TD.AperFunction*%
%TD*%
%TA.AperFunction,Conductor*%
%TO.N,+5V*%
G36*
X106361179Y-105420631D02*
G01*
X106993093Y-106071852D01*
X106996395Y-106080176D01*
X106993093Y-106088148D01*
X106361179Y-106739368D01*
X106352958Y-106742919D01*
X106348121Y-106741952D01*
X105222411Y-106253057D01*
X105216188Y-106246618D01*
X105215372Y-106242325D01*
X105215372Y-105917674D01*
X105218799Y-105909401D01*
X105222407Y-105906944D01*
X106348122Y-105418046D01*
X106357075Y-105417895D01*
X106361179Y-105420631D01*
G37*
%TD.AperFunction*%
%TD*%
%TA.AperFunction,Conductor*%
%TO.N,+12V*%
G36*
X92172259Y-115446477D02*
G01*
X92176637Y-115450239D01*
X92496284Y-115905780D01*
X92498231Y-115914520D01*
X92496284Y-115919220D01*
X92176637Y-116374760D01*
X92169080Y-116379564D01*
X92163325Y-116379128D01*
X91557965Y-116175183D01*
X91551218Y-116169294D01*
X91550000Y-116164095D01*
X91550000Y-115660904D01*
X91553427Y-115652631D01*
X91557962Y-115649817D01*
X92163325Y-115445871D01*
X92172259Y-115446477D01*
G37*
%TD.AperFunction*%
%TD*%
%TA.AperFunction,Conductor*%
%TO.N,+12V*%
G36*
X91733959Y-115651877D02*
G01*
X91742026Y-115655764D01*
X91745000Y-115663558D01*
X91745000Y-116162890D01*
X91741573Y-116171163D01*
X91735574Y-116174367D01*
X91336488Y-116253440D01*
X91328331Y-116252077D01*
X90824539Y-115959038D01*
X90819111Y-115951916D01*
X90820308Y-115943041D01*
X90823553Y-115939454D01*
X91254132Y-115627440D01*
X91261653Y-115625234D01*
X91733959Y-115651877D01*
G37*
%TD.AperFunction*%
%TD*%
%TA.AperFunction,Conductor*%
%TO.N,+12V*%
G36*
X94263261Y-119410236D02*
G01*
X95446557Y-120402898D01*
X95450692Y-120410841D01*
X95450440Y-120414480D01*
X95054748Y-122137812D01*
X95049557Y-122145109D01*
X95040727Y-122146597D01*
X95035043Y-122143438D01*
X93316876Y-120413100D01*
X93313478Y-120404815D01*
X93314423Y-120400249D01*
X93736961Y-119414590D01*
X93743371Y-119408336D01*
X93747715Y-119407500D01*
X94255741Y-119407500D01*
X94263261Y-119410236D01*
G37*
%TD.AperFunction*%
%TD*%
%TA.AperFunction,Conductor*%
%TO.N,+12V*%
G36*
X93303917Y-121058079D02*
G01*
X93611075Y-121251371D01*
X95033645Y-122146579D01*
X95038821Y-122153885D01*
X95037315Y-122162713D01*
X95032768Y-122166884D01*
X93304244Y-123056703D01*
X93295436Y-123057479D01*
X92308246Y-122752547D01*
X92301353Y-122746831D01*
X92299999Y-122741368D01*
X92299999Y-121259644D01*
X92303426Y-121251371D01*
X92309463Y-121248160D01*
X93295454Y-121056497D01*
X93303917Y-121058079D01*
G37*
%TD.AperFunction*%
%TD*%
%TA.AperFunction,Conductor*%
%TO.N,12V_switched*%
G36*
X85252248Y-123153120D02*
G01*
X85254236Y-123154966D01*
X85967733Y-123991360D01*
X85970495Y-123999878D01*
X85966425Y-124007854D01*
X85965982Y-124008214D01*
X85043210Y-124720637D01*
X85034567Y-124722980D01*
X85032338Y-124722468D01*
X83740090Y-124288851D01*
X83733337Y-124282971D01*
X83732720Y-124274037D01*
X83735537Y-124269488D01*
X84780138Y-123224887D01*
X84786619Y-123221600D01*
X85243550Y-123150996D01*
X85252248Y-123153120D01*
G37*
%TD.AperFunction*%
%TD*%
%TA.AperFunction,Conductor*%
%TO.N,/PN_BIAS*%
G36*
X87586674Y-108195871D02*
G01*
X87684677Y-108228888D01*
X88192036Y-108399816D01*
X88198782Y-108405705D01*
X88200000Y-108410904D01*
X88200000Y-108914095D01*
X88196573Y-108922368D01*
X88192035Y-108925183D01*
X87586674Y-109129128D01*
X87577740Y-109128522D01*
X87573362Y-109124760D01*
X87253715Y-108669220D01*
X87251768Y-108660480D01*
X87253715Y-108655780D01*
X87573363Y-108200237D01*
X87580919Y-108195435D01*
X87586674Y-108195871D01*
G37*
%TD.AperFunction*%
%TD*%
%TA.AperFunction,Conductor*%
%TO.N,/PN_BIAS*%
G36*
X88422259Y-108196477D02*
G01*
X88426637Y-108200239D01*
X88746284Y-108655780D01*
X88748231Y-108664520D01*
X88746284Y-108669220D01*
X88426637Y-109124760D01*
X88419080Y-109129564D01*
X88413325Y-109129128D01*
X87807965Y-108925183D01*
X87801218Y-108919294D01*
X87800000Y-108914095D01*
X87800000Y-108410904D01*
X87803427Y-108402631D01*
X87807962Y-108399817D01*
X88413325Y-108195871D01*
X88422259Y-108196477D01*
G37*
%TD.AperFunction*%
%TD*%
%TA.AperFunction,Conductor*%
%TO.N,D1_Relay*%
G36*
X87326729Y-105878427D02*
G01*
X87328425Y-105880575D01*
X87701332Y-106487516D01*
X87702743Y-106496359D01*
X87698372Y-106503009D01*
X87257009Y-106833255D01*
X87248332Y-106835468D01*
X87242991Y-106833255D01*
X86801627Y-106503009D01*
X86797055Y-106495309D01*
X86798666Y-106487519D01*
X87171575Y-105880575D01*
X87178826Y-105875320D01*
X87181544Y-105875000D01*
X87318456Y-105875000D01*
X87326729Y-105878427D01*
G37*
%TD.AperFunction*%
%TD*%
%TA.AperFunction,Conductor*%
%TO.N,D1_Relay*%
G36*
X84792175Y-102878819D02*
G01*
X85918306Y-103461728D01*
X85924078Y-103468574D01*
X85924628Y-103472118D01*
X85924628Y-103607881D01*
X85921201Y-103616154D01*
X85918306Y-103618272D01*
X84792176Y-104201179D01*
X84783254Y-104201938D01*
X84778401Y-104198936D01*
X84768340Y-104188568D01*
X84146905Y-103548147D01*
X84143604Y-103539824D01*
X84146906Y-103531852D01*
X84778402Y-102881062D01*
X84786622Y-102877512D01*
X84792175Y-102878819D01*
G37*
%TD.AperFunction*%
%TD*%
%TA.AperFunction,Conductor*%
%TO.N,/PMOS_BIAS*%
G36*
X91068681Y-113403427D02*
G01*
X91071881Y-113409405D01*
X91133774Y-113718871D01*
X91132036Y-113727656D01*
X91130587Y-113729426D01*
X90818286Y-114042688D01*
X90810018Y-114046128D01*
X90801740Y-114042714D01*
X90801714Y-114042688D01*
X90489412Y-113729426D01*
X90485998Y-113721148D01*
X90486224Y-113718878D01*
X90548119Y-113409405D01*
X90553102Y-113401965D01*
X90559592Y-113400000D01*
X91060408Y-113400000D01*
X91068681Y-113403427D01*
G37*
%TD.AperFunction*%
%TD*%
%TA.AperFunction,Conductor*%
%TO.N,/PMOS_BIAS*%
G36*
X90195758Y-111507285D02*
G01*
X90483427Y-111795913D01*
X90486840Y-111804191D01*
X90486737Y-111805718D01*
X90448854Y-112089846D01*
X90444364Y-112097594D01*
X90437257Y-112100000D01*
X89937743Y-112100000D01*
X89929470Y-112096573D01*
X89926146Y-112089846D01*
X89888262Y-111805718D01*
X89890565Y-111797065D01*
X89891561Y-111795924D01*
X90179214Y-111507313D01*
X90187481Y-111503873D01*
X90195758Y-111507285D01*
G37*
%TD.AperFunction*%
%TD*%
%TA.AperFunction,Conductor*%
%TO.N,/PMOS_BIAS*%
G36*
X92172545Y-113621377D02*
G01*
X92176354Y-113624836D01*
X92496165Y-114080610D01*
X92498112Y-114089350D01*
X92496005Y-114094273D01*
X92165744Y-114542210D01*
X92158076Y-114546835D01*
X92152055Y-114546159D01*
X91557428Y-114312913D01*
X91550977Y-114306702D01*
X91550000Y-114302021D01*
X91550000Y-113798903D01*
X91553427Y-113790630D01*
X91558578Y-113787627D01*
X92163658Y-113620279D01*
X92172545Y-113621377D01*
G37*
%TD.AperFunction*%
%TD*%
%TA.AperFunction,Conductor*%
%TO.N,/PMOS_BIAS*%
G36*
X91734846Y-113788646D02*
G01*
X91742594Y-113793136D01*
X91745000Y-113800243D01*
X91745000Y-114299756D01*
X91741573Y-114308029D01*
X91734846Y-114311353D01*
X91262129Y-114374382D01*
X91253718Y-114372259D01*
X90822074Y-114059474D01*
X90817385Y-114051845D01*
X90819465Y-114043135D01*
X90822074Y-114040526D01*
X91253719Y-113727739D01*
X91262128Y-113725617D01*
X91734846Y-113788646D01*
G37*
%TD.AperFunction*%
%TD*%
M02*
