%TF.GenerationSoftware,KiCad,Pcbnew,8.0.4-1.fc40*%
%TF.CreationDate,2024-08-22T17:25:05+02:00*%
%TF.ProjectId,WLED_Board,574c4544-5f42-46f6-9172-642e6b696361,rev?*%
%TF.SameCoordinates,Original*%
%TF.FileFunction,Legend,Top*%
%TF.FilePolarity,Positive*%
%FSLAX46Y46*%
G04 Gerber Fmt 4.6, Leading zero omitted, Abs format (unit mm)*
G04 Created by KiCad (PCBNEW 8.0.4-1.fc40) date 2024-08-22 17:25:05*
%MOMM*%
%LPD*%
G01*
G04 APERTURE LIST*
%ADD10C,0.300000*%
%ADD11C,0.000000*%
%ADD12C,0.150000*%
%ADD13C,0.120000*%
%ADD14C,0.203200*%
G04 APERTURE END LIST*
D10*
X106983081Y-125729400D02*
X107197367Y-125800828D01*
X107197367Y-125800828D02*
X107554509Y-125800828D01*
X107554509Y-125800828D02*
X107697367Y-125729400D01*
X107697367Y-125729400D02*
X107768795Y-125657971D01*
X107768795Y-125657971D02*
X107840224Y-125515114D01*
X107840224Y-125515114D02*
X107840224Y-125372257D01*
X107840224Y-125372257D02*
X107768795Y-125229400D01*
X107768795Y-125229400D02*
X107697367Y-125157971D01*
X107697367Y-125157971D02*
X107554509Y-125086542D01*
X107554509Y-125086542D02*
X107268795Y-125015114D01*
X107268795Y-125015114D02*
X107125938Y-124943685D01*
X107125938Y-124943685D02*
X107054509Y-124872257D01*
X107054509Y-124872257D02*
X106983081Y-124729400D01*
X106983081Y-124729400D02*
X106983081Y-124586542D01*
X106983081Y-124586542D02*
X107054509Y-124443685D01*
X107054509Y-124443685D02*
X107125938Y-124372257D01*
X107125938Y-124372257D02*
X107268795Y-124300828D01*
X107268795Y-124300828D02*
X107625938Y-124300828D01*
X107625938Y-124300828D02*
X107840224Y-124372257D01*
D11*
G36*
X103249999Y-124000000D02*
G01*
X103286302Y-124002115D01*
X103320938Y-124005811D01*
X103353940Y-124011022D01*
X103385341Y-124017679D01*
X103415173Y-124025714D01*
X103443470Y-124035059D01*
X103470263Y-124045645D01*
X103495586Y-124057405D01*
X103519471Y-124070270D01*
X103541950Y-124084172D01*
X103563057Y-124099043D01*
X103582824Y-124114815D01*
X103601284Y-124131419D01*
X103618469Y-124148789D01*
X103634412Y-124166854D01*
X103649146Y-124185548D01*
X103662703Y-124204802D01*
X103675116Y-124224547D01*
X103686417Y-124244717D01*
X103696640Y-124265242D01*
X103705817Y-124286055D01*
X103713980Y-124307087D01*
X103727397Y-124349536D01*
X103737151Y-124392046D01*
X103743505Y-124434069D01*
X103746720Y-124475062D01*
X103747055Y-124514479D01*
X103745911Y-124538386D01*
X103743814Y-124561390D01*
X103740810Y-124583513D01*
X103736944Y-124604778D01*
X103732262Y-124625206D01*
X103726809Y-124644820D01*
X103720630Y-124663641D01*
X103713771Y-124681691D01*
X103706276Y-124698992D01*
X103698192Y-124715567D01*
X103689563Y-124731437D01*
X103680435Y-124746624D01*
X103670853Y-124761150D01*
X103660863Y-124775038D01*
X103650509Y-124788309D01*
X103639838Y-124800985D01*
X103617723Y-124824641D01*
X103594880Y-124846182D01*
X103571672Y-124865784D01*
X103548462Y-124883622D01*
X103525611Y-124899873D01*
X103503484Y-124914713D01*
X103462847Y-124940862D01*
X103519714Y-124938479D01*
X103573869Y-124938152D01*
X103625430Y-124939704D01*
X103674512Y-124942958D01*
X103721230Y-124947736D01*
X103765700Y-124953861D01*
X103808037Y-124961155D01*
X103848359Y-124969441D01*
X103886779Y-124978542D01*
X103923415Y-124988280D01*
X103991794Y-125008958D01*
X104112222Y-125050154D01*
X104166122Y-125067833D01*
X104191899Y-125075323D01*
X104217048Y-125081675D01*
X104241685Y-125086713D01*
X104265925Y-125090259D01*
X104289884Y-125092137D01*
X104313678Y-125092167D01*
X104337422Y-125090174D01*
X104361233Y-125085979D01*
X104385226Y-125079406D01*
X104409516Y-125070276D01*
X104434220Y-125058413D01*
X104459453Y-125043639D01*
X104485330Y-125025777D01*
X104511968Y-125004649D01*
X104506679Y-125063000D01*
X104499356Y-125119421D01*
X104490084Y-125173917D01*
X104478945Y-125226494D01*
X104466025Y-125277155D01*
X104451407Y-125325906D01*
X104435175Y-125372753D01*
X104417413Y-125417700D01*
X104398205Y-125460752D01*
X104377636Y-125501915D01*
X104355789Y-125541194D01*
X104332749Y-125578593D01*
X104308598Y-125614119D01*
X104283422Y-125647775D01*
X104257304Y-125679568D01*
X104230329Y-125709501D01*
X104202579Y-125737581D01*
X104174141Y-125763813D01*
X104145096Y-125788201D01*
X104115530Y-125810750D01*
X104085526Y-125831466D01*
X104055168Y-125850354D01*
X104024541Y-125867419D01*
X103993728Y-125882666D01*
X103962814Y-125896100D01*
X103931882Y-125907727D01*
X103901016Y-125917550D01*
X103870301Y-125925576D01*
X103839821Y-125931810D01*
X103809658Y-125936256D01*
X103779898Y-125938920D01*
X103750625Y-125939807D01*
X103194424Y-125939807D01*
X103161894Y-125939260D01*
X103130134Y-125937626D01*
X103099161Y-125934919D01*
X103068992Y-125931153D01*
X103039645Y-125926340D01*
X103011137Y-125920494D01*
X102983484Y-125913629D01*
X102956705Y-125905757D01*
X102930816Y-125896893D01*
X102905835Y-125887049D01*
X102881779Y-125876238D01*
X102858665Y-125864475D01*
X102836511Y-125851772D01*
X102815333Y-125838143D01*
X102795149Y-125823601D01*
X102775976Y-125808159D01*
X102757832Y-125791831D01*
X102740733Y-125774630D01*
X102724697Y-125756570D01*
X102709742Y-125737663D01*
X102695883Y-125717923D01*
X102683140Y-125697364D01*
X102671528Y-125675998D01*
X102661065Y-125653840D01*
X102651769Y-125630902D01*
X102643656Y-125607198D01*
X102636744Y-125582740D01*
X102631050Y-125557544D01*
X102626591Y-125531621D01*
X102623385Y-125504985D01*
X102621449Y-125477649D01*
X102620800Y-125449628D01*
X102621291Y-125433746D01*
X103014382Y-125433746D01*
X103015122Y-125447078D01*
X103016659Y-125460386D01*
X103018973Y-125473645D01*
X103022047Y-125486831D01*
X103025861Y-125499920D01*
X103030396Y-125512886D01*
X103035632Y-125525706D01*
X103041551Y-125538354D01*
X103048134Y-125550806D01*
X103055362Y-125563037D01*
X103063215Y-125575024D01*
X103071675Y-125586740D01*
X103080722Y-125598162D01*
X103090338Y-125609266D01*
X103100504Y-125620025D01*
X103122477Y-125640419D01*
X103145937Y-125658631D01*
X103170740Y-125674763D01*
X103196744Y-125688915D01*
X103223805Y-125701187D01*
X103251779Y-125711681D01*
X103280524Y-125720496D01*
X103309896Y-125727733D01*
X103339752Y-125733494D01*
X103369949Y-125737878D01*
X103400344Y-125740986D01*
X103430793Y-125742918D01*
X103491280Y-125743660D01*
X103550266Y-125740907D01*
X103606603Y-125735464D01*
X103659148Y-125728136D01*
X103706752Y-125719728D01*
X103748271Y-125711045D01*
X103808468Y-125696069D01*
X103830571Y-125689646D01*
X103694989Y-125595675D01*
X103903599Y-125482734D01*
X103753295Y-125405903D01*
X103997773Y-125267146D01*
X103888526Y-125246253D01*
X103772883Y-125227036D01*
X103635151Y-125208107D01*
X103562359Y-125200188D01*
X103489274Y-125194066D01*
X103417638Y-125190316D01*
X103349195Y-125189514D01*
X103285687Y-125192233D01*
X103228858Y-125199050D01*
X103203492Y-125204174D01*
X103180449Y-125210538D01*
X103159948Y-125218215D01*
X103142205Y-125227275D01*
X103126482Y-125237251D01*
X103111879Y-125247621D01*
X103098378Y-125258361D01*
X103085959Y-125269446D01*
X103074605Y-125280851D01*
X103064294Y-125292552D01*
X103055010Y-125304524D01*
X103046732Y-125316742D01*
X103039441Y-125329183D01*
X103033119Y-125341820D01*
X103027747Y-125354631D01*
X103023304Y-125367590D01*
X103019773Y-125380672D01*
X103017135Y-125393854D01*
X103015369Y-125407110D01*
X103014458Y-125420415D01*
X103014382Y-125433746D01*
X102621291Y-125433746D01*
X102621667Y-125421578D01*
X102624190Y-125394167D01*
X102628257Y-125367398D01*
X102633752Y-125341278D01*
X102640560Y-125315812D01*
X102648567Y-125291003D01*
X102657659Y-125266857D01*
X102667720Y-125243380D01*
X102678638Y-125220576D01*
X102690296Y-125198450D01*
X102702580Y-125177007D01*
X102715376Y-125156253D01*
X102728570Y-125136191D01*
X102742046Y-125116828D01*
X102769388Y-125080216D01*
X102796487Y-125046456D01*
X102822427Y-125015589D01*
X102867162Y-124962692D01*
X102884124Y-124940742D01*
X102890854Y-124930909D01*
X102896262Y-124921844D01*
X102900236Y-124913552D01*
X102902659Y-124906039D01*
X102903419Y-124899308D01*
X102902399Y-124893366D01*
X102900670Y-124888934D01*
X102898564Y-124884270D01*
X102896103Y-124879374D01*
X102893307Y-124874246D01*
X102886797Y-124863297D01*
X102879202Y-124851424D01*
X102841353Y-124794754D01*
X102832033Y-124796483D01*
X102822628Y-124797978D01*
X102813178Y-124799240D01*
X102803722Y-124800271D01*
X102794301Y-124801070D01*
X102784955Y-124801640D01*
X102775723Y-124801981D01*
X102766645Y-124802095D01*
X102766585Y-124802095D01*
X102747910Y-124801689D01*
X102725904Y-124800209D01*
X102713840Y-124798943D01*
X102701167Y-124797260D01*
X102687961Y-124795111D01*
X102674296Y-124792447D01*
X102660248Y-124789218D01*
X102645891Y-124785375D01*
X102631300Y-124780869D01*
X102616551Y-124775650D01*
X102601717Y-124769669D01*
X102586873Y-124762877D01*
X102572096Y-124755224D01*
X102557458Y-124746661D01*
X102547177Y-124739991D01*
X102537271Y-124733003D01*
X102527736Y-124725720D01*
X102518570Y-124718165D01*
X102509768Y-124710359D01*
X102501325Y-124702324D01*
X102485506Y-124685658D01*
X102471079Y-124668345D01*
X102458016Y-124650562D01*
X102446285Y-124632487D01*
X102435854Y-124614298D01*
X102426692Y-124596173D01*
X102418770Y-124578288D01*
X102412054Y-124560822D01*
X102406516Y-124543953D01*
X102402122Y-124527858D01*
X102398843Y-124512714D01*
X102396648Y-124498700D01*
X102395504Y-124485993D01*
X102395318Y-124480476D01*
X102395318Y-124480321D01*
X102448752Y-124480321D01*
X102449671Y-124489797D01*
X102451627Y-124501012D01*
X102454653Y-124513734D01*
X102458783Y-124527732D01*
X102464051Y-124542774D01*
X102470492Y-124558627D01*
X102478140Y-124575059D01*
X102487027Y-124591838D01*
X102497190Y-124608733D01*
X102508660Y-124625511D01*
X102521474Y-124641940D01*
X102535664Y-124657789D01*
X102543285Y-124665423D01*
X102551264Y-124672824D01*
X102559604Y-124679965D01*
X102568310Y-124686815D01*
X102577385Y-124693346D01*
X102586834Y-124699529D01*
X102596040Y-124704987D01*
X102605633Y-124710138D01*
X102615588Y-124714975D01*
X102625881Y-124719491D01*
X102636487Y-124723681D01*
X102647381Y-124727538D01*
X102658538Y-124731057D01*
X102669934Y-124734229D01*
X102681544Y-124737051D01*
X102693342Y-124739514D01*
X102705305Y-124741613D01*
X102717407Y-124743342D01*
X102729625Y-124744694D01*
X102741931Y-124745663D01*
X102754304Y-124746244D01*
X102766716Y-124746428D01*
X102773572Y-124746367D01*
X102780257Y-124746187D01*
X102786768Y-124745894D01*
X102793103Y-124745493D01*
X102799260Y-124744991D01*
X102805236Y-124744391D01*
X102811031Y-124743701D01*
X102816641Y-124742926D01*
X102822064Y-124742071D01*
X102827299Y-124741142D01*
X102832343Y-124740145D01*
X102837194Y-124739084D01*
X102846308Y-124736797D01*
X102854624Y-124734324D01*
X102862125Y-124731711D01*
X102868794Y-124729003D01*
X102874614Y-124726243D01*
X102877200Y-124724858D01*
X102879568Y-124723477D01*
X102881714Y-124722106D01*
X102883638Y-124720749D01*
X102885336Y-124719413D01*
X102886807Y-124718104D01*
X102888049Y-124716826D01*
X102889059Y-124715586D01*
X102889835Y-124714389D01*
X102890376Y-124713241D01*
X102888365Y-124709879D01*
X102884533Y-124704170D01*
X102872923Y-124687699D01*
X102844518Y-124648483D01*
X102828831Y-124626810D01*
X102821109Y-124615908D01*
X102813590Y-124605007D01*
X102806370Y-124594142D01*
X102799540Y-124583347D01*
X102793194Y-124572657D01*
X102790232Y-124567362D01*
X102787426Y-124562106D01*
X102784031Y-124555276D01*
X102780996Y-124548574D01*
X102778298Y-124542007D01*
X102775914Y-124535579D01*
X102773821Y-124529295D01*
X102771997Y-124523160D01*
X102770418Y-124517178D01*
X102769063Y-124511354D01*
X102767909Y-124505694D01*
X102766933Y-124500201D01*
X102765423Y-124489738D01*
X102764353Y-124480004D01*
X102763541Y-124471038D01*
X102763148Y-124466638D01*
X102762770Y-124462700D01*
X102762394Y-124459192D01*
X102762007Y-124456086D01*
X102761805Y-124454673D01*
X102761596Y-124453351D01*
X102761377Y-124452113D01*
X102761147Y-124450957D01*
X102760904Y-124449880D01*
X102760647Y-124448876D01*
X102760374Y-124447943D01*
X102760083Y-124447077D01*
X102759772Y-124446275D01*
X102759441Y-124445531D01*
X102759086Y-124444844D01*
X102758707Y-124444208D01*
X102758302Y-124443621D01*
X102757870Y-124443078D01*
X102757408Y-124442576D01*
X102756914Y-124442111D01*
X102756389Y-124441680D01*
X102755828Y-124441279D01*
X102755232Y-124440903D01*
X102754597Y-124440550D01*
X102753924Y-124440215D01*
X102753209Y-124439896D01*
X102752451Y-124439587D01*
X102751649Y-124439286D01*
X102749697Y-124440637D01*
X102747511Y-124442262D01*
X102745150Y-124444099D01*
X102742670Y-124446089D01*
X102737586Y-124450284D01*
X102732720Y-124454363D01*
X102722696Y-124462782D01*
X102711743Y-124471577D01*
X102705902Y-124475995D01*
X102699810Y-124480363D01*
X102693461Y-124484633D01*
X102686849Y-124488757D01*
X102679967Y-124492686D01*
X102672810Y-124496374D01*
X102665371Y-124499771D01*
X102657644Y-124502831D01*
X102649622Y-124505504D01*
X102641301Y-124507743D01*
X102632673Y-124509500D01*
X102623732Y-124510727D01*
X102614839Y-124511445D01*
X102605816Y-124511651D01*
X102596693Y-124511384D01*
X102587497Y-124510685D01*
X102578255Y-124509595D01*
X102568994Y-124508154D01*
X102559744Y-124506403D01*
X102550530Y-124504382D01*
X102541382Y-124502132D01*
X102532325Y-124499692D01*
X102514601Y-124494408D01*
X102497578Y-124488855D01*
X102481477Y-124483354D01*
X102473241Y-124480543D01*
X102464636Y-124477657D01*
X102456291Y-124474986D01*
X102452413Y-124473821D01*
X102448835Y-124472817D01*
X102448752Y-124480321D01*
X102395318Y-124480321D01*
X102395327Y-124475165D01*
X102395531Y-124470061D01*
X102395931Y-124465166D01*
X102396527Y-124460479D01*
X102397319Y-124456003D01*
X102398306Y-124451738D01*
X102399490Y-124447685D01*
X102400869Y-124443846D01*
X102401632Y-124442007D01*
X102402444Y-124440221D01*
X102403305Y-124438490D01*
X102404215Y-124436812D01*
X102405174Y-124435189D01*
X102406182Y-124433620D01*
X102407239Y-124432105D01*
X102408345Y-124430645D01*
X102409500Y-124429239D01*
X102410704Y-124427888D01*
X102411958Y-124426593D01*
X102413260Y-124425352D01*
X102414611Y-124424166D01*
X102416011Y-124423036D01*
X102419219Y-124420817D01*
X102422628Y-124419033D01*
X102426253Y-124417668D01*
X102430108Y-124416706D01*
X102434208Y-124416130D01*
X102438568Y-124415925D01*
X102443201Y-124416075D01*
X102448122Y-124416563D01*
X102453346Y-124417373D01*
X102458886Y-124418489D01*
X102464757Y-124419896D01*
X102470975Y-124421576D01*
X102484503Y-124425692D01*
X102499587Y-124430711D01*
X102513602Y-124435534D01*
X102528291Y-124440396D01*
X102543428Y-124445033D01*
X102558785Y-124449176D01*
X102566476Y-124450979D01*
X102574136Y-124452558D01*
X102581738Y-124453881D01*
X102589253Y-124454913D01*
X102596653Y-124455623D01*
X102603909Y-124455975D01*
X102610993Y-124455937D01*
X102617877Y-124455475D01*
X102620810Y-124455109D01*
X102623712Y-124454636D01*
X102626583Y-124454061D01*
X102629425Y-124453388D01*
X102635017Y-124451766D01*
X102640488Y-124449802D01*
X102645838Y-124447531D01*
X102651067Y-124444986D01*
X102656175Y-124442202D01*
X102661161Y-124439211D01*
X102666025Y-124436048D01*
X102670768Y-124432747D01*
X102675390Y-124429340D01*
X102679890Y-124425862D01*
X102688524Y-124418828D01*
X102696670Y-124411913D01*
X102698280Y-124410558D01*
X102970271Y-124410558D01*
X102970388Y-124415204D01*
X102970737Y-124419790D01*
X102971310Y-124424311D01*
X102972104Y-124428759D01*
X102973111Y-124433131D01*
X102974327Y-124437419D01*
X102975746Y-124441618D01*
X102977362Y-124445723D01*
X102979169Y-124449728D01*
X102981162Y-124453626D01*
X102983335Y-124457413D01*
X102985682Y-124461083D01*
X102988199Y-124464629D01*
X102990879Y-124468046D01*
X102993716Y-124471329D01*
X102996705Y-124474471D01*
X102999840Y-124477467D01*
X103003116Y-124480311D01*
X103006527Y-124482998D01*
X103010068Y-124485521D01*
X103013732Y-124487876D01*
X103017514Y-124490055D01*
X103021408Y-124492054D01*
X103025409Y-124493867D01*
X103029511Y-124495488D01*
X103033709Y-124496911D01*
X103037996Y-124498131D01*
X103042367Y-124499142D01*
X103046817Y-124499938D01*
X103051340Y-124500513D01*
X103055930Y-124500862D01*
X103060581Y-124500979D01*
X103065237Y-124500862D01*
X103069831Y-124500512D01*
X103074357Y-124499936D01*
X103078812Y-124499139D01*
X103083187Y-124498128D01*
X103087479Y-124496908D01*
X103091681Y-124495484D01*
X103095788Y-124493863D01*
X103099794Y-124492050D01*
X103103693Y-124490051D01*
X103107479Y-124487871D01*
X103111148Y-124485517D01*
X103114693Y-124482993D01*
X103118108Y-124480307D01*
X103121389Y-124477463D01*
X103124528Y-124474467D01*
X103127522Y-124471325D01*
X103130363Y-124468043D01*
X103133047Y-124464626D01*
X103135567Y-124461080D01*
X103137918Y-124457411D01*
X103140095Y-124453624D01*
X103142091Y-124449726D01*
X103143901Y-124445722D01*
X103145519Y-124441617D01*
X103146940Y-124437418D01*
X103148158Y-124433130D01*
X103149167Y-124428759D01*
X103149962Y-124424311D01*
X103150536Y-124419790D01*
X103150885Y-124415204D01*
X103151003Y-124410558D01*
X103150885Y-124405905D01*
X103150536Y-124401313D01*
X103149962Y-124396788D01*
X103149167Y-124392336D01*
X103148158Y-124387961D01*
X103146940Y-124383670D01*
X103145519Y-124379469D01*
X103143901Y-124375362D01*
X103142091Y-124371357D01*
X103140095Y-124367457D01*
X103137918Y-124363670D01*
X103135567Y-124360001D01*
X103133047Y-124356456D01*
X103130363Y-124353039D01*
X103127522Y-124349758D01*
X103124528Y-124346617D01*
X103121389Y-124343622D01*
X103118108Y-124340780D01*
X103114693Y-124338095D01*
X103111148Y-124335573D01*
X103107479Y-124333221D01*
X103103693Y-124331043D01*
X103099794Y-124329045D01*
X103095788Y-124327234D01*
X103091681Y-124325615D01*
X103087479Y-124324193D01*
X103083187Y-124322974D01*
X103078812Y-124321964D01*
X103074357Y-124321168D01*
X103069831Y-124320593D01*
X103065237Y-124320244D01*
X103060581Y-124320126D01*
X103055936Y-124320244D01*
X103051352Y-124320593D01*
X103046834Y-124321168D01*
X103042388Y-124321964D01*
X103038020Y-124322974D01*
X103033735Y-124324193D01*
X103029540Y-124325615D01*
X103025439Y-124327234D01*
X103021439Y-124329045D01*
X103017545Y-124331043D01*
X103013763Y-124333221D01*
X103010099Y-124335573D01*
X103006558Y-124338095D01*
X103003146Y-124340780D01*
X102999869Y-124343622D01*
X102996732Y-124346617D01*
X102993741Y-124349758D01*
X102990901Y-124353039D01*
X102988220Y-124356456D01*
X102985701Y-124360001D01*
X102983351Y-124363670D01*
X102981176Y-124367457D01*
X102979181Y-124371357D01*
X102977372Y-124375362D01*
X102975754Y-124379469D01*
X102974333Y-124383670D01*
X102973116Y-124387961D01*
X102972107Y-124392336D01*
X102971312Y-124396788D01*
X102970738Y-124401313D01*
X102970389Y-124405905D01*
X102970271Y-124410558D01*
X102698280Y-124410558D01*
X102703711Y-124405986D01*
X102710474Y-124400484D01*
X102713782Y-124397928D01*
X102717056Y-124395519D01*
X102720310Y-124393274D01*
X102723556Y-124391205D01*
X102726804Y-124389326D01*
X102730069Y-124387653D01*
X102733361Y-124386198D01*
X102736694Y-124384976D01*
X102740079Y-124384001D01*
X102743528Y-124383287D01*
X102745281Y-124383033D01*
X102747054Y-124382848D01*
X102748849Y-124382737D01*
X102750668Y-124382699D01*
X102760052Y-124383973D01*
X102768438Y-124348729D01*
X102779164Y-124313340D01*
X102792365Y-124278156D01*
X102808174Y-124243532D01*
X102826724Y-124209820D01*
X102848151Y-124177371D01*
X102872587Y-124146540D01*
X102885975Y-124131841D01*
X102900166Y-124117679D01*
X102915176Y-124104096D01*
X102931022Y-124091139D01*
X102947720Y-124078850D01*
X102965288Y-124067274D01*
X102983742Y-124056455D01*
X103003099Y-124046437D01*
X103023375Y-124037263D01*
X103044588Y-124028979D01*
X103066753Y-124021628D01*
X103089889Y-124015254D01*
X103114010Y-124009901D01*
X103139135Y-124005614D01*
X103165280Y-124002436D01*
X103192461Y-124000412D01*
X103220695Y-123999585D01*
X103249999Y-124000000D01*
G37*
D12*
X84558206Y-85669819D02*
X84224873Y-85193628D01*
X83986778Y-85669819D02*
X83986778Y-84669819D01*
X83986778Y-84669819D02*
X84367730Y-84669819D01*
X84367730Y-84669819D02*
X84462968Y-84717438D01*
X84462968Y-84717438D02*
X84510587Y-84765057D01*
X84510587Y-84765057D02*
X84558206Y-84860295D01*
X84558206Y-84860295D02*
X84558206Y-85003152D01*
X84558206Y-85003152D02*
X84510587Y-85098390D01*
X84510587Y-85098390D02*
X84462968Y-85146009D01*
X84462968Y-85146009D02*
X84367730Y-85193628D01*
X84367730Y-85193628D02*
X83986778Y-85193628D01*
X84986778Y-85146009D02*
X85320111Y-85146009D01*
X85462968Y-85669819D02*
X84986778Y-85669819D01*
X84986778Y-85669819D02*
X84986778Y-84669819D01*
X84986778Y-84669819D02*
X85462968Y-84669819D01*
X85748683Y-84669819D02*
X86082016Y-85669819D01*
X86082016Y-85669819D02*
X86415349Y-84669819D01*
X87843921Y-85146009D02*
X87986778Y-85193628D01*
X87986778Y-85193628D02*
X88034397Y-85241247D01*
X88034397Y-85241247D02*
X88082016Y-85336485D01*
X88082016Y-85336485D02*
X88082016Y-85479342D01*
X88082016Y-85479342D02*
X88034397Y-85574580D01*
X88034397Y-85574580D02*
X87986778Y-85622200D01*
X87986778Y-85622200D02*
X87891540Y-85669819D01*
X87891540Y-85669819D02*
X87510588Y-85669819D01*
X87510588Y-85669819D02*
X87510588Y-84669819D01*
X87510588Y-84669819D02*
X87843921Y-84669819D01*
X87843921Y-84669819D02*
X87939159Y-84717438D01*
X87939159Y-84717438D02*
X87986778Y-84765057D01*
X87986778Y-84765057D02*
X88034397Y-84860295D01*
X88034397Y-84860295D02*
X88034397Y-84955533D01*
X88034397Y-84955533D02*
X87986778Y-85050771D01*
X87986778Y-85050771D02*
X87939159Y-85098390D01*
X87939159Y-85098390D02*
X87843921Y-85146009D01*
X87843921Y-85146009D02*
X87510588Y-85146009D01*
D10*
G36*
X90694910Y-84503361D02*
G01*
X90795517Y-84603968D01*
X90848696Y-84710327D01*
X90911652Y-84962148D01*
X90911652Y-85139507D01*
X90848696Y-85391328D01*
X90795517Y-85497688D01*
X90694911Y-85598294D01*
X90537309Y-85650828D01*
X90354509Y-85650828D01*
X90354509Y-84450828D01*
X90537312Y-84450828D01*
X90694910Y-84503361D01*
G37*
G36*
X89329942Y-84495535D02*
G01*
X89366946Y-84532539D01*
X89411652Y-84621951D01*
X89411652Y-84765418D01*
X89366945Y-84854831D01*
X89329940Y-84891836D01*
X89240528Y-84936542D01*
X88854509Y-84936542D01*
X88854509Y-84450828D01*
X89240528Y-84450828D01*
X89329942Y-84495535D01*
G37*
G36*
X91378319Y-86117495D02*
G01*
X88387842Y-86117495D01*
X88387842Y-84300828D01*
X88554509Y-84300828D01*
X88554509Y-85800828D01*
X88557391Y-85830092D01*
X88579789Y-85884164D01*
X88621173Y-85925548D01*
X88675245Y-85947946D01*
X88733773Y-85947946D01*
X88787845Y-85925548D01*
X88829229Y-85884164D01*
X88851627Y-85830092D01*
X88854509Y-85800828D01*
X88854509Y-85236542D01*
X88983554Y-85236542D01*
X89438767Y-85886847D01*
X89457910Y-85909169D01*
X89507267Y-85940622D01*
X89564903Y-85950793D01*
X89622045Y-85938134D01*
X89669993Y-85904570D01*
X89701446Y-85855213D01*
X89711617Y-85797577D01*
X89698958Y-85740435D01*
X89684537Y-85714809D01*
X89339585Y-85222020D01*
X89343020Y-85220706D01*
X89485877Y-85149278D01*
X89498470Y-85141350D01*
X89502130Y-85139835D01*
X89506249Y-85136453D01*
X89510763Y-85133613D01*
X89513359Y-85130619D01*
X89524861Y-85121180D01*
X89596290Y-85049751D01*
X89605731Y-85038246D01*
X89608723Y-85035652D01*
X89611561Y-85031142D01*
X89614945Y-85027020D01*
X89616461Y-85023358D01*
X89624388Y-85010767D01*
X89695816Y-84867909D01*
X89706326Y-84840446D01*
X89706707Y-84835070D01*
X89708770Y-84830092D01*
X89711652Y-84800828D01*
X89711652Y-84586542D01*
X89708770Y-84557278D01*
X89706707Y-84552299D01*
X89706326Y-84546924D01*
X89695816Y-84519461D01*
X89624388Y-84376603D01*
X89616459Y-84364008D01*
X89614944Y-84360349D01*
X89611562Y-84356228D01*
X89608723Y-84351718D01*
X89605731Y-84349123D01*
X89596289Y-84337618D01*
X89559498Y-84300828D01*
X90054509Y-84300828D01*
X90054509Y-85800828D01*
X90057391Y-85830092D01*
X90079789Y-85884164D01*
X90121173Y-85925548D01*
X90175245Y-85947946D01*
X90204509Y-85950828D01*
X90561652Y-85950828D01*
X90576457Y-85949369D01*
X90580412Y-85949651D01*
X90585613Y-85948468D01*
X90590916Y-85947946D01*
X90594573Y-85946430D01*
X90609086Y-85943131D01*
X90823372Y-85871703D01*
X90850223Y-85859715D01*
X90854294Y-85856183D01*
X90859274Y-85854121D01*
X90882004Y-85835466D01*
X91024861Y-85692608D01*
X91034299Y-85681106D01*
X91037294Y-85678510D01*
X91040134Y-85673996D01*
X91043516Y-85669877D01*
X91045031Y-85666217D01*
X91052959Y-85653624D01*
X91124388Y-85510768D01*
X91125207Y-85508625D01*
X91125852Y-85507756D01*
X91130236Y-85495484D01*
X91134897Y-85483304D01*
X91134973Y-85482223D01*
X91135745Y-85480065D01*
X91207173Y-85194351D01*
X91207922Y-85189279D01*
X91208770Y-85187235D01*
X91209855Y-85176212D01*
X91211475Y-85165262D01*
X91211149Y-85163074D01*
X91211652Y-85157971D01*
X91211652Y-84943685D01*
X91211149Y-84938581D01*
X91211475Y-84936394D01*
X91209855Y-84925443D01*
X91208770Y-84914421D01*
X91207922Y-84912376D01*
X91207173Y-84907305D01*
X91135745Y-84621591D01*
X91134973Y-84619432D01*
X91134897Y-84618352D01*
X91130236Y-84606171D01*
X91125852Y-84593900D01*
X91125207Y-84593030D01*
X91124388Y-84590888D01*
X91052959Y-84448032D01*
X91045032Y-84435440D01*
X91043516Y-84431778D01*
X91040132Y-84427655D01*
X91037294Y-84423146D01*
X91034301Y-84420550D01*
X91024861Y-84409048D01*
X90882004Y-84266191D01*
X90859273Y-84247536D01*
X90854293Y-84245473D01*
X90850223Y-84241943D01*
X90823372Y-84229954D01*
X90609086Y-84158526D01*
X90594578Y-84155227D01*
X90590916Y-84153710D01*
X90585607Y-84153187D01*
X90580413Y-84152006D01*
X90576463Y-84152286D01*
X90561652Y-84150828D01*
X90204509Y-84150828D01*
X90175245Y-84153710D01*
X90121173Y-84176108D01*
X90079789Y-84217492D01*
X90057391Y-84271564D01*
X90054509Y-84300828D01*
X89559498Y-84300828D01*
X89524860Y-84266190D01*
X89513360Y-84256752D01*
X89510763Y-84253758D01*
X89506246Y-84250915D01*
X89502129Y-84247536D01*
X89498472Y-84246021D01*
X89485877Y-84238093D01*
X89343020Y-84166664D01*
X89315557Y-84156155D01*
X89310182Y-84155773D01*
X89305202Y-84153710D01*
X89275938Y-84150828D01*
X88704509Y-84150828D01*
X88675245Y-84153710D01*
X88621173Y-84176108D01*
X88579789Y-84217492D01*
X88557391Y-84271564D01*
X88554509Y-84300828D01*
X88387842Y-84300828D01*
X88387842Y-83984161D01*
X91378319Y-83984161D01*
X91378319Y-86117495D01*
G37*
D12*
G36*
X93300871Y-127505930D02*
G01*
X90453637Y-127505930D01*
X90453637Y-126596152D01*
X90564748Y-126596152D01*
X90566822Y-126625342D01*
X90579909Y-126651517D01*
X90602017Y-126670690D01*
X90629778Y-126679944D01*
X90658968Y-126677870D01*
X90672700Y-126672615D01*
X90767938Y-126624996D01*
X90774237Y-126621031D01*
X90776065Y-126620274D01*
X90778121Y-126618585D01*
X90780381Y-126617164D01*
X90781680Y-126615665D01*
X90787430Y-126610947D01*
X90849873Y-126548504D01*
X90849873Y-127244819D01*
X90639159Y-127244819D01*
X90624527Y-127246260D01*
X90597491Y-127257459D01*
X90576799Y-127278151D01*
X90565600Y-127305187D01*
X90565600Y-127334451D01*
X90576799Y-127361487D01*
X90597491Y-127382179D01*
X90624527Y-127393378D01*
X90639159Y-127394819D01*
X91210587Y-127394819D01*
X91225219Y-127393378D01*
X91252255Y-127382179D01*
X91272947Y-127361487D01*
X91284146Y-127334451D01*
X91284146Y-127305187D01*
X91470362Y-127305187D01*
X91470362Y-127334451D01*
X91481561Y-127361487D01*
X91502253Y-127382179D01*
X91529289Y-127393378D01*
X91543921Y-127394819D01*
X92162968Y-127394819D01*
X92177600Y-127393378D01*
X92204636Y-127382179D01*
X92225328Y-127361487D01*
X92236527Y-127334451D01*
X92236527Y-127305187D01*
X92225328Y-127278151D01*
X92204636Y-127257459D01*
X92177600Y-127246260D01*
X92162968Y-127244819D01*
X91724987Y-127244819D01*
X92168382Y-126801423D01*
X92177710Y-126790058D01*
X92178741Y-126787567D01*
X92180506Y-126785533D01*
X92186500Y-126772107D01*
X92234119Y-126629251D01*
X92235768Y-126621995D01*
X92236527Y-126620165D01*
X92236788Y-126617511D01*
X92237379Y-126614914D01*
X92237238Y-126612939D01*
X92237968Y-126605533D01*
X92237968Y-126510295D01*
X92236527Y-126495663D01*
X92235496Y-126493174D01*
X92235305Y-126490485D01*
X92230050Y-126476754D01*
X92182431Y-126381516D01*
X92178466Y-126375216D01*
X92177709Y-126373389D01*
X92176020Y-126371332D01*
X92174599Y-126369073D01*
X92173100Y-126367773D01*
X92168382Y-126362024D01*
X92135557Y-126329199D01*
X92374272Y-126329199D01*
X92377532Y-126343536D01*
X92710865Y-127343536D01*
X92716859Y-127356961D01*
X92720369Y-127361008D01*
X92722766Y-127365802D01*
X92729874Y-127371967D01*
X92736033Y-127379068D01*
X92740822Y-127381462D01*
X92744873Y-127384976D01*
X92753798Y-127387950D01*
X92762206Y-127392155D01*
X92767550Y-127392534D01*
X92772636Y-127394230D01*
X92782016Y-127393563D01*
X92791396Y-127394230D01*
X92796481Y-127392534D01*
X92801826Y-127392155D01*
X92810236Y-127387949D01*
X92819158Y-127384976D01*
X92823205Y-127381465D01*
X92827999Y-127379069D01*
X92834162Y-127371963D01*
X92841266Y-127365802D01*
X92843661Y-127361010D01*
X92847173Y-127356962D01*
X92853167Y-127343536D01*
X93186500Y-126343536D01*
X93189760Y-126329200D01*
X93187685Y-126300010D01*
X93174599Y-126273836D01*
X93152491Y-126254662D01*
X93124729Y-126245408D01*
X93095539Y-126247483D01*
X93069366Y-126260570D01*
X93050192Y-126282677D01*
X93044198Y-126296102D01*
X92782016Y-127082648D01*
X92519834Y-126296102D01*
X92513840Y-126282676D01*
X92494666Y-126260569D01*
X92468493Y-126247483D01*
X92439303Y-126245408D01*
X92411540Y-126254662D01*
X92389433Y-126273836D01*
X92376347Y-126300009D01*
X92374272Y-126329199D01*
X92135557Y-126329199D01*
X92120763Y-126314405D01*
X92115013Y-126309686D01*
X92113714Y-126308188D01*
X92111454Y-126306766D01*
X92109398Y-126305078D01*
X92107570Y-126304320D01*
X92101271Y-126300356D01*
X92006033Y-126252737D01*
X91992301Y-126247482D01*
X91989613Y-126247291D01*
X91987124Y-126246260D01*
X91972492Y-126244819D01*
X91734397Y-126244819D01*
X91719765Y-126246260D01*
X91717276Y-126247290D01*
X91714587Y-126247482D01*
X91700856Y-126252737D01*
X91605618Y-126300356D01*
X91599318Y-126304320D01*
X91597491Y-126305078D01*
X91595434Y-126306766D01*
X91593175Y-126308188D01*
X91591875Y-126309686D01*
X91586126Y-126314405D01*
X91538507Y-126362024D01*
X91529180Y-126373389D01*
X91517981Y-126400426D01*
X91517981Y-126429688D01*
X91529180Y-126456725D01*
X91549872Y-126477417D01*
X91576909Y-126488616D01*
X91606171Y-126488616D01*
X91633208Y-126477417D01*
X91644573Y-126468090D01*
X91683586Y-126429077D01*
X91752102Y-126394819D01*
X91954787Y-126394819D01*
X92023303Y-126429077D01*
X92053710Y-126459484D01*
X92087968Y-126528000D01*
X92087968Y-126593363D01*
X92049796Y-126707876D01*
X91490888Y-127266786D01*
X91481561Y-127278151D01*
X91470362Y-127305187D01*
X91284146Y-127305187D01*
X91272947Y-127278151D01*
X91252255Y-127257459D01*
X91225219Y-127246260D01*
X91210587Y-127244819D01*
X90999873Y-127244819D01*
X90999873Y-126319819D01*
X90999867Y-126319766D01*
X90999873Y-126319740D01*
X90999857Y-126319663D01*
X90998432Y-126305187D01*
X90995590Y-126298326D01*
X90994134Y-126291045D01*
X90990044Y-126284938D01*
X90987233Y-126278151D01*
X90981984Y-126272902D01*
X90977851Y-126266730D01*
X90971734Y-126262652D01*
X90966541Y-126257459D01*
X90959681Y-126254617D01*
X90953502Y-126250498D01*
X90946293Y-126249072D01*
X90939505Y-126246260D01*
X90932078Y-126246260D01*
X90924794Y-126244819D01*
X90917589Y-126246260D01*
X90910241Y-126246260D01*
X90903380Y-126249101D01*
X90896100Y-126250558D01*
X90889994Y-126254646D01*
X90883205Y-126257459D01*
X90877954Y-126262709D01*
X90871785Y-126266841D01*
X90862564Y-126278099D01*
X90862513Y-126278151D01*
X90862503Y-126278173D01*
X90862469Y-126278216D01*
X90771349Y-126414896D01*
X90689970Y-126496275D01*
X90605618Y-126538451D01*
X90593175Y-126546283D01*
X90574002Y-126568391D01*
X90564748Y-126596152D01*
X90453637Y-126596152D01*
X90453637Y-126133708D01*
X93300871Y-126133708D01*
X93300871Y-127505930D01*
G37*
D10*
G36*
X84837085Y-81695535D02*
G01*
X84874089Y-81732539D01*
X84927267Y-81838897D01*
X84990224Y-82090721D01*
X84990224Y-82410935D01*
X84927267Y-82662759D01*
X84874088Y-82769117D01*
X84837083Y-82806122D01*
X84747671Y-82850828D01*
X84675634Y-82850828D01*
X84586220Y-82806121D01*
X84549216Y-82769117D01*
X84496035Y-82662757D01*
X84433081Y-82410936D01*
X84433081Y-82090720D01*
X84496035Y-81838898D01*
X84549216Y-81732538D01*
X84586220Y-81695535D01*
X84675634Y-81650828D01*
X84747671Y-81650828D01*
X84837085Y-81695535D01*
G37*
G36*
X86337084Y-82338392D02*
G01*
X86374088Y-82375396D01*
X86418795Y-82464810D01*
X86418795Y-82679703D01*
X86374087Y-82769117D01*
X86337084Y-82806121D01*
X86247671Y-82850828D01*
X86032776Y-82850828D01*
X85943362Y-82806121D01*
X85906357Y-82769116D01*
X85861652Y-82679704D01*
X85861652Y-82464809D01*
X85906358Y-82375395D01*
X85943362Y-82338392D01*
X86032776Y-82293685D01*
X86247670Y-82293685D01*
X86337084Y-82338392D01*
G37*
G36*
X86337084Y-81695535D02*
G01*
X86374088Y-81732539D01*
X86418795Y-81821952D01*
X86418795Y-81822560D01*
X86374087Y-81911974D01*
X86337084Y-81948978D01*
X86247671Y-81993685D01*
X86032776Y-81993685D01*
X85943362Y-81948978D01*
X85906357Y-81911973D01*
X85861652Y-81822561D01*
X85861652Y-81821951D01*
X85906357Y-81732540D01*
X85943362Y-81695535D01*
X86032776Y-81650828D01*
X86247670Y-81650828D01*
X86337084Y-81695535D01*
G37*
G36*
X91382579Y-83674638D02*
G01*
X83966414Y-83674638D01*
X83966414Y-83358129D01*
X86847366Y-83358129D01*
X86858844Y-83415518D01*
X86891410Y-83464148D01*
X86940109Y-83496613D01*
X86997524Y-83507971D01*
X87054913Y-83496493D01*
X87103543Y-83463927D01*
X87122174Y-83441176D01*
X87435248Y-82971565D01*
X88493105Y-82971565D01*
X88493105Y-83030091D01*
X88515502Y-83084163D01*
X88556888Y-83125549D01*
X88579686Y-83134992D01*
X88610959Y-83147946D01*
X88640223Y-83150828D01*
X89568795Y-83150828D01*
X89598059Y-83147946D01*
X89652131Y-83125548D01*
X89693515Y-83084164D01*
X89715913Y-83030092D01*
X89715913Y-82971564D01*
X89693515Y-82917492D01*
X89652131Y-82876108D01*
X89598059Y-82853710D01*
X89568795Y-82850828D01*
X89002355Y-82850828D01*
X89371116Y-82482067D01*
X89991401Y-82482067D01*
X89993105Y-82506044D01*
X89993105Y-82530092D01*
X89995167Y-82535072D01*
X89995550Y-82540448D01*
X90006302Y-82561952D01*
X90015503Y-82584164D01*
X90019313Y-82587974D01*
X90021724Y-82592795D01*
X90039885Y-82608546D01*
X90056887Y-82625548D01*
X90061866Y-82627610D01*
X90065938Y-82631142D01*
X90088744Y-82638744D01*
X90110959Y-82647946D01*
X90118610Y-82648699D01*
X90121462Y-82649650D01*
X90125411Y-82649369D01*
X90140223Y-82650828D01*
X90704509Y-82650828D01*
X90704509Y-83000828D01*
X90707391Y-83030092D01*
X90729789Y-83084164D01*
X90771173Y-83125548D01*
X90825245Y-83147946D01*
X90883773Y-83147946D01*
X90937845Y-83125548D01*
X90979229Y-83084164D01*
X91001627Y-83030092D01*
X91004509Y-83000828D01*
X91004509Y-82650828D01*
X91068794Y-82650828D01*
X91098058Y-82647946D01*
X91152130Y-82625548D01*
X91193514Y-82584164D01*
X91215912Y-82530092D01*
X91215912Y-82471564D01*
X91193514Y-82417492D01*
X91152130Y-82376108D01*
X91098058Y-82353710D01*
X91068794Y-82350828D01*
X91004509Y-82350828D01*
X91004509Y-82000828D01*
X91001627Y-81971564D01*
X90979229Y-81917492D01*
X90937845Y-81876108D01*
X90883773Y-81853710D01*
X90825245Y-81853710D01*
X90771173Y-81876108D01*
X90729789Y-81917492D01*
X90707391Y-81971564D01*
X90704509Y-82000828D01*
X90704509Y-82350828D01*
X90348336Y-82350828D01*
X90639668Y-81476835D01*
X90646188Y-81448161D01*
X90642039Y-81389781D01*
X90615865Y-81337434D01*
X90571651Y-81299086D01*
X90516126Y-81280578D01*
X90457746Y-81284727D01*
X90405399Y-81310901D01*
X90367052Y-81355115D01*
X90355063Y-81381966D01*
X89997921Y-82453394D01*
X89994622Y-82467901D01*
X89993105Y-82471564D01*
X89993105Y-82474573D01*
X89991401Y-82482067D01*
X89371116Y-82482067D01*
X89603432Y-82249751D01*
X89622087Y-82227021D01*
X89624150Y-82222039D01*
X89627680Y-82217970D01*
X89639668Y-82191120D01*
X89711097Y-81976835D01*
X89714396Y-81962325D01*
X89715913Y-81958664D01*
X89716435Y-81953355D01*
X89717617Y-81948161D01*
X89717336Y-81944211D01*
X89718795Y-81929400D01*
X89718795Y-81786542D01*
X89715913Y-81757278D01*
X89713849Y-81752297D01*
X89713468Y-81746923D01*
X89702959Y-81719459D01*
X89631530Y-81576603D01*
X89623603Y-81564011D01*
X89622087Y-81560349D01*
X89618703Y-81556226D01*
X89615865Y-81551717D01*
X89612872Y-81549121D01*
X89603432Y-81537619D01*
X89532004Y-81466191D01*
X89520502Y-81456751D01*
X89517906Y-81453758D01*
X89513392Y-81450917D01*
X89509273Y-81447536D01*
X89505613Y-81446020D01*
X89493020Y-81438093D01*
X89350162Y-81366664D01*
X89322699Y-81356154D01*
X89317321Y-81355771D01*
X89312344Y-81353710D01*
X89283080Y-81350828D01*
X88925938Y-81350828D01*
X88896674Y-81353710D01*
X88891696Y-81355771D01*
X88886319Y-81356154D01*
X88858856Y-81366664D01*
X88715998Y-81438093D01*
X88703406Y-81446019D01*
X88699744Y-81447536D01*
X88695621Y-81450919D01*
X88691112Y-81453758D01*
X88688516Y-81456750D01*
X88677014Y-81466191D01*
X88605586Y-81537619D01*
X88586931Y-81560350D01*
X88564534Y-81614422D01*
X88564534Y-81672948D01*
X88586931Y-81727020D01*
X88628317Y-81768406D01*
X88682389Y-81790803D01*
X88740915Y-81790803D01*
X88794987Y-81768406D01*
X88817718Y-81749751D01*
X88871934Y-81695535D01*
X88961348Y-81650828D01*
X89247670Y-81650828D01*
X89337084Y-81695535D01*
X89374088Y-81732539D01*
X89418795Y-81821952D01*
X89418795Y-81905059D01*
X89366261Y-82062657D01*
X88534157Y-82894762D01*
X88515502Y-82917493D01*
X88502799Y-82948162D01*
X88496224Y-82964036D01*
X88493105Y-82971565D01*
X87435248Y-82971565D01*
X88407888Y-81512605D01*
X88421722Y-81486657D01*
X88433080Y-81429242D01*
X88421602Y-81371853D01*
X88389036Y-81323223D01*
X88340337Y-81290758D01*
X88282923Y-81279400D01*
X88225533Y-81290878D01*
X88176903Y-81323444D01*
X88158273Y-81346195D01*
X86872558Y-83274766D01*
X86858724Y-83300714D01*
X86847366Y-83358129D01*
X83966414Y-83358129D01*
X83966414Y-82072257D01*
X84133081Y-82072257D01*
X84133081Y-82429400D01*
X84133583Y-82434503D01*
X84133258Y-82436691D01*
X84134877Y-82447641D01*
X84135963Y-82458664D01*
X84136810Y-82460708D01*
X84137560Y-82465780D01*
X84208988Y-82751494D01*
X84209759Y-82753652D01*
X84209836Y-82754733D01*
X84214494Y-82766907D01*
X84218881Y-82779185D01*
X84219525Y-82780055D01*
X84220345Y-82782196D01*
X84291774Y-82925053D01*
X84299701Y-82937646D01*
X84301217Y-82941306D01*
X84304598Y-82945425D01*
X84307439Y-82949939D01*
X84310432Y-82952535D01*
X84319872Y-82964037D01*
X84391301Y-83035466D01*
X84402805Y-83044907D01*
X84405400Y-83047899D01*
X84409909Y-83050737D01*
X84414032Y-83054121D01*
X84417693Y-83055637D01*
X84430285Y-83063564D01*
X84573143Y-83134992D01*
X84600606Y-83145502D01*
X84605981Y-83145883D01*
X84610960Y-83147946D01*
X84640224Y-83150828D01*
X84783081Y-83150828D01*
X84812345Y-83147946D01*
X84817323Y-83145883D01*
X84822699Y-83145502D01*
X84850163Y-83134992D01*
X84993020Y-83063564D01*
X85005613Y-83055636D01*
X85009273Y-83054121D01*
X85013392Y-83050739D01*
X85017906Y-83047899D01*
X85020502Y-83044905D01*
X85032004Y-83035466D01*
X85103433Y-82964037D01*
X85112874Y-82952532D01*
X85115866Y-82949938D01*
X85118704Y-82945428D01*
X85122088Y-82941306D01*
X85123604Y-82937644D01*
X85131531Y-82925053D01*
X85202959Y-82782195D01*
X85203776Y-82780058D01*
X85204423Y-82779186D01*
X85208812Y-82766899D01*
X85213469Y-82754732D01*
X85213545Y-82753650D01*
X85214316Y-82751495D01*
X85285745Y-82465781D01*
X85286495Y-82460708D01*
X85287342Y-82458664D01*
X85288427Y-82447644D01*
X85290047Y-82436692D01*
X85289721Y-82434503D01*
X85290224Y-82429400D01*
X85290224Y-82072257D01*
X85289721Y-82067153D01*
X85290047Y-82064965D01*
X85288427Y-82054012D01*
X85287342Y-82042993D01*
X85286495Y-82040948D01*
X85285745Y-82035876D01*
X85223411Y-81786542D01*
X85561652Y-81786542D01*
X85561652Y-81857971D01*
X85564534Y-81887235D01*
X85566596Y-81892213D01*
X85566978Y-81897589D01*
X85577488Y-81925053D01*
X85648916Y-82067910D01*
X85656843Y-82080503D01*
X85658359Y-82084163D01*
X85661740Y-82088282D01*
X85664581Y-82092796D01*
X85667574Y-82095392D01*
X85677014Y-82106894D01*
X85713805Y-82143685D01*
X85677015Y-82180475D01*
X85667572Y-82191980D01*
X85664581Y-82194575D01*
X85661741Y-82199085D01*
X85658360Y-82203206D01*
X85656844Y-82206865D01*
X85648916Y-82219460D01*
X85577488Y-82362319D01*
X85566978Y-82389782D01*
X85566596Y-82395157D01*
X85564534Y-82400136D01*
X85561652Y-82429400D01*
X85561652Y-82715114D01*
X85564534Y-82744378D01*
X85566596Y-82749356D01*
X85566978Y-82754732D01*
X85577488Y-82782196D01*
X85648916Y-82925053D01*
X85656843Y-82937646D01*
X85658359Y-82941306D01*
X85661740Y-82945425D01*
X85664581Y-82949939D01*
X85667574Y-82952535D01*
X85677014Y-82964037D01*
X85748443Y-83035466D01*
X85759947Y-83044907D01*
X85762542Y-83047899D01*
X85767051Y-83050737D01*
X85771174Y-83054121D01*
X85774835Y-83055637D01*
X85787427Y-83063564D01*
X85930285Y-83134992D01*
X85957748Y-83145502D01*
X85963123Y-83145883D01*
X85968102Y-83147946D01*
X85997366Y-83150828D01*
X86283080Y-83150828D01*
X86312344Y-83147946D01*
X86317322Y-83145883D01*
X86322698Y-83145502D01*
X86350161Y-83134992D01*
X86493020Y-83063564D01*
X86505614Y-83055635D01*
X86509274Y-83054120D01*
X86513394Y-83050738D01*
X86517905Y-83047899D01*
X86520499Y-83044907D01*
X86532005Y-83035465D01*
X86603433Y-82964036D01*
X86612871Y-82952535D01*
X86615865Y-82949939D01*
X86618705Y-82945426D01*
X86622087Y-82941306D01*
X86623602Y-82937646D01*
X86631530Y-82925053D01*
X86702959Y-82782197D01*
X86713468Y-82754733D01*
X86713849Y-82749358D01*
X86715913Y-82744378D01*
X86718795Y-82715114D01*
X86718795Y-82429400D01*
X86715913Y-82400136D01*
X86713851Y-82395158D01*
X86713469Y-82389781D01*
X86702959Y-82362318D01*
X86631530Y-82219460D01*
X86623603Y-82206868D01*
X86622087Y-82203206D01*
X86618703Y-82199083D01*
X86615865Y-82194574D01*
X86612872Y-82191978D01*
X86603432Y-82180476D01*
X86566641Y-82143685D01*
X86603433Y-82106893D01*
X86612871Y-82095392D01*
X86615865Y-82092796D01*
X86618705Y-82088283D01*
X86622087Y-82084163D01*
X86623602Y-82080503D01*
X86631530Y-82067910D01*
X86702959Y-81925054D01*
X86713468Y-81897590D01*
X86713849Y-81892215D01*
X86715913Y-81887235D01*
X86718795Y-81857971D01*
X86718795Y-81786542D01*
X86715913Y-81757278D01*
X86713849Y-81752297D01*
X86713468Y-81746923D01*
X86702959Y-81719459D01*
X86631530Y-81576603D01*
X86623603Y-81564011D01*
X86622087Y-81560349D01*
X86618703Y-81556226D01*
X86615865Y-81551717D01*
X86612872Y-81549121D01*
X86603432Y-81537619D01*
X86532004Y-81466191D01*
X86520502Y-81456751D01*
X86517906Y-81453758D01*
X86513392Y-81450917D01*
X86509273Y-81447536D01*
X86505613Y-81446020D01*
X86493020Y-81438093D01*
X86350162Y-81366664D01*
X86322699Y-81356154D01*
X86317321Y-81355771D01*
X86312344Y-81353710D01*
X86283080Y-81350828D01*
X85997366Y-81350828D01*
X85968102Y-81353710D01*
X85963121Y-81355773D01*
X85957747Y-81356155D01*
X85930283Y-81366664D01*
X85787427Y-81438093D01*
X85774833Y-81446020D01*
X85771174Y-81447536D01*
X85767053Y-81450917D01*
X85762541Y-81453758D01*
X85759944Y-81456751D01*
X85748444Y-81466190D01*
X85677015Y-81537618D01*
X85667575Y-81549120D01*
X85664581Y-81551717D01*
X85661739Y-81556231D01*
X85658360Y-81560349D01*
X85656844Y-81564007D01*
X85648916Y-81576603D01*
X85577488Y-81719460D01*
X85566978Y-81746924D01*
X85566596Y-81752299D01*
X85564534Y-81757278D01*
X85561652Y-81786542D01*
X85223411Y-81786542D01*
X85214316Y-81750162D01*
X85213545Y-81748006D01*
X85213469Y-81746924D01*
X85208809Y-81734749D01*
X85204423Y-81722470D01*
X85203776Y-81721597D01*
X85202959Y-81719461D01*
X85131531Y-81576603D01*
X85123602Y-81564008D01*
X85122087Y-81560349D01*
X85118705Y-81556228D01*
X85115866Y-81551718D01*
X85112874Y-81549123D01*
X85103432Y-81537618D01*
X85032003Y-81466190D01*
X85020503Y-81456752D01*
X85017906Y-81453758D01*
X85013389Y-81450915D01*
X85009272Y-81447536D01*
X85005615Y-81446021D01*
X84993020Y-81438093D01*
X84850163Y-81366664D01*
X84822700Y-81356155D01*
X84817325Y-81355773D01*
X84812345Y-81353710D01*
X84783081Y-81350828D01*
X84640224Y-81350828D01*
X84610960Y-81353710D01*
X84605979Y-81355773D01*
X84600605Y-81356155D01*
X84573141Y-81366664D01*
X84430285Y-81438093D01*
X84417691Y-81446020D01*
X84414032Y-81447536D01*
X84409911Y-81450917D01*
X84405399Y-81453758D01*
X84402802Y-81456751D01*
X84391302Y-81466190D01*
X84319873Y-81537618D01*
X84310433Y-81549120D01*
X84307439Y-81551717D01*
X84304597Y-81556231D01*
X84301218Y-81560349D01*
X84299702Y-81564007D01*
X84291774Y-81576603D01*
X84220345Y-81719460D01*
X84219525Y-81721600D01*
X84218881Y-81722471D01*
X84214494Y-81734748D01*
X84209836Y-81746923D01*
X84209759Y-81748003D01*
X84208988Y-81750162D01*
X84137560Y-82035877D01*
X84136810Y-82040948D01*
X84135963Y-82042993D01*
X84134877Y-82054015D01*
X84133258Y-82064966D01*
X84133583Y-82067153D01*
X84133081Y-82072257D01*
X83966414Y-82072257D01*
X83966414Y-81112733D01*
X91382579Y-81112733D01*
X91382579Y-83674638D01*
G37*
G36*
X106987794Y-86042363D02*
G01*
X91718637Y-86042363D01*
X91718637Y-82458084D01*
X92133081Y-82458084D01*
X92133101Y-82458187D01*
X92133081Y-82458395D01*
X92133081Y-82813633D01*
X92133101Y-82813840D01*
X92133081Y-82813944D01*
X92134544Y-82828493D01*
X92135963Y-82842897D01*
X92136003Y-82842993D01*
X92136024Y-82843202D01*
X92207452Y-83198440D01*
X92211490Y-83211653D01*
X92215341Y-83224837D01*
X92286770Y-83402456D01*
X92291915Y-83412327D01*
X92292958Y-83415890D01*
X92296971Y-83422027D01*
X92300362Y-83428531D01*
X92302959Y-83431182D01*
X92309053Y-83440500D01*
X92451910Y-83618119D01*
X92464040Y-83630491D01*
X92466269Y-83633601D01*
X92469576Y-83636138D01*
X92472496Y-83639116D01*
X92475854Y-83640953D01*
X92489601Y-83651499D01*
X92753627Y-83815635D01*
X92866514Y-83955991D01*
X92924464Y-84100096D01*
X92990224Y-84427136D01*
X92990224Y-84752509D01*
X92924464Y-85079548D01*
X92866513Y-85223657D01*
X92782656Y-85327919D01*
X92551451Y-85327919D01*
X92378805Y-85184815D01*
X92354436Y-85168358D01*
X92298512Y-85151096D01*
X92240241Y-85156548D01*
X92188490Y-85183884D01*
X92151139Y-85228945D01*
X92133877Y-85284869D01*
X92139329Y-85343140D01*
X92166665Y-85394891D01*
X92187357Y-85415785D01*
X92401643Y-85593404D01*
X92411354Y-85599962D01*
X92414031Y-85602639D01*
X92417359Y-85604017D01*
X92426012Y-85609861D01*
X92447414Y-85616467D01*
X92468103Y-85625037D01*
X92478492Y-85626060D01*
X92481936Y-85627123D01*
X92485704Y-85626770D01*
X92497367Y-85627919D01*
X92854509Y-85627919D01*
X92883773Y-85625037D01*
X92891334Y-85621905D01*
X92899466Y-85621023D01*
X92918157Y-85610794D01*
X92937845Y-85602639D01*
X92943629Y-85596854D01*
X92950808Y-85592926D01*
X92971394Y-85571929D01*
X93114252Y-85394310D01*
X93120345Y-85384992D01*
X93122943Y-85382341D01*
X93126333Y-85375836D01*
X93130347Y-85369700D01*
X93131389Y-85366138D01*
X93136536Y-85356265D01*
X93207964Y-85178645D01*
X93211829Y-85165410D01*
X93215852Y-85152249D01*
X93287281Y-84797011D01*
X93287301Y-84796802D01*
X93287342Y-84796706D01*
X93288760Y-84782302D01*
X93290224Y-84767753D01*
X93290203Y-84767649D01*
X93290224Y-84767442D01*
X93290224Y-84412204D01*
X93290203Y-84411996D01*
X93290224Y-84411893D01*
X93288760Y-84397343D01*
X93287342Y-84382940D01*
X93287301Y-84382843D01*
X93287281Y-84382635D01*
X93215852Y-84027397D01*
X93211820Y-84014207D01*
X93207963Y-84001000D01*
X93136535Y-83823382D01*
X93131389Y-83813511D01*
X93130347Y-83809947D01*
X93126332Y-83803808D01*
X93122943Y-83797306D01*
X93120345Y-83794654D01*
X93114252Y-83785337D01*
X92971394Y-83607718D01*
X92959263Y-83595345D01*
X92957035Y-83592236D01*
X92953727Y-83589698D01*
X92950808Y-83586721D01*
X92947449Y-83584883D01*
X92933703Y-83574338D01*
X92669676Y-83410201D01*
X92556791Y-83269847D01*
X92498839Y-83125742D01*
X92433081Y-82798700D01*
X92433081Y-82473327D01*
X92498839Y-82146285D01*
X92556791Y-82002180D01*
X92640648Y-81897919D01*
X92871854Y-81897919D01*
X93044500Y-82041023D01*
X93068869Y-82057480D01*
X93124793Y-82074742D01*
X93183064Y-82069290D01*
X93234815Y-82041954D01*
X93272166Y-81996893D01*
X93289428Y-81940969D01*
X93283976Y-81882698D01*
X93256640Y-81830947D01*
X93235948Y-81810053D01*
X93160987Y-81747919D01*
X93633080Y-81747919D01*
X93633080Y-85477919D01*
X93635962Y-85507183D01*
X93658360Y-85561255D01*
X93699744Y-85602639D01*
X93753816Y-85625037D01*
X93812344Y-85625037D01*
X93866416Y-85602639D01*
X93907800Y-85561255D01*
X93930198Y-85507183D01*
X93933080Y-85477919D01*
X93933080Y-83070432D01*
X94494033Y-85511513D01*
X94503396Y-85539389D01*
X94510690Y-85549637D01*
X94515503Y-85561255D01*
X94527496Y-85573248D01*
X94537335Y-85587071D01*
X94547995Y-85593747D01*
X94556887Y-85602639D01*
X94572557Y-85609130D01*
X94586936Y-85618135D01*
X94599338Y-85620223D01*
X94610959Y-85625037D01*
X94627923Y-85625037D01*
X94644651Y-85627854D01*
X94656910Y-85625037D01*
X94669487Y-85625037D01*
X94685158Y-85618545D01*
X94701692Y-85614746D01*
X94711939Y-85607451D01*
X94723559Y-85602639D01*
X94735553Y-85590644D01*
X94749375Y-85580807D01*
X94756051Y-85570146D01*
X94764943Y-85561255D01*
X94771434Y-85545584D01*
X94780439Y-85531206D01*
X94782527Y-85518803D01*
X94787341Y-85507183D01*
X94790223Y-85477919D01*
X94790223Y-85272561D01*
X95135668Y-85272561D01*
X95135955Y-85300300D01*
X95135668Y-85328039D01*
X95136263Y-85330077D01*
X95136274Y-85331085D01*
X95137175Y-85333198D01*
X95143913Y-85356265D01*
X95215340Y-85533884D01*
X95228933Y-85559960D01*
X95229486Y-85560525D01*
X95229789Y-85561255D01*
X95230347Y-85561813D01*
X95230657Y-85562539D01*
X95250473Y-85581951D01*
X95269888Y-85601771D01*
X95270614Y-85602080D01*
X95271173Y-85602639D01*
X95271900Y-85602940D01*
X95272467Y-85603495D01*
X95298215Y-85613849D01*
X95323724Y-85624726D01*
X95324513Y-85624734D01*
X95325245Y-85625037D01*
X95326035Y-85625037D01*
X95326769Y-85625332D01*
X95354508Y-85625044D01*
X95382248Y-85625332D01*
X95382982Y-85625037D01*
X95383773Y-85625037D01*
X95384504Y-85624734D01*
X95385293Y-85624726D01*
X95410801Y-85613849D01*
X95436550Y-85603495D01*
X95437115Y-85602941D01*
X95437845Y-85602639D01*
X95438403Y-85602080D01*
X95439129Y-85601771D01*
X95458541Y-85581954D01*
X95478361Y-85562540D01*
X95478670Y-85561813D01*
X95479229Y-85561255D01*
X95479530Y-85560527D01*
X95480085Y-85559961D01*
X95493677Y-85533885D01*
X95565106Y-85356267D01*
X95571846Y-85333192D01*
X95572745Y-85331084D01*
X95572755Y-85330079D01*
X95573351Y-85328040D01*
X95573063Y-85300300D01*
X95573351Y-85272561D01*
X106135667Y-85272561D01*
X106135954Y-85300300D01*
X106135667Y-85328039D01*
X106136262Y-85330077D01*
X106136273Y-85331085D01*
X106137174Y-85333198D01*
X106143912Y-85356265D01*
X106215339Y-85533884D01*
X106228932Y-85559960D01*
X106229485Y-85560525D01*
X106229788Y-85561255D01*
X106230346Y-85561813D01*
X106230656Y-85562539D01*
X106250472Y-85581951D01*
X106269887Y-85601771D01*
X106270613Y-85602080D01*
X106271172Y-85602639D01*
X106271899Y-85602940D01*
X106272466Y-85603495D01*
X106298214Y-85613849D01*
X106323723Y-85624726D01*
X106324512Y-85624734D01*
X106325244Y-85625037D01*
X106326034Y-85625037D01*
X106326768Y-85625332D01*
X106354507Y-85625044D01*
X106382247Y-85625332D01*
X106382981Y-85625037D01*
X106383772Y-85625037D01*
X106384503Y-85624734D01*
X106385292Y-85624726D01*
X106410800Y-85613849D01*
X106436549Y-85603495D01*
X106437114Y-85602941D01*
X106437844Y-85602639D01*
X106438402Y-85602080D01*
X106439128Y-85601771D01*
X106458540Y-85581954D01*
X106478360Y-85562540D01*
X106478669Y-85561813D01*
X106479228Y-85561255D01*
X106479529Y-85560527D01*
X106480084Y-85559961D01*
X106493676Y-85533885D01*
X106565105Y-85356267D01*
X106571845Y-85333192D01*
X106572744Y-85331084D01*
X106572754Y-85330079D01*
X106573350Y-85328040D01*
X106573062Y-85300300D01*
X106573350Y-85272560D01*
X106572754Y-85270521D01*
X106572744Y-85269516D01*
X106571844Y-85267407D01*
X106565105Y-85244334D01*
X106493676Y-85066714D01*
X106480084Y-85040639D01*
X106479530Y-85040073D01*
X106479228Y-85039344D01*
X106478669Y-85038785D01*
X106478360Y-85038059D01*
X106458541Y-85018646D01*
X106439129Y-84998828D01*
X106438402Y-84998518D01*
X106437844Y-84997960D01*
X106437114Y-84997657D01*
X106436549Y-84997104D01*
X106410808Y-84986752D01*
X106385292Y-84975873D01*
X106384503Y-84975864D01*
X106383772Y-84975562D01*
X106382981Y-84975562D01*
X106382247Y-84975267D01*
X106354507Y-84975554D01*
X106326768Y-84975267D01*
X106326034Y-84975562D01*
X106325244Y-84975562D01*
X106324512Y-84975864D01*
X106323723Y-84975873D01*
X106298225Y-84986745D01*
X106272467Y-84997104D01*
X106271901Y-84997657D01*
X106271172Y-84997960D01*
X106270612Y-84998519D01*
X106269887Y-84998829D01*
X106250487Y-85018633D01*
X106230656Y-85038059D01*
X106230346Y-85038785D01*
X106229788Y-85039344D01*
X106229485Y-85040073D01*
X106228932Y-85040639D01*
X106215339Y-85066715D01*
X106143911Y-85244335D01*
X106137173Y-85267403D01*
X106136273Y-85269515D01*
X106136262Y-85270521D01*
X106135667Y-85272561D01*
X95573351Y-85272561D01*
X95573351Y-85272560D01*
X95572755Y-85270521D01*
X95572745Y-85269516D01*
X95571845Y-85267407D01*
X95565106Y-85244334D01*
X95493677Y-85066714D01*
X95480085Y-85040639D01*
X95479531Y-85040073D01*
X95479229Y-85039344D01*
X95478670Y-85038785D01*
X95478361Y-85038059D01*
X95458542Y-85018646D01*
X95439130Y-84998828D01*
X95438403Y-84998518D01*
X95437845Y-84997960D01*
X95437115Y-84997657D01*
X95436550Y-84997104D01*
X95410809Y-84986752D01*
X95385293Y-84975873D01*
X95384504Y-84975864D01*
X95383773Y-84975562D01*
X95382982Y-84975562D01*
X95382248Y-84975267D01*
X95354508Y-84975554D01*
X95326769Y-84975267D01*
X95326035Y-84975562D01*
X95325245Y-84975562D01*
X95324513Y-84975864D01*
X95323724Y-84975873D01*
X95298226Y-84986745D01*
X95272468Y-84997104D01*
X95271902Y-84997657D01*
X95271173Y-84997960D01*
X95270613Y-84998519D01*
X95269888Y-84998829D01*
X95250488Y-85018633D01*
X95230657Y-85038059D01*
X95230347Y-85038785D01*
X95229789Y-85039344D01*
X95229486Y-85040073D01*
X95228933Y-85040639D01*
X95215340Y-85066715D01*
X95143912Y-85244335D01*
X95137174Y-85267403D01*
X95136274Y-85269515D01*
X95136263Y-85270521D01*
X95135668Y-85272561D01*
X94790223Y-85272561D01*
X94790223Y-83318751D01*
X95135668Y-83318751D01*
X95135955Y-83346490D01*
X95135668Y-83374229D01*
X95136263Y-83376267D01*
X95136274Y-83377275D01*
X95137175Y-83379388D01*
X95143913Y-83402455D01*
X95215340Y-83580074D01*
X95228933Y-83606150D01*
X95229486Y-83606715D01*
X95229789Y-83607445D01*
X95230347Y-83608003D01*
X95230657Y-83608729D01*
X95250473Y-83628141D01*
X95269888Y-83647961D01*
X95270614Y-83648270D01*
X95271173Y-83648829D01*
X95271900Y-83649130D01*
X95272467Y-83649685D01*
X95298215Y-83660039D01*
X95323724Y-83670916D01*
X95324513Y-83670924D01*
X95325245Y-83671227D01*
X95326035Y-83671227D01*
X95326769Y-83671522D01*
X95354508Y-83671234D01*
X95382248Y-83671522D01*
X95382982Y-83671227D01*
X95383773Y-83671227D01*
X95384504Y-83670924D01*
X95385293Y-83670916D01*
X95410801Y-83660039D01*
X95436550Y-83649685D01*
X95437115Y-83649131D01*
X95437845Y-83648829D01*
X95438403Y-83648270D01*
X95439129Y-83647961D01*
X95458541Y-83628144D01*
X95478361Y-83608730D01*
X95478670Y-83608003D01*
X95479229Y-83607445D01*
X95479530Y-83606717D01*
X95480085Y-83606151D01*
X95493677Y-83580075D01*
X95565106Y-83402457D01*
X95571846Y-83379382D01*
X95572745Y-83377274D01*
X95572755Y-83376269D01*
X95573351Y-83374230D01*
X95573063Y-83346490D01*
X95573351Y-83318750D01*
X95572755Y-83316710D01*
X95572745Y-83315706D01*
X95571846Y-83313597D01*
X95565106Y-83290523D01*
X95493677Y-83112905D01*
X95480085Y-83086829D01*
X95479530Y-83086262D01*
X95479229Y-83085535D01*
X95478670Y-83084976D01*
X95478361Y-83084250D01*
X95458541Y-83064835D01*
X95439129Y-83045019D01*
X95438403Y-83044709D01*
X95437845Y-83044151D01*
X95437115Y-83043848D01*
X95436550Y-83043295D01*
X95410801Y-83032940D01*
X95385293Y-83022064D01*
X95384504Y-83022055D01*
X95383773Y-83021753D01*
X95382982Y-83021753D01*
X95382248Y-83021458D01*
X95354508Y-83021745D01*
X95326769Y-83021458D01*
X95326035Y-83021753D01*
X95325245Y-83021753D01*
X95324513Y-83022055D01*
X95323724Y-83022064D01*
X95298215Y-83032940D01*
X95272467Y-83043295D01*
X95271900Y-83043849D01*
X95271173Y-83044151D01*
X95270614Y-83044709D01*
X95269888Y-83045019D01*
X95250473Y-83064838D01*
X95230657Y-83084251D01*
X95230347Y-83084976D01*
X95229789Y-83085535D01*
X95229486Y-83086264D01*
X95228933Y-83086830D01*
X95215340Y-83112906D01*
X95143913Y-83290525D01*
X95137175Y-83313591D01*
X95136274Y-83315705D01*
X95136263Y-83316712D01*
X95135668Y-83318751D01*
X94790223Y-83318751D01*
X94790223Y-81747919D01*
X94787341Y-81718655D01*
X94764943Y-81664583D01*
X94723559Y-81623199D01*
X94669487Y-81600801D01*
X94610959Y-81600801D01*
X94556887Y-81623199D01*
X94515503Y-81664583D01*
X94493105Y-81718655D01*
X94490223Y-81747919D01*
X94490223Y-84155405D01*
X93929270Y-81714325D01*
X93919907Y-81686450D01*
X93912613Y-81676202D01*
X93907800Y-81664583D01*
X93895804Y-81652587D01*
X93885968Y-81638768D01*
X93875309Y-81632092D01*
X93866416Y-81623199D01*
X93850743Y-81616707D01*
X93836367Y-81607703D01*
X93823964Y-81605614D01*
X93812344Y-81600801D01*
X93795380Y-81600801D01*
X93778652Y-81597984D01*
X93766393Y-81600801D01*
X93753816Y-81600801D01*
X93738144Y-81607292D01*
X93721611Y-81611092D01*
X93711363Y-81618385D01*
X93699744Y-81623199D01*
X93687748Y-81635194D01*
X93673929Y-81645031D01*
X93667253Y-81655689D01*
X93658360Y-81664583D01*
X93651868Y-81680255D01*
X93642864Y-81694632D01*
X93640775Y-81707034D01*
X93635962Y-81718655D01*
X93633080Y-81747919D01*
X93160987Y-81747919D01*
X93021662Y-81632434D01*
X93011950Y-81625875D01*
X93009274Y-81623199D01*
X93005945Y-81621820D01*
X92997293Y-81615977D01*
X92975890Y-81609370D01*
X92955202Y-81600801D01*
X92944812Y-81599777D01*
X92941369Y-81598715D01*
X92937600Y-81599067D01*
X92925938Y-81597919D01*
X92568795Y-81597919D01*
X92539531Y-81600801D01*
X92531970Y-81603932D01*
X92523838Y-81604815D01*
X92505146Y-81615043D01*
X92485459Y-81623199D01*
X92479674Y-81628983D01*
X92472496Y-81632912D01*
X92451910Y-81653909D01*
X92309053Y-81831528D01*
X92302959Y-81840845D01*
X92300362Y-81843497D01*
X92296971Y-81850000D01*
X92292958Y-81856138D01*
X92291915Y-81859700D01*
X92286770Y-81869572D01*
X92215341Y-82047191D01*
X92211490Y-82060374D01*
X92207452Y-82073588D01*
X92136024Y-82428826D01*
X92136003Y-82429034D01*
X92135963Y-82429131D01*
X92134544Y-82443534D01*
X92133081Y-82458084D01*
X91718637Y-82458084D01*
X91718637Y-81183475D01*
X106987794Y-81183475D01*
X106987794Y-86042363D01*
G37*
D12*
X88633332Y-107759580D02*
X88585713Y-107807200D01*
X88585713Y-107807200D02*
X88442856Y-107854819D01*
X88442856Y-107854819D02*
X88347618Y-107854819D01*
X88347618Y-107854819D02*
X88204761Y-107807200D01*
X88204761Y-107807200D02*
X88109523Y-107711961D01*
X88109523Y-107711961D02*
X88061904Y-107616723D01*
X88061904Y-107616723D02*
X88014285Y-107426247D01*
X88014285Y-107426247D02*
X88014285Y-107283390D01*
X88014285Y-107283390D02*
X88061904Y-107092914D01*
X88061904Y-107092914D02*
X88109523Y-106997676D01*
X88109523Y-106997676D02*
X88204761Y-106902438D01*
X88204761Y-106902438D02*
X88347618Y-106854819D01*
X88347618Y-106854819D02*
X88442856Y-106854819D01*
X88442856Y-106854819D02*
X88585713Y-106902438D01*
X88585713Y-106902438D02*
X88633332Y-106950057D01*
X89490475Y-107188152D02*
X89490475Y-107854819D01*
X89252380Y-106807200D02*
X89014285Y-107521485D01*
X89014285Y-107521485D02*
X89633332Y-107521485D01*
X101473247Y-106905085D02*
X101473247Y-105904510D01*
X102521468Y-106809792D02*
X102473821Y-106857439D01*
X102473821Y-106857439D02*
X102330882Y-106905085D01*
X102330882Y-106905085D02*
X102235589Y-106905085D01*
X102235589Y-106905085D02*
X102092650Y-106857439D01*
X102092650Y-106857439D02*
X101997357Y-106762146D01*
X101997357Y-106762146D02*
X101949711Y-106666853D01*
X101949711Y-106666853D02*
X101902064Y-106476267D01*
X101902064Y-106476267D02*
X101902064Y-106333328D01*
X101902064Y-106333328D02*
X101949711Y-106142742D01*
X101949711Y-106142742D02*
X101997357Y-106047449D01*
X101997357Y-106047449D02*
X102092650Y-105952156D01*
X102092650Y-105952156D02*
X102235589Y-105904510D01*
X102235589Y-105904510D02*
X102330882Y-105904510D01*
X102330882Y-105904510D02*
X102473821Y-105952156D01*
X102473821Y-105952156D02*
X102521468Y-105999803D01*
X103474396Y-106905085D02*
X102902639Y-106905085D01*
X103188518Y-106905085D02*
X103188518Y-105904510D01*
X103188518Y-105904510D02*
X103093225Y-106047449D01*
X103093225Y-106047449D02*
X102997932Y-106142742D01*
X102997932Y-106142742D02*
X102902639Y-106190389D01*
X105738094Y-113054819D02*
X105738094Y-113864342D01*
X105738094Y-113864342D02*
X105785713Y-113959580D01*
X105785713Y-113959580D02*
X105833332Y-114007200D01*
X105833332Y-114007200D02*
X105928570Y-114054819D01*
X105928570Y-114054819D02*
X106119046Y-114054819D01*
X106119046Y-114054819D02*
X106214284Y-114007200D01*
X106214284Y-114007200D02*
X106261903Y-113959580D01*
X106261903Y-113959580D02*
X106309522Y-113864342D01*
X106309522Y-113864342D02*
X106309522Y-113054819D01*
X106738094Y-113150057D02*
X106785713Y-113102438D01*
X106785713Y-113102438D02*
X106880951Y-113054819D01*
X106880951Y-113054819D02*
X107119046Y-113054819D01*
X107119046Y-113054819D02*
X107214284Y-113102438D01*
X107214284Y-113102438D02*
X107261903Y-113150057D01*
X107261903Y-113150057D02*
X107309522Y-113245295D01*
X107309522Y-113245295D02*
X107309522Y-113340533D01*
X107309522Y-113340533D02*
X107261903Y-113483390D01*
X107261903Y-113483390D02*
X106690475Y-114054819D01*
X106690475Y-114054819D02*
X107309522Y-114054819D01*
X85866665Y-114954819D02*
X85866665Y-115669104D01*
X85866665Y-115669104D02*
X85819046Y-115811961D01*
X85819046Y-115811961D02*
X85723808Y-115907200D01*
X85723808Y-115907200D02*
X85580951Y-115954819D01*
X85580951Y-115954819D02*
X85485713Y-115954819D01*
X86866665Y-115954819D02*
X86295237Y-115954819D01*
X86580951Y-115954819D02*
X86580951Y-114954819D01*
X86580951Y-114954819D02*
X86485713Y-115097676D01*
X86485713Y-115097676D02*
X86390475Y-115192914D01*
X86390475Y-115192914D02*
X86295237Y-115240533D01*
X89033332Y-112354819D02*
X88699999Y-111878628D01*
X88461904Y-112354819D02*
X88461904Y-111354819D01*
X88461904Y-111354819D02*
X88842856Y-111354819D01*
X88842856Y-111354819D02*
X88938094Y-111402438D01*
X88938094Y-111402438D02*
X88985713Y-111450057D01*
X88985713Y-111450057D02*
X89033332Y-111545295D01*
X89033332Y-111545295D02*
X89033332Y-111688152D01*
X89033332Y-111688152D02*
X88985713Y-111783390D01*
X88985713Y-111783390D02*
X88938094Y-111831009D01*
X88938094Y-111831009D02*
X88842856Y-111878628D01*
X88842856Y-111878628D02*
X88461904Y-111878628D01*
X89366666Y-111354819D02*
X89985713Y-111354819D01*
X89985713Y-111354819D02*
X89652380Y-111735771D01*
X89652380Y-111735771D02*
X89795237Y-111735771D01*
X89795237Y-111735771D02*
X89890475Y-111783390D01*
X89890475Y-111783390D02*
X89938094Y-111831009D01*
X89938094Y-111831009D02*
X89985713Y-111926247D01*
X89985713Y-111926247D02*
X89985713Y-112164342D01*
X89985713Y-112164342D02*
X89938094Y-112259580D01*
X89938094Y-112259580D02*
X89890475Y-112307200D01*
X89890475Y-112307200D02*
X89795237Y-112354819D01*
X89795237Y-112354819D02*
X89509523Y-112354819D01*
X89509523Y-112354819D02*
X89414285Y-112307200D01*
X89414285Y-112307200D02*
X89366666Y-112259580D01*
X92716664Y-116112319D02*
X92716664Y-116826604D01*
X92716664Y-116826604D02*
X92669045Y-116969461D01*
X92669045Y-116969461D02*
X92573807Y-117064700D01*
X92573807Y-117064700D02*
X92430950Y-117112319D01*
X92430950Y-117112319D02*
X92335712Y-117112319D01*
X93145236Y-116207557D02*
X93192855Y-116159938D01*
X93192855Y-116159938D02*
X93288093Y-116112319D01*
X93288093Y-116112319D02*
X93526188Y-116112319D01*
X93526188Y-116112319D02*
X93621426Y-116159938D01*
X93621426Y-116159938D02*
X93669045Y-116207557D01*
X93669045Y-116207557D02*
X93716664Y-116302795D01*
X93716664Y-116302795D02*
X93716664Y-116398033D01*
X93716664Y-116398033D02*
X93669045Y-116540890D01*
X93669045Y-116540890D02*
X93097617Y-117112319D01*
X93097617Y-117112319D02*
X93716664Y-117112319D01*
D13*
%TO.C,C4*%
X90239999Y-107896267D02*
X90239999Y-107603733D01*
X91259999Y-107896267D02*
X91259999Y-107603733D01*
D14*
%TO.C,IC1*%
X92257772Y-109696300D02*
X100841372Y-109696300D01*
X100741372Y-105803700D02*
X92257772Y-105803700D01*
X91876772Y-106284700D02*
G75*
G02*
X92257772Y-105803700I430899J50080D01*
G01*
X91927572Y-107140400D02*
G75*
G02*
X91927572Y-108410400I0J-635000D01*
G01*
X92257772Y-109696300D02*
G75*
G02*
X91876772Y-109415300I-50001J330999D01*
G01*
X100741372Y-105803700D02*
G75*
G02*
X101122372Y-106184700I100J-380900D01*
G01*
X101122372Y-109315300D02*
G75*
G02*
X100841372Y-109696300I-331000J-50000D01*
G01*
D13*
%TO.C,U2*%
X82640000Y-107520000D02*
X82640000Y-82090000D01*
X82640000Y-107520000D02*
X85180000Y-107520000D01*
X85180000Y-107520000D02*
X85180000Y-114420000D01*
X85180000Y-114420000D02*
X108500000Y-114420000D01*
X106380000Y-79960000D02*
X84770000Y-79960000D01*
X108500000Y-114420000D02*
X108500000Y-82090000D01*
X82640000Y-82090000D02*
G75*
G02*
X84770000Y-79960000I2130002J-2D01*
G01*
X106370000Y-79960000D02*
G75*
G02*
X108500000Y-82090000I0J-2130000D01*
G01*
D12*
X82235000Y-88300000D02*
X81600000Y-88935000D01*
X81600000Y-87665000D01*
X82235000Y-88300000D01*
G36*
X82235000Y-88300000D02*
G01*
X81600000Y-88935000D01*
X81600000Y-87665000D01*
X82235000Y-88300000D01*
G37*
D13*
%TO.C,J1*%
X83225000Y-125600000D02*
X83225000Y-126850000D01*
X83225000Y-126850000D02*
X84475000Y-126850000D01*
X83515000Y-116440000D02*
X83515000Y-126560000D01*
X83515000Y-126560000D02*
X89485000Y-126560000D01*
X83525000Y-116450000D02*
X83525000Y-118250000D01*
X83525000Y-118250000D02*
X84275000Y-118250000D01*
X83525000Y-119750000D02*
X83525000Y-123250000D01*
X83525000Y-123250000D02*
X84275000Y-123250000D01*
X83525000Y-124750000D02*
X83525000Y-126550000D01*
X83525000Y-126550000D02*
X84275000Y-126550000D01*
X84275000Y-116450000D02*
X83525000Y-116450000D01*
X84275000Y-118250000D02*
X84275000Y-116450000D01*
X84275000Y-119750000D02*
X83525000Y-119750000D01*
X84275000Y-123250000D02*
X84275000Y-119750000D01*
X84275000Y-124750000D02*
X83525000Y-124750000D01*
X84275000Y-126550000D02*
X84275000Y-124750000D01*
X85775000Y-116450000D02*
X85775000Y-117200000D01*
X85775000Y-117200000D02*
X88725000Y-117200000D01*
X85775000Y-125800000D02*
X88725000Y-125800000D01*
X85775000Y-126550000D02*
X85775000Y-125800000D01*
X88725000Y-117200000D02*
X88725000Y-121500000D01*
X88725000Y-125800000D02*
X88725000Y-121500000D01*
X89485000Y-116440000D02*
X83515000Y-116440000D01*
X89485000Y-126560000D02*
X89485000Y-116440000D01*
%TO.C,R3*%
X89504723Y-112727500D02*
X88995275Y-112727500D01*
X89504723Y-113772500D02*
X88995275Y-113772500D01*
%TO.C,J2*%
X93949999Y-125907500D02*
X93949999Y-126957500D01*
X94149999Y-117557500D02*
X95049999Y-117557500D01*
X94149999Y-119617500D02*
X94149999Y-117557500D01*
X94149999Y-126757500D02*
X94149999Y-124697500D01*
X94999999Y-126957500D02*
X93949999Y-126957500D01*
X100129999Y-117557500D02*
X108849999Y-117557500D01*
X108849999Y-117557500D02*
X108849999Y-126757500D01*
X108849999Y-126757500D02*
X94149999Y-126757500D01*
%TD*%
M02*
