%TF.GenerationSoftware,KiCad,Pcbnew,8.0.4-1.fc40*%
%TF.CreationDate,2024-08-22T17:25:05+02:00*%
%TF.ProjectId,WLED_Board,574c4544-5f42-46f6-9172-642e6b696361,rev?*%
%TF.SameCoordinates,Original*%
%TF.FileFunction,Copper,L2,Inr*%
%TF.FilePolarity,Positive*%
%FSLAX46Y46*%
G04 Gerber Fmt 4.6, Leading zero omitted, Abs format (unit mm)*
G04 Created by KiCad (PCBNEW 8.0.4-1.fc40) date 2024-08-22 17:25:05*
%MOMM*%
%LPD*%
G01*
G04 APERTURE LIST*
G04 Aperture macros list*
%AMRoundRect*
0 Rectangle with rounded corners*
0 $1 Rounding radius*
0 $2 $3 $4 $5 $6 $7 $8 $9 X,Y pos of 4 corners*
0 Add a 4 corners polygon primitive as box body*
4,1,4,$2,$3,$4,$5,$6,$7,$8,$9,$2,$3,0*
0 Add four circle primitives for the rounded corners*
1,1,$1+$1,$2,$3*
1,1,$1+$1,$4,$5*
1,1,$1+$1,$6,$7*
1,1,$1+$1,$8,$9*
0 Add four rect primitives between the rounded corners*
20,1,$1+$1,$2,$3,$4,$5,0*
20,1,$1+$1,$4,$5,$6,$7,0*
20,1,$1+$1,$6,$7,$8,$9,0*
20,1,$1+$1,$8,$9,$2,$3,0*%
G04 Aperture macros list end*
%TA.AperFunction,ComponentPad*%
%ADD10R,2.000000X2.000000*%
%TD*%
%TA.AperFunction,ComponentPad*%
%ADD11O,2.000000X1.600000*%
%TD*%
%TA.AperFunction,ComponentPad*%
%ADD12RoundRect,0.250000X0.725000X-0.600000X0.725000X0.600000X-0.725000X0.600000X-0.725000X-0.600000X0*%
%TD*%
%TA.AperFunction,ComponentPad*%
%ADD13O,1.950000X1.700000*%
%TD*%
%TA.AperFunction,ComponentPad*%
%ADD14R,3.500000X3.500000*%
%TD*%
%TA.AperFunction,ComponentPad*%
%ADD15RoundRect,0.750000X0.750000X1.000000X-0.750000X1.000000X-0.750000X-1.000000X0.750000X-1.000000X0*%
%TD*%
%TA.AperFunction,ComponentPad*%
%ADD16RoundRect,0.875000X0.875000X0.875000X-0.875000X0.875000X-0.875000X-0.875000X0.875000X-0.875000X0*%
%TD*%
%TA.AperFunction,ViaPad*%
%ADD17C,0.500000*%
%TD*%
%TA.AperFunction,ViaPad*%
%ADD18C,0.600000*%
%TD*%
G04 APERTURE END LIST*
D10*
%TO.N,unconnected-(U2-~{RST}-Pad1)*%
%TO.C,U2*%
X84140000Y-88300000D03*
D11*
%TO.N,unconnected-(U2-A0-Pad2)*%
X84140000Y-90840000D03*
%TO.N,unconnected-(U2-D0-Pad3)*%
X84140000Y-93380000D03*
%TO.N,unconnected-(U2-SCK{slash}D5-Pad4)*%
X84140000Y-95920000D03*
%TO.N,unconnected-(U2-MISO{slash}D6-Pad5)*%
X84140000Y-98460000D03*
%TO.N,unconnected-(U2-MOSI{slash}D7-Pad6)*%
X84140000Y-101000000D03*
%TO.N,D1_Relay*%
X84140000Y-103540000D03*
%TO.N,unconnected-(U2-3V3-Pad8)*%
X84140000Y-106080000D03*
%TO.N,+5V*%
X107000000Y-106080000D03*
%TO.N,GND*%
X107000000Y-103540000D03*
%TO.N,D1_data*%
X107000000Y-101000000D03*
%TO.N,unconnected-(U2-D3-Pad12)*%
X107000000Y-98460000D03*
%TO.N,unconnected-(U2-SDA{slash}D2-Pad13)*%
X107000000Y-95920000D03*
%TO.N,unconnected-(U2-SCL{slash}D1-Pad14)*%
X107000000Y-93380000D03*
%TO.N,unconnected-(U2-RX-Pad15)*%
X107000000Y-90840000D03*
%TO.N,unconnected-(U2-TX-Pad16)*%
X107000000Y-88300000D03*
%TD*%
D12*
%TO.N,12V_switched*%
%TO.C,J1*%
X85975000Y-124000000D03*
D13*
%TO.N,/DATA_OUT*%
X85975000Y-121500000D03*
%TO.N,GND*%
X85975000Y-119000000D03*
%TD*%
D14*
%TO.N,+12V*%
%TO.C,J2*%
X95049999Y-122157500D03*
D15*
%TO.N,GND*%
X101049999Y-122157500D03*
D16*
%TO.N,N/C*%
X98049999Y-117457500D03*
%TD*%
D17*
%TO.N,GND*%
X88299999Y-111600000D03*
X98499999Y-125950000D03*
X82099999Y-113150000D03*
X95599999Y-97950000D03*
X108849999Y-111300000D03*
X108649999Y-126800000D03*
X91499999Y-112250000D03*
X89449999Y-97950000D03*
X102249999Y-112000000D03*
X94549999Y-127800000D03*
X108849999Y-112950000D03*
X86499999Y-105250000D03*
X108899999Y-114750000D03*
X104499999Y-114500000D03*
X102049999Y-118850000D03*
X91049999Y-97950000D03*
X82149999Y-118750000D03*
X89999999Y-101000000D03*
X88249999Y-117950000D03*
X84799999Y-127800000D03*
X101049999Y-127900000D03*
X106649999Y-126350000D03*
X82099999Y-102700000D03*
X104649999Y-121850000D03*
D18*
X92199999Y-108900000D03*
D17*
X108849999Y-124300000D03*
X94199999Y-97950000D03*
X98249999Y-97950000D03*
X102399999Y-127900000D03*
X82099999Y-109900000D03*
X82249999Y-125250000D03*
X87049999Y-116850000D03*
X108899999Y-103350000D03*
X106599999Y-117950000D03*
X92799999Y-97950000D03*
X104499999Y-126350000D03*
X102099999Y-97950000D03*
X82099999Y-111450000D03*
X108849999Y-107550000D03*
X94999999Y-126000000D03*
X106599999Y-120950000D03*
X88649999Y-121150000D03*
X87799999Y-127800000D03*
X107649999Y-127750000D03*
X108849999Y-120550000D03*
X90649999Y-127800000D03*
X82099999Y-114850000D03*
X103699999Y-127900000D03*
X101749999Y-99000000D03*
X98399999Y-127850000D03*
X95499999Y-113750000D03*
X108849999Y-116400000D03*
X108899999Y-97850000D03*
X87999999Y-102250000D03*
X82399999Y-126850000D03*
X86099999Y-107800000D03*
X106599999Y-109400000D03*
X101499999Y-125750000D03*
X105049999Y-127950000D03*
X82149999Y-101050000D03*
X82149999Y-98100000D03*
X87849999Y-97950000D03*
X89349999Y-127800000D03*
X101899999Y-115050000D03*
X108849999Y-123050000D03*
X100399999Y-107500000D03*
X108849999Y-117700000D03*
X84049999Y-111800000D03*
X85299999Y-110250000D03*
X106599999Y-115050000D03*
X108849999Y-125550000D03*
X82149999Y-104500000D03*
X86299999Y-127800000D03*
X82099999Y-106450000D03*
X84099999Y-108750000D03*
X87999999Y-100000000D03*
X91249999Y-102250000D03*
X99699999Y-127900000D03*
X108899999Y-101700000D03*
X82149999Y-99600000D03*
X91399999Y-125900000D03*
X103249999Y-97950000D03*
X104449999Y-118250000D03*
X108849999Y-109350000D03*
X97999999Y-106600000D03*
X88849999Y-123700000D03*
X83349999Y-127750000D03*
X99549999Y-97950000D03*
X108849999Y-121850000D03*
X92499999Y-100000000D03*
X108849999Y-100100000D03*
X106449999Y-127950000D03*
X86599999Y-97900000D03*
X82099999Y-108200000D03*
X96699999Y-109500000D03*
X86899999Y-110600000D03*
X108899999Y-105550000D03*
X88899999Y-125850000D03*
X91899999Y-127800000D03*
X93249999Y-127800000D03*
X82099999Y-120700000D03*
X98299999Y-122100000D03*
X95849999Y-127800000D03*
D18*
X88750000Y-105800000D03*
D17*
X82149999Y-117050000D03*
X108849999Y-119200000D03*
X104549999Y-119950000D03*
X93249999Y-107000000D03*
X104549999Y-124050000D03*
X99199999Y-109500000D03*
X101999999Y-116900000D03*
X97149999Y-127800000D03*
X82099999Y-122800000D03*
X104399999Y-97950000D03*
X96999999Y-97950000D03*
X106549999Y-112200000D03*
D18*
X100299999Y-112800000D03*
D17*
X97999999Y-108400000D03*
X106699999Y-123750000D03*
X94499999Y-106250000D03*
X100849999Y-97950000D03*
X104499999Y-115500000D03*
X90999999Y-110250000D03*
X89499999Y-104000000D03*
%TO.N,+5V*%
X96499999Y-112800000D03*
X101749999Y-100000000D03*
%TD*%
%TA.AperFunction,Conductor*%
%TO.N,GND*%
G36*
X83078988Y-97269685D02*
G01*
X83124743Y-97322489D01*
X83134687Y-97391647D01*
X83105662Y-97455203D01*
X83096218Y-97464581D01*
X83096226Y-97464589D01*
X82948032Y-97612782D01*
X82948028Y-97612786D01*
X82827715Y-97778386D01*
X82734781Y-97960776D01*
X82671522Y-98155465D01*
X82639500Y-98357648D01*
X82639500Y-98562351D01*
X82671522Y-98764534D01*
X82734781Y-98959223D01*
X82827715Y-99141613D01*
X82948028Y-99307213D01*
X83092786Y-99451971D01*
X83198960Y-99529109D01*
X83258390Y-99572287D01*
X83349840Y-99618883D01*
X83351080Y-99619515D01*
X83401876Y-99667490D01*
X83418671Y-99735311D01*
X83396134Y-99801446D01*
X83351080Y-99840485D01*
X83258386Y-99887715D01*
X83092786Y-100008028D01*
X82948028Y-100152786D01*
X82827715Y-100318386D01*
X82734781Y-100500776D01*
X82671522Y-100695465D01*
X82639500Y-100897648D01*
X82639500Y-101102351D01*
X82671522Y-101304534D01*
X82734781Y-101499223D01*
X82827715Y-101681613D01*
X82948028Y-101847213D01*
X83092786Y-101991971D01*
X83247749Y-102104556D01*
X83258390Y-102112287D01*
X83349840Y-102158883D01*
X83351080Y-102159515D01*
X83401876Y-102207490D01*
X83418671Y-102275311D01*
X83396134Y-102341446D01*
X83351080Y-102380485D01*
X83258386Y-102427715D01*
X83092786Y-102548028D01*
X82948028Y-102692786D01*
X82827715Y-102858386D01*
X82734781Y-103040776D01*
X82671522Y-103235465D01*
X82639500Y-103437648D01*
X82639500Y-103642351D01*
X82671522Y-103844534D01*
X82734781Y-104039223D01*
X82827715Y-104221613D01*
X82948028Y-104387213D01*
X83092786Y-104531971D01*
X83247749Y-104644556D01*
X83258390Y-104652287D01*
X83349840Y-104698883D01*
X83351080Y-104699515D01*
X83401876Y-104747490D01*
X83418671Y-104815311D01*
X83396134Y-104881446D01*
X83351080Y-104920485D01*
X83258386Y-104967715D01*
X83092786Y-105088028D01*
X82948028Y-105232786D01*
X82827715Y-105398386D01*
X82734781Y-105580776D01*
X82671522Y-105775465D01*
X82639500Y-105977648D01*
X82639500Y-106182351D01*
X82671522Y-106384534D01*
X82734781Y-106579223D01*
X82827715Y-106761613D01*
X82948028Y-106927213D01*
X83092786Y-107071971D01*
X83247749Y-107184556D01*
X83258390Y-107192287D01*
X83374607Y-107251503D01*
X83440776Y-107285218D01*
X83440778Y-107285218D01*
X83440781Y-107285220D01*
X83545137Y-107319127D01*
X83635465Y-107348477D01*
X83736557Y-107364488D01*
X83837648Y-107380500D01*
X83837649Y-107380500D01*
X84442351Y-107380500D01*
X84442352Y-107380500D01*
X84644534Y-107348477D01*
X84839219Y-107285220D01*
X85021610Y-107192287D01*
X85114590Y-107124732D01*
X85187213Y-107071971D01*
X85187215Y-107071968D01*
X85187219Y-107071966D01*
X85331966Y-106927219D01*
X85331968Y-106927215D01*
X85331971Y-106927213D01*
X85384732Y-106854590D01*
X85452287Y-106761610D01*
X85545220Y-106579219D01*
X85608477Y-106384534D01*
X85640500Y-106182352D01*
X85640500Y-105977648D01*
X85608477Y-105775466D01*
X85545220Y-105580781D01*
X85545218Y-105580778D01*
X85545218Y-105580776D01*
X85511503Y-105514607D01*
X85452287Y-105398390D01*
X85444556Y-105387749D01*
X85331971Y-105232786D01*
X85187213Y-105088028D01*
X85021614Y-104967715D01*
X85015006Y-104964348D01*
X84928917Y-104920483D01*
X84878123Y-104872511D01*
X84861328Y-104804690D01*
X84883865Y-104738555D01*
X84928917Y-104699516D01*
X85021610Y-104652287D01*
X85042770Y-104636913D01*
X85187213Y-104531971D01*
X85187215Y-104531968D01*
X85187219Y-104531966D01*
X85331966Y-104387219D01*
X85331968Y-104387215D01*
X85331971Y-104387213D01*
X85384732Y-104314590D01*
X85452287Y-104221610D01*
X85545220Y-104039219D01*
X85608477Y-103844534D01*
X85640500Y-103642352D01*
X85640500Y-103437648D01*
X85626144Y-103347007D01*
X85608477Y-103235465D01*
X85545218Y-103040776D01*
X85452419Y-102858650D01*
X85452287Y-102858390D01*
X85444556Y-102847749D01*
X85331971Y-102692786D01*
X85187213Y-102548028D01*
X85021614Y-102427715D01*
X85015006Y-102424348D01*
X84928917Y-102380483D01*
X84878123Y-102332511D01*
X84861328Y-102264690D01*
X84883865Y-102198555D01*
X84928917Y-102159516D01*
X85021610Y-102112287D01*
X85042770Y-102096913D01*
X85187213Y-101991971D01*
X85187215Y-101991968D01*
X85187219Y-101991966D01*
X85331966Y-101847219D01*
X85331968Y-101847215D01*
X85331971Y-101847213D01*
X85384732Y-101774590D01*
X85452287Y-101681610D01*
X85545220Y-101499219D01*
X85608477Y-101304534D01*
X85640500Y-101102352D01*
X85640500Y-100897648D01*
X85608477Y-100695466D01*
X85603599Y-100680454D01*
X85545218Y-100500776D01*
X85511503Y-100434607D01*
X85452287Y-100318390D01*
X85444556Y-100307749D01*
X85331971Y-100152786D01*
X85187213Y-100008028D01*
X85176159Y-99999997D01*
X100994750Y-99999997D01*
X100994750Y-100000002D01*
X101013684Y-100168056D01*
X101069544Y-100327694D01*
X101069546Y-100327697D01*
X101159517Y-100470884D01*
X101159522Y-100470890D01*
X101279108Y-100590476D01*
X101279114Y-100590481D01*
X101422301Y-100680452D01*
X101422304Y-100680454D01*
X101422308Y-100680455D01*
X101422309Y-100680456D01*
X101494912Y-100705860D01*
X101581942Y-100736314D01*
X101749996Y-100755249D01*
X101749999Y-100755249D01*
X101750002Y-100755249D01*
X101918055Y-100736314D01*
X101918058Y-100736313D01*
X102077689Y-100680456D01*
X102077691Y-100680454D01*
X102077693Y-100680454D01*
X102077696Y-100680452D01*
X102220883Y-100590481D01*
X102220884Y-100590480D01*
X102220889Y-100590477D01*
X102340476Y-100470890D01*
X102430451Y-100327697D01*
X102430453Y-100327694D01*
X102430453Y-100327692D01*
X102430455Y-100327690D01*
X102486312Y-100168059D01*
X102486312Y-100168058D01*
X102486313Y-100168056D01*
X102505248Y-100000002D01*
X102505248Y-99999997D01*
X102486313Y-99831943D01*
X102430453Y-99672305D01*
X102430451Y-99672302D01*
X102340480Y-99529115D01*
X102340475Y-99529109D01*
X102220889Y-99409523D01*
X102220883Y-99409518D01*
X102077696Y-99319547D01*
X102077693Y-99319545D01*
X101918055Y-99263685D01*
X101750002Y-99244751D01*
X101749996Y-99244751D01*
X101581942Y-99263685D01*
X101422304Y-99319545D01*
X101422301Y-99319547D01*
X101279114Y-99409518D01*
X101279108Y-99409523D01*
X101159522Y-99529109D01*
X101159517Y-99529115D01*
X101069546Y-99672302D01*
X101069544Y-99672305D01*
X101013684Y-99831943D01*
X100994750Y-99999997D01*
X85176159Y-99999997D01*
X85021614Y-99887715D01*
X85015006Y-99884348D01*
X84928917Y-99840483D01*
X84878123Y-99792511D01*
X84861328Y-99724690D01*
X84883865Y-99658555D01*
X84928917Y-99619516D01*
X85021610Y-99572287D01*
X85081040Y-99529109D01*
X85187213Y-99451971D01*
X85187215Y-99451968D01*
X85187219Y-99451966D01*
X85331966Y-99307219D01*
X85331968Y-99307215D01*
X85331971Y-99307213D01*
X85384732Y-99234590D01*
X85452287Y-99141610D01*
X85545220Y-98959219D01*
X85608477Y-98764534D01*
X85640500Y-98562352D01*
X85640500Y-98357648D01*
X85608477Y-98155466D01*
X85545220Y-97960781D01*
X85545218Y-97960778D01*
X85545218Y-97960776D01*
X85511503Y-97894607D01*
X85452287Y-97778390D01*
X85444556Y-97767749D01*
X85331971Y-97612786D01*
X85183774Y-97464589D01*
X85184575Y-97463787D01*
X85149322Y-97409769D01*
X85148832Y-97339901D01*
X85186192Y-97280859D01*
X85249543Y-97251389D01*
X85268051Y-97250000D01*
X105871949Y-97250000D01*
X105938988Y-97269685D01*
X105984743Y-97322489D01*
X105994687Y-97391647D01*
X105965662Y-97455203D01*
X105956218Y-97464581D01*
X105956226Y-97464589D01*
X105808032Y-97612782D01*
X105808028Y-97612786D01*
X105687715Y-97778386D01*
X105594781Y-97960776D01*
X105531522Y-98155465D01*
X105499500Y-98357648D01*
X105499500Y-98562351D01*
X105531522Y-98764534D01*
X105594781Y-98959223D01*
X105687715Y-99141613D01*
X105808028Y-99307213D01*
X105952786Y-99451971D01*
X106058960Y-99529109D01*
X106118390Y-99572287D01*
X106209840Y-99618883D01*
X106211080Y-99619515D01*
X106261876Y-99667490D01*
X106278671Y-99735311D01*
X106256134Y-99801446D01*
X106211080Y-99840485D01*
X106118386Y-99887715D01*
X105952786Y-100008028D01*
X105808028Y-100152786D01*
X105687715Y-100318386D01*
X105594781Y-100500776D01*
X105531522Y-100695465D01*
X105499500Y-100897648D01*
X105499500Y-101102351D01*
X105531522Y-101304534D01*
X105594781Y-101499223D01*
X105687715Y-101681613D01*
X105808028Y-101847213D01*
X105952786Y-101991971D01*
X106107749Y-102104556D01*
X106118390Y-102112287D01*
X106190424Y-102148990D01*
X106211629Y-102159795D01*
X106262425Y-102207770D01*
X106279220Y-102275591D01*
X106256682Y-102341726D01*
X106211629Y-102380765D01*
X106118650Y-102428140D01*
X105953105Y-102548417D01*
X105953104Y-102548417D01*
X105808417Y-102693104D01*
X105808417Y-102693105D01*
X105688140Y-102858650D01*
X105595244Y-103040970D01*
X105532009Y-103235586D01*
X105523391Y-103290000D01*
X106566988Y-103290000D01*
X106534075Y-103347007D01*
X106500000Y-103474174D01*
X106500000Y-103605826D01*
X106534075Y-103732993D01*
X106566988Y-103790000D01*
X105523391Y-103790000D01*
X105532009Y-103844413D01*
X105595244Y-104039029D01*
X105688140Y-104221349D01*
X105808417Y-104386894D01*
X105808417Y-104386895D01*
X105953104Y-104531582D01*
X106118652Y-104651861D01*
X106211628Y-104699234D01*
X106262425Y-104747208D01*
X106279220Y-104815029D01*
X106256683Y-104881164D01*
X106211630Y-104920203D01*
X106118388Y-104967713D01*
X105952786Y-105088028D01*
X105808028Y-105232786D01*
X105687715Y-105398386D01*
X105594781Y-105580776D01*
X105531522Y-105775465D01*
X105499500Y-105977648D01*
X105499500Y-106182351D01*
X105531522Y-106384534D01*
X105594781Y-106579223D01*
X105687715Y-106761613D01*
X105808028Y-106927213D01*
X105952786Y-107071971D01*
X106107749Y-107184556D01*
X106118390Y-107192287D01*
X106234607Y-107251503D01*
X106300776Y-107285218D01*
X106300778Y-107285218D01*
X106300781Y-107285220D01*
X106405137Y-107319127D01*
X106495465Y-107348477D01*
X106596557Y-107364488D01*
X106697648Y-107380500D01*
X106697649Y-107380500D01*
X107302351Y-107380500D01*
X107302352Y-107380500D01*
X107504534Y-107348477D01*
X107699219Y-107285220D01*
X107881610Y-107192287D01*
X107974590Y-107124732D01*
X108047213Y-107071971D01*
X108047215Y-107071968D01*
X108047219Y-107071966D01*
X108191966Y-106927219D01*
X108191968Y-106927215D01*
X108191971Y-106927213D01*
X108244732Y-106854590D01*
X108312287Y-106761610D01*
X108405220Y-106579219D01*
X108468477Y-106384534D01*
X108500500Y-106182352D01*
X108500500Y-105977648D01*
X108468477Y-105775466D01*
X108405220Y-105580781D01*
X108405218Y-105580778D01*
X108405218Y-105580776D01*
X108371503Y-105514607D01*
X108312287Y-105398390D01*
X108304556Y-105387749D01*
X108191971Y-105232786D01*
X108047213Y-105088028D01*
X107881611Y-104967713D01*
X107788369Y-104920203D01*
X107737574Y-104872229D01*
X107720779Y-104804407D01*
X107743317Y-104738273D01*
X107788371Y-104699234D01*
X107881347Y-104651861D01*
X108046894Y-104531582D01*
X108046895Y-104531582D01*
X108191582Y-104386895D01*
X108191582Y-104386894D01*
X108311859Y-104221349D01*
X108404755Y-104039029D01*
X108467990Y-103844413D01*
X108476609Y-103790000D01*
X107433012Y-103790000D01*
X107465925Y-103732993D01*
X107500000Y-103605826D01*
X107500000Y-103474174D01*
X107465925Y-103347007D01*
X107433012Y-103290000D01*
X108476609Y-103290000D01*
X108467990Y-103235586D01*
X108404755Y-103040970D01*
X108311859Y-102858650D01*
X108191582Y-102693105D01*
X108191582Y-102693104D01*
X108046895Y-102548417D01*
X107881349Y-102428140D01*
X107788370Y-102380765D01*
X107737574Y-102332790D01*
X107720779Y-102264969D01*
X107743316Y-102198835D01*
X107788370Y-102159795D01*
X107788920Y-102159515D01*
X107881610Y-102112287D01*
X107902770Y-102096913D01*
X108047213Y-101991971D01*
X108047215Y-101991968D01*
X108047219Y-101991966D01*
X108191966Y-101847219D01*
X108191968Y-101847215D01*
X108191971Y-101847213D01*
X108244732Y-101774590D01*
X108312287Y-101681610D01*
X108405220Y-101499219D01*
X108468477Y-101304534D01*
X108500500Y-101102352D01*
X108500500Y-100897648D01*
X108468477Y-100695466D01*
X108463599Y-100680454D01*
X108405218Y-100500776D01*
X108371503Y-100434607D01*
X108312287Y-100318390D01*
X108304556Y-100307749D01*
X108191971Y-100152786D01*
X108047213Y-100008028D01*
X107881614Y-99887715D01*
X107875006Y-99884348D01*
X107788917Y-99840483D01*
X107738123Y-99792511D01*
X107721328Y-99724690D01*
X107743865Y-99658555D01*
X107788917Y-99619516D01*
X107881610Y-99572287D01*
X107941040Y-99529109D01*
X108047213Y-99451971D01*
X108047215Y-99451968D01*
X108047219Y-99451966D01*
X108191966Y-99307219D01*
X108191968Y-99307215D01*
X108191971Y-99307213D01*
X108244732Y-99234590D01*
X108312287Y-99141610D01*
X108405220Y-98959219D01*
X108468477Y-98764534D01*
X108500500Y-98562352D01*
X108500500Y-98357648D01*
X108468477Y-98155466D01*
X108405220Y-97960781D01*
X108405218Y-97960778D01*
X108405218Y-97960776D01*
X108371503Y-97894607D01*
X108312287Y-97778390D01*
X108304556Y-97767749D01*
X108191971Y-97612786D01*
X108043774Y-97464589D01*
X108044575Y-97463787D01*
X108009322Y-97409769D01*
X108008832Y-97339901D01*
X108046192Y-97280859D01*
X108109543Y-97251389D01*
X108128051Y-97250000D01*
X109075500Y-97250000D01*
X109142539Y-97269685D01*
X109188294Y-97322489D01*
X109199500Y-97374000D01*
X109199500Y-126495572D01*
X109199184Y-126504418D01*
X109182834Y-126733017D01*
X109180316Y-126750529D01*
X109132543Y-126970137D01*
X109127559Y-126987112D01*
X109049019Y-127197688D01*
X109041669Y-127213782D01*
X108933959Y-127411036D01*
X108924394Y-127425919D01*
X108789710Y-127605836D01*
X108778124Y-127619207D01*
X108619207Y-127778124D01*
X108605836Y-127789710D01*
X108425919Y-127924394D01*
X108411036Y-127933959D01*
X108213782Y-128041669D01*
X108197688Y-128049019D01*
X107987112Y-128127559D01*
X107970137Y-128132543D01*
X107750529Y-128180316D01*
X107733017Y-128182834D01*
X107504418Y-128199184D01*
X107495572Y-128199500D01*
X83504428Y-128199500D01*
X83495582Y-128199184D01*
X83266982Y-128182834D01*
X83249470Y-128180316D01*
X83029862Y-128132543D01*
X83012887Y-128127559D01*
X82802311Y-128049019D01*
X82786217Y-128041669D01*
X82588963Y-127933959D01*
X82574080Y-127924394D01*
X82394163Y-127789710D01*
X82380792Y-127778124D01*
X82221875Y-127619207D01*
X82210289Y-127605836D01*
X82075605Y-127425919D01*
X82066040Y-127411036D01*
X81958330Y-127213782D01*
X81950983Y-127197694D01*
X81872437Y-126987103D01*
X81867458Y-126970144D01*
X81819683Y-126750529D01*
X81817165Y-126733017D01*
X81800816Y-126504418D01*
X81800500Y-126495572D01*
X81800500Y-121393713D01*
X84499500Y-121393713D01*
X84499500Y-121606286D01*
X84532753Y-121816239D01*
X84598444Y-122018414D01*
X84694951Y-122207820D01*
X84819890Y-122379786D01*
X84958705Y-122518601D01*
X84992190Y-122579924D01*
X84987206Y-122649616D01*
X84945334Y-122705549D01*
X84936121Y-122711821D01*
X84781342Y-122807289D01*
X84657289Y-122931342D01*
X84565187Y-123080663D01*
X84565186Y-123080666D01*
X84510001Y-123247203D01*
X84510001Y-123247204D01*
X84510000Y-123247204D01*
X84499500Y-123349983D01*
X84499500Y-124650001D01*
X84499501Y-124650018D01*
X84510000Y-124752796D01*
X84510001Y-124752799D01*
X84565185Y-124919331D01*
X84565186Y-124919334D01*
X84657288Y-125068656D01*
X84781344Y-125192712D01*
X84930666Y-125284814D01*
X85097203Y-125339999D01*
X85199991Y-125350500D01*
X86750008Y-125350499D01*
X86852797Y-125339999D01*
X87019334Y-125284814D01*
X87168656Y-125192712D01*
X87292712Y-125068656D01*
X87384814Y-124919334D01*
X87439999Y-124752797D01*
X87450500Y-124650009D01*
X87450499Y-123349992D01*
X87439999Y-123247203D01*
X87384814Y-123080666D01*
X87292712Y-122931344D01*
X87168656Y-122807288D01*
X87019334Y-122715186D01*
X87019333Y-122715185D01*
X87013878Y-122711821D01*
X86967154Y-122659873D01*
X86955931Y-122590910D01*
X86983775Y-122526828D01*
X86991272Y-122518623D01*
X87130104Y-122379792D01*
X87255051Y-122207816D01*
X87351557Y-122018412D01*
X87417246Y-121816243D01*
X87450500Y-121606287D01*
X87450500Y-121393713D01*
X87417246Y-121183757D01*
X87351557Y-120981588D01*
X87255051Y-120792184D01*
X87255049Y-120792181D01*
X87255048Y-120792179D01*
X87130109Y-120620213D01*
X86979786Y-120469890D01*
X86828031Y-120359635D01*
X92799499Y-120359635D01*
X92799499Y-123955370D01*
X92799500Y-123955376D01*
X92805907Y-124014983D01*
X92856201Y-124149828D01*
X92856205Y-124149835D01*
X92942451Y-124265044D01*
X92942454Y-124265047D01*
X93057663Y-124351293D01*
X93057670Y-124351297D01*
X93192516Y-124401591D01*
X93192515Y-124401591D01*
X93199443Y-124402335D01*
X93252126Y-124408000D01*
X96847871Y-124407999D01*
X96907482Y-124401591D01*
X97042330Y-124351296D01*
X97157545Y-124265046D01*
X97243795Y-124149831D01*
X97294090Y-124014983D01*
X97300499Y-123955373D01*
X97300498Y-120359628D01*
X97294090Y-120300017D01*
X97250353Y-120182753D01*
X97243796Y-120165171D01*
X97243792Y-120165164D01*
X97157546Y-120049955D01*
X97157543Y-120049952D01*
X97042334Y-119963706D01*
X97042327Y-119963702D01*
X96995060Y-119946073D01*
X96939126Y-119904202D01*
X96914709Y-119838738D01*
X96929561Y-119770465D01*
X96978966Y-119721059D01*
X97044971Y-119706066D01*
X97058052Y-119706761D01*
X97081348Y-119707999D01*
X97081368Y-119707999D01*
X97081377Y-119708000D01*
X97081385Y-119708000D01*
X99018613Y-119708000D01*
X99018621Y-119708000D01*
X99071240Y-119705205D01*
X99301125Y-119660745D01*
X99520189Y-119578074D01*
X99722131Y-119459570D01*
X99901141Y-119308642D01*
X100052069Y-119129632D01*
X100170573Y-118927690D01*
X100253244Y-118708626D01*
X100297704Y-118478741D01*
X100300499Y-118426122D01*
X100300499Y-116488878D01*
X100297704Y-116436259D01*
X100253244Y-116206374D01*
X100170573Y-115987310D01*
X100052069Y-115785368D01*
X100052064Y-115785361D01*
X99901142Y-115606358D01*
X99901140Y-115606356D01*
X99722137Y-115455434D01*
X99722130Y-115455429D01*
X99520188Y-115336925D01*
X99429831Y-115302826D01*
X99301125Y-115254255D01*
X99301120Y-115254254D01*
X99071242Y-115209795D01*
X99018651Y-115207001D01*
X99018628Y-115207000D01*
X99018621Y-115207000D01*
X97081377Y-115207000D01*
X97081369Y-115207000D01*
X97081346Y-115207001D01*
X97028755Y-115209795D01*
X97028754Y-115209795D01*
X96798877Y-115254254D01*
X96798875Y-115254254D01*
X96798873Y-115254255D01*
X96724932Y-115282159D01*
X96579809Y-115336925D01*
X96377867Y-115455429D01*
X96377860Y-115455434D01*
X96198857Y-115606356D01*
X96198855Y-115606358D01*
X96047933Y-115785361D01*
X96047928Y-115785368D01*
X95929424Y-115987310D01*
X95874658Y-116132433D01*
X95846754Y-116206374D01*
X95846753Y-116206376D01*
X95846753Y-116206378D01*
X95802294Y-116436255D01*
X95802294Y-116436256D01*
X95799500Y-116488847D01*
X95799499Y-116488886D01*
X95799499Y-118426113D01*
X95799500Y-118426152D01*
X95802294Y-118478743D01*
X95802294Y-118478744D01*
X95846753Y-118708621D01*
X95846754Y-118708626D01*
X95895325Y-118837332D01*
X95929424Y-118927689D01*
X96047928Y-119129631D01*
X96047933Y-119129638D01*
X96198855Y-119308641D01*
X96198857Y-119308643D01*
X96377860Y-119459565D01*
X96377867Y-119459570D01*
X96579809Y-119578074D01*
X96798873Y-119660745D01*
X96801516Y-119661256D01*
X96802536Y-119661782D01*
X96803949Y-119662183D01*
X96803867Y-119662470D01*
X96863597Y-119693314D01*
X96898492Y-119753846D01*
X96895121Y-119823634D01*
X96854555Y-119880521D01*
X96789673Y-119906446D01*
X96777968Y-119907000D01*
X93252128Y-119907000D01*
X93252122Y-119907001D01*
X93192515Y-119913408D01*
X93057670Y-119963702D01*
X93057663Y-119963706D01*
X92942454Y-120049952D01*
X92942451Y-120049955D01*
X92856205Y-120165164D01*
X92856201Y-120165171D01*
X92805907Y-120300017D01*
X92801077Y-120344949D01*
X92799500Y-120359623D01*
X92799499Y-120359635D01*
X86828031Y-120359635D01*
X86807820Y-120344951D01*
X86618414Y-120248444D01*
X86618413Y-120248443D01*
X86618412Y-120248443D01*
X86416243Y-120182754D01*
X86416241Y-120182753D01*
X86416240Y-120182753D01*
X86254957Y-120157208D01*
X86206287Y-120149500D01*
X85743713Y-120149500D01*
X85695042Y-120157208D01*
X85533760Y-120182753D01*
X85331585Y-120248444D01*
X85142179Y-120344951D01*
X84970213Y-120469890D01*
X84819890Y-120620213D01*
X84694951Y-120792179D01*
X84598444Y-120981585D01*
X84532753Y-121183760D01*
X84499500Y-121393713D01*
X81800500Y-121393713D01*
X81800500Y-112799997D01*
X95744750Y-112799997D01*
X95744750Y-112800002D01*
X95763684Y-112968056D01*
X95819544Y-113127694D01*
X95819546Y-113127697D01*
X95909517Y-113270884D01*
X95909522Y-113270890D01*
X96029108Y-113390476D01*
X96029114Y-113390481D01*
X96172301Y-113480452D01*
X96172304Y-113480454D01*
X96172308Y-113480455D01*
X96172309Y-113480456D01*
X96244912Y-113505860D01*
X96331942Y-113536314D01*
X96499996Y-113555249D01*
X96499999Y-113555249D01*
X96500002Y-113555249D01*
X96668055Y-113536314D01*
X96668058Y-113536313D01*
X96827689Y-113480456D01*
X96827691Y-113480454D01*
X96827693Y-113480454D01*
X96827696Y-113480452D01*
X96970883Y-113390481D01*
X96970884Y-113390480D01*
X96970889Y-113390477D01*
X97090476Y-113270890D01*
X97180451Y-113127697D01*
X97180453Y-113127694D01*
X97180453Y-113127692D01*
X97180455Y-113127690D01*
X97236312Y-112968059D01*
X97236312Y-112968058D01*
X97236313Y-112968056D01*
X97255248Y-112800002D01*
X97255248Y-112799997D01*
X97236313Y-112631943D01*
X97180453Y-112472305D01*
X97180451Y-112472302D01*
X97090480Y-112329115D01*
X97090475Y-112329109D01*
X96970889Y-112209523D01*
X96970883Y-112209518D01*
X96827696Y-112119547D01*
X96827693Y-112119545D01*
X96668055Y-112063685D01*
X96500002Y-112044751D01*
X96499996Y-112044751D01*
X96331942Y-112063685D01*
X96172304Y-112119545D01*
X96172301Y-112119547D01*
X96029114Y-112209518D01*
X96029108Y-112209523D01*
X95909522Y-112329109D01*
X95909517Y-112329115D01*
X95819546Y-112472302D01*
X95819544Y-112472305D01*
X95763684Y-112631943D01*
X95744750Y-112799997D01*
X81800500Y-112799997D01*
X81800500Y-97374000D01*
X81820185Y-97306961D01*
X81872989Y-97261206D01*
X81924500Y-97250000D01*
X83011949Y-97250000D01*
X83078988Y-97269685D01*
G37*
%TD.AperFunction*%
%TD*%
M02*
