M48
; DRILL file {KiCad 7.0.11-2.fc38} date Fri 05 Apr 2024 10:11:25 CEST
; FORMAT={-:-/ absolute / metric / decimal}
; #@! TF.CreationDate,2024-04-05T10:11:25+02:00
; #@! TF.GenerationSoftware,Kicad,Pcbnew,7.0.11-2.fc38
; #@! TF.FileFunction,Plated,1,4,PTH
FMAT,2
METRIC
; #@! TA.AperFunction,Plated,PTH,ViaDrill
T1C0.300
; #@! TA.AperFunction,Plated,PTH,ComponentDrill
T2C0.950
; #@! TA.AperFunction,Plated,PTH,ComponentDrill
T3C1.000
%
G90
G05
T1
X82.1Y-102.7
X82.1Y-106.45
X82.1Y-108.2
X82.1Y-109.9
X82.1Y-111.45
X82.1Y-113.15
X82.1Y-114.85
X82.1Y-120.7
X82.1Y-122.8
X82.15Y-98.1
X82.15Y-99.6
X82.15Y-101.05
X82.15Y-104.5
X82.15Y-117.05
X82.15Y-118.75
X82.25Y-125.25
X82.4Y-126.85
X83.35Y-127.75
X84.05Y-111.8
X84.1Y-108.75
X84.8Y-127.8
X85.3Y-110.25
X86.3Y-127.8
X86.5Y-105.25
X86.5Y-107.75
X86.6Y-97.9
X86.8Y-112.0
X87.05Y-116.85
X87.25Y-109.75
X87.8Y-127.8
X87.85Y-97.95
X88.0Y-100.0
X88.0Y-102.25
X88.25Y-117.95
X88.65Y-121.15
X88.75Y-105.8
X88.85Y-123.7
X88.9Y-125.85
X89.35Y-127.8
X89.45Y-97.95
X89.5Y-104.0
X90.0Y-101.0
X90.65Y-127.8
X91.0Y-110.25
X91.05Y-97.95
X91.25Y-102.25
X91.4Y-125.9
X91.5Y-112.25
X91.9Y-127.8
X92.2Y-108.9
X92.5Y-100.0
X92.8Y-97.95
X93.25Y-107.0
X93.25Y-127.8
X94.2Y-97.95
X94.5Y-106.25
X94.55Y-127.8
X95.0Y-126.0
X95.5Y-113.75
X95.6Y-97.95
X95.85Y-127.8
X96.5Y-112.8
X96.7Y-109.5
X97.0Y-97.95
X97.15Y-127.8
X98.0Y-106.6
X98.0Y-108.4
X98.25Y-97.95
X98.3Y-122.1
X98.4Y-127.85
X98.5Y-125.95
X99.2Y-109.5
X99.55Y-97.95
X99.7Y-127.9
X100.3Y-112.8
X100.4Y-107.5
X100.85Y-97.95
X101.05Y-127.9
X101.5Y-125.75
X101.75Y-99.0
X101.75Y-100.0
X101.9Y-115.05
X102.0Y-116.9
X102.05Y-118.85
X102.1Y-97.95
X102.25Y-112.0
X102.4Y-127.9
X103.25Y-97.95
X103.7Y-127.9
X104.4Y-97.95
X104.45Y-118.25
X104.5Y-114.5
X104.5Y-115.5
X104.5Y-126.35
X104.55Y-119.95
X104.55Y-124.05
X104.65Y-121.85
X105.05Y-127.95
X106.45Y-127.95
X106.55Y-112.2
X106.6Y-109.4
X106.6Y-115.05
X106.6Y-117.95
X106.6Y-120.95
X106.65Y-126.35
X106.7Y-123.75
X107.65Y-127.75
X108.65Y-126.8
X108.85Y-100.1
X108.85Y-107.55
X108.85Y-109.35
X108.85Y-111.3
X108.85Y-112.95
X108.85Y-116.4
X108.85Y-117.7
X108.85Y-119.2
X108.85Y-120.55
X108.85Y-121.85
X108.85Y-123.05
X108.85Y-124.3
X108.85Y-125.55
X108.9Y-97.85
X108.9Y-101.7
X108.9Y-103.35
X108.9Y-105.55
X108.9Y-114.75
T2
X85.975Y-119.0
X85.975Y-121.5
X85.975Y-124.0
T3
X84.14Y-88.3
X84.14Y-90.84
X84.14Y-93.38
X84.14Y-95.92
X84.14Y-98.46
X84.14Y-101.0
X84.14Y-103.54
X84.14Y-106.08
X107.0Y-88.3
X107.0Y-90.84
X107.0Y-93.38
X107.0Y-95.92
X107.0Y-98.46
X107.0Y-101.0
X107.0Y-103.54
X107.0Y-106.08
T3
X95.05Y-123.157G85X95.05Y-121.157
G05
X99.05Y-117.457G85X97.05Y-117.457
G05
X101.05Y-123.157G85X101.05Y-121.157
G05
M30
