%TF.GenerationSoftware,KiCad,Pcbnew,7.0.11-2.fc38*%
%TF.CreationDate,2024-04-05T10:11:14+02:00*%
%TF.ProjectId,WLED_Board,574c4544-5f42-46f6-9172-642e6b696361,rev?*%
%TF.SameCoordinates,Original*%
%TF.FileFunction,Copper,L3,Inr*%
%TF.FilePolarity,Positive*%
%FSLAX46Y46*%
G04 Gerber Fmt 4.6, Leading zero omitted, Abs format (unit mm)*
G04 Created by KiCad (PCBNEW 7.0.11-2.fc38) date 2024-04-05 10:11:14*
%MOMM*%
%LPD*%
G01*
G04 APERTURE LIST*
G04 Aperture macros list*
%AMRoundRect*
0 Rectangle with rounded corners*
0 $1 Rounding radius*
0 $2 $3 $4 $5 $6 $7 $8 $9 X,Y pos of 4 corners*
0 Add a 4 corners polygon primitive as box body*
4,1,4,$2,$3,$4,$5,$6,$7,$8,$9,$2,$3,0*
0 Add four circle primitives for the rounded corners*
1,1,$1+$1,$2,$3*
1,1,$1+$1,$4,$5*
1,1,$1+$1,$6,$7*
1,1,$1+$1,$8,$9*
0 Add four rect primitives between the rounded corners*
20,1,$1+$1,$2,$3,$4,$5,0*
20,1,$1+$1,$4,$5,$6,$7,0*
20,1,$1+$1,$6,$7,$8,$9,0*
20,1,$1+$1,$8,$9,$2,$3,0*%
G04 Aperture macros list end*
%TA.AperFunction,ComponentPad*%
%ADD10R,2.000000X2.000000*%
%TD*%
%TA.AperFunction,ComponentPad*%
%ADD11O,2.000000X1.600000*%
%TD*%
%TA.AperFunction,ComponentPad*%
%ADD12RoundRect,0.250000X0.725000X-0.600000X0.725000X0.600000X-0.725000X0.600000X-0.725000X-0.600000X0*%
%TD*%
%TA.AperFunction,ComponentPad*%
%ADD13O,1.950000X1.700000*%
%TD*%
%TA.AperFunction,ComponentPad*%
%ADD14R,3.500000X3.500000*%
%TD*%
%TA.AperFunction,ComponentPad*%
%ADD15RoundRect,0.750000X0.750000X1.000000X-0.750000X1.000000X-0.750000X-1.000000X0.750000X-1.000000X0*%
%TD*%
%TA.AperFunction,ComponentPad*%
%ADD16RoundRect,0.875000X0.875000X0.875000X-0.875000X0.875000X-0.875000X-0.875000X0.875000X-0.875000X0*%
%TD*%
%TA.AperFunction,ViaPad*%
%ADD17C,0.500000*%
%TD*%
%TA.AperFunction,ViaPad*%
%ADD18C,0.600000*%
%TD*%
G04 APERTURE END LIST*
D10*
%TO.N,unconnected-(U2-~{RST}-Pad1)*%
%TO.C,U2*%
X84140000Y-88300000D03*
D11*
%TO.N,unconnected-(U2-A0-Pad2)*%
X84140000Y-90840000D03*
%TO.N,unconnected-(U2-D0-Pad3)*%
X84140000Y-93380000D03*
%TO.N,unconnected-(U2-SCK{slash}D5-Pad4)*%
X84140000Y-95920000D03*
%TO.N,unconnected-(U2-MISO{slash}D6-Pad5)*%
X84140000Y-98460000D03*
%TO.N,unconnected-(U2-MOSI{slash}D7-Pad6)*%
X84140000Y-101000000D03*
%TO.N,D1_Relay*%
X84140000Y-103540000D03*
%TO.N,unconnected-(U2-3V3-Pad8)*%
X84140000Y-106080000D03*
%TO.N,+5V*%
X107000000Y-106080000D03*
%TO.N,GND*%
X107000000Y-103540000D03*
%TO.N,D1_data*%
X107000000Y-101000000D03*
%TO.N,unconnected-(U2-D3-Pad12)*%
X107000000Y-98460000D03*
%TO.N,unconnected-(U2-SDA{slash}D2-Pad13)*%
X107000000Y-95920000D03*
%TO.N,unconnected-(U2-SCL{slash}D1-Pad14)*%
X107000000Y-93380000D03*
%TO.N,unconnected-(U2-RX-Pad15)*%
X107000000Y-90840000D03*
%TO.N,unconnected-(U2-TX-Pad16)*%
X107000000Y-88300000D03*
%TD*%
D12*
%TO.N,12V_switched*%
%TO.C,J1*%
X85975000Y-124000000D03*
D13*
%TO.N,/DATA_OUT*%
X85975000Y-121500000D03*
%TO.N,GND*%
X85975000Y-119000000D03*
%TD*%
D14*
%TO.N,+12V*%
%TO.C,J2*%
X95049999Y-122157500D03*
D15*
%TO.N,GND*%
X101049999Y-122157500D03*
D16*
%TO.N,N/C*%
X98049999Y-117457500D03*
%TD*%
D17*
%TO.N,GND*%
X98499999Y-125950000D03*
X82099999Y-113150000D03*
X95599999Y-97950000D03*
X108849999Y-111300000D03*
X108649999Y-126800000D03*
X91499999Y-112250000D03*
X89449999Y-97950000D03*
X102249999Y-112000000D03*
X94549999Y-127800000D03*
X108849999Y-112950000D03*
X86499999Y-105250000D03*
X108899999Y-114750000D03*
X104499999Y-114500000D03*
X102049999Y-118850000D03*
X91049999Y-97950000D03*
X82149999Y-118750000D03*
X89999999Y-101000000D03*
X88249999Y-117950000D03*
X84799999Y-127800000D03*
X101049999Y-127900000D03*
X106649999Y-126350000D03*
X82099999Y-102700000D03*
X104649999Y-121850000D03*
D18*
X92199999Y-108900000D03*
X86799999Y-112000000D03*
D17*
X108849999Y-124300000D03*
X94199999Y-97950000D03*
X98249999Y-97950000D03*
X102399999Y-127900000D03*
X82099999Y-109900000D03*
X82249999Y-125250000D03*
X87049999Y-116850000D03*
X108899999Y-103350000D03*
X106599999Y-117950000D03*
X92799999Y-97950000D03*
X104499999Y-126350000D03*
X102099999Y-97950000D03*
X82099999Y-111450000D03*
X108849999Y-107550000D03*
X94999999Y-126000000D03*
X106599999Y-120950000D03*
X88649999Y-121150000D03*
X87799999Y-127800000D03*
X107649999Y-127750000D03*
X108849999Y-120550000D03*
X90649999Y-127800000D03*
X82099999Y-114850000D03*
X103699999Y-127900000D03*
X101749999Y-99000000D03*
X98399999Y-127850000D03*
X95499999Y-113750000D03*
X108849999Y-116400000D03*
X108899999Y-97850000D03*
X87999999Y-102250000D03*
X82399999Y-126850000D03*
X86499999Y-107750000D03*
X106599999Y-109400000D03*
X101499999Y-125750000D03*
X105049999Y-127950000D03*
X82149999Y-101050000D03*
X82149999Y-98100000D03*
X87849999Y-97950000D03*
X89349999Y-127800000D03*
X101899999Y-115050000D03*
X108849999Y-123050000D03*
X100399999Y-107500000D03*
X108849999Y-117700000D03*
X84049999Y-111800000D03*
X85299999Y-110250000D03*
X106599999Y-115050000D03*
X108849999Y-125550000D03*
X82149999Y-104500000D03*
X86299999Y-127800000D03*
X82099999Y-106450000D03*
X84099999Y-108750000D03*
X87999999Y-100000000D03*
X91249999Y-102250000D03*
X99699999Y-127900000D03*
X108899999Y-101700000D03*
X82149999Y-99600000D03*
X91399999Y-125900000D03*
X103249999Y-97950000D03*
X104449999Y-118250000D03*
X108849999Y-109350000D03*
X97999999Y-106600000D03*
X88849999Y-123700000D03*
X83349999Y-127750000D03*
X99549999Y-97950000D03*
X108849999Y-121850000D03*
X92499999Y-100000000D03*
X108849999Y-100100000D03*
X106449999Y-127950000D03*
X86599999Y-97900000D03*
X82099999Y-108200000D03*
X96699999Y-109500000D03*
X87249999Y-109750000D03*
X108899999Y-105550000D03*
X88899999Y-125850000D03*
X91899999Y-127800000D03*
X93249999Y-127800000D03*
X82099999Y-120700000D03*
X98299999Y-122100000D03*
X95849999Y-127800000D03*
D18*
X88750000Y-105800000D03*
D17*
X82149999Y-117050000D03*
X108849999Y-119200000D03*
X104549999Y-119950000D03*
X93249999Y-107000000D03*
X104549999Y-124050000D03*
X99199999Y-109500000D03*
X101999999Y-116900000D03*
X97149999Y-127800000D03*
X82099999Y-122800000D03*
X104399999Y-97950000D03*
X96999999Y-97950000D03*
X106549999Y-112200000D03*
D18*
X100299999Y-112800000D03*
D17*
X97999999Y-108400000D03*
X106699999Y-123750000D03*
X94499999Y-106250000D03*
X100849999Y-97950000D03*
X104499999Y-115500000D03*
X90999999Y-110250000D03*
X89499999Y-104000000D03*
%TO.N,+5V*%
X96499999Y-112800000D03*
X101749999Y-100000000D03*
%TD*%
%TA.AperFunction,Conductor*%
%TO.N,GND*%
G36*
X83078490Y-97269685D02*
G01*
X83124245Y-97322489D01*
X83134189Y-97391647D01*
X83105164Y-97455203D01*
X83099132Y-97461681D01*
X82939954Y-97620858D01*
X82809432Y-97807265D01*
X82809431Y-97807267D01*
X82713261Y-98013502D01*
X82713258Y-98013511D01*
X82654366Y-98233302D01*
X82654364Y-98233313D01*
X82634532Y-98459998D01*
X82634532Y-98460001D01*
X82654364Y-98686686D01*
X82654366Y-98686697D01*
X82713258Y-98906488D01*
X82713261Y-98906497D01*
X82809431Y-99112732D01*
X82809432Y-99112734D01*
X82939954Y-99299141D01*
X83100858Y-99460045D01*
X83100861Y-99460047D01*
X83287266Y-99590568D01*
X83345275Y-99617618D01*
X83397714Y-99663791D01*
X83416866Y-99730984D01*
X83396650Y-99797865D01*
X83345275Y-99842382D01*
X83287267Y-99869431D01*
X83287265Y-99869432D01*
X83100858Y-99999954D01*
X82939954Y-100160858D01*
X82809432Y-100347265D01*
X82809431Y-100347267D01*
X82713261Y-100553502D01*
X82713258Y-100553511D01*
X82654366Y-100773302D01*
X82654364Y-100773313D01*
X82634532Y-100999998D01*
X82634532Y-101000001D01*
X82654364Y-101226686D01*
X82654366Y-101226697D01*
X82713258Y-101446488D01*
X82713261Y-101446497D01*
X82809431Y-101652732D01*
X82809432Y-101652734D01*
X82939954Y-101839141D01*
X83100858Y-102000045D01*
X83100861Y-102000047D01*
X83287266Y-102130568D01*
X83345275Y-102157618D01*
X83397714Y-102203791D01*
X83416866Y-102270984D01*
X83396650Y-102337865D01*
X83345275Y-102382382D01*
X83287267Y-102409431D01*
X83287265Y-102409432D01*
X83100858Y-102539954D01*
X82939954Y-102700858D01*
X82809432Y-102887265D01*
X82809431Y-102887267D01*
X82713261Y-103093502D01*
X82713258Y-103093511D01*
X82654366Y-103313302D01*
X82654364Y-103313313D01*
X82634532Y-103539998D01*
X82634532Y-103540001D01*
X82654364Y-103766686D01*
X82654366Y-103766697D01*
X82713258Y-103986488D01*
X82713261Y-103986497D01*
X82809431Y-104192732D01*
X82809432Y-104192734D01*
X82939954Y-104379141D01*
X83100858Y-104540045D01*
X83100861Y-104540047D01*
X83287266Y-104670568D01*
X83344681Y-104697341D01*
X83345275Y-104697618D01*
X83397714Y-104743791D01*
X83416866Y-104810984D01*
X83396650Y-104877865D01*
X83345275Y-104922382D01*
X83287267Y-104949431D01*
X83287265Y-104949432D01*
X83100858Y-105079954D01*
X82939954Y-105240858D01*
X82809432Y-105427265D01*
X82809431Y-105427267D01*
X82713261Y-105633502D01*
X82713258Y-105633511D01*
X82654366Y-105853302D01*
X82654364Y-105853313D01*
X82634532Y-106079998D01*
X82634532Y-106080001D01*
X82654364Y-106306686D01*
X82654366Y-106306697D01*
X82713258Y-106526488D01*
X82713261Y-106526497D01*
X82809431Y-106732732D01*
X82809432Y-106732734D01*
X82939954Y-106919141D01*
X83100858Y-107080045D01*
X83100861Y-107080047D01*
X83287266Y-107210568D01*
X83493504Y-107306739D01*
X83713308Y-107365635D01*
X83883214Y-107380499D01*
X83883215Y-107380500D01*
X83883216Y-107380500D01*
X84396785Y-107380500D01*
X84396785Y-107380499D01*
X84566692Y-107365635D01*
X84786496Y-107306739D01*
X84992734Y-107210568D01*
X85179139Y-107080047D01*
X85340047Y-106919139D01*
X85470568Y-106732734D01*
X85566739Y-106526496D01*
X85625635Y-106306692D01*
X85645468Y-106080000D01*
X85625635Y-105853308D01*
X85566739Y-105633504D01*
X85470568Y-105427266D01*
X85340047Y-105240861D01*
X85340045Y-105240858D01*
X85179141Y-105079954D01*
X84992734Y-104949432D01*
X84992728Y-104949429D01*
X84934725Y-104922382D01*
X84882285Y-104876210D01*
X84863133Y-104809017D01*
X84883348Y-104742135D01*
X84934725Y-104697618D01*
X84935319Y-104697341D01*
X84992734Y-104670568D01*
X85179139Y-104540047D01*
X85340047Y-104379139D01*
X85470568Y-104192734D01*
X85566739Y-103986496D01*
X85625635Y-103766692D01*
X85645468Y-103540000D01*
X85625635Y-103313308D01*
X85566739Y-103093504D01*
X85470568Y-102887266D01*
X85340047Y-102700861D01*
X85340045Y-102700858D01*
X85179141Y-102539954D01*
X84992734Y-102409432D01*
X84992728Y-102409429D01*
X84934725Y-102382382D01*
X84882285Y-102336210D01*
X84863133Y-102269017D01*
X84883348Y-102202135D01*
X84934725Y-102157618D01*
X84992734Y-102130568D01*
X85179139Y-102000047D01*
X85340047Y-101839139D01*
X85470568Y-101652734D01*
X85566739Y-101446496D01*
X85625635Y-101226692D01*
X85645468Y-101000000D01*
X85625635Y-100773308D01*
X85566739Y-100553504D01*
X85470568Y-100347266D01*
X85340047Y-100160861D01*
X85340045Y-100160858D01*
X85179189Y-100000002D01*
X100994750Y-100000002D01*
X101013684Y-100168056D01*
X101069544Y-100327694D01*
X101069546Y-100327697D01*
X101159517Y-100470884D01*
X101159522Y-100470890D01*
X101279108Y-100590476D01*
X101279114Y-100590481D01*
X101422301Y-100680452D01*
X101422304Y-100680454D01*
X101422308Y-100680455D01*
X101422309Y-100680456D01*
X101494912Y-100705860D01*
X101581942Y-100736314D01*
X101749996Y-100755249D01*
X101749999Y-100755249D01*
X101750002Y-100755249D01*
X101918055Y-100736314D01*
X101918058Y-100736313D01*
X102077689Y-100680456D01*
X102077691Y-100680454D01*
X102077693Y-100680454D01*
X102077696Y-100680452D01*
X102220883Y-100590481D01*
X102220884Y-100590480D01*
X102220889Y-100590477D01*
X102340476Y-100470890D01*
X102418155Y-100347266D01*
X102430451Y-100327697D01*
X102430453Y-100327694D01*
X102430453Y-100327692D01*
X102430455Y-100327690D01*
X102486312Y-100168059D01*
X102486312Y-100168058D01*
X102486313Y-100168056D01*
X102505248Y-100000002D01*
X102505248Y-99999997D01*
X102486313Y-99831943D01*
X102450641Y-99730000D01*
X102430455Y-99672310D01*
X102430454Y-99672309D01*
X102430453Y-99672305D01*
X102430451Y-99672302D01*
X102340480Y-99529115D01*
X102340475Y-99529109D01*
X102220889Y-99409523D01*
X102220883Y-99409518D01*
X102077696Y-99319547D01*
X102077693Y-99319545D01*
X101918055Y-99263685D01*
X101750002Y-99244751D01*
X101749996Y-99244751D01*
X101581942Y-99263685D01*
X101422304Y-99319545D01*
X101422301Y-99319547D01*
X101279114Y-99409518D01*
X101279108Y-99409523D01*
X101159522Y-99529109D01*
X101159517Y-99529115D01*
X101069546Y-99672302D01*
X101069544Y-99672305D01*
X101013684Y-99831943D01*
X100994750Y-99999997D01*
X100994750Y-100000002D01*
X85179189Y-100000002D01*
X85179141Y-99999954D01*
X84992734Y-99869432D01*
X84992728Y-99869429D01*
X84934725Y-99842382D01*
X84882285Y-99796210D01*
X84863133Y-99729017D01*
X84883348Y-99662135D01*
X84934725Y-99617618D01*
X84992734Y-99590568D01*
X85179139Y-99460047D01*
X85340047Y-99299139D01*
X85470568Y-99112734D01*
X85566739Y-98906496D01*
X85625635Y-98686692D01*
X85645468Y-98460000D01*
X85625635Y-98233308D01*
X85566739Y-98013504D01*
X85470568Y-97807266D01*
X85340047Y-97620861D01*
X85340045Y-97620858D01*
X85180868Y-97461681D01*
X85147383Y-97400358D01*
X85152367Y-97330666D01*
X85194239Y-97274733D01*
X85259703Y-97250316D01*
X85268549Y-97250000D01*
X105871451Y-97250000D01*
X105938490Y-97269685D01*
X105984245Y-97322489D01*
X105994189Y-97391647D01*
X105965164Y-97455203D01*
X105959132Y-97461681D01*
X105799954Y-97620858D01*
X105669432Y-97807265D01*
X105669431Y-97807267D01*
X105573261Y-98013502D01*
X105573258Y-98013511D01*
X105514366Y-98233302D01*
X105514364Y-98233313D01*
X105494532Y-98459998D01*
X105494532Y-98460001D01*
X105514364Y-98686686D01*
X105514366Y-98686697D01*
X105573258Y-98906488D01*
X105573261Y-98906497D01*
X105669431Y-99112732D01*
X105669432Y-99112734D01*
X105799954Y-99299141D01*
X105960858Y-99460045D01*
X105960861Y-99460047D01*
X106147266Y-99590568D01*
X106205275Y-99617618D01*
X106257714Y-99663791D01*
X106276866Y-99730984D01*
X106256650Y-99797865D01*
X106205275Y-99842382D01*
X106147267Y-99869431D01*
X106147265Y-99869432D01*
X105960858Y-99999954D01*
X105799954Y-100160858D01*
X105669432Y-100347265D01*
X105669431Y-100347267D01*
X105573261Y-100553502D01*
X105573258Y-100553511D01*
X105514366Y-100773302D01*
X105514364Y-100773313D01*
X105494532Y-100999998D01*
X105494532Y-101000001D01*
X105514364Y-101226686D01*
X105514366Y-101226697D01*
X105573258Y-101446488D01*
X105573261Y-101446497D01*
X105669431Y-101652732D01*
X105669432Y-101652734D01*
X105799954Y-101839141D01*
X105960858Y-102000045D01*
X105960861Y-102000047D01*
X106147266Y-102130568D01*
X106205865Y-102157893D01*
X106258305Y-102204065D01*
X106277457Y-102271258D01*
X106257242Y-102338139D01*
X106205867Y-102382657D01*
X106147515Y-102409867D01*
X105961179Y-102540342D01*
X105800342Y-102701179D01*
X105669865Y-102887517D01*
X105573734Y-103093673D01*
X105573730Y-103093682D01*
X105521127Y-103289999D01*
X105521128Y-103290000D01*
X106566314Y-103290000D01*
X106540507Y-103330156D01*
X106500000Y-103468111D01*
X106500000Y-103611889D01*
X106540507Y-103749844D01*
X106566314Y-103790000D01*
X105521128Y-103790000D01*
X105573730Y-103986317D01*
X105573734Y-103986326D01*
X105669865Y-104192482D01*
X105800342Y-104378820D01*
X105961179Y-104539657D01*
X106147518Y-104670134D01*
X106147520Y-104670135D01*
X106205865Y-104697342D01*
X106258305Y-104743514D01*
X106277457Y-104810707D01*
X106257242Y-104877589D01*
X106205867Y-104922105D01*
X106147268Y-104949431D01*
X106147264Y-104949433D01*
X105960858Y-105079954D01*
X105799954Y-105240858D01*
X105669432Y-105427265D01*
X105669431Y-105427267D01*
X105573261Y-105633502D01*
X105573258Y-105633511D01*
X105514366Y-105853302D01*
X105514364Y-105853313D01*
X105494532Y-106079998D01*
X105494532Y-106080001D01*
X105514364Y-106306686D01*
X105514366Y-106306697D01*
X105573258Y-106526488D01*
X105573261Y-106526497D01*
X105669431Y-106732732D01*
X105669432Y-106732734D01*
X105799954Y-106919141D01*
X105960858Y-107080045D01*
X105960861Y-107080047D01*
X106147266Y-107210568D01*
X106353504Y-107306739D01*
X106573308Y-107365635D01*
X106743214Y-107380499D01*
X106743215Y-107380500D01*
X106743216Y-107380500D01*
X107256785Y-107380500D01*
X107256785Y-107380499D01*
X107426692Y-107365635D01*
X107646496Y-107306739D01*
X107852734Y-107210568D01*
X108039139Y-107080047D01*
X108200047Y-106919139D01*
X108330568Y-106732734D01*
X108426739Y-106526496D01*
X108485635Y-106306692D01*
X108505468Y-106080000D01*
X108485635Y-105853308D01*
X108426739Y-105633504D01*
X108330568Y-105427266D01*
X108200047Y-105240861D01*
X108200045Y-105240858D01*
X108039141Y-105079954D01*
X107852734Y-104949432D01*
X107852732Y-104949431D01*
X107794725Y-104922382D01*
X107794132Y-104922105D01*
X107741694Y-104875934D01*
X107722542Y-104808740D01*
X107742758Y-104741859D01*
X107794134Y-104697341D01*
X107852484Y-104670132D01*
X108038820Y-104539657D01*
X108199657Y-104378820D01*
X108330134Y-104192482D01*
X108426265Y-103986326D01*
X108426269Y-103986317D01*
X108478872Y-103790000D01*
X107433686Y-103790000D01*
X107459493Y-103749844D01*
X107500000Y-103611889D01*
X107500000Y-103468111D01*
X107459493Y-103330156D01*
X107433686Y-103290000D01*
X108478872Y-103290000D01*
X108478872Y-103289999D01*
X108426269Y-103093682D01*
X108426265Y-103093673D01*
X108330134Y-102887517D01*
X108199657Y-102701179D01*
X108038820Y-102540342D01*
X107852482Y-102409865D01*
X107794133Y-102382657D01*
X107741694Y-102336484D01*
X107722542Y-102269291D01*
X107742758Y-102202410D01*
X107794129Y-102157895D01*
X107852734Y-102130568D01*
X108039139Y-102000047D01*
X108200047Y-101839139D01*
X108330568Y-101652734D01*
X108426739Y-101446496D01*
X108485635Y-101226692D01*
X108505468Y-101000000D01*
X108485635Y-100773308D01*
X108426739Y-100553504D01*
X108330568Y-100347266D01*
X108200047Y-100160861D01*
X108200045Y-100160858D01*
X108039141Y-99999954D01*
X107852734Y-99869432D01*
X107852728Y-99869429D01*
X107794725Y-99842382D01*
X107742285Y-99796210D01*
X107723133Y-99729017D01*
X107743348Y-99662135D01*
X107794725Y-99617618D01*
X107852734Y-99590568D01*
X108039139Y-99460047D01*
X108200047Y-99299139D01*
X108330568Y-99112734D01*
X108426739Y-98906496D01*
X108485635Y-98686692D01*
X108505468Y-98460000D01*
X108485635Y-98233308D01*
X108426739Y-98013504D01*
X108330568Y-97807266D01*
X108200047Y-97620861D01*
X108200045Y-97620858D01*
X108040868Y-97461681D01*
X108007383Y-97400358D01*
X108012367Y-97330666D01*
X108054239Y-97274733D01*
X108119703Y-97250316D01*
X108128549Y-97250000D01*
X109075500Y-97250000D01*
X109142539Y-97269685D01*
X109188294Y-97322489D01*
X109199500Y-97374000D01*
X109199500Y-126495572D01*
X109199184Y-126504418D01*
X109182834Y-126733017D01*
X109180316Y-126750529D01*
X109132543Y-126970137D01*
X109127559Y-126987112D01*
X109049019Y-127197688D01*
X109041669Y-127213782D01*
X108933959Y-127411036D01*
X108924394Y-127425919D01*
X108789710Y-127605836D01*
X108778124Y-127619207D01*
X108619207Y-127778124D01*
X108605836Y-127789710D01*
X108425919Y-127924394D01*
X108411036Y-127933959D01*
X108213782Y-128041669D01*
X108197688Y-128049019D01*
X107987112Y-128127559D01*
X107970137Y-128132543D01*
X107750529Y-128180316D01*
X107733017Y-128182834D01*
X107504418Y-128199184D01*
X107495572Y-128199500D01*
X83504428Y-128199500D01*
X83495582Y-128199184D01*
X83266982Y-128182834D01*
X83249470Y-128180316D01*
X83029862Y-128132543D01*
X83012887Y-128127559D01*
X82802311Y-128049019D01*
X82786217Y-128041669D01*
X82588963Y-127933959D01*
X82574080Y-127924394D01*
X82394163Y-127789710D01*
X82380792Y-127778124D01*
X82221875Y-127619207D01*
X82210289Y-127605836D01*
X82075605Y-127425919D01*
X82066040Y-127411036D01*
X81958330Y-127213782D01*
X81950983Y-127197694D01*
X81872437Y-126987103D01*
X81867458Y-126970144D01*
X81819683Y-126750529D01*
X81817165Y-126733017D01*
X81800816Y-126504418D01*
X81800500Y-126495572D01*
X81800500Y-121500000D01*
X84494341Y-121500000D01*
X84514936Y-121735403D01*
X84514938Y-121735413D01*
X84576094Y-121963655D01*
X84576096Y-121963659D01*
X84576097Y-121963663D01*
X84626031Y-122070746D01*
X84675964Y-122177828D01*
X84675965Y-122177830D01*
X84811505Y-122371402D01*
X84958704Y-122518601D01*
X84992189Y-122579924D01*
X84987205Y-122649616D01*
X84945333Y-122705549D01*
X84936120Y-122711820D01*
X84781347Y-122807285D01*
X84781343Y-122807288D01*
X84657289Y-122931342D01*
X84565187Y-123080663D01*
X84565186Y-123080666D01*
X84510001Y-123247203D01*
X84510001Y-123247204D01*
X84510000Y-123247204D01*
X84499500Y-123349983D01*
X84499500Y-124650001D01*
X84499501Y-124650018D01*
X84510000Y-124752796D01*
X84510001Y-124752799D01*
X84565185Y-124919331D01*
X84565186Y-124919334D01*
X84657288Y-125068656D01*
X84781344Y-125192712D01*
X84930666Y-125284814D01*
X85097203Y-125339999D01*
X85199991Y-125350500D01*
X86750008Y-125350499D01*
X86852797Y-125339999D01*
X87019334Y-125284814D01*
X87168656Y-125192712D01*
X87292712Y-125068656D01*
X87384814Y-124919334D01*
X87439999Y-124752797D01*
X87450500Y-124650009D01*
X87450499Y-123955370D01*
X92799499Y-123955370D01*
X92799500Y-123955376D01*
X92805907Y-124014983D01*
X92856201Y-124149828D01*
X92856205Y-124149835D01*
X92942451Y-124265044D01*
X92942454Y-124265047D01*
X93057663Y-124351293D01*
X93057670Y-124351297D01*
X93192516Y-124401591D01*
X93192515Y-124401591D01*
X93199443Y-124402335D01*
X93252126Y-124408000D01*
X96847871Y-124407999D01*
X96907482Y-124401591D01*
X97042330Y-124351296D01*
X97157545Y-124265046D01*
X97243795Y-124149831D01*
X97294090Y-124014983D01*
X97300499Y-123955373D01*
X97300498Y-120359628D01*
X97294090Y-120300017D01*
X97243795Y-120165169D01*
X97243794Y-120165168D01*
X97243792Y-120165164D01*
X97157546Y-120049955D01*
X97157543Y-120049952D01*
X97042334Y-119963706D01*
X97042327Y-119963702D01*
X96995060Y-119946073D01*
X96939126Y-119904202D01*
X96914709Y-119838738D01*
X96929561Y-119770465D01*
X96978966Y-119721059D01*
X97044971Y-119706066D01*
X97058052Y-119706761D01*
X97081348Y-119707999D01*
X97081368Y-119707999D01*
X97081377Y-119708000D01*
X97081385Y-119708000D01*
X99018613Y-119708000D01*
X99018621Y-119708000D01*
X99071240Y-119705205D01*
X99301125Y-119660745D01*
X99520189Y-119578074D01*
X99722131Y-119459570D01*
X99901141Y-119308642D01*
X100052069Y-119129632D01*
X100170573Y-118927690D01*
X100253244Y-118708626D01*
X100297704Y-118478741D01*
X100300499Y-118426122D01*
X100300499Y-116488878D01*
X100297704Y-116436259D01*
X100253244Y-116206374D01*
X100170573Y-115987310D01*
X100052069Y-115785368D01*
X100052064Y-115785361D01*
X99901142Y-115606358D01*
X99901140Y-115606356D01*
X99722137Y-115455434D01*
X99722130Y-115455429D01*
X99520188Y-115336925D01*
X99429831Y-115302826D01*
X99301125Y-115254255D01*
X99301120Y-115254254D01*
X99071242Y-115209795D01*
X99018651Y-115207001D01*
X99018628Y-115207000D01*
X99018621Y-115207000D01*
X97081377Y-115207000D01*
X97081369Y-115207000D01*
X97081346Y-115207001D01*
X97028755Y-115209795D01*
X97028754Y-115209795D01*
X96798877Y-115254254D01*
X96798875Y-115254254D01*
X96798873Y-115254255D01*
X96724932Y-115282159D01*
X96579809Y-115336925D01*
X96377867Y-115455429D01*
X96377860Y-115455434D01*
X96198857Y-115606356D01*
X96198855Y-115606358D01*
X96047933Y-115785361D01*
X96047928Y-115785368D01*
X95929424Y-115987310D01*
X95874658Y-116132433D01*
X95846754Y-116206374D01*
X95846753Y-116206376D01*
X95846753Y-116206378D01*
X95802294Y-116436255D01*
X95802294Y-116436256D01*
X95799500Y-116488847D01*
X95799499Y-116488886D01*
X95799499Y-118426113D01*
X95799500Y-118426152D01*
X95802294Y-118478743D01*
X95802294Y-118478744D01*
X95846753Y-118708621D01*
X95846754Y-118708626D01*
X95895325Y-118837332D01*
X95929424Y-118927689D01*
X96047928Y-119129631D01*
X96047933Y-119129638D01*
X96198855Y-119308641D01*
X96198857Y-119308643D01*
X96377860Y-119459565D01*
X96377867Y-119459570D01*
X96579809Y-119578074D01*
X96798873Y-119660745D01*
X96801516Y-119661256D01*
X96802536Y-119661782D01*
X96803949Y-119662183D01*
X96803867Y-119662470D01*
X96863597Y-119693314D01*
X96898492Y-119753846D01*
X96895121Y-119823634D01*
X96854555Y-119880521D01*
X96789673Y-119906446D01*
X96777968Y-119907000D01*
X93252128Y-119907000D01*
X93252122Y-119907001D01*
X93192515Y-119913408D01*
X93057670Y-119963702D01*
X93057663Y-119963706D01*
X92942454Y-120049952D01*
X92942451Y-120049955D01*
X92856205Y-120165164D01*
X92856201Y-120165171D01*
X92805907Y-120300017D01*
X92803118Y-120325964D01*
X92799500Y-120359623D01*
X92799499Y-120359635D01*
X92799499Y-123955370D01*
X87450499Y-123955370D01*
X87450499Y-123349992D01*
X87439999Y-123247203D01*
X87384814Y-123080666D01*
X87292712Y-122931344D01*
X87168656Y-122807288D01*
X87087658Y-122757328D01*
X87013879Y-122711821D01*
X86967155Y-122659873D01*
X86955932Y-122590910D01*
X86983776Y-122526828D01*
X86991295Y-122518601D01*
X87138495Y-122371401D01*
X87274035Y-122177830D01*
X87373903Y-121963663D01*
X87435063Y-121735408D01*
X87455659Y-121500000D01*
X87435063Y-121264592D01*
X87373903Y-121036337D01*
X87274035Y-120822171D01*
X87274034Y-120822169D01*
X87138494Y-120628597D01*
X86971402Y-120461505D01*
X86777830Y-120325965D01*
X86777828Y-120325964D01*
X86670746Y-120276031D01*
X86563663Y-120226097D01*
X86563659Y-120226096D01*
X86563655Y-120226094D01*
X86335413Y-120164938D01*
X86335403Y-120164936D01*
X86158967Y-120149500D01*
X86158966Y-120149500D01*
X85791034Y-120149500D01*
X85791033Y-120149500D01*
X85614596Y-120164936D01*
X85614586Y-120164938D01*
X85386344Y-120226094D01*
X85386335Y-120226098D01*
X85172171Y-120325964D01*
X85172169Y-120325965D01*
X84978597Y-120461505D01*
X84811506Y-120628597D01*
X84811501Y-120628604D01*
X84675967Y-120822165D01*
X84675965Y-120822169D01*
X84576098Y-121036335D01*
X84576094Y-121036344D01*
X84514938Y-121264586D01*
X84514936Y-121264596D01*
X84494341Y-121499999D01*
X84494341Y-121500000D01*
X81800500Y-121500000D01*
X81800500Y-112800002D01*
X95744750Y-112800002D01*
X95763684Y-112968056D01*
X95819544Y-113127694D01*
X95819546Y-113127697D01*
X95909517Y-113270884D01*
X95909522Y-113270890D01*
X96029108Y-113390476D01*
X96029114Y-113390481D01*
X96172301Y-113480452D01*
X96172304Y-113480454D01*
X96172308Y-113480455D01*
X96172309Y-113480456D01*
X96244912Y-113505860D01*
X96331942Y-113536314D01*
X96499996Y-113555249D01*
X96499999Y-113555249D01*
X96500002Y-113555249D01*
X96668055Y-113536314D01*
X96668058Y-113536313D01*
X96827689Y-113480456D01*
X96827691Y-113480454D01*
X96827693Y-113480454D01*
X96827696Y-113480452D01*
X96970883Y-113390481D01*
X96970884Y-113390480D01*
X96970889Y-113390477D01*
X97090476Y-113270890D01*
X97180451Y-113127697D01*
X97180453Y-113127694D01*
X97180453Y-113127692D01*
X97180455Y-113127690D01*
X97236312Y-112968059D01*
X97236312Y-112968058D01*
X97236313Y-112968056D01*
X97255248Y-112800002D01*
X97255248Y-112799997D01*
X97236313Y-112631943D01*
X97180453Y-112472305D01*
X97180451Y-112472302D01*
X97090480Y-112329115D01*
X97090475Y-112329109D01*
X96970889Y-112209523D01*
X96970883Y-112209518D01*
X96827696Y-112119547D01*
X96827693Y-112119545D01*
X96668055Y-112063685D01*
X96500002Y-112044751D01*
X96499996Y-112044751D01*
X96331942Y-112063685D01*
X96172304Y-112119545D01*
X96172301Y-112119547D01*
X96029114Y-112209518D01*
X96029108Y-112209523D01*
X95909522Y-112329109D01*
X95909517Y-112329115D01*
X95819546Y-112472302D01*
X95819544Y-112472305D01*
X95763684Y-112631943D01*
X95744750Y-112799997D01*
X95744750Y-112800002D01*
X81800500Y-112800002D01*
X81800500Y-97374000D01*
X81820185Y-97306961D01*
X81872989Y-97261206D01*
X81924500Y-97250000D01*
X83011451Y-97250000D01*
X83078490Y-97269685D01*
G37*
%TD.AperFunction*%
%TD*%
M02*
